<?xml version="1.0" encoding="UTF-8" standalone="no"?>
<svg
   width="700pt"
   height="700pt"
   version="1.1"
   viewBox="0 0 700 700"
   id="svg972"
   sodipodi:docname="noun-sun-1106873.svg"
   inkscape:version="1.1.2 (b8e25be8, 2022-02-05)"
   xmlns:inkscape="http://www.inkscape.org/namespaces/inkscape"
   xmlns:sodipodi="http://sodipodi.sourceforge.net/DTD/sodipodi-0.dtd"
   xmlns="http://www.w3.org/2000/svg"
   xmlns:svg="http://www.w3.org/2000/svg">
  <sodipodi:namedview
     id="namedview974"
     pagecolor="#ffffff"
     bordercolor="#666666"
     borderopacity="1.0"
     inkscape:pageshadow="2"
     inkscape:pageopacity="0.0"
     inkscape:pagecheckerboard="0"
     inkscape:document-units="pt"
     showgrid="false"
     inkscape:zoom="0.57706005"
     inkscape:cx="458.35784"
     inkscape:cy="676.706"
     inkscape:window-width="1098"
     inkscape:window-height="847"
     inkscape:window-x="171"
     inkscape:window-y="25"
     inkscape:window-maximized="0"
     inkscape:current-layer="svg972" />
  <defs
     id="defs890">
    <symbol
       id="v"
       overflow="visible">
      <path
         d="m19.547-1.1719c-1.0117 0.52344-2.0625 0.91406-3.1562 1.1719-1.0938 0.26953-2.2344 0.40625-3.4219 0.40625-3.543 0-6.3516-0.98828-8.4219-2.9688-2.0625-1.9766-3.0938-4.6602-3.0938-8.0469 0-3.4062 1.0312-6.0977 3.0938-8.0781 2.0703-1.9766 4.8789-2.9688 8.4219-2.9688 1.1875 0 2.3281 0.13672 3.4219 0.40625 1.0938 0.26172 2.1445 0.65625 3.1562 1.1875v4.3906c-1.0234-0.6875-2.0273-1.1914-3.0156-1.5156-0.98047-0.32031-2.0156-0.48438-3.1094-0.48438-1.9609 0-3.5 0.625-4.625 1.875-1.1172 1.25-1.6719 2.9805-1.6719 5.1875 0 2.1875 0.55469 3.9141 1.6719 5.1719 1.125 1.25 2.6641 1.875 4.625 1.875 1.0938 0 2.1289-0.16016 3.1094-0.48438 0.98828-0.32031 1.9922-0.82812 3.0156-1.5156z"
         id="path824" />
    </symbol>
    <symbol
       id="b"
       overflow="visible">
      <path
         d="m14.297-11.609c-0.44922-0.20703-0.89062-0.35938-1.3281-0.45312-0.4375-0.10156-0.88281-0.15625-1.3281-0.15625-1.3125 0-2.3242 0.42188-3.0312 1.2656-0.71094 0.83594-1.0625 2.0391-1.0625 3.6094v7.3438h-5.0938v-15.953h5.0938v2.625c0.65625-1.0508 1.4062-1.8164 2.25-2.2969 0.85156-0.47656 1.875-0.71875 3.0625-0.71875 0.17578 0 0.36328 0.011719 0.5625 0.03125 0.19531 0.011719 0.48438 0.042969 0.85938 0.09375z"
         id="path827" />
    </symbol>
    <symbol
       id="a"
       overflow="visible">
      <path
         d="m18.375-8.0156v1.4531h-11.922c0.125 1.1992 0.55469 2.0938 1.2969 2.6875 0.73828 0.59375 1.7734 0.89062 3.1094 0.89062 1.0703 0 2.1719-0.15625 3.2969-0.46875 1.125-0.32031 2.2812-0.80469 3.4688-1.4531v3.9375c-1.2109 0.46094-2.418 0.80469-3.625 1.0312-1.2109 0.22656-2.4141 0.34375-3.6094 0.34375-2.8984 0-5.1484-0.72656-6.75-2.1875-1.5938-1.4688-2.3906-3.5312-2.3906-6.1875 0-2.5938 0.78516-4.6328 2.3594-6.125 1.5703-1.5 3.7344-2.25 6.4844-2.25 2.5078 0 4.5156 0.75781 6.0156 2.2656 1.5078 1.5117 2.2656 3.5312 2.2656 6.0625zm-5.2344-1.7031c0-0.96875-0.28906-1.75-0.85938-2.3438-0.5625-0.59375-1.2969-0.89062-2.2031-0.89062-0.99219 0-1.7969 0.28125-2.4219 0.84375-0.61719 0.55469-0.99609 1.3516-1.1406 2.3906z"
         id="path830" />
    </symbol>
    <symbol
       id="e"
       overflow="visible">
      <path
         d="m9.5938-7.1719c-1.0625 0-1.8672 0.18359-2.4062 0.54688-0.53125 0.35547-0.79688 0.88281-0.79688 1.5781 0 0.64844 0.21094 1.1523 0.64062 1.5156 0.4375 0.36719 1.0391 0.54688 1.8125 0.54688 0.95703 0 1.7656-0.34375 2.4219-1.0312s0.98438-1.5469 0.98438-2.5781v-0.57812zm7.7969-1.9375v9.1094h-5.1406v-2.3594c-0.6875 0.96875-1.4609 1.6719-2.3125 2.1094-0.85547 0.4375-1.8906 0.65625-3.1094 0.65625-1.6562 0-3-0.47656-4.0312-1.4375-1.0312-0.96875-1.5469-2.2188-1.5469-3.75 0-1.875 0.64062-3.25 1.9219-4.125 1.2891-0.875 3.3164-1.3125 6.0781-1.3125h3v-0.39062c0-0.8125-0.32031-1.4062-0.95312-1.7812-0.63672-0.375-1.6328-0.5625-2.9844-0.5625-1.0859 0-2.1016 0.10938-3.0469 0.32812-0.9375 0.21875-1.8086 0.54688-2.6094 0.98438v-3.8906c1.082-0.25781 2.1758-0.45703 3.2812-0.59375 1.1016-0.14453 2.207-0.21875 3.3125-0.21875 2.875 0 4.9453 0.57031 6.2188 1.7031 1.2812 1.1367 1.9219 2.9805 1.9219 5.5312z"
         id="path833" />
    </symbol>
    <symbol
       id="d"
       overflow="visible">
      <path
         d="m8.0156-20.484v4.5312h5.2656v3.6406h-5.2656v6.7656c0 0.74219 0.14453 1.2461 0.4375 1.5156 0.30078 0.26172 0.89062 0.39062 1.7656 0.39062h2.6094v3.6406h-4.3594c-2.0234 0-3.4531-0.41406-4.2969-1.25-0.83594-0.84375-1.25-2.2734-1.25-4.2969v-6.7656h-2.5312v-3.6406h2.5312v-4.5312z"
         id="path836" />
    </symbol>
    <symbol
       id="j"
       overflow="visible">
      <path
         d="m13.297-13.625v-8.5312h5.1406v22.156h-5.1406v-2.3125c-0.69922 0.94922-1.4688 1.6406-2.3125 2.0781-0.84375 0.42578-1.8242 0.64062-2.9375 0.64062-1.9688 0-3.5859-0.77344-4.8438-2.3281-1.2617-1.5625-1.8906-3.5781-1.8906-6.0469 0-2.457 0.62891-4.4688 1.8906-6.0312 1.2578-1.5625 2.875-2.3438 4.8438-2.3438 1.1016 0 2.0781 0.22656 2.9219 0.67188 0.85156 0.4375 1.6289 1.1211 2.3281 2.0469zm-3.3594 10.328c1.0938 0 1.9258-0.39453 2.5-1.1875 0.57031-0.80078 0.85938-1.9609 0.85938-3.4844 0-1.5078-0.28906-2.6641-0.85938-3.4688-0.57422-0.80078-1.4062-1.2031-2.5-1.2031-1.0859 0-1.9141 0.40234-2.4844 1.2031-0.57422 0.80469-0.85938 1.9609-0.85938 3.4688 0 1.5234 0.28516 2.6836 0.85938 3.4844 0.57031 0.79297 1.3984 1.1875 2.4844 1.1875z"
         id="path839" />
    </symbol>
    <symbol
       id="i"
       overflow="visible">
      <path
         d="m10.938-3.2969c1.0938 0 1.9258-0.39453 2.5-1.1875 0.57031-0.80078 0.85938-1.9609 0.85938-3.4844 0-1.5078-0.28906-2.6641-0.85938-3.4688-0.57422-0.80078-1.4062-1.2031-2.5-1.2031s-1.9336 0.40234-2.5156 1.2031c-0.58594 0.80469-0.875 1.9609-0.875 3.4688 0 1.5117 0.28906 2.668 0.875 3.4688 0.58203 0.80469 1.4219 1.2031 2.5156 1.2031zm-3.3906-10.328c0.70703-0.92578 1.4883-1.6094 2.3438-2.0469 0.85156-0.44531 1.832-0.67188 2.9375-0.67188 1.9688 0 3.582 0.78125 4.8438 2.3438 1.2695 1.5625 1.9062 3.5742 1.9062 6.0312 0 2.4688-0.63672 4.4844-1.9062 6.0469-1.2617 1.5547-2.875 2.3281-4.8438 2.3281-1.1055 0-2.0859-0.21875-2.9375-0.65625-0.85547-0.4375-1.6367-1.125-2.3438-2.0625v2.3125h-5.0938v-22.156h5.0938z"
         id="path842" />
    </symbol>
    <symbol
       id="h"
       overflow="visible">
      <path
         d="m0.35938-15.953h5.0938l4.2969 10.828 3.6406-10.828h5.0938l-6.7031 17.469c-0.67969 1.7695-1.4648 3.0078-2.3594 3.7188-0.89844 0.70703-2.0781 1.0625-3.5469 1.0625h-2.9531v-3.3438h1.5938c0.86328 0 1.4922-0.14062 1.8906-0.42188 0.39453-0.27344 0.70312-0.76562 0.92188-1.4844l0.14062-0.4375z"
         id="path845" />
    </symbol>
    <symbol
       id="f"
       overflow="visible">
      <path
         d="m12.953-22.156v3.3438h-2.8281c-0.71875 0-1.2266 0.13281-1.5156 0.39062-0.28125 0.26172-0.42188 0.71484-0.42188 1.3594v1.1094h4.3594v3.6406h-4.3594v12.312h-5.0938v-12.312h-2.5312v-3.6406h2.5312v-1.1094c0-1.7383 0.48438-3.0195 1.4531-3.8438 0.96875-0.83203 2.4688-1.25 4.5-1.25z"
         id="path848" />
    </symbol>
    <symbol
       id="u"
       overflow="visible">
      <path
         d="m2.4531-15.953h5.0938v15.953h-5.0938zm0-6.2031h5.0938v4.1562h-5.0938z"
         id="path851" />
    </symbol>
    <symbol
       id="g"
       overflow="visible">
      <path
         d="m14.906-15.453v3.875c-1.0859-0.45703-2.1367-0.80078-3.1562-1.0312-1.0117-0.22656-1.9688-0.34375-2.875-0.34375-0.96875 0-1.6875 0.125-2.1562 0.375-0.46875 0.24219-0.70312 0.60938-0.70312 1.1094 0 0.40625 0.17578 0.71875 0.53125 0.9375 0.35156 0.21875 0.99219 0.38281 1.9219 0.48438l0.89062 0.14062c2.6133 0.32422 4.3672 0.86719 5.2656 1.625 0.90625 0.76172 1.3594 1.9531 1.3594 3.5781 0 1.6992-0.63281 2.9766-1.8906 3.8281-1.25 0.85547-3.1211 1.2812-5.6094 1.2812-1.0547 0-2.1406-0.085938-3.2656-0.25-1.125-0.15625-2.2812-0.39844-3.4688-0.73438v-3.875c1.0195 0.49219 2.0625 0.85938 3.125 1.1094 1.0703 0.24219 2.1602 0.35938 3.2656 0.35938 0.98828 0 1.7344-0.13281 2.2344-0.40625 0.50781-0.26953 0.76562-0.67578 0.76562-1.2188 0-0.45703-0.17969-0.79688-0.53125-1.0156-0.34375-0.22656-1.0312-0.40625-2.0625-0.53125l-0.89062-0.10938c-2.2734-0.28125-3.8672-0.80469-4.7812-1.5781-0.90625-0.76953-1.3594-1.9414-1.3594-3.5156 0-1.6875 0.57812-2.9375 1.7344-3.75 1.1562-0.82031 2.9297-1.2344 5.3281-1.2344 0.9375 0 1.9219 0.074219 2.9531 0.21875 1.0391 0.14844 2.1641 0.37109 3.375 0.67188z"
         id="path854" />
    </symbol>
    <symbol
       id="t"
       overflow="visible">
      <path
         d="m2.4531-22.156h5.0938v22.156h-5.0938z"
         id="path857" />
    </symbol>
    <symbol
       id="c"
       overflow="visible">
      <path
         d="m10.047-12.688c-1.1367 0-2 0.40625-2.5938 1.2188s-0.89062 1.9805-0.89062 3.5c0 1.5312 0.29688 2.7031 0.89062 3.5156s1.457 1.2188 2.5938 1.2188c1.1016 0 1.9453-0.40625 2.5312-1.2188 0.59375-0.8125 0.89062-1.9844 0.89062-3.5156 0-1.5195-0.29688-2.6875-0.89062-3.5-0.58594-0.8125-1.4297-1.2188-2.5312-1.2188zm0-3.6562c2.7383 0 4.8789 0.74609 6.4219 2.2344 1.5391 1.4805 2.3125 3.5273 2.3125 6.1406 0 2.625-0.77344 4.6797-2.3125 6.1562-1.543 1.4805-3.6836 2.2188-6.4219 2.2188-2.7617 0-4.918-0.73828-6.4688-2.2188-1.5547-1.4766-2.3281-3.5312-2.3281-6.1562 0-2.6133 0.77344-4.6602 2.3281-6.1406 1.5508-1.4883 3.707-2.2344 6.4688-2.2344z"
         id="path860" />
    </symbol>
    <symbol
       id="s"
       overflow="visible">
      <path
         d="m0.4375-15.953h5.1094l3.9688 11.031 3.9531-11.031h5.125l-6.2812 15.953h-5.6094z"
         id="path863" />
    </symbol>
    <symbol
       id="r"
       overflow="visible">
      <path
         d="m17.234-13.297c0.64453-0.98828 1.4102-1.7422 2.2969-2.2656 0.89453-0.51953 1.875-0.78125 2.9375-0.78125 1.832 0 3.2266 0.57031 4.1875 1.7031 0.95703 1.125 1.4375 2.7656 1.4375 4.9219v9.7188h-5.125v-8.3125-0.39062c0.007812-0.13281 0.015625-0.32031 0.015625-0.5625 0-1.1328-0.16797-1.9531-0.5-2.4531-0.32422-0.50781-0.85938-0.76562-1.6094-0.76562-0.96875 0-1.7188 0.40234-2.25 1.2031-0.52344 0.79297-0.79297 1.9453-0.8125 3.4531v7.8281h-5.125v-8.3125c0-1.7695-0.15234-2.9062-0.45312-3.4062-0.30469-0.50781-0.84375-0.76562-1.625-0.76562-0.98047 0-1.7344 0.40234-2.2656 1.2031-0.53125 0.80469-0.79688 1.9492-0.79688 3.4375v7.8438h-5.125v-15.953h5.125v2.3281c0.625-0.89453 1.3438-1.5703 2.1562-2.0312 0.8125-0.45703 1.707-0.6875 2.6875-0.6875 1.1016 0 2.0781 0.26562 2.9219 0.79688s1.4844 1.2812 1.9219 2.25z"
         id="path866" />
    </symbol>
    <symbol
       id="q"
       overflow="visible">
      <path
         d="m18.484-9.7188v9.7188h-5.125v-7.4062c0-1.3945-0.03125-2.3516-0.09375-2.875-0.0625-0.51953-0.16797-0.90625-0.3125-1.1562-0.19922-0.33203-0.46875-0.58594-0.8125-0.76562-0.34375-0.1875-0.73438-0.28125-1.1719-0.28125-1.0625 0-1.9023 0.41406-2.5156 1.2344-0.60547 0.8125-0.90625 1.9492-0.90625 3.4062v7.8438h-5.0938v-22.156h5.0938v8.5312c0.76953-0.92578 1.5859-1.6094 2.4531-2.0469 0.86328-0.44531 1.8164-0.67188 2.8594-0.67188 1.8438 0 3.2383 0.57031 4.1875 1.7031 0.95703 1.125 1.4375 2.7656 1.4375 4.9219z"
         id="path869" />
    </symbol>
    <symbol
       id="p"
       overflow="visible">
      <path
         d="m2.6719-21.266h6.125l7.7344 14.578v-14.578h5.2031v21.266h-6.125l-7.7344-14.594v14.594h-5.2031z"
         id="path872" />
    </symbol>
    <symbol
       id="o"
       overflow="visible">
      <path
         d="m2.2812-6.2031v-9.75h5.125v1.5938c0 0.86719-0.007812 1.9531-0.015625 3.2656-0.011719 1.3047-0.015625 2.1719-0.015625 2.6094 0 1.2812 0.03125 2.2031 0.09375 2.7656 0.070312 0.5625 0.1875 0.97656 0.34375 1.2344 0.21875 0.33594 0.49219 0.58984 0.82812 0.76562 0.33203 0.17969 0.71875 0.26562 1.1562 0.26562 1.0625 0 1.8945-0.40625 2.5-1.2188 0.61328-0.8125 0.92188-1.9453 0.92188-3.4062v-7.875h5.0938v15.953h-5.0938v-2.3125c-0.77344 0.9375-1.5898 1.625-2.4531 2.0625-0.85547 0.4375-1.7969 0.65625-2.8281 0.65625-1.8438 0-3.25-0.5625-4.2188-1.6875-0.96094-1.1328-1.4375-2.7734-1.4375-4.9219z"
         id="path875" />
    </symbol>
    <symbol
       id="n"
       overflow="visible">
      <path
         d="m18.484-9.7188v9.7188h-5.125v-7.4375c0-1.375-0.03125-2.3203-0.09375-2.8438-0.0625-0.51953-0.16797-0.90625-0.3125-1.1562-0.19922-0.33203-0.46875-0.58594-0.8125-0.76562-0.34375-0.1875-0.73438-0.28125-1.1719-0.28125-1.0625 0-1.9023 0.41406-2.5156 1.2344-0.60547 0.8125-0.90625 1.9492-0.90625 3.4062v7.8438h-5.0938v-15.953h5.0938v2.3281c0.76953-0.92578 1.5859-1.6094 2.4531-2.0469 0.86328-0.44531 1.8164-0.67188 2.8594-0.67188 1.8438 0 3.2383 0.57031 4.1875 1.7031 0.95703 1.125 1.4375 2.7656 1.4375 4.9219z"
         id="path878" />
    </symbol>
    <symbol
       id="m"
       overflow="visible">
      <path
         d="m2.6719-21.266h9.1094c2.707 0 4.7852 0.60547 6.2344 1.8125 1.4453 1.1992 2.1719 2.9062 2.1719 5.125 0 2.2305-0.72656 3.9492-2.1719 5.1562-1.4492 1.1992-3.5273 1.7969-6.2344 1.7969h-3.625v7.375h-5.4844zm5.4844 3.9688v5.9375h3.0469c1.0625 0 1.8789-0.25391 2.4531-0.76562 0.58203-0.51953 0.875-1.2539 0.875-2.2031 0-0.94531-0.29297-1.6758-0.875-2.1875-0.57422-0.51953-1.3906-0.78125-2.4531-0.78125z"
         id="path881" />
    </symbol>
    <symbol
       id="l"
       overflow="visible">
      <path
         d="m2.4531-15.953h5.0938v15.672c0 2.1328-0.51562 3.7656-1.5469 4.8906-1.0234 1.125-2.5078 1.6875-4.4531 1.6875h-2.5156v-3.3438h0.89062c0.96875 0 1.6289-0.21875 1.9844-0.65625 0.36328-0.4375 0.54688-1.2969 0.54688-2.5781zm0-6.2031h5.0938v4.1562h-5.0938z"
         id="path884" />
    </symbol>
    <symbol
       id="k"
       overflow="visible">
      <path
         d="m15.344-15.453v4.1562c-0.69922-0.46875-1.3984-0.81641-2.0938-1.0469-0.69922-0.22656-1.4219-0.34375-2.1719-0.34375-1.4297 0-2.5391 0.41797-3.3281 1.25-0.79297 0.82422-1.1875 1.9805-1.1875 3.4688 0 1.5 0.39453 2.668 1.1875 3.5 0.78906 0.82422 1.8984 1.2344 3.3281 1.2344 0.80078 0 1.5547-0.11719 2.2656-0.35938 0.71875-0.23828 1.3828-0.58594 2-1.0469v4.1719c-0.80469 0.29297-1.6172 0.50781-2.4375 0.65625-0.8125 0.14453-1.6367 0.21875-2.4688 0.21875-2.875 0-5.125-0.73438-6.75-2.2031-1.625-1.4766-2.4375-3.5352-2.4375-6.1719 0-2.625 0.8125-4.6758 2.4375-6.1562 1.625-1.4766 3.875-2.2188 6.75-2.2188 0.83203 0 1.6562 0.078125 2.4688 0.23438 0.8125 0.14844 1.625 0.36719 2.4375 0.65625z"
         id="path887" />
    </symbol>
  </defs>
  <path
     d="m 604.46,314.14 c -0.16797,-0.73047 -4.4219,-18.082 -16.93,-35.84 -16.742,-23.754 -40.32,-36.664 -68.18,-37.34 h -0.0977 c -0.14062,0 -0.28125,0.0234 -0.41406,0.0391 -4.9453,-21.602 -13.996,-41.984 -26.773,-60.195 0.34375,-0.39063 0.61719,-0.85156 0.78906,-1.375 0.12109,-0.38672 12.863,-39.234 35.305,-49.012 7.1641,-3.1211 14.398,-2.8828 22.121,0.73047 1.9062,0.89844 4.1836,0.13281 5.1875,-1.7148 0.99609,-1.8555 0.36719,-4.1758 -1.4219,-5.2656 -0.63672,-0.39062 -15.918,-9.6602 -37.316,-13.359 -28.625,-4.9531 -54.43,2.5977 -74.602,21.828 -0.12891,0.12109 -0.22656,0.25781 -0.33984,0.38672 -16.262,-10.195 -34.062,-17.562 -52.77,-21.852 0.0156,-0.16406 0.0469,-0.33984 0.0391,-0.50781 -0.67578,-27.866998 -13.59,-51.437998 -37.34,-68.179998 -17.75,-12.52 -35.109,-16.758 -35.84,-16.934 -2.043,-0.49609 -4.125,0.69922 -4.7383,2.7227 -0.60156,2.0195 0.47266,4.1602 2.457,4.8711 8.0078,2.9062 13.293,7.8516 16.16,15.121 8.9531,22.738 -9.4844,59.265998 -9.6758,59.640998 -0.24609,0.48828 -0.38672,1.0078 -0.42188,1.5234 -21.91,3.8516 -42.711,11.863 -61.484,23.648 -0.10938,-0.12891 -0.20312,-0.26172 -0.33984,-0.38672 -20.184,-19.215 -45.988,-26.746 -74.613,-21.781 -21.402,3.7148 -36.676,12.984 -37.309,13.375 -1.8008,1.1016 -2.4219,3.418 -1.418,5.2734 0.99609,1.8555 3.2734,2.5977 5.1797,1.7148 7.7188,-3.6172 14.949,-3.8555 22.113,-0.74609 22.41,9.7344 35.215,48.609 35.34,48.996 0.17578,0.53516 0.46094,1.0039 0.8125,1.3945 -6.9023,9.875 -12.637,20.316 -17.238,31.137 -0.25781,0.60547 -0.50781,1.207 -0.75781,1.8203 -0.20312,0.48828 -0.40234,0.97266 -0.60156,1.4648 -3.3359,8.2656 -6.0664,16.848 -8.1133,25.684 -0.14453,-0.0156 -0.29687,-0.0469 -0.44922,-0.0469 h -0.0977 c -27.859,0.67578 -51.438,13.586 -68.18,37.34 -12.519999,17.758 -16.765999,35.105 -16.933999,35.84 -0.49609,2.0547 0.69922,4.125 2.7227,4.7305 0.375,0.12109 0.76563,0.16797 1.1367,0.16797 1.632799,0 3.156199,-1.0156 3.738299,-2.6211 2.8984,-8.0078 7.8516,-13.293 15.113,-16.152 22.734,-8.9609 59.266,9.4844 59.641,9.6719 0.49609,0.25 1.0195,0.38672 1.5508,0.42188 2.1172,11.918 5.4648,23.414 9.8867,34.363 0.19922,0.5 0.40234,0.99609 0.61328,1.5 0.24609,0.58203 0.48438,1.1719 0.73438,1.75 3.4844,8.1953 7.6133,16.172 12.414,23.852 -0.14063,0.11719 -0.29297,0.22266 -0.42188,0.36328 -19.215,20.188 -26.75,45.984 -21.781,74.621 3.7148,21.398 12.984,36.668 13.375,37.309 0.74609,1.2148 2.0547,1.8906 3.3906,1.8906 0.63672,0 1.2852,-0.15234 1.8789,-0.47656 1.8555,-0.99609 2.6094,-3.2773 1.7148,-5.1875 -3.6094,-7.707 -3.8516,-14.949 -0.74219,-22.109 9.7422,-22.41 48.609,-35.215 48.996,-35.344 0.52344,-0.16406 0.99219,-0.4375 1.3828,-0.77734 18.188,12.738 38.539,21.77 60.113,26.711 -0.0156,0.16797 -0.0391,0.33984 -0.0391,0.51172 0.67578,27.859 13.586,51.438 37.34,68.18 17.75,12.52 35.109,16.766 35.84,16.934 0.31641,0.082 0.61719,0.10938 0.92578,0.10938 1.7148,0 3.2891,-1.1133 3.8047,-2.8281 0.60547,-2.0234 -0.47266,-4.1602 -2.457,-4.875 -8.0078,-2.9062 -13.289,-7.8477 -16.16,-15.113 -8.9492,-22.734 9.4922,-59.266 9.6758,-59.633 0.25,-0.49609 0.38672,-1.0156 0.42188,-1.5352 21.91,-3.8555 42.719,-11.863 61.484,-23.648 0.10938,0.12891 0.20312,0.27344 0.33984,0.38672 16.152,15.383 35.887,23.273 57.801,23.273 5.4727,0 11.09,-0.49609 16.816,-1.4883 21.398,-3.7148 36.668,-12.992 37.309,-13.383 1.8008,-1.0977 2.4219,-3.4141 1.4219,-5.2656 -1.0039,-1.8477 -3.2773,-2.6016 -5.1875,-1.7109 -7.7188,3.6094 -14.949,3.8516 -22.113,0.73438 -22.41,-9.7344 -35.211,-48.602 -35.34,-48.996 -0.16797,-0.52344 -0.4375,-0.99219 -0.78906,-1.375 14.441,-20.598 24.113,-43.973 28.465,-68.746 0.51953,-0.0352 1.043,-0.17578 1.5352,-0.42188 0.36719,-0.1875 36.902,-18.633 59.633,-9.6719 7.2617,2.8516 12.211,8.1445 15.113,16.152 0.58203,1.6055 2.1016,2.6211 3.7344,2.6211 0.37891,0 0.76953,-0.0508 1.1445,-0.16797 2.0078,-0.61719 3.2109,-2.6875 2.7148,-4.7422 z M 179.05,252.238 c -1.0195,6.3242 -1.582,12.793 -1.9141,19.324 -0.12891,2.0117 -0.20312,4.0234 -0.25781,6.0547 -0.0117,0.80078 -0.0977,1.582 -0.0977,2.3867 0,0.19141 0.0156,0.37891 0.0156,0.57812 0.0234,6.9844 0.44922,13.879 1.2852,20.645 -10.219,-4.668 -40.82,-16.965 -62.719,-8.3594 -1.0664,0.41406 -2.082,0.89062 -3.0859,1.3984 -0.11719,0.0586 -0.23438,0.10547 -0.35156,0.15625 1.9883,-3.7695 4.375,-7.7656 7.1992,-11.754 15.18,-21.422 35.512,-32.73 60.438,-33.691 -0.18359,1.082 -0.33203,2.1758 -0.51172,3.2617 z m 315.93,-134.8 c 6.4531,-0.37891 13.152,-0.0469 20.129,1.1445 4.8164,0.82422 9.332,1.9648 13.41,3.2188 -1.1914,0.36719 -2.3633,0.8125 -3.5352,1.3281 -21.559,9.3867 -34.48,39.703 -38.418,50.25 -1.6289,-2.0703 -3.3477,-4.0781 -5.0742,-6.0859 -2.8867,-3.3594 -5.8633,-6.6562 -9.0312,-9.8164 -7.4336,-7.4336 -15.434,-14.105 -23.898,-19.98 13.375,-12.359 28.93,-19.035 46.418,-20.059 z M 337.15,45.364 c -0.24609,-0.625 -0.54297,-1.2031 -0.82422,-1.8008 -0.25,-0.54688 -0.47266,-1.1133 -0.74609,-1.6406 3.7695,1.9883 7.7695,4.375 11.766,7.1992 21.402,15.172 32.715,35.5 33.688,60.414 -3.8633,-0.69531 -7.7773,-1.2188 -11.707,-1.6562 -6.375,-0.70703 -12.809,-1.1094 -19.32,-1.1094 -0.76953,0 -1.5273,0.0625 -2.2969,0.0703 -6.3633,0.0859 -12.684,0.46094 -18.91,1.2148 4.6758,-10.245998 16.961,-40.811998 8.3516,-62.690998 z m -132.42,109.21 c -6.375,-11.574 -15.789,-24.43 -28.152,-30.531 -0.54297,-0.26953 -1.0664,-0.58203 -1.6172,-0.82422 -1.1367,-0.48828 -2.2852,-0.92187 -3.4375,-1.2891 20.633,-6.2891 52.609,-9.5625 79.863,15.617 -0.21094,0.14062 -0.39844,0.31641 -0.60547,0.46094 -8.2305,5.7734 -16.035,12.273 -23.293,19.535 -4.8359,4.8398 -9.2969,9.918 -13.441,15.168 -0.20312,0.25781 -0.43359,0.50781 -0.63672,0.76953 -1.5273,-4.1055 -4.4453,-11.211 -8.6797,-18.906 z m -11.492,300.48 c -0.50781,1.1719 -0.94922,2.3516 -1.3242,3.5273 -0.16406,-0.53125 -0.30469,-1.125 -0.46094,-1.668 -1.0664,-3.6406 -2.0547,-7.543 -2.7656,-11.738 -4.4141,-25.871 1.9531,-48.254 18.895,-66.57 5.8281,8.4102 12.484,16.422 19.973,23.91 4.1758,4.1719 8.5703,8.0391 13.078,11.727 0.94922,0.78125 1.8672,1.6055 2.8281,2.3555 -10.539,3.9531 -40.844,16.898 -50.223,38.457 z m 169.64,59.582 c 0.45312,1.1602 0.96094,2.2734 1.5156,3.3477 -3.0664,-1.6406 -6.3008,-3.5703 -9.5547,-5.7695 -16.91,-11.398 -34.633,-30.672 -35.859,-61.758 9.1055,1.6289 18.391,2.5195 27.801,2.6953 1.0859,0.0156 2.1523,0.0703 3.2305,0.0703 4.0703,0 8.1133,-0.17578 12.129,-0.45312 3.0469,-0.21094 6.0859,-0.46094 9.0938,-0.82813 -4.6758,10.242 -16.965,40.812 -8.3555,62.695 z m 162.2,-77.871 c 1.1367,0.5 2.2852,0.92578 3.4375,1.2969 -9.3867,2.8594 -21.133,5.0625 -33.711,4.2773 -15.055,-0.9375 -31.301,-6.1836 -46.152,-19.898 8.457,-5.8789 16.457,-12.555 23.895,-19.996 3.1562,-3.1562 6.125,-6.4453 9,-9.8008 1.7344,-2.0117 3.4648,-4.0234 5.0938,-6.1133 3.9336,10.551 16.871,40.863 38.438,50.234 z m -175.06,8.5078 c -1.2617,0 -2.4922,-0.11719 -3.7461,-0.14062 -66.504,-1.4922 -123.46,-42.375 -148.26,-100.26 -0.23828,-0.55859 -0.47656,-1.1211 -0.71094,-1.6875 -0.19141,-0.47266 -0.38672,-0.94531 -0.58203,-1.418 -7.9219,-19.758 -11.895,-40.746 -11.895,-61.738 0,-20.996 3.9609,-41.984 11.883,-61.746 0.17969,-0.44922 0.36719,-0.90234 0.55469,-1.3477 0.24609,-0.59375 0.49609,-1.1914 0.74609,-1.7773 0.4375,-1.0391 0.88672,-2.0664 1.3516,-3.0977 25.469,-56.25 81.566,-95.695 146.87,-97.176 1.2656,-0.0273 2.5156,-0.14062 3.7812,-0.14062 91.133,0 165.27,74.148 165.27,165.28 0.004,91.121 -74.129,165.25 -165.26,165.25 z m 234.64,-152.41 c -3.8789,-1.5273 -8.0312,-2.3672 -12.289,-2.7422 -19.793,-1.7344 -41.977,7.2383 -50.41,11.082 0.85156,-6.9961 1.2852,-14.094 1.2852,-21.258 0,-10.504 -0.9375,-20.859 -2.7656,-30.98 24.914,0.97266 45.25,12.277 60.414,33.691 2.8242,3.9883 5.2148,7.9844 7.2031,11.754 -1.1016,-0.55859 -2.2539,-1.0859 -3.4375,-1.5469 z"
     id="path892"
     style="fill:#ffffff" />
</svg>
