<?xml version="1.0" encoding="UTF-8" standalone="no"?>
<svg
   version="1.1"
   viewBox="-5 -10 110 110"
   id="svg2"
   sodipodi:docname="noun-copy-7332464a.svg"
   width="110"
   height="110"
   inkscape:version="1.3.2 (091e20e, 2023-11-25)"
   xmlns:inkscape="http://www.inkscape.org/namespaces/inkscape"
   xmlns:sodipodi="http://sodipodi.sourceforge.net/DTD/sodipodi-0.dtd"
   xmlns="http://www.w3.org/2000/svg"
   xmlns:svg="http://www.w3.org/2000/svg">
  <defs
     id="defs2" />
  <sodipodi:namedview
     id="namedview2"
     pagecolor="#ffffff"
     bordercolor="#666666"
     borderopacity="1.0"
     inkscape:showpageshadow="2"
     inkscape:pageopacity="0.0"
     inkscape:pagecheckerboard="0"
     inkscape:deskcolor="#d1d1d1"
     inkscape:zoom="1.7481481"
     inkscape:cx="110.40255"
     inkscape:cy="61.493646"
     inkscape:window-width="1176"
     inkscape:window-height="671"
     inkscape:window-x="217"
     inkscape:window-y="25"
     inkscape:window-maximized="0"
     inkscape:current-layer="svg2" />
  <path
     d="M 75.50405,79.67375 V 82.88075 C 75.50405,84.95105 74.67983,86.93935 73.21495,88.40415 C 71.75015,89.86895 69.76575,90.69325 67.69155,90.69325 H 18.84755 C 16.77725,90.69325 14.78895,89.86903 13.32415,88.40415 C 11.85935,86.93935 11.03505,84.95495 11.03505,82.88075 V 18.13875 C 11.03505,16.06845 11.85927,14.08015 13.32415,12.61535 C 14.78903,11.15055 16.77335,10.32625 18.84755,10.32625 H 24.49595 V 7.11925 C 24.49595,5.04895 25.32017,3.06065 26.78505,1.59585 C 28.24985,0.13105 30.23425,-0.69325 32.30845,-0.69325 H 81.15245 C 83.22275,-0.69325 85.21105,0.13097 86.67585,1.59585 C 88.14065,3.06065 88.96495,5.04895 88.96495,7.11925 V 71.86125 C 88.96495,73.93155 88.14073,75.91985 86.67585,77.38465 C 85.21105,78.84945 83.22665,79.67375 81.15245,79.67375 Z M 67.69545,14.23575 H 18.85145 C 17.81625,14.23575 16.82415,14.64591 16.08975,15.38025 C 15.35928,16.11072 14.94525,17.10685 14.94525,18.14195 V 82.88395 C 14.94525,83.91915 15.35541,84.91125 16.08975,85.64565 C 16.82022,86.37612 17.81635,86.79015 18.85145,86.79015 H 67.69545 C 68.73065,86.79015 69.72275,86.37999 70.45715,85.64565 C 71.18762,84.91518 71.60165,83.91905 71.60165,82.88395 V 18.14195 C 71.60165,17.10675 71.19149,16.11465 70.45715,15.38025 C 69.72668,14.64978 68.73055,14.23575 67.69545,14.23575 Z M 75.50405,75.77075 H 81.15245 C 82.18765,75.77075 83.17975,75.36059 83.91415,74.62625 C 84.64462,73.89578 85.05865,72.89965 85.05865,71.86455 V 7.12255 C 85.05865,6.08735 84.64849,5.09525 83.91415,4.36085 C 83.18368,3.63038 82.18755,3.21635 81.15245,3.21635 H 32.30845 C 31.27325,3.21635 30.28115,3.62651 29.54675,4.36085 C 28.81628,5.09132 28.40225,6.08745 28.40225,7.12255 V 10.32955 H 67.69125 C 69.76155,10.32955 71.74985,11.15377 73.21465,12.61865 C 74.67945,14.08345 75.50375,16.06785 75.50375,18.14205 Z"
     fill-rule="evenodd"
     id="path1"
     style="fill:#ececec;stroke:#ececec;stroke-opacity:1;fill-opacity:1" />
</svg>
