<?xml version="1.0" encoding="UTF-8" standalone="no"?>
<svg
   width="200px"
   height="200px"
   version="1.1"
   viewBox="0 0 700 700"
   id="svg1288"
   sodipodi:docname="noun-bricks-2025277.svg"
   inkscape:version="1.1.2 (b8e25be8, 2022-02-05)"
   xmlns:inkscape="http://www.inkscape.org/namespaces/inkscape"
   xmlns:sodipodi="http://sodipodi.sourceforge.net/DTD/sodipodi-0.dtd"
   xmlns="http://www.w3.org/2000/svg"
   xmlns:svg="http://www.w3.org/2000/svg">
  <sodipodi:namedview
     id="namedview1290"
     pagecolor="#ffffff"
     bordercolor="#666666"
     borderopacity="1.0"
     inkscape:pageshadow="2"
     inkscape:pageopacity="0.0"
     inkscape:pagecheckerboard="0"
     inkscape:document-units="pt"
     showgrid="false"
     inkscape:zoom="0.36103202"
     inkscape:cx="740.9315"
     inkscape:cy="602.43963"
     inkscape:window-width="1098"
     inkscape:window-height="847"
     inkscape:window-x="171"
     inkscape:window-y="25"
     inkscape:window-maximized="0"
     inkscape:current-layer="svg1288" />
  <defs
     id="defs1208">
    <symbol
       id="t"
       overflow="visible">
      <path
         d="m18.766-1.125c-0.96875 0.5-1.9805 0.875-3.0312 1.125-1.043 0.25781-2.1367 0.39062-3.2812 0.39062-3.3984 0-6.0898-0.94531-8.0781-2.8438-1.9922-1.9062-2.9844-4.4844-2.9844-7.7344 0-3.2578 0.99219-5.8359 2.9844-7.7344 1.9883-1.9062 4.6797-2.8594 8.0781-2.8594 1.1445 0 2.2383 0.13281 3.2812 0.39062 1.0508 0.25 2.0625 0.625 3.0312 1.125v4.2188c-0.98047-0.65625-1.9453-1.1406-2.8906-1.4531-0.94922-0.3125-1.9492-0.46875-3-0.46875-1.875 0-3.3516 0.60547-4.4219 1.8125-1.0742 1.1992-1.6094 2.8555-1.6094 4.9688 0 2.1055 0.53516 3.7617 1.6094 4.9688 1.0703 1.1992 2.5469 1.7969 4.4219 1.7969 1.0508 0 2.0508-0.14844 3-0.45312 0.94531-0.3125 1.9102-0.80078 2.8906-1.4688z"
         id="path1148" />
    </symbol>
    <symbol
       id="b"
       overflow="visible">
      <path
         d="m13.734-11.141c-0.4375-0.19531-0.87109-0.34375-1.2969-0.4375-0.41797-0.10156-0.83984-0.15625-1.2656-0.15625-1.2617 0-2.2305 0.40625-2.9062 1.2188-0.67969 0.80469-1.0156 1.9531-1.0156 3.4531v7.0625h-4.8906v-15.312h4.8906v2.5156c0.625-1 1.3438-1.7266 2.1562-2.1875 0.82031-0.46875 1.8008-0.70312 2.9375-0.70312 0.16406 0 0.34375 0.011719 0.53125 0.03125 0.19531 0.011719 0.47656 0.039062 0.84375 0.078125z"
         id="path1151" />
    </symbol>
    <symbol
       id="a"
       overflow="visible">
      <path
         d="m17.641-7.7031v1.4062h-11.453c0.125 1.1484 0.53906 2.0078 1.25 2.5781 0.70703 0.57422 1.7031 0.85938 2.9844 0.85938 1.0312 0 2.082-0.14844 3.1562-0.45312 1.082-0.3125 2.1914-0.77344 3.3281-1.3906v3.7656c-1.1562 0.4375-2.3125 0.76562-3.4688 0.98438-1.1562 0.22656-2.3125 0.34375-3.4688 0.34375-2.7734 0-4.9297-0.70312-6.4688-2.1094-1.5312-1.4062-2.2969-3.3789-2.2969-5.9219 0-2.5 0.75391-4.4609 2.2656-5.8906 1.5078-1.4375 3.582-2.1562 6.2188-2.1562 2.4062 0 4.332 0.73047 5.7812 2.1875 1.4453 1.4492 2.1719 3.3828 2.1719 5.7969zm-5.0312-1.625c0-0.92578-0.27344-1.6719-0.8125-2.2344-0.54297-0.57031-1.25-0.85938-2.125-0.85938-0.94922 0-1.7188 0.26562-2.3125 0.79688s-0.96484 1.2969-1.1094 2.2969z"
         id="path1154" />
    </symbol>
    <symbol
       id="d"
       overflow="visible">
      <path
         d="m9.2188-6.8906c-1.0234 0-1.793 0.17188-2.3125 0.51562-0.51172 0.34375-0.76562 0.85547-0.76562 1.5312 0 0.625 0.20703 1.1172 0.625 1.4688 0.41406 0.34375 0.98828 0.51562 1.7188 0.51562 0.92578 0 1.7031-0.32812 2.3281-0.98438 0.63281-0.66406 0.95312-1.4922 0.95312-2.4844v-0.5625zm7.4688-1.8438v8.7344h-4.9219v-2.2656c-0.65625 0.92969-1.3984 1.6055-2.2188 2.0312-0.82422 0.41406-1.8242 0.625-3 0.625-1.5859 0-2.8711-0.45703-3.8594-1.375-0.99219-0.92578-1.4844-2.1289-1.4844-3.6094 0-1.7891 0.61328-3.1016 1.8438-3.9375 1.2383-0.84375 3.1797-1.2656 5.8281-1.2656h2.8906v-0.39062c0-0.76953-0.30859-1.332-0.92188-1.6875-0.61719-0.36328-1.5703-0.54688-2.8594-0.54688-1.0547 0-2.0312 0.10547-2.9375 0.3125-0.89844 0.21094-1.7305 0.52344-2.5 0.9375v-3.7344c1.0391-0.25 2.0859-0.44141 3.1406-0.57812 1.0625-0.13281 2.125-0.20312 3.1875-0.20312 2.7578 0 4.75 0.54688 5.9688 1.6406 1.2266 1.0859 1.8438 2.8555 1.8438 5.3125z"
         id="path1157" />
    </symbol>
    <symbol
       id="c"
       overflow="visible">
      <path
         d="m7.7031-19.656v4.3438h5.0469v3.5h-5.0469v6.5c0 0.71094 0.14062 1.1875 0.42188 1.4375s0.83594 0.375 1.6719 0.375h2.5156v3.5h-4.1875c-1.9375 0-3.3125-0.39844-4.125-1.2031-0.80469-0.8125-1.2031-2.1797-1.2031-4.1094v-6.5h-2.4219v-3.5h2.4219v-4.3438z"
         id="path1160" />
    </symbol>
    <symbol
       id="m"
       overflow="visible">
      <path
         d="m12.766-13.078v-8.2031h4.9219v21.281h-4.9219v-2.2188c-0.66797 0.90625-1.4062 1.5703-2.2188 1.9844s-1.7578 0.625-2.8281 0.625c-1.8867 0-3.4336-0.75-4.6406-2.25-1.2109-1.5-1.8125-3.4258-1.8125-5.7812 0-2.3633 0.60156-4.2969 1.8125-5.7969 1.207-1.5 2.7539-2.25 4.6406-2.25 1.0625 0 2 0.21484 2.8125 0.64062 0.82031 0.42969 1.5664 1.0859 2.2344 1.9688zm-3.2188 9.9219c1.0391 0 1.8359-0.37891 2.3906-1.1406 0.55078-0.76953 0.82812-1.8828 0.82812-3.3438 0-1.457-0.27734-2.5664-0.82812-3.3281-0.55469-0.76953-1.3516-1.1562-2.3906-1.1562-1.043 0-1.8398 0.38672-2.3906 1.1562-0.55469 0.76172-0.82812 1.8711-0.82812 3.3281 0 1.4609 0.27344 2.5742 0.82812 3.3438 0.55078 0.76172 1.3477 1.1406 2.3906 1.1406z"
         id="path1163" />
    </symbol>
    <symbol
       id="l"
       overflow="visible">
      <path
         d="m10.5-3.1562c1.0508 0 1.8516-0.37891 2.4062-1.1406 0.55078-0.76953 0.82812-1.8828 0.82812-3.3438 0-1.457-0.27734-2.5664-0.82812-3.3281-0.55469-0.76953-1.3555-1.1562-2.4062-1.1562-1.0547 0-1.8594 0.38672-2.4219 1.1562-0.55469 0.77344-0.82812 1.8828-0.82812 3.3281 0 1.4492 0.27344 2.5586 0.82812 3.3281 0.5625 0.77344 1.3672 1.1562 2.4219 1.1562zm-3.25-9.9219c0.67578-0.88281 1.4219-1.5391 2.2344-1.9688 0.82031-0.42578 1.7656-0.64062 2.8281-0.64062 1.8945 0 3.4453 0.75 4.6562 2.25 1.207 1.5 1.8125 3.4336 1.8125 5.7969 0 2.3555-0.60547 4.2812-1.8125 5.7812-1.2109 1.5-2.7617 2.25-4.6562 2.25-1.0625 0-2.0078-0.21094-2.8281-0.625-0.8125-0.42578-1.5586-1.0859-2.2344-1.9844v2.2188h-4.8906v-21.281h4.8906z"
         id="path1166" />
    </symbol>
    <symbol
       id="k"
       overflow="visible">
      <path
         d="m0.34375-15.312h4.8906l4.125 10.391 3.5-10.391h4.8906l-6.4375 16.766c-0.64844 1.6953-1.4023 2.8828-2.2656 3.5625-0.86719 0.6875-2 1.0312-3.4062 1.0312h-2.8438v-3.2188h1.5312c0.83203 0 1.4375-0.13672 1.8125-0.40625 0.38281-0.26172 0.67969-0.73047 0.89062-1.4062l0.14062-0.42188z"
         id="path1169" />
    </symbol>
    <symbol
       id="j"
       overflow="visible">
      <path
         d="m2.3594-21.281h4.8906v21.281h-4.8906z"
         id="path1172" />
    </symbol>
    <symbol
       id="f"
       overflow="visible">
      <path
         d="m2.1875-5.9688v-9.3438h4.9219v1.5312c0 0.83594-0.007813 1.875-0.015625 3.125-0.011719 1.25-0.015625 2.0859-0.015625 2.5 0 1.2422 0.03125 2.1328 0.09375 2.6719 0.070313 0.54297 0.17969 0.93359 0.32812 1.1719 0.20703 0.32422 0.47266 0.57422 0.79688 0.75 0.32031 0.16797 0.69141 0.25 1.1094 0.25 1.0195 0 1.8203-0.39062 2.4062-1.1719 0.58203-0.78125 0.875-1.8672 0.875-3.2656v-7.5625h4.8906v15.312h-4.8906v-2.2188c-0.74219 0.89844-1.5234 1.5586-2.3438 1.9844-0.82422 0.41406-1.7344 0.625-2.7344 0.625-1.7617 0-3.1055-0.53906-4.0312-1.625-0.92969-1.082-1.3906-2.6602-1.3906-4.7344z"
         id="path1175" />
    </symbol>
    <symbol
       id="i"
       overflow="visible">
      <path
         d="m14.719-14.828v3.9844c-0.65625-0.45703-1.3242-0.79688-2-1.0156-0.66797-0.21875-1.3594-0.32812-2.0781-0.32812-1.3672 0-2.4336 0.40234-3.2031 1.2031-0.76172 0.79297-1.1406 1.9062-1.1406 3.3438 0 1.4297 0.37891 2.543 1.1406 3.3438 0.76953 0.79297 1.8359 1.1875 3.2031 1.1875 0.75781 0 1.4844-0.10938 2.1719-0.32812 0.6875-0.22656 1.3203-0.56641 1.9062-1.0156v4c-0.76172 0.28125-1.5391 0.48828-2.3281 0.625-0.78125 0.14453-1.5742 0.21875-2.375 0.21875-2.7617 0-4.9219-0.70703-6.4844-2.125-1.5547-1.4141-2.3281-3.3828-2.3281-5.9062 0-2.5312 0.77344-4.5039 2.3281-5.9219 1.5625-1.4141 3.7227-2.125 6.4844-2.125 0.80078 0 1.5938 0.074219 2.375 0.21875 0.78125 0.13672 1.5547 0.35156 2.3281 0.64062z"
         id="path1178" />
    </symbol>
    <symbol
       id="h"
       overflow="visible">
      <path
         d="m12.422-21.281v3.2188h-2.7031c-0.6875 0-1.1719 0.125-1.4531 0.375-0.27344 0.25-0.40625 0.6875-0.40625 1.3125v1.0625h4.1875v3.5h-4.1875v11.812h-4.8906v-11.812h-2.4375v-3.5h2.4375v-1.0625c0-1.6641 0.46094-2.8984 1.3906-3.7031 0.92578-0.80078 2.3672-1.2031 4.3281-1.2031z"
         id="path1181" />
    </symbol>
    <symbol
       id="g"
       overflow="visible">
      <path
         d="m1.5938-15.312h13.359v3.4219l-8.0625 8.3906h8.0625v3.5h-13.688v-3.4219l8.0625-8.3906h-7.7344z"
         id="path1184" />
    </symbol>
    <symbol
       id="e"
       overflow="visible">
      <path
         d="m9.6406-12.188c-1.0859 0-1.9141 0.39062-2.4844 1.1719-0.57422 0.78125-0.85938 1.9062-0.85938 3.375s0.28516 2.5938 0.85938 3.375c0.57031 0.77344 1.3984 1.1562 2.4844 1.1562 1.0625 0 1.875-0.38281 2.4375-1.1562 0.57031-0.78125 0.85938-1.9062 0.85938-3.375s-0.28906-2.5938-0.85938-3.375c-0.5625-0.78125-1.375-1.1719-2.4375-1.1719zm0-3.5c2.6328 0 4.6914 0.71484 6.1719 2.1406 1.4766 1.418 2.2188 3.3867 2.2188 5.9062 0 2.5117-0.74219 4.4805-2.2188 5.9062-1.4805 1.418-3.5391 2.125-6.1719 2.125-2.6484 0-4.7148-0.70703-6.2031-2.125-1.4922-1.4258-2.2344-3.3945-2.2344-5.9062 0-2.5195 0.74219-4.4883 2.2344-5.9062 1.4883-1.4258 3.5547-2.1406 6.2031-2.1406z"
         id="path1187" />
    </symbol>
    <symbol
       id="s"
       overflow="visible">
      <path
         d="m16.547-12.766c0.61328-0.94531 1.3477-1.6719 2.2031-2.1719 0.85156-0.5 1.7891-0.75 2.8125-0.75 1.7578 0 3.0977 0.54688 4.0156 1.6406 0.92578 1.0859 1.3906 2.6562 1.3906 4.7188v9.3281h-4.9219v-7.9844-0.35938c0.007813-0.13281 0.015625-0.32031 0.015625-0.5625 0-1.082-0.16406-1.8633-0.48438-2.3438-0.3125-0.48828-0.82422-0.73438-1.5312-0.73438-0.92969 0-1.6484 0.38672-2.1562 1.1562-0.51172 0.76172-0.77344 1.8672-0.78125 3.3125v7.5156h-4.9219v-7.9844c0-1.6953-0.14844-2.7852-0.4375-3.2656-0.29297-0.48828-0.8125-0.73438-1.5625-0.73438-0.9375 0-1.6641 0.38672-2.1719 1.1562-0.51172 0.76172-0.76562 1.8594-0.76562 3.2969v7.5312h-4.9219v-15.312h4.9219v2.2344c0.60156-0.86328 1.2891-1.5156 2.0625-1.9531 0.78125-0.4375 1.6406-0.65625 2.5781-0.65625 1.0625 0 2 0.25781 2.8125 0.76562 0.8125 0.51172 1.4258 1.2305 1.8438 2.1562z"
         id="path1190" />
    </symbol>
    <symbol
       id="r"
       overflow="visible">
      <path
         d="m17.75-9.3281v9.3281h-4.9219v-7.1094c0-1.3438-0.03125-2.2656-0.09375-2.7656s-0.16797-0.86719-0.3125-1.1094c-0.1875-0.3125-0.44922-0.55469-0.78125-0.73438-0.32422-0.17578-0.69531-0.26562-1.1094-0.26562-1.0234 0-1.8242 0.39844-2.4062 1.1875-0.58594 0.78125-0.875 1.8711-0.875 3.2656v7.5312h-4.8906v-21.281h4.8906v8.2031c0.73828-0.88281 1.5195-1.5391 2.3438-1.9688 0.83203-0.42578 1.75-0.64062 2.75-0.64062 1.7695 0 3.1133 0.54688 4.0312 1.6406 0.91406 1.0859 1.375 2.6562 1.375 4.7188z"
         id="path1193" />
    </symbol>
    <symbol
       id="q"
       overflow="visible">
      <path
         d="m2.5781-20.406h5.875l7.4219 14v-14h4.9844v20.406h-5.875l-7.4219-14v14h-4.9844z"
         id="path1196" />
    </symbol>
    <symbol
       id="p"
       overflow="visible">
      <path
         d="m17.75-9.3281v9.3281h-4.9219v-7.1406c0-1.3203-0.03125-2.2344-0.09375-2.7344s-0.16797-0.86719-0.3125-1.1094c-0.1875-0.3125-0.44922-0.55469-0.78125-0.73438-0.32422-0.17578-0.69531-0.26562-1.1094-0.26562-1.0234 0-1.8242 0.39844-2.4062 1.1875-0.58594 0.78125-0.875 1.8711-0.875 3.2656v7.5312h-4.8906v-15.312h4.8906v2.2344c0.73828-0.88281 1.5195-1.5391 2.3438-1.9688 0.83203-0.42578 1.75-0.64062 2.75-0.64062 1.7695 0 3.1133 0.54688 4.0312 1.6406 0.91406 1.0859 1.375 2.6562 1.375 4.7188z"
         id="path1199" />
    </symbol>
    <symbol
       id="o"
       overflow="visible">
      <path
         d="m2.5781-20.406h8.7344c2.5938 0 4.582 0.57812 5.9688 1.7344 1.3945 1.1484 2.0938 2.7891 2.0938 4.9219 0 2.1367-0.69922 3.7812-2.0938 4.9375-1.3867 1.1562-3.375 1.7344-5.9688 1.7344h-3.4844v7.0781h-5.25zm5.25 3.8125v5.7031h2.9219c1.0195 0 1.8047-0.25 2.3594-0.75 0.5625-0.5 0.84375-1.2031 0.84375-2.1094 0-0.91406-0.28125-1.6172-0.84375-2.1094-0.55469-0.48828-1.3398-0.73438-2.3594-0.73438z"
         id="path1202" />
    </symbol>
    <symbol
       id="n"
       overflow="visible">
      <path
         d="m2.3594-15.312h4.8906v15.031c0 2.0508-0.49609 3.6172-1.4844 4.7031-0.98047 1.082-2.4062 1.625-4.2812 1.625h-2.4219v-3.2188h0.85938c0.92578 0 1.5625-0.21094 1.9062-0.625 0.35156-0.41797 0.53125-1.2461 0.53125-2.4844zm0-5.9688h4.8906v4h-4.8906z"
         id="path1205" />
    </symbol>
  </defs>
  <path
     d="M 702.90718,701.66762 H 531.54651 V 627.62034 H 702.90718 Z M 535.40226,697.81598 H 699.05142 V 631.47776 H 535.40226 Z m -7.7944,3.85164 H 356.23341 v -74.04728 h 171.36067 l 0.006,74.04728 z M 360.10294,697.81598 H 523.7521 V 631.47776 H 360.10294 Z m -7.79441,3.85164 H 180.93409 V 627.62034 H 352.29476 Z M 184.80362,697.81598 H 348.45278 V 631.47776 H 184.80362 Z m -7.79441,3.85164 H 5.6347659 V 627.62034 H 177.00921 Z M 9.5042892,697.81598 H 173.15346 V 631.47776 H 9.5042892 Z M 703.5398,623.68882 h -84.62414 v -74.04728 h 84.62414 z m -80.76701,-3.85701 h 76.91538 v -66.33822 h -76.91538 z m -7.79977,3.85701 H 443.61235 V 549.64154 H 614.97302 Z M 447.4681,619.83181 H 611.11726 V 553.49359 H 447.4681 Z m -7.79978,3.85701 H 268.30765 v -74.04728 l 171.36067,-0.006 z M 272.16341,619.83181 H 435.81257 V 553.49359 H 272.16341 Z m -7.79978,3.85701 H 93.002957 V 549.64154 H 264.36363 Z M 96.85871,619.83181 H 260.50788 V 553.49359 H 96.85871 Z m -7.799775,3.85701 H 5.6507397 V 549.64154 H 89.058935 Z M 9.5064925,619.83181 H 85.201805 V 553.49359 H 9.5064925 Z M 702.9361,545.69914 H 531.57543 V 471.65186 H 702.9361 Z M 535.43118,541.84213 H 699.08034 V 475.50391 H 535.43118 Z m -7.79441,3.85701 H 356.26233 V 471.65186 H 527.623 l 0.006,74.04728 z M 360.13186,541.84213 H 523.78102 V 475.50391 H 360.13186 Z m -7.79441,3.85701 H 180.96301 V 471.65186 H 352.32368 Z M 184.83253,541.84213 H 348.4817 V 475.50391 H 184.83253 Z m -7.7944,3.85701 H 5.663684 v -74.04728 l 171.374446,-0.006 z M 9.5332074,541.84213 H 173.18238 V 475.50391 H 9.5332074 Z M 703.56871,467.71497 h -84.62413 v -74.04728 h 84.62413 z m -80.767,-3.85701 h 76.91538 v -66.33822 h -76.91538 z m -7.79978,3.85701 H 443.64126 v -74.04728 h 171.36067 z m -167.50491,-3.85701 h 163.64916 v -66.33822 l -163.64916,0.006 z m -7.79978,3.85701 H 268.33657 v -74.04728 h 171.36067 z m -167.50491,-3.85701 h 163.64916 v -66.33822 l -163.64916,0.006 z m -7.79978,3.85701 H 93.031875 V 393.66769 H 264.39255 Z M 96.887628,463.85796 H 260.5368 v -66.33822 l -163.649172,0.006 z m -7.799775,3.85701 H 5.6796579 V 393.66769 H 89.087853 Z M 9.5354107,463.85796 H 85.230723 v -66.33822 l -75.6953123,0.006 z M 702.96501,389.73631 H 531.60434 V 315.68902 H 702.96501 Z M 535.4601,385.87929 H 699.10926 V 319.54108 H 535.4601 Z m -7.79441,3.85702 H 356.29125 v -74.04729 h 171.36067 l 0.006,74.04729 z M 360.16077,385.87929 H 523.80994 V 319.54108 H 360.16077 Z m -7.7944,3.85702 H 180.99193 V 315.68902 H 352.3526 Z M 184.86145,385.87929 H 348.51062 V 319.54108 H 184.86145 Z m -7.7944,3.85702 H 5.6926022 v -74.04729 l 171.3744478,-0.006 z M 9.5621255,385.87929 H 173.2113 V 319.54108 H 9.5621255 Z M 703.59763,311.74663 H 618.9735 v -74.04178 h 84.62413 z m -80.767,-3.85702 h 76.91538 v -66.32719 h -76.91538 z m -7.79978,3.85702 H 443.67018 V 237.70485 H 615.03085 Z M 447.52594,307.88961 H 611.1751 V 241.56242 H 447.52594 Z m -7.79978,3.85702 H 268.36549 V 237.70485 H 439.72616 Z M 272.22124,307.88961 H 435.87041 V 241.56242 H 272.22124 Z m -7.79977,3.85702 H 93.060793 V 237.70485 H 264.42147 Z M 96.916546,307.88961 H 260.56572 V 241.56242 H 96.916546 Z m -7.799775,3.85702 H 5.708576 V 237.70485 H 89.116771 Z M 9.5643288,307.88961 H 85.259641 V 241.56242 H 9.5643288 Z M 702.99393,233.76246 H 531.63326 V 159.72068 H 702.99393 Z M 535.48901,229.90544 H 699.13818 V 163.57825 H 535.48901 Z m -7.7944,3.85702 H 356.32017 v -74.04178 h 171.36067 l 0.006,74.04178 z M 360.18969,229.90544 H 523.83886 V 163.57825 H 360.18969 Z m -7.7944,3.85702 H 181.02085 V 159.71517 H 352.38152 Z M 184.89037,229.90544 H 348.53954 V 163.57825 H 184.89037 Z m -7.7944,3.85702 H 5.7215203 V 159.71517 H 177.09597 Z M 9.5910437,229.90544 H 173.24021 v -66.33821 l -163.6491663,0.006 z M 703.62655,155.77278 H 619.00242 V 81.731003 h 84.62413 z m -80.767,-3.85702 h 76.91538 V 85.588568 h -76.91538 z m -7.79978,3.85702 H 443.6991 V 81.731003 H 615.05977 Z M 447.55485,151.91576 H 611.20402 V 85.588568 H 447.55485 Z m -7.79977,3.85702 H 268.39441 V 81.731003 H 439.75508 Z M 272.25016,151.91576 H 435.89933 V 85.588568 H 272.25016 Z m -7.79977,3.85702 H 93.089711 V 81.731003 H 264.45039 Z M 96.945464,151.91576 H 260.59463 V 85.588568 H 96.945464 Z m -7.799775,3.85702 H 5.7374942 V 81.731003 H 89.145689 Z M 9.593247,151.91576 H 85.28856 V 85.588568 H 9.593247 Z M 703.02285,77.794117 H 531.66218 V 3.7523415 H 703.02285 Z M 535.51793,73.937103 H 699.1671 V 7.6043977 H 535.51793 Z m -7.7944,3.857014 H 356.34909 V 3.7523415 h 171.36067 l 0.006,74.0417755 z M 360.21861,73.937103 h 163.64917 l 0.005,-66.3327053 H 360.22412 Z m -7.7944,3.857014 H 181.04977 V 3.7523415 H 352.41044 Z M 184.91929,73.937103 H 348.56845 V 7.6043977 H 184.91929 Z m -7.79441,3.857014 H 5.7504385 V 3.7523415 H 177.12488 Z M 9.6199618,73.937103 H 173.26913 V 7.6043977 H 9.6199618 Z"
     id="path1210"
     style="stroke-width:1.37708" />
</svg>
