<?xml version="1.0" encoding="UTF-8" standalone="no"?>
<svg
   version="1.1"
   x="0px"
   y="0px"
   viewBox="0 0 50 50"
   xml:space="preserve"
   id="svg4"
   sodipodi:docname="noun-navigation-1613552.svg"
   width="50"
   height="50"
   inkscape:version="1.3.2 (091e20e, 2023-11-25)"
   xmlns:inkscape="http://www.inkscape.org/namespaces/inkscape"
   xmlns:sodipodi="http://sodipodi.sourceforge.net/DTD/sodipodi-0.dtd"
   xmlns="http://www.w3.org/2000/svg"
   xmlns:svg="http://www.w3.org/2000/svg"><defs
     id="defs4" /><sodipodi:namedview
     id="namedview4"
     pagecolor="#ffffff"
     bordercolor="#666666"
     borderopacity="1.0"
     inkscape:showpageshadow="2"
     inkscape:pageopacity="0.0"
     inkscape:pagecheckerboard="0"
     inkscape:deskcolor="#d1d1d1"
     inkscape:zoom="1.888"
     inkscape:cx="49.788136"
     inkscape:cy="62.5"
     inkscape:window-width="1248"
     inkscape:window-height="712"
     inkscape:window-x="221"
     inkscape:window-y="33"
     inkscape:window-maximized="0"
     inkscape:current-layer="svg4" /><g
     id="g3"
     transform="matrix(0.60473058,0,0,0.60473058,-5.6602576,-5.6602585)"
     style="stroke-width:1.65363;fill:white;fill-opacity:1"><g
       id="g2"
       style="stroke-width:1.65363;fill:white;fill-opacity:1"><path
         d="M 65.9,31.4 L 46.1,42.9 C 45.9,43 45.7,43.2 45.6,43.4 L 34.5,64.4 C 34.2,64.9 34.3,65.5 34.7,65.9 C 34.9,66.1 35.3,66.2 35.6,66.2 C 35.8,66.2 36,66.1 36.2,66 L 57.5,53.7 C 57.7,53.6 57.9,53.4 58,53.2 L 67.7,33 C 67.9,32.5 67.8,31.9 67.4,31.5 C 67,31.1 66.4,31.1 65.9,31.4 Z M 56,51.9 L 38.8,61.8 L 47.7,44.9 L 63.7,35.5 Z"
         id="path1"
         style="stroke-width:1.65363;fill:white;fill-opacity:1" /><path
         d="M 83.5,49.4 C 83.5,49.4 83.5,49.4 83.5,49.4 C 83.1,31.2 68.3,16.5 50,16.5 C 31.5,16.5 16.5,31.5 16.5,50 C 16.5,68.5 31.5,83.5 50,83.5 C 50.3,83.5 50.7,83.5 51,83.5 C 51,83.5 51.1,83.5 51.1,83.5 C 51.2,83.5 51.2,83.5 51.3,83.5 C 69.2,82.8 83.5,68.1 83.5,50 C 83.5,49.8 83.5,49.7 83.5,49.4 C 83.5,49.5 83.5,49.4 83.5,49.4 Z M 52.4,80.9 V 76.6 C 52.4,75.9 51.8,75.3 51.1,75.3 C 50.4,75.3 49.8,75.9 49.8,76.6 V 81 C 33,80.9 19.4,67.4 19,50.7 H 23.9 C 24.6,50.7 25.2,50.1 25.2,49.4 C 25.2,48.7 24.6,48.1 23.9,48.1 H 19 C 20,32 33.4,19.1 49.9,19 V 24 C 49.9,24.7 50.5,25.3 51.2,25.3 C 51.9,25.3 52.5,24.7 52.5,24 V 19.1 C 67.8,20.3 80.1,32.7 81,48.2 H 76.7 C 76,48.2 75.4,48.8 75.4,49.5 C 75.4,50.2 76,50.8 76.7,50.8 H 81 C 80.7,66.7 68.1,79.7 52.4,80.9 Z"
         id="path2"
         style="stroke-width:1.65363;fill:white;fill-opacity:1" /></g></g></svg>
