<?xml version="1.0" encoding="UTF-8" standalone="no"?>
<svg
   version="1.1"
   viewBox="-5 -10 50 50"
   id="svg2"
   sodipodi:docname="noun-weather-6963318.svg"
   width="50"
   height="50"
   inkscape:version="1.3.2 (091e20e, 2023-11-25)"
   xmlns:inkscape="http://www.inkscape.org/namespaces/inkscape"
   xmlns:sodipodi="http://sodipodi.sourceforge.net/DTD/sodipodi-0.dtd"
   xmlns="http://www.w3.org/2000/svg"
   xmlns:svg="http://www.w3.org/2000/svg">
  <defs
     id="defs2" />
  <sodipodi:namedview
     id="namedview2"
     pagecolor="#ffffff"
     bordercolor="#666666"
     borderopacity="1.0"
     inkscape:showpageshadow="2"
     inkscape:pageopacity="0.0"
     inkscape:pagecheckerboard="0"
     inkscape:deskcolor="#d1d1d1"
     inkscape:zoom="4.3861111"
     inkscape:cx="56.770108"
     inkscape:cy="50.614313"
     inkscape:window-width="1256"
     inkscape:window-height="632"
     inkscape:window-x="221"
     inkscape:window-y="33"
     inkscape:window-maximized="0"
     inkscape:current-layer="svg2" />
  <path
     d="M 40.873115,16.122866 C 41.089125,15.998443 41.638672,15.917224 41.925518,15.988074 C 41.842571,16.271478 41.498682,16.706959 41.28268,16.831359 C 41.066679,16.95576 40.800562,16.898754 40.68647,16.703482 C 40.574142,16.506481 40.657092,16.247288 40.873105,16.122844 Z"
     id="path44"
     style="stroke-width:0.999998;fill:white;fill-opacity:1" />
  <path
     d="M 42.554555,18.341723 C 42.340269,18.136082 41.823592,17.932166 41.574746,17.932166 C 41.324172,17.932166 41.122004,18.115342 41.122004,18.341723 C 41.122004,18.568103 41.324189,18.75128 41.574746,18.75128 C 41.823592,18.75128 42.340304,18.545638 42.554555,18.341723 Z"
     id="path43"
     style="stroke-width:0.999998;fill:white;fill-opacity:1" />
  <path
     d="M 41.28268,19.848595 C 41.50042,19.973018 41.844295,20.408486 41.927244,20.693651 C 41.638654,20.762774 41.090859,20.683283 40.874839,20.557134 C 40.657099,20.432712 40.574151,20.173497 40.686478,19.976495 C 40.800531,19.781219 41.066661,19.724195 41.282689,19.848618 Z"
     id="path42"
     style="stroke-width:0.999998;fill:white;fill-opacity:1" />
  <path
     d="M 40.202626,22.419994 C 40.271751,22.131404 40.192257,21.583609 40.066109,21.367589 C 39.941686,21.151579 39.682471,21.066901 39.487196,21.180954 C 39.290195,21.293281 39.233166,21.561136 39.357588,21.777164 C 39.48201,21.993193 39.917478,22.335329 40.202644,22.420003 Z"
     id="path41"
     style="stroke-width:0.999998;fill:white;fill-opacity:1" />
  <path
     d="M 38.256813,22.067461 C 38.256813,22.318037 38.052897,22.833019 37.847256,23.047269 C 37.64334,22.832984 37.439424,22.318031 37.439424,22.067461 C 37.439424,21.818616 37.622602,21.614719 37.847256,21.614719 C 38.073636,21.614719 38.256813,21.818634 38.256813,22.067461 Z"
     id="path40"
     style="stroke-width:0.999998;fill:white;fill-opacity:1" />
  <path
     d="M 35.497044,22.421719 C 35.780449,22.337042 36.21593,21.993153 36.34033,21.777155 C 36.46473,21.561158 36.407725,21.293268 36.212452,21.180945 C 36.017177,21.066892 35.756259,21.151567 35.631814,21.367581 C 35.507392,21.583591 35.426173,22.133139 35.497023,22.42171 Z"
     id="path39"
     style="stroke-width:0.999998;fill:white;fill-opacity:1" />
  <path
     d="M 34.82138,20.56058 C 34.60537,20.685003 34.057548,20.764496 33.768976,20.695372 C 33.853654,20.410238 34.197543,19.976487 34.41354,19.852086 C 34.629551,19.725934 34.895658,19.784692 35.009751,19.979964 C 35.122078,20.17524 35.039128,20.436157 34.821389,20.560602 Z"
     id="path38"
     style="stroke-width:0.999998;fill:white;fill-opacity:1" />
  <path
     d="M 33.141666,18.341723 C 33.355951,18.545638 33.872629,18.75128 34.121473,18.75128 C 34.372048,18.75128 34.574217,18.568103 34.574217,18.341723 C 34.574217,18.115342 34.37203,17.932166 34.121473,17.932166 C 33.872629,17.932166 33.355915,18.136082 33.141666,18.341723 Z"
     id="path37"
     style="stroke-width:0.999998;fill:white;fill-opacity:1" />
  <path
     d="M 34.411815,16.83485 C 34.195804,16.708698 33.851924,16.27496 33.768976,15.989795 C 34.057566,15.920671 34.605361,16.000163 34.82138,16.124587 C 35.037391,16.250739 35.122069,16.509949 35.009742,16.705225 C 34.895689,16.902227 34.629564,16.959255 34.411806,16.834832 Z"
     id="path36"
     style="stroke-width:0.999998;fill:white;fill-opacity:1" />
  <path
     d="M 35.493682,14.263222 C 35.424558,14.551811 35.504052,15.099607 35.6302,15.315625 C 35.754623,15.531636 36.013837,15.614586 36.209113,15.502262 C 36.406114,15.389935 36.463142,15.122079 36.33872,14.906052 C 36.212568,14.690041 35.77883,14.346161 35.493665,14.263212 Z"
     id="path5"
     style="stroke-width:0.999998;fill:white;fill-opacity:1" />
  <path
     d="M 40.199397,14.261494 C 39.915993,14.346172 39.480511,14.69006 39.356111,14.906058 C 39.229959,15.122068 39.288717,15.389945 39.483989,15.502268 C 39.679264,15.614595 39.940182,15.531646 40.064627,15.315633 C 40.189049,15.097891 40.270268,14.550074 40.199418,14.261503 Z"
     id="path4"
     style="stroke-width:0.999998;fill:white;fill-opacity:1" />
  <path
     d="M 37.439629,14.615751 C 37.439629,14.365177 37.643544,13.850194 37.847459,13.634174 C 38.053101,13.850185 38.257017,14.365137 38.257017,14.615751 C 38.257017,14.864597 38.07384,15.06677 37.847459,15.06677 C 37.622809,15.06677 37.439629,14.864584 37.439629,14.615751 Z"
     id="path3"
     style="stroke-width:0.999998;fill:white;fill-opacity:1" />
  <path
     d="M 14.768852,5.5431938 C 18.285507,4.5616169 22.026721,4.7603833 25.420746,6.1065346 C 28.075092,7.158939 30.402955,8.8714792 32.194639,11.062643 L 33.129544,10.411134 L 33.357655,13.119054 L 30.898579,11.962953 L 31.80756,11.332191 C 30.069095,9.2152614 27.815688,7.5632402 25.246015,6.5437502 C 21.948829,5.2355994 18.312861,5.0420533 14.896274,5.9959371 C 11.478095,6.949821 8.467889,8.9958792 6.3231762,11.821344 C 4.1785967,14.648489 3.0190453,18.087372 3.0208149,21.635349 H 2.5507743 C 2.5473178,17.985622 3.7414258,14.444723 5.9482052,11.538213 C 8.1549852,8.6298448 11.253361,6.5232675 14.7686,5.5433711 Z"
     id="path2"
     style="stroke-width:0.999998;fill:white;fill-opacity:1" />
  <path
     d="M 29.481897,5.5483788 C 25.621325,3.0962048 21.009222,2.1129458 16.484887,2.778258 C 11.960554,3.4435702 7.8255232,5.7125497 4.8358441,9.1739062 C 1.8462532,12.633538 0.19958483,17.062625 0.19781533,21.63518 H 0.66958113 C 0.67130963,17.174993 2.2766997,12.856371 5.1921456,9.4813683 C 8.1091842,6.1064103 12.140783,3.8926413 16.554519,3.2427687 C 20.966353,2.5947539 25.464719,3.5538228 29.22991,5.9455129 C 32.751741,8.1833927 35.411442,11.53778 36.792145,15.458693 C 35.617065,15.888989 34.778911,17.017413 34.778911,18.341136 C 34.778911,20.036379 36.152756,21.410224 37.847999,21.410224 C 39.543242,21.410224 40.918814,20.036379 40.918814,18.341136 C 40.918814,16.645893 39.543242,15.272047 37.847999,15.272047 C 37.642358,15.272047 37.441897,15.291057 37.246613,15.330801 C 35.833041,11.297433 33.102647,7.848197 29.482205,5.5482059 Z"
     id="path1"
     style="stroke-width:0.999998;fill:white;fill-opacity:1" />
</svg>
