<?xml version="1.0" encoding="UTF-8" standalone="no"?>
<svg
   version="1.1"
   viewBox="-5 -10 50 50"
   id="svg4"
   sodipodi:docname="noun-gps-8161781.svg"
   width="50"
   height="50"
   inkscape:version="1.3.2 (091e20e, 2023-11-25)"
   xmlns:inkscape="http://www.inkscape.org/namespaces/inkscape"
   xmlns:sodipodi="http://sodipodi.sourceforge.net/DTD/sodipodi-0.dtd"
   xmlns="http://www.w3.org/2000/svg"
   xmlns:svg="http://www.w3.org/2000/svg">
  <defs
     id="defs4" />
  <sodipodi:namedview
     id="namedview4"
     pagecolor="#ffffff"
     bordercolor="#666666"
     borderopacity="1.0"
     inkscape:showpageshadow="2"
     inkscape:pageopacity="0.0"
     inkscape:pagecheckerboard="0"
     inkscape:deskcolor="#d1d1d1"
     inkscape:zoom="1.7481481"
     inkscape:cx="42.330508"
     inkscape:cy="39.184322"
     inkscape:window-width="1264"
     inkscape:window-height="643"
     inkscape:window-x="221"
     inkscape:window-y="33"
     inkscape:window-maximized="0"
     inkscape:current-layer="svg4" />
  <path
     d="M 30.666156,20.306443 C 30.405976,20.22058 30.122369,20.243999 29.880392,20.374089 C 29.641027,20.50418 29.461494,20.72794 29.391249,20.990724 C 29.318395,21.256114 29.357426,21.537109 29.500526,21.771293 C 29.641027,22.005457 29.872585,22.171975 30.14058,22.231821 C 34.33736,23.381859 37.048402,25.294217 37.048402,27.112857 C 37.048402,29.96444 30.387692,33.107496 20.862209,33.107496 C 11.336728,33.107496 4.676017,29.93067 4.676017,27.112857 C 4.676017,25.29415 7.2544443,23.441672 11.404666,22.276048 C 11.891212,22.096522 12.156595,21.573543 12.018704,21.07399 C 11.878204,20.574436 11.381254,20.262182 10.871264,20.358496 C 5.662388,21.82332 2.6779236,24.289847 2.6779236,27.113123 C 2.6779236,31.689764 10.490937,35.105975 20.862329,35.105975 C 31.233722,35.105975 39.046736,31.655927 39.046736,27.113123 C 39.046736,24.243289 35.994798,21.784554 30.66623,20.306543 Z"
     id="path1"
     style="stroke-width:1;fill:white;fill-opacity:1" />
  <path
     d="M 20.196186,27.877673 C 20.573455,28.223717 21.151065,28.223717 21.528327,27.877673 C 22.048696,27.424951 34.183678,16.754952 34.183678,7.4685905 C 34.183678,-1.4294531 27.317151,-6.2324914 20.862257,-6.2324914 C 15.328139,-6.2324914 7.5408353,-1.9836911 7.5408353,7.4685905 C 7.5408353,16.754286 19.688639,27.424745 20.196186,27.877673 Z M 20.862257,-4.234278 C 25.418049,-4.234278 32.185464,-1.1172658 32.185464,7.4685905 C 32.185464,14.6888 23.35203,23.454295 20.862257,25.772222 C 18.356697,23.433181 9.5390479,14.688134 9.5390479,7.4685905 V 7.4711922 C 9.4661931,4.4087974 10.624011,1.4479121 12.752309,-0.75078871 C 14.880605,-2.9519536 17.802459,-4.2060324 20.86239,-4.2320758 Z"
     id="path2"
     style="stroke-width:1;fill:white;fill-opacity:1" />
  <path
     d="M 26.804943,7.1308924 C 26.812748,4.726775 25.36876,2.5542516 23.149345,1.6280124 C 20.929996,0.70177409 18.37235,1.2039123 16.66814,2.9029391 C 14.96393,4.5993562 14.453987,7.1569358 15.372433,9.3789485 C 16.290877,11.603493 18.458206,13.052729 20.862323,13.052729 C 24.135462,13.047526 26.789289,10.404032 26.804943,7.130959 Z M 16.917783,7.1308924 C 16.909978,5.5333874 17.867468,4.0893455 19.340084,3.4726962 C 20.812701,2.856061 22.511714,3.189097 23.643502,4.3156764 C 24.775291,5.442269 25.116119,7.1386853 24.50733,8.6138995 C 23.898501,10.091778 22.459694,11.05445 20.862124,11.05445 C 18.692197,11.05445 16.930772,9.3008185 16.917717,7.1308924 Z"
     id="path3"
     style="stroke-width:1;fill:white;fill-opacity:1" />
</svg>
