<?xml version="1.0" encoding="UTF-8" standalone="no"?>
<svg
   version="1.1"
   x="0px"
   y="0px"
   viewBox="0 0 50 50"
   id="svg2"
   sodipodi:docname="noun-route-939679.svg"
   width="50"
   height="50"
   inkscape:version="1.3.2 (091e20e, 2023-11-25)"
   xmlns:inkscape="http://www.inkscape.org/namespaces/inkscape"
   xmlns:sodipodi="http://sodipodi.sourceforge.net/DTD/sodipodi-0.dtd"
   xmlns="http://www.w3.org/2000/svg"
   xmlns:svg="http://www.w3.org/2000/svg">
  <defs
     id="defs2" />
  <sodipodi:namedview
     id="namedview2"
     pagecolor="#ffffff"
     bordercolor="#666666"
     borderopacity="1.0"
     inkscape:showpageshadow="2"
     inkscape:pageopacity="0.0"
     inkscape:pagecheckerboard="0"
     inkscape:deskcolor="#d1d1d1"
     inkscape:zoom="3.4718491"
     inkscape:cx="31.395374"
     inkscape:cy="45.076844"
     inkscape:window-width="1256"
     inkscape:window-height="829"
     inkscape:window-x="221"
     inkscape:window-y="33"
     inkscape:window-maximized="0"
     inkscape:current-layer="svg2" />
  <g
     transform="matrix(0.47494358,0,0,0.47494358,1.6261747,-450.69214)"
     id="g1"
     style="stroke-width:2.10551;fill:white;fill-opacity:1">
    <path
       style="color:black;text-indent:0;text-transform:none;direction:ltr;baseline-shift:baseline;stroke-width:2.10551;enable-background:accumulate;fill:white;fill-opacity:1"
       d="M 83.9688,954.36216 C 91.7015,954.36216 98,960.26916 98,968.36221 C 98,970.22161 97.48,973.22711 96.875,974.86221 L 84,1002.3622 L 71.125,974.86221 C 70.5235,973.22771 70,970.22081 70,968.36221 C 70,960.26916 76.2359,954.36216 83.9688,954.36216 Z M 83.9998,962.36216 C 80.6861,962.36216 77.9998,965.04848 77.9998,968.36221 C 77.9998,971.6758 80.6861,974.36221 83.9998,974.36221 C 87.3134,974.36221 89.9998,971.6758 89.9998,968.36221 C 89.9998,965.04848 87.3134,962.36216 83.9998,962.36216 Z M 18.031,996.36221 C 26.8684,996.36221 33.9998,1003.2576 33.9998,1012.3622 C 33.9998,1014.4531 33.4059,1017.5859 32.7186,1019.4247 L 18,1050.3622 L 3.2812,1019.4247 C 2.5901,1017.5853 2,1014.454 2,1012.3622 C 2,1003.2576 9.1941,996.36221 18.0312,996.36221 Z M 80.2186,999.01841 L 81.9998,1002.7684 C 67.1165,1005.4339 60.5452,1008.9736 58.031,1012.2684 C 56.7104,1013.9992 56.3198,1015.7119 56.3123,1017.7059 C 56.3023,1019.7 56.7714,1021.9437 57.1873,1024.3309 C 57.6032,1026.7182 57.985,1029.2683 57.5623,1031.9247 C 57.1396,1034.581 55.8346,1037.2798 53.2186,1039.6122 C 48.1763,1044.1072 38.6485,1047.5411 20.3436,1050.0809 L 22.4373,1045.7059 C 38.6633,1043.2284 46.8541,1039.9215 50.531,1036.6434 C 52.5395,1034.853 53.3269,1033.1721 53.6248,1031.2997 C 53.9227,1029.4272 53.6488,1027.311 53.2498,1025.0184 C 52.8504,1022.7259 52.3026,1020.2566 52.3123,1017.6747 C 52.3223,1015.0928 52.9777,1012.3485 54.8748,1009.8622 C 58.3981,1005.2445 65.6586,1001.7159 80.2186,999.01841 Z M 18,1005.3622 C 14.134,1005.3622 11,1008.4962 11,1012.3622 C 11,1016.2281 14.134,1019.3622 18,1019.3622 C 21.8659,1019.3622 25,1016.2281 25,1012.3622 C 25,1008.4962 21.8659,1005.3622 18,1005.3622 Z"
       fill="black"
       fill-opacity="1"
       stroke="none"
       marker="none"
       visibility="visible"
       display="inline"
       overflow="visible"
       id="path1" />
  </g>
</svg>
