<?xml version="1.0" encoding="UTF-8" standalone="no"?>
<!DOCTYPE svg PUBLIC "-//W3C//DTD SVG 1.1//EN" "http://www.w3.org/Graphics/SVG/1.1/DTD/svg11.dtd">
<svg width="100%" height="100%" viewBox="0 0 256 256" version="1.1" xmlns="http://www.w3.org/2000/svg" xmlns:xlink="http://www.w3.org/1999/xlink" xml:space="preserve" xmlns:serif="http://www.serif.com/" style="fill-rule:evenodd;clip-rule:evenodd;stroke-linejoin:round;stroke-miterlimit:2;">
    <g id="g2" transform="matrix(0.440995,0,0,0.440995,-977.06997,-229.86965)">
        <g id="g1">
            <path id="path1" d="M2400.29,596.361C2393.76,599.047 2389.16,605.47 2389.16,612.959L2389.16,777.472L2356.99,777.472C2354.41,777.472 2352.25,779.435 2352.01,782.004C2347.09,834.336 2334.19,865.053 2319.64,883.998C2305.33,902.623 2289.5,909.66 2278.8,915.035C2272.23,918.336 2267.39,921.354 2264.94,925.094C2262.95,928.123 2261.24,934.875 2260.22,943.928C2260.2,944.096 2260.18,944.268 2260.17,944.442C2260.07,945.399 2259.97,946.382 2259.88,947.389C2258.43,964.264 2258.76,988.188 2261.04,1009.24C2261.05,1009.41 2261.07,1009.58 2261.1,1009.74C2261.9,1017.07 2262.94,1024.05 2264.22,1030.24C2264.7,1032.56 2266.75,1034.22 2269.12,1034.22L2402.68,1034.22L2402.68,1056.26C2402.68,1057.83 2403.42,1059.31 2404.68,1060.25C2405.93,1061.2 2407.55,1061.5 2409.06,1061.07C2468.97,1043.85 2528.88,1043.71 2588.79,1061.06C2590.3,1061.5 2591.93,1061.2 2593.18,1060.26C2594.44,1059.31 2595.18,1057.83 2595.18,1056.26L2595.18,1034.22L2738.88,1034.22C2741.25,1034.22 2743.3,1032.56 2743.78,1030.24C2749.42,1002.98 2750.39,901.599 2747.09,856.903C2746.49,848.811 2745.74,842.518 2744.88,838.744C2744.35,836.398 2743.66,834.765 2743.06,833.846C2739.35,828.182 2715.71,773.627 2715.71,773.627C2714.93,771.832 2713.18,770.656 2711.22,770.62L2655.09,769.585C2653.76,769.56 2652.48,770.065 2651.52,770.988C2650.57,771.911 2650.02,773.177 2650,774.505C2650,774.505 2649.5,805.639 2649.41,824.765C2641.14,824.364 2634.4,822.063 2629.03,818.048C2619.22,810.7 2614.11,797.903 2612.04,781.832C2611.79,779.899 2610.45,778.343 2608.7,777.741L2608.7,612.959C2608.7,605.47 2604.1,599.047 2597.58,596.361L2597.58,581.562C2597.58,577.797 2594.52,574.741 2590.75,574.741L2407.11,574.741C2403.34,574.741 2400.29,577.797 2400.29,581.562L2400.29,596.361ZM2585.18,1034.22L2412.68,1034.22L2412.68,1049.68C2470.18,1034.29 2527.68,1034.17 2585.18,1049.67L2585.18,1034.22ZM2598.99,787.472L2612.07,1008.65C2612.15,1010.02 2611.66,1011.37 2610.72,1012.38C2609.77,1013.38 2608.45,1013.95 2607.08,1013.95L2601.94,1013.95L2601.94,1023.88C2601.94,1023.99 2601.94,1024.11 2601.93,1024.22L2734.7,1024.22C2739.61,992.653 2740.22,899.672 2737.12,857.638C2736.64,851.214 2736.09,846.011 2735.44,842.455C2735.17,841.006 2734.67,839.364 2734.62,839.213C2731.14,833.705 2712.87,792.081 2707.83,780.559L2659.92,779.676C2659.76,790.426 2659.4,815.849 2659.39,829.79C2659.39,832.48 2657.26,834.687 2654.57,834.783C2641.39,835.254 2631.03,832.036 2623.04,826.053C2612.23,817.955 2605.66,804.572 2602.77,787.472L2598.99,787.472ZM2398.87,787.472L2361.52,787.472C2351.71,880.699 2316.45,906.502 2292.66,919.208C2287.66,921.881 2283.16,923.942 2279.52,925.929C2276.73,927.449 2274.49,928.761 2273.3,930.578C2272.19,932.267 2271.4,935.47 2270.78,939.734L2278.41,939.734C2287.24,939.734 2294.4,946.896 2294.4,955.717L2294.4,997.962C2294.4,1006.78 2287.24,1013.95 2278.41,1013.95L2271.66,1013.95C2272.13,1017.51 2272.65,1020.96 2273.24,1024.22L2395.93,1024.22C2395.93,1024.11 2395.92,1023.99 2395.92,1023.88L2395.92,1013.95L2390.78,1013.95C2389.41,1013.95 2388.09,1013.38 2387.15,1012.38C2386.2,1011.37 2385.71,1010.02 2385.79,1008.65L2398.87,787.472ZM2591.94,1013.95L2405.92,1013.95L2405.92,1023.88C2405.92,1024.07 2406.08,1024.22 2406.27,1024.22L2591.59,1024.22C2591.78,1024.22 2591.94,1024.07 2591.94,1023.88L2591.94,1013.95ZM2588.7,782.735L2588.18,773.996L2409.68,773.996L2409.16,782.737L2409.16,782.805L2396.09,1003.95L2601.77,1003.95L2588.7,782.806L2588.7,782.735ZM2269.72,949.734C2268.55,964.832 2268.78,985.268 2270.54,1003.95L2278.41,1003.95C2281.72,1003.95 2284.4,1001.26 2284.4,997.962L2284.4,955.717C2284.4,952.415 2281.72,949.734 2278.41,949.734L2269.72,949.734ZM2671.18,875.522C2644.17,875.522 2622.24,897.449 2622.24,924.456C2622.24,951.464 2644.17,973.391 2671.18,973.391C2698.18,973.391 2720.11,951.464 2720.11,924.456C2720.11,897.449 2698.18,875.522 2671.18,875.522ZM2666.18,885.841C2647.05,888.297 2632.24,904.661 2632.24,924.456C2632.24,945.945 2649.69,963.391 2671.18,963.391C2692.66,963.391 2710.11,945.945 2710.11,924.456C2710.11,904.661 2695.3,888.297 2676.18,885.841L2676.18,890.661C2676.18,893.42 2673.93,895.661 2671.18,895.661C2668.42,895.661 2666.18,893.42 2666.18,890.661L2666.18,885.841ZM2598.7,777.472L2598.7,612.959C2598.7,608.576 2595.14,605.018 2590.76,605.018L2407.11,605.018C2402.72,605.018 2399.16,608.576 2399.16,612.959L2399.16,777.472L2399.46,777.472L2399.98,768.701C2400.13,766.059 2402.32,763.996 2404.97,763.996L2592.89,763.996C2595.54,763.996 2597.73,766.059 2597.89,768.701L2598.4,777.472L2598.7,777.472ZM2593.17,663.644L2593.17,627.939C2593.17,619.096 2585.99,611.916 2577.15,611.916L2553.24,611.916C2550.48,611.916 2548.24,614.156 2548.24,616.916C2548.24,619.675 2550.48,621.916 2553.24,621.916L2577.15,621.916C2580.47,621.916 2583.17,624.615 2583.17,627.939L2583.17,663.644C2583.17,666.403 2585.41,668.644 2588.17,668.644C2590.93,668.644 2593.17,666.403 2593.17,663.644ZM2541.1,611.916L2535.74,611.916C2532.98,611.916 2530.74,614.156 2530.74,616.916C2530.74,619.675 2532.98,621.916 2535.74,621.916L2541.1,621.916C2543.86,621.916 2546.1,619.675 2546.1,616.916C2546.1,614.156 2543.86,611.916 2541.1,611.916ZM2587.58,595.018L2587.58,584.741L2410.29,584.741L2410.29,595.018L2587.58,595.018Z"/>
        </g>
    </g>
</svg>
