<?xml version="1.0" encoding="UTF-8" standalone="no"?>
<svg
   viewBox="0 0 256 256"
   version="1.1"
   xml:space="preserve"
   x="0px"
   y="0px"
   fill-rule="evenodd"
   clip-rule="evenodd"
   stroke-linejoin="round"
   stroke-miterlimit="2"
   id="svg3"
   sodipodi:docname="noun-top-view-camera-5622544.svg"
   width="256"
   height="256"
   inkscape:version="1.3.2 (091e20e, 2023-11-25)"
   xmlns:inkscape="http://www.inkscape.org/namespaces/inkscape"
   xmlns:sodipodi="http://sodipodi.sourceforge.net/DTD/sodipodi-0.dtd"
   xmlns="http://www.w3.org/2000/svg"
   xmlns:svg="http://www.w3.org/2000/svg"><defs
     id="defs3" /><sodipodi:namedview
     id="namedview3"
     pagecolor="#ffffff"
     bordercolor="#666666"
     borderopacity="1.0"
     inkscape:showpageshadow="2"
     inkscape:pageopacity="0.0"
     inkscape:pagecheckerboard="0"
     inkscape:deskcolor="#d1d1d1"
     inkscape:zoom="0.36875"
     inkscape:cx="256.27119"
     inkscape:cy="320"
     inkscape:window-width="1256"
     inkscape:window-height="828"
     inkscape:window-x="221"
     inkscape:window-y="33"
     inkscape:window-maximized="0"
     inkscape:current-layer="svg3" /><g
     transform="matrix(0.44099536,0,0,0.44099536,-977.06997,-229.86965)"
     id="g2"
     style="stroke-width:2.2676;fill:white;fill-opacity:1"><g
       id="g1"
       style="stroke-width:2.2676;fill:white;fill-opacity:1"><path
         d="M 2400.29,596.361 C 2393.76,599.047 2389.16,605.47 2389.16,612.959 V 777.472 H 2356.99 C 2354.41,777.472 2352.25,779.435 2352.01,782.004 C 2347.09,834.336 2334.19,865.053 2319.64,883.998 C 2305.33,902.623 2289.5,909.66 2278.8,915.035 C 2272.23,918.336 2267.39,921.354 2264.94,925.094 C 2262.95,928.123 2261.24,934.875 2260.22,943.928 C 2260.2,944.096 2260.18,944.268 2260.17,944.442 C 2260.07,945.399 2259.97,946.382 2259.88,947.389 C 2258.43,964.264 2258.76,988.188 2261.04,1009.24 C 2261.05,1009.41 2261.07,1009.58 2261.1,1009.74 C 2261.9,1017.07 2262.94,1024.05 2264.22,1030.24 C 2264.7,1032.56 2266.75,1034.22 2269.12,1034.22 H 2402.68 V 1056.26 C 2402.68,1057.83 2403.42,1059.31 2404.68,1060.25 C 2405.93,1061.2 2407.55,1061.5 2409.06,1061.07 C 2468.97,1043.85 2528.88,1043.71 2588.79,1061.06 C 2590.3,1061.5 2591.93,1061.2 2593.18,1060.26 C 2594.44,1059.31 2595.18,1057.83 2595.18,1056.26 V 1034.22 H 2738.88 C 2741.25,1034.22 2743.3,1032.56 2743.78,1030.24 C 2749.42,1002.98 2750.39,901.599 2747.09,856.903 C 2746.49,848.811 2745.74,842.518 2744.88,838.744 C 2744.35,836.398 2743.66,834.765 2743.06,833.846 C 2739.35,828.182 2715.71,773.627 2715.71,773.627 C 2714.93,771.832 2713.18,770.656 2711.22,770.62 L 2655.09,769.585 C 2653.76,769.56 2652.48,770.065 2651.52,770.988 C 2650.57,771.911 2650.02,773.177 2650,774.505 C 2650,774.505 2649.5,805.639 2649.41,824.765 C 2641.14,824.364 2634.4,822.063 2629.03,818.048 C 2619.22,810.7 2614.11,797.903 2612.04,781.832 C 2611.79,779.899 2610.45,778.343 2608.7,777.741 V 612.959 C 2608.7,605.47 2604.1,599.047 2597.58,596.361 V 581.562 C 2597.58,577.797 2594.52,574.741 2590.75,574.741 H 2407.11 C 2403.34,574.741 2400.29,577.797 2400.29,581.562 Z M 2585.18,1034.22 H 2412.68 V 1049.68 C 2470.18,1034.29 2527.68,1034.17 2585.18,1049.67 Z M 2598.99,787.472 L 2612.07,1008.65 C 2612.15,1010.02 2611.66,1011.37 2610.72,1012.38 C 2609.77,1013.38 2608.45,1013.95 2607.08,1013.95 H 2601.94 V 1023.88 C 2601.94,1023.99 2601.94,1024.11 2601.93,1024.22 H 2734.7 C 2739.61,992.653 2740.22,899.672 2737.12,857.638 C 2736.64,851.214 2736.09,846.011 2735.44,842.455 C 2735.17,841.006 2734.67,839.364 2734.62,839.213 C 2731.14,833.705 2712.87,792.081 2707.83,780.559 C 2707.83,780.559 2659.92,779.676 2659.92,779.676 C 2659.76,790.426 2659.4,815.849 2659.39,829.79 C 2659.39,832.48 2657.26,834.687 2654.57,834.783 C 2641.39,835.254 2631.03,832.036 2623.04,826.053 C 2612.23,817.955 2605.66,804.572 2602.77,787.472 Z M 2398.87,787.472 H 2361.52 C 2351.71,880.699 2316.45,906.502 2292.66,919.208 C 2287.66,921.881 2283.16,923.942 2279.52,925.929 C 2276.73,927.449 2274.49,928.761 2273.3,930.578 C 2272.19,932.267 2271.4,935.47 2270.78,939.734 H 2278.41 C 2287.24,939.734 2294.4,946.896 2294.4,955.717 C 2294.4,955.717 2294.4,997.962 2294.4,997.962 C 2294.4,1006.78 2287.24,1013.95 2278.41,1013.95 H 2271.66 C 2272.13,1017.51 2272.65,1020.96 2273.24,1024.22 H 2395.93 C 2395.93,1024.11 2395.92,1023.99 2395.92,1023.88 V 1013.95 H 2390.78 C 2389.41,1013.95 2388.09,1013.38 2387.15,1012.38 C 2386.2,1011.37 2385.71,1010.02 2385.79,1008.65 Z M 2591.94,1013.95 H 2405.92 V 1023.88 C 2405.92,1024.07 2406.08,1024.22 2406.27,1024.22 C 2406.27,1024.22 2591.59,1024.22 2591.59,1024.22 C 2591.78,1024.22 2591.94,1024.07 2591.94,1023.88 Z M 2588.7,782.735 L 2588.18,773.996 C 2588.18,773.996 2409.68,773.996 2409.68,773.996 L 2409.16,782.737 V 782.761 C 2409.16,782.772 2409.16,782.782 2409.16,782.793 V 782.805 L 2396.09,1003.95 V 1003.95 H 2400.92 H 2596.93 H 2601.77 L 2588.7,782.806 V 782.793 C 2588.7,782.782 2588.7,782.772 2588.7,782.761 Z M 2269.72,949.734 C 2268.55,964.832 2268.78,985.268 2270.54,1003.95 H 2278.41 C 2281.72,1003.95 2284.4,1001.26 2284.4,997.962 V 955.717 C 2284.4,952.415 2281.72,949.734 2278.41,949.734 Z M 2671.18,875.522 V 875.522 C 2644.17,875.522 2622.24,897.449 2622.24,924.456 C 2622.24,951.464 2644.17,973.391 2671.18,973.391 C 2698.18,973.391 2720.11,951.464 2720.11,924.456 C 2720.11,897.449 2698.18,875.522 2671.18,875.522 Z M 2666.18,885.841 C 2647.05,888.297 2632.24,904.661 2632.24,924.456 C 2632.24,945.945 2649.69,963.391 2671.18,963.391 C 2692.66,963.391 2710.11,945.945 2710.11,924.456 C 2710.11,904.661 2695.3,888.297 2676.18,885.841 V 890.661 C 2676.18,893.42 2673.93,895.661 2671.18,895.661 C 2668.42,895.661 2666.18,893.42 2666.18,890.661 Z M 2598.7,777.472 V 612.959 C 2598.7,608.576 2595.14,605.018 2590.76,605.018 H 2407.11 C 2402.72,605.018 2399.16,608.576 2399.16,612.959 V 777.472 H 2399.46 L 2399.98,768.701 C 2400.13,766.059 2402.32,763.996 2404.97,763.996 H 2592.89 C 2595.54,763.996 2597.73,766.059 2597.89,768.701 L 2598.4,777.472 Z M 2593.17,663.644 V 627.939 C 2593.17,619.096 2585.99,611.916 2577.15,611.916 C 2577.15,611.916 2553.24,611.916 2553.24,611.916 C 2550.48,611.916 2548.24,614.156 2548.24,616.916 C 2548.24,619.675 2550.48,621.916 2553.24,621.916 H 2577.15 C 2580.47,621.916 2583.17,624.615 2583.17,627.939 V 663.644 C 2583.17,666.403 2585.41,668.644 2588.17,668.644 C 2590.93,668.644 2593.17,666.403 2593.17,663.644 Z M 2541.1,611.916 H 2535.74 C 2532.98,611.916 2530.74,614.156 2530.74,616.916 C 2530.74,619.675 2532.98,621.916 2535.74,621.916 H 2541.1 C 2543.86,621.916 2546.1,619.675 2546.1,616.916 C 2546.1,614.156 2543.86,611.916 2541.1,611.916 Z M 2587.58,595.018 V 584.741 H 2410.29 V 595.018 Z"
         id="path1"
         style="stroke-width:2.2676;fill:white;fill-opacity:1" /></g></g></svg>
