<?xml version="1.0" encoding="utf-8"?>
<!-- Generator: Adobe Illustrator 22.1.0, SVG Export Plug-In . SVG Version: 6.00 Build 0)  -->
<svg version="1.1" xmlns="http://www.w3.org/2000/svg" xmlns:xlink="http://www.w3.org/1999/xlink" x="0px" y="0px"
	 viewBox="0 0 950 800" style="enable-background:new 0 0 950 800;" xml:space="preserve">
<style type="text/css">
	.st0{fill:#CCCCCC;}
	.st1{fill:#666666;}
	.st2{fill:none;}
	.st3{fill:#FFFFFF;}
	.st4{font-family:'MyriadPro-Regular';}
	.st5{font-size:19.2px;}
	.st6{display:none;}
	.st7{display:inline;}
	.st8{fill:#3399FF;}
	.st9{display:inline;fill:none;stroke:#3399FF;stroke-width:6.2733;stroke-miterlimit:10;}
	.st10{display:inline;fill:none;stroke:#3399FF;stroke-width:7.2855;stroke-miterlimit:10;}
	.st11{clip-path:url(#SVGID_8_);fill:#FFFFFF;}
	.st12{clip-path:url(#SVGID_10_);fill:#FFFFFF;}
	.st13{clip-path:url(#SVGID_12_);fill:#FFFFFF;}
	.st14{clip-path:url(#SVGID_14_);fill:#FFFFFF;}
	.st15{clip-path:url(#SVGID_16_);fill:#FFFFFF;}
	.st16{clip-path:url(#SVGID_18_);fill:#FFFFFF;}
	.st17{clip-path:url(#SVGID_20_);fill:#FFFFFF;}
	.st18{clip-path:url(#SVGID_22_);fill:#FFFFFF;}
	.st19{fill:#FF9933;}
	.st20{clip-path:url(#SVGID_24_);fill:#FFFFFF;}
	.st21{clip-path:url(#SVGID_26_);fill:#FFFFFF;}
	.st22{fill:none;stroke:#FF9933;stroke-width:4;stroke-miterlimit:10;}
	.st23{fill:none;stroke:#FF9933;stroke-width:3.3256;stroke-miterlimit:10;}
</style>
<g id="Floors_x2F_Rooms">
	<rect x="12" y="12" class="st0" width="925" height="771.9"/>
	<rect x="27.6" y="620.8" class="st1" width="893.4" height="152.6"/>
	<rect x="27.4" y="293.2" class="st1" width="211.4" height="314.7"/>
	<rect x="371" y="293.2" class="st1" width="211.4" height="314.7"/>
	<rect x="709.7" y="293.2" class="st1" width="211.4" height="314.7"/>
	<rect x="28" y="159" class="st1" width="893" height="121"/>
	<rect x="42.9" y="171.7" class="st2" width="194.9" height="23.3"/>
	<text transform="matrix(1 0 0 1 42.8941 185.3115)" class="st3 st4 st5">SECOND FLOOR</text>
	<rect x="28" y="22" class="st1" width="893" height="121"/>
	<rect x="35.9" y="32.7" class="st2" width="194.9" height="23.3"/>
	<text transform="matrix(1 0 0 1 35.8941 46.3115)" class="st3 st4 st5">THIRD FLOOR</text>
	<rect x="42.9" y="302.7" class="st2" width="194.9" height="23.3"/>
	<text transform="matrix(1 0 0 1 42.8941 316.3115)" class="st3 st4 st5">DINING ROOM</text>
	<rect x="379.8" y="302.7" class="st2" width="194.9" height="23.3"/>
	<text transform="matrix(1 0 0 1 379.814 316.3115)" class="st3 st4 st5">KITCHEN</text>
	<rect x="718.4" y="302.7" class="st2" width="194.9" height="23.3"/>
	<text transform="matrix(1 0 0 1 718.3535 316.3111)" class="st3 st4 st5">LIVING ROOM</text>
	<rect x="42.9" y="630.3" class="st2" width="100.2" height="23.3"/>
	<text transform="matrix(1 0 0 1 42.894 643.9067)" class="st3 st4 st5">BASEMENT</text>
</g>
<g id="Network_Devices" class="st6">
	
		<image style="display:inline;overflow:visible;" width="1280" height="1280" xlink:href="CM500-100NAR-1__32091.1595380297.jpg.png"  transform="matrix(8.984375e-02 0 0 8.984375e-02 14 642)">
	</image>
	<g id="_x38_357713_x5F_3512.psd_3_" class="st7">
		<defs>
			<rect id="SVGID_1_" x="441" y="184" width="88" height="88"/>
		</defs>
		<clipPath id="SVGID_2_">
			<use xlink:href="#SVGID_1_"  style="overflow:visible;"/>
		</clipPath>
		<g style="clip-path:url(#SVGID_2_);">
			
				<image style="overflow:visible;" width="518" height="1120" id="Layer_0" xlink:href="46EBCE27CA378A0B.png"  transform="matrix(7.760141e-02 0 0 7.760141e-02 465.0564 184.6984)">
			</image>
		</g>
	</g>
	<g id="_x38_357713_x5F_3512.psd_1_" class="st7">
		<defs>
			<rect id="SVGID_3_" x="824" y="514" width="88" height="88"/>
		</defs>
		<clipPath id="SVGID_4_">
			<use xlink:href="#SVGID_3_"  style="overflow:visible;"/>
		</clipPath>
		<g style="clip-path:url(#SVGID_4_);">
			
				<image style="overflow:visible;" width="518" height="1120" id="Layer_0_1_" xlink:href="46EBCE27CA378A09.png"  transform="matrix(7.760141e-02 0 0 7.760141e-02 848.0565 514.6984)">
			</image>
		</g>
	</g>
	<g id="_x38_357713_x5F_3512.psd_4_" class="st7">
		<defs>
			<rect id="SVGID_5_" x="146" y="514" width="88" height="88"/>
		</defs>
		<clipPath id="SVGID_6_">
			<use xlink:href="#SVGID_5_"  style="overflow:visible;"/>
		</clipPath>
		<g style="clip-path:url(#SVGID_6_);">
			
				<image style="overflow:visible;" width="518" height="1120" id="Layer_0_2_" xlink:href="46EBCE27CA378A0F.png"  transform="matrix(7.760141e-02 0 0 7.760141e-02 170.0564 514.6984)">
			</image>
		</g>
	</g>
</g>
<g id="Connection_Types" class="st6">
	<g class="st7">
		<path class="st8" d="M121.3,564.3c-0.1,0.2-0.2,0.3-0.4,0.5c-3.1,3.1-6.1,6.1-9.2,9.2c-0.5,0.5-0.9,0.9-1.4,1.4
			c-0.4,0.3-0.4,0.6,0,1c3.5,3.5,7,7,10.5,10.5c0.5,0.5,0.5,0.5,0,1c-1,1-2,2-2.9,3c-0.3,0.3-0.5,0.3-0.8,0
			c-4.9-4.9-9.7-9.7-14.6-14.6c-0.3-0.3-0.3-0.4,0-0.7c4.9-4.9,9.8-9.8,14.6-14.6c0.2-0.2,0.4-0.3,0.7-0.1c1.1,1.1,2.2,2.2,3.2,3.3
			C121.2,564.1,121.3,564.2,121.3,564.3z"/>
		<path class="st8" d="M148.1,560.5c0.2,0,0.3,0.2,0.4,0.3c1.1,1.1,2.1,2.1,3.2,3.2c3.8,3.8,7.5,7.5,11.3,11.3c0.5,0.5,0.5,0.5,0,1
			c-4.8,4.8-9.6,9.6-14.4,14.4c-0.4,0.4-0.6,0.4-0.9,0c-0.9-1-1.9-1.9-2.9-2.9c-0.5-0.5-0.5-0.5,0-1c3.5-3.5,7-7,10.6-10.5
			c0.3-0.3,0.4-0.5,0-0.9c-3.5-3.5-7.1-7.1-10.6-10.6c-0.4-0.4-0.4-0.6,0-1c1-1,2-2,3-3C147.8,560.7,147.9,560.6,148.1,560.5z"/>
		<path class="st8" d="M124.9,575.8c0,1.5-1.2,2.7-2.7,2.7c-1.6,0-2.7-1.1-2.7-2.7c0-1.5,1.2-2.7,2.7-2.7
			C123.7,573.1,124.9,574.2,124.9,575.8z"/>
		<path class="st8" d="M132.9,573.1c1.5,0,2.7,1.2,2.7,2.7c0,1.5-1.2,2.7-2.7,2.7c-1.6,0-2.7-1.2-2.7-2.8
			C130.2,574.2,131.3,573.1,132.9,573.1z"/>
		<path class="st8" d="M143.6,578.5c-1.5,0-2.7-1.2-2.7-2.7c0-1.6,1.1-2.8,2.7-2.8c1.5,0,2.7,1.2,2.7,2.7
			C146.3,577.3,145.1,578.5,143.6,578.5z"/>
	</g>
	<g class="st7">
		<path class="st8" d="M559.8,241.3c-1.2,1.2-2.4,2.4-3.6,3.6c-6.1-5.8-13.4-8.8-21.9-8.8c-8.5,0.1-15.7,3.2-21.7,9.1
			c-1.2-1.2-2.4-2.4-3.6-3.6C521.9,228.1,545.3,226.9,559.8,241.3z"/>
		<path class="st8" d="M552.3,248.8c-1.2,1.2-2.4,2.4-3.6,3.6c-4-3.9-8.9-5.9-14.5-5.9c-5.6,0-10.5,2.1-14.5,5.9
			c-1.2-1.2-2.4-2.4-3.6-3.6C524.8,239.4,541.8,238.2,552.3,248.8z"/>
		<path class="st8" d="M545,256.1c-1.2,1.2-2.4,2.4-3.6,3.6c-4.3-4.2-10.9-3.6-14.5,0c-1.2-1.2-2.4-2.4-3.6-3.6
			C528.4,250.6,538.7,249.7,545,256.1z"/>
		<path class="st8" d="M534.2,267c-1.2-1.2-2.4-2.4-3.6-3.6c1.6-2,5.3-2,7.2,0c-0.1,0.1-0.1,0.2-0.2,0.2
			C536.5,264.8,535.3,265.9,534.2,267z"/>
	</g>
	<g class="st7">
		<path class="st8" d="M837.8,568.3c-1.2,1.2-2.4,2.4-3.6,3.6c-6.1-5.8-13.4-8.8-21.9-8.8c-8.5,0.1-15.7,3.2-21.7,9.1
			c-1.2-1.2-2.4-2.4-3.6-3.6C799.9,555.1,823.3,553.9,837.8,568.3z"/>
		<path class="st8" d="M830.3,575.8c-1.2,1.2-2.4,2.4-3.6,3.6c-4-3.9-8.9-5.9-14.5-5.9c-5.6,0-10.5,2.1-14.5,5.9
			c-1.2-1.2-2.4-2.4-3.6-3.6C802.8,566.4,819.8,565.2,830.3,575.8z"/>
		<path class="st8" d="M823,583.1c-1.2,1.2-2.4,2.4-3.6,3.6c-4.3-4.2-10.9-3.6-14.5,0c-1.2-1.2-2.4-2.4-3.6-3.6
			C806.4,577.6,816.7,576.7,823,583.1z"/>
		<path class="st8" d="M812.2,594c-1.2-1.2-2.4-2.4-3.6-3.6c1.6-2,5.3-2,7.2,0c-0.1,0.1-0.1,0.2-0.2,0.2
			C814.5,591.8,813.3,592.9,812.2,594z"/>
	</g>
</g>
<g id="Cable_x2F_Ethernet" class="st6">
	<line class="st9" x1="-12" y1="703" x2="49" y2="703"/>
	<polyline class="st10" points="93,703 190,703 190,597 	"/>
</g>
<g id="Airplay">
	<g>
		<g>
			<g>
				<defs>
					<path id="SVGID_7_" d="M186.2,112.9l-5.6,6.5c-0.2,0.2-0.1,0.6,0.2,0.6h11.4c0.3,0,0.5-0.4,0.3-0.6l-5.6-6.5
						c-0.1-0.1-0.2-0.2-0.3-0.2C186.4,112.7,186.3,112.8,186.2,112.9"/>
				</defs>
				<use xlink:href="#SVGID_7_"  style="overflow:visible;fill:#FFFFFF;"/>
				<clipPath id="SVGID_8_">
					<use xlink:href="#SVGID_7_"  style="overflow:visible;"/>
				</clipPath>
				<rect x="177.8" y="110.1" class="st11" width="17.4" height="12.6"/>
			</g>
		</g>
		<g>
			<defs>
				<path id="SVGID_9_" d="M182.3,110.5c0,1.3,0.5,2.4,1.4,3.2c0,0,0.1,0.1,0.2,0.1c0,0,0.1,0,0.2,0c0,0,0.1-0.1,0.1-0.1
					c0.2-0.2,0.3-0.4,0.5-0.5l0,0c0,0,0-0.1,0-0.1l0,0c-0.7-0.6-1.2-1.5-1.2-2.5c0-1.7,1.4-3.2,3.2-3.2c1.7,0,3.2,1.4,3.2,3.2
					c0,1-0.5,1.9-1.2,2.5c0,0,0,0.1,0,0.1l0,0l0,0c0.2,0.2,0.3,0.4,0.5,0.5c0,0,0,0.1,0.1,0.1c0,0,0.1,0,0.2,0
					c0.1,0,0.1-0.1,0.2-0.1c0.9-0.8,1.4-1.9,1.4-3.2c0-2.3-1.9-4.2-4.2-4.2C184.3,106.3,182.3,108.2,182.3,110.5 M179.6,110.5
					c0,2.1,0.9,4,2.5,5.3l0,0l0,0c0,0,0.1,0,0.2,0c0,0,0,0,0,0c0.2-0.2,0.4-0.4,0.5-0.5c0,0,0,0,0.1-0.1c0,0,0-0.1,0-0.1l0,0l0,0
					c-1.3-1.1-2.1-2.7-2.1-4.5c0-3.2,2.6-5.8,5.8-5.8s5.8,2.6,5.8,5.8c0,1.8-0.8,3.4-2.1,4.5c0,0,0,0-0.1,0.1s0,0.1,0,0.1l0,0
					c0,0,0,0.1,0.1,0.1c0.1,0.1,0.2,0.3,0.5,0.5l0,0l0,0c0,0,0.1,0,0.1,0c0,0,0,0,0,0c1.5-1.2,2.5-3.1,2.5-5.3
					c0-3.8-3.1-6.9-6.9-6.9S179.6,106.7,179.6,110.5 M177,110.5c0,2.9,1.3,5.5,3.4,7.3c0,0,0,0,0,0c0,0,0.1,0,0.2,0l0,0
					c0.2-0.2,0.4-0.5,0.5-0.6c0,0,0,0,0,0c0,0,0-0.1,0-0.2l0,0c0,0,0,0,0,0c-1.9-1.5-3.1-3.8-3.1-6.4c0-4.7,3.8-8.4,8.4-8.4
					s8.4,3.8,8.4,8.4c0,2.6-1.2,5-3.1,6.5c0,0,0,0,0,0l0,0c0,0,0,0.1,0,0.1l0,0c0,0,0,0,0,0c0.1,0.2,0.3,0.4,0.5,0.6l0,0
					c0,0,0.1,0,0.1,0l0,0c2.1-1.7,3.5-4.4,3.5-7.3c0-5.2-4.3-9.5-9.5-9.5S177,105.3,177,110.5"/>
			</defs>
			<use xlink:href="#SVGID_9_"  style="overflow:visible;fill:#FFFFFF;"/>
			<clipPath id="SVGID_10_">
				<use xlink:href="#SVGID_9_"  style="overflow:visible;"/>
			</clipPath>
			<rect x="174.4" y="98.4" class="st12" width="24.3" height="22.1"/>
		</g>
	</g>
	<rect x="464.8" y="227.7" class="st2" width="194.9" height="23.3"/>
	<text transform="matrix(1 0 0 1 464.814 241.3115)" class="st3 st4 st5">Hallway Speaker</text>
	<rect x="206.8" y="103.7" class="st2" width="194.9" height="23.3"/>
	<text transform="matrix(1 0 0 1 206.814 117.3115)" class="st3 st4 st5">Office Speaker</text>
	<rect x="42.8" y="380.7" class="st2" width="194.9" height="23.3"/>
	<text transform="matrix(1 0 0 1 42.814 394.3115)" class="st3 st4 st5">Dining Room Speakers</text>
	<rect x="426.8" y="342.7" class="st2" width="194.9" height="23.3"/>
	<text transform="matrix(1 0 0 1 426.814 356.3115)" class="st3 st4 st5">Kitchen Speakers</text>
	<rect x="750.8" y="351.7" class="st2" width="194.9" height="23.3"/>
	<text transform="matrix(1 0 0 1 750.814 365.3115)" class="st3 st4 st5">Living Room Speakers</text>
	<g>
		
			<image style="overflow:visible;" width="440" height="252" id="AirPortEx-3D-cropped_x7E_mac_3_" xlink:href="46EBCE27CA378A0A.png"  transform="matrix(0.1795 0 0 0.1707 437 364)">
		</image>
	</g>
	<g>
		
			<image style="overflow:visible;" width="440" height="252" id="AirPortEx-3D-cropped_x7E_mac_5_" xlink:href="46EBCE27CA378A05.png"  transform="matrix(0.1795 0 0 0.1707 721 416)">
		</image>
	</g>
	<g>
		<g>
			<g>
				<defs>
					<path id="SVGID_11_" d="M400.2,352.9l-5.6,6.5c-0.2,0.2-0.1,0.6,0.2,0.6h11.4c0.3,0,0.5-0.4,0.3-0.6l-5.6-6.5
						c-0.1-0.1-0.2-0.2-0.3-0.2C400.4,352.7,400.3,352.8,400.2,352.9"/>
				</defs>
				<use xlink:href="#SVGID_11_"  style="overflow:visible;fill:#FFFFFF;"/>
				<clipPath id="SVGID_12_">
					<use xlink:href="#SVGID_11_"  style="overflow:visible;"/>
				</clipPath>
				<rect x="391.8" y="350.1" class="st13" width="17.4" height="12.6"/>
			</g>
		</g>
		<g>
			<defs>
				<path id="SVGID_13_" d="M396.3,350.5c0,1.3,0.5,2.4,1.4,3.2c0,0,0.1,0.1,0.2,0.1c0,0,0.1,0,0.2,0c0,0,0.1-0.1,0.1-0.1
					c0.2-0.2,0.3-0.4,0.5-0.5l0,0c0,0,0-0.1,0-0.1l0,0c-0.7-0.6-1.2-1.5-1.2-2.5c0-1.7,1.4-3.2,3.2-3.2c1.7,0,3.2,1.4,3.2,3.2
					c0,1-0.5,1.9-1.2,2.5c0,0,0,0.1,0,0.1l0,0l0,0c0.2,0.2,0.3,0.4,0.5,0.5c0,0,0,0.1,0.1,0.1c0,0,0.1,0,0.2,0
					c0.1,0,0.1-0.1,0.2-0.1c0.9-0.8,1.4-1.9,1.4-3.2c0-2.3-1.9-4.2-4.2-4.2S396.3,348.2,396.3,350.5 M393.6,350.5c0,2.1,1,4,2.5,5.3
					l0,0l0,0c0,0,0.1,0,0.2,0c0,0,0,0,0,0c0.2-0.2,0.4-0.4,0.5-0.5c0,0,0,0,0.1-0.1c0,0,0-0.1,0-0.1l0,0l0,0
					c-1.3-1.1-2.1-2.7-2.1-4.5c0-3.2,2.6-5.8,5.8-5.8c3.2,0,5.8,2.6,5.8,5.8c0,1.8-0.8,3.4-2.1,4.5c0,0,0,0-0.1,0.1c0,0,0,0.1,0,0.1
					l0,0c0,0,0,0.1,0.1,0.1c0.1,0.1,0.2,0.3,0.5,0.5l0,0l0,0c0,0,0.1,0,0.1,0c0,0,0,0,0,0c1.5-1.2,2.5-3.1,2.5-5.3
					c0-3.8-3.1-6.9-6.9-6.9C396.7,343.7,393.6,346.7,393.6,350.5 M391,350.5c0,2.9,1.3,5.5,3.4,7.3c0,0,0,0,0,0c0,0,0.1,0,0.2,0l0,0
					c0.2-0.2,0.4-0.5,0.5-0.6c0,0,0,0,0,0c0,0,0-0.1,0-0.2l0,0c0,0,0,0,0,0c-1.9-1.5-3.1-3.8-3.1-6.4c0-4.7,3.8-8.4,8.4-8.4
					s8.4,3.8,8.4,8.4c0,2.6-1.2,5-3.1,6.5c0,0,0,0,0,0l0,0c0,0,0,0.1,0,0.1l0,0c0,0,0,0,0,0c0.1,0.2,0.3,0.4,0.5,0.6l0,0
					c0,0,0.1,0,0.1,0l0,0c2.1-1.7,3.5-4.4,3.5-7.3c0-5.2-4.3-9.5-9.5-9.5S391,345.3,391,350.5"/>
			</defs>
			<use xlink:href="#SVGID_13_"  style="overflow:visible;fill:#FFFFFF;"/>
			<clipPath id="SVGID_14_">
				<use xlink:href="#SVGID_13_"  style="overflow:visible;"/>
			</clipPath>
			<rect x="388.4" y="338.4" class="st14" width="24.3" height="22.1"/>
		</g>
	</g>
	<g>
		<g>
			<g>
				<defs>
					<path id="SVGID_15_" d="M57.2,365.9l-5.6,6.5c-0.2,0.2-0.1,0.6,0.2,0.6h11.4c0.3,0,0.5-0.4,0.3-0.6l-5.6-6.5
						c-0.1-0.1-0.2-0.2-0.3-0.2C57.4,365.7,57.3,365.8,57.2,365.9"/>
				</defs>
				<use xlink:href="#SVGID_15_"  style="overflow:visible;fill:#FFFFFF;"/>
				<clipPath id="SVGID_16_">
					<use xlink:href="#SVGID_15_"  style="overflow:visible;"/>
				</clipPath>
				<rect x="48.8" y="363.1" class="st15" width="17.4" height="12.6"/>
			</g>
		</g>
		<g>
			<defs>
				<path id="SVGID_17_" d="M53.3,363.5c0,1.3,0.5,2.4,1.4,3.2c0,0,0.1,0.1,0.2,0.1c0,0,0.1,0,0.2,0c0,0,0.1-0.1,0.1-0.1
					c0.2-0.2,0.3-0.4,0.5-0.5l0,0c0,0,0-0.1,0-0.1l0,0c-0.7-0.6-1.2-1.5-1.2-2.5c0-1.7,1.4-3.2,3.2-3.2c1.7,0,3.2,1.4,3.2,3.2
					c0,1-0.5,1.9-1.2,2.5c0,0,0,0.1,0,0.1l0,0l0,0c0.2,0.2,0.3,0.4,0.5,0.5c0,0,0,0.1,0.1,0.1c0,0,0.1,0,0.2,0
					c0.1,0,0.1-0.1,0.2-0.1c0.9-0.8,1.4-1.9,1.4-3.2c0-2.3-1.9-4.2-4.2-4.2C55.3,359.3,53.3,361.2,53.3,363.5 M50.6,363.5
					c0,2.1,1,4,2.5,5.3l0,0l0,0c0,0,0.1,0,0.2,0c0,0,0,0,0,0c0.2-0.2,0.4-0.4,0.5-0.5c0,0,0,0,0.1-0.1c0,0,0-0.1,0-0.1l0,0l0,0
					c-1.3-1.1-2.1-2.7-2.1-4.5c0-3.2,2.6-5.8,5.8-5.8c3.2,0,5.8,2.6,5.8,5.8c0,1.8-0.8,3.4-2.1,4.5c0,0,0,0-0.1,0.1c0,0,0,0.1,0,0.1
					l0,0c0,0,0,0.1,0.1,0.1c0.1,0.1,0.2,0.3,0.5,0.5l0,0l0,0c0,0,0.1,0,0.1,0c0,0,0,0,0,0c1.5-1.2,2.5-3.1,2.5-5.3
					c0-3.8-3.1-6.9-6.9-6.9S50.6,359.7,50.6,363.5 M48,363.5c0,2.9,1.3,5.5,3.4,7.3c0,0,0,0,0,0c0,0,0.1,0,0.2,0l0,0
					c0.2-0.2,0.4-0.5,0.5-0.6c0,0,0,0,0,0c0,0,0-0.1,0-0.2l0,0c0,0,0,0,0,0c-1.9-1.5-3.1-3.8-3.1-6.4c0-4.7,3.8-8.4,8.4-8.4
					s8.4,3.8,8.4,8.4c0,2.6-1.2,5-3.1,6.5c0,0,0,0,0,0l0,0c0,0,0,0.1,0,0.1l0,0c0,0,0,0,0,0c0.1,0.2,0.3,0.4,0.5,0.6l0,0
					c0,0,0.1,0,0.1,0l0,0c2.1-1.7,3.5-4.4,3.5-7.3c0-5.2-4.3-9.5-9.5-9.5S48,358.3,48,363.5"/>
			</defs>
			<use xlink:href="#SVGID_17_"  style="overflow:visible;fill:#FFFFFF;"/>
			<clipPath id="SVGID_18_">
				<use xlink:href="#SVGID_17_"  style="overflow:visible;"/>
			</clipPath>
			<rect x="45.4" y="351.4" class="st16" width="24.3" height="22.1"/>
		</g>
	</g>
	<g>
		
			<image style="overflow:visible;" width="440" height="252" id="AirPortEx-3D-cropped_x7E_mac_1_" xlink:href="46EBCE27CA378A06.png"  transform="matrix(0.1795 0 0 0.1707 447 710)">
		</image>
	</g>
	<g>
		<g>
			<g>
				<defs>
					<path id="SVGID_19_" d="M446.2,239.9l-5.6,6.5c-0.2,0.2-0.1,0.6,0.2,0.6h11.4c0.3,0,0.5-0.4,0.3-0.6l-5.6-6.5
						c-0.1-0.1-0.2-0.2-0.3-0.2C446.4,239.7,446.3,239.8,446.2,239.9"/>
				</defs>
				<use xlink:href="#SVGID_19_"  style="overflow:visible;fill:#FFFFFF;"/>
				<clipPath id="SVGID_20_">
					<use xlink:href="#SVGID_19_"  style="overflow:visible;"/>
				</clipPath>
				<rect x="437.8" y="237.1" class="st17" width="17.4" height="12.6"/>
			</g>
		</g>
		<g>
			<defs>
				<path id="SVGID_21_" d="M442.3,237.5c0,1.3,0.5,2.4,1.4,3.2c0,0,0.1,0.1,0.2,0.1c0,0,0.1,0,0.2,0c0,0,0.1-0.1,0.1-0.1
					c0.2-0.2,0.3-0.4,0.5-0.5l0,0c0,0,0-0.1,0-0.1l0,0c-0.7-0.6-1.2-1.5-1.2-2.5c0-1.7,1.4-3.2,3.2-3.2c1.7,0,3.2,1.4,3.2,3.2
					c0,1-0.5,1.9-1.2,2.5c0,0,0,0.1,0,0.1l0,0l0,0c0.2,0.2,0.3,0.4,0.5,0.5c0,0,0,0.1,0.1,0.1c0,0,0.1,0,0.2,0s0.1-0.1,0.2-0.1
					c0.9-0.8,1.4-1.9,1.4-3.2c0-2.3-1.9-4.2-4.2-4.2S442.3,235.2,442.3,237.5 M439.6,237.5c0,2.1,1,4,2.5,5.3l0,0l0,0
					c0,0,0.1,0,0.2,0c0,0,0,0,0,0c0.2-0.2,0.4-0.4,0.5-0.5c0,0,0,0,0.1-0.1c0,0,0-0.1,0-0.1l0,0l0,0c-1.3-1.1-2.1-2.7-2.1-4.5
					c0-3.2,2.6-5.8,5.8-5.8c3.2,0,5.8,2.6,5.8,5.8c0,1.8-0.8,3.4-2.1,4.5c0,0,0,0-0.1,0.1c0,0,0,0.1,0,0.1l0,0c0,0,0,0.1,0.1,0.1
					c0.1,0.1,0.2,0.3,0.5,0.5l0,0l0,0c0,0,0.1,0,0.1,0c0,0,0,0,0,0c1.5-1.2,2.5-3.1,2.5-5.3c0-3.8-3.1-6.9-6.9-6.9
					C442.7,230.7,439.6,233.7,439.6,237.5 M437,237.5c0,2.9,1.3,5.5,3.4,7.3c0,0,0,0,0,0c0,0,0.1,0,0.2,0l0,0
					c0.2-0.2,0.4-0.5,0.5-0.6c0,0,0,0,0,0c0,0,0-0.1,0-0.2l0,0c0,0,0,0,0,0c-1.9-1.5-3.1-3.8-3.1-6.4c0-4.7,3.8-8.4,8.4-8.4
					s8.4,3.8,8.4,8.4c0,2.6-1.2,5-3.1,6.5c0,0,0,0,0,0l0,0c0,0,0,0.1,0,0.1l0,0c0,0,0,0,0,0c0.1,0.2,0.3,0.4,0.5,0.6l0,0
					c0,0,0.1,0,0.1,0l0,0c2.1-1.7,3.5-4.4,3.5-7.3c0-5.2-4.3-9.5-9.5-9.5S437,232.3,437,237.5"/>
			</defs>
			<use xlink:href="#SVGID_21_"  style="overflow:visible;fill:#FFFFFF;"/>
			<clipPath id="SVGID_22_">
				<use xlink:href="#SVGID_21_"  style="overflow:visible;"/>
			</clipPath>
			<rect x="434.4" y="225.4" class="st18" width="24.3" height="22.1"/>
		</g>
	</g>
	<g>
		<path class="st19" d="M114.8,80.3c-1.2,1.2-2.4,2.4-3.6,3.6c-6.1-5.8-13.4-8.8-21.9-8.8c-8.5,0.1-15.7,3.2-21.7,9.1
			c-1.2-1.2-2.4-2.4-3.6-3.6C76.9,67.1,100.3,65.9,114.8,80.3z"/>
		<path class="st19" d="M107.3,87.8c-1.2,1.2-2.4,2.4-3.6,3.6c-4-3.9-8.9-5.9-14.5-5.9c-5.6,0-10.5,2.1-14.5,5.9
			c-1.2-1.2-2.4-2.4-3.6-3.6C79.8,78.4,96.8,77.2,107.3,87.8z"/>
		<path class="st19" d="M100,95.1c-1.2,1.2-2.4,2.4-3.6,3.6c-4.3-4.2-10.9-3.6-14.5,0c-1.2-1.2-2.4-2.4-3.6-3.6
			C83.4,89.6,93.7,88.7,100,95.1z"/>
		<path class="st19" d="M89.2,106c-1.2-1.2-2.4-2.4-3.6-3.6c1.6-2,5.3-2,7.2,0c-0.1,0.1-0.1,0.2-0.2,0.2
			C91.5,103.8,90.3,104.9,89.2,106z"/>
	</g>
	<g>
		<path class="st19" d="M370.8,215.3c-1.2,1.2-2.4,2.4-3.6,3.6c-6.1-5.8-13.4-8.8-21.9-8.8c-8.5,0.1-15.7,3.2-21.7,9.1
			c-1.2-1.2-2.4-2.4-3.6-3.6C332.9,202.1,356.3,200.9,370.8,215.3z"/>
		<path class="st19" d="M363.3,222.8c-1.2,1.2-2.4,2.4-3.6,3.6c-4-3.9-8.9-5.9-14.5-5.9c-5.6,0-10.5,2.1-14.5,5.9
			c-1.2-1.2-2.4-2.4-3.6-3.6C335.8,213.4,352.8,212.2,363.3,222.8z"/>
		<path class="st19" d="M356,230.1c-1.2,1.2-2.4,2.4-3.6,3.6c-4.3-4.2-10.9-3.6-14.5,0c-1.2-1.2-2.4-2.4-3.6-3.6
			C339.4,224.6,349.7,223.7,356,230.1z"/>
		<path class="st19" d="M345.2,241c-1.2-1.2-2.4-2.4-3.6-3.6c1.6-2,5.3-2,7.2,0c-0.1,0.1-0.1,0.2-0.2,0.2
			C347.5,238.8,346.3,239.9,345.2,241z"/>
	</g>
	<g>
		<g>
			<g>
				<defs>
					<path id="SVGID_23_" d="M727.2,361.9l-5.6,6.5c-0.2,0.2-0.1,0.6,0.2,0.6h11.4c0.3,0,0.5-0.4,0.3-0.6l-5.6-6.5
						c-0.1-0.1-0.2-0.2-0.3-0.2C727.4,361.7,727.3,361.8,727.2,361.9"/>
				</defs>
				<use xlink:href="#SVGID_23_"  style="overflow:visible;fill:#FFFFFF;"/>
				<clipPath id="SVGID_24_">
					<use xlink:href="#SVGID_23_"  style="overflow:visible;"/>
				</clipPath>
				<rect x="718.8" y="359.1" class="st20" width="17.4" height="12.6"/>
			</g>
		</g>
		<g>
			<defs>
				<path id="SVGID_25_" d="M723.3,359.5c0,1.3,0.5,2.4,1.4,3.2c0,0,0.1,0.1,0.2,0.1c0,0,0.1,0,0.2,0c0,0,0.1-0.1,0.1-0.1
					c0.2-0.2,0.3-0.4,0.5-0.5l0,0c0,0,0-0.1,0-0.1l0,0c-0.7-0.6-1.2-1.5-1.2-2.5c0-1.7,1.4-3.2,3.2-3.2c1.7,0,3.2,1.4,3.2,3.2
					c0,1-0.5,1.9-1.2,2.5c0,0,0,0.1,0,0.1l0,0l0,0c0.2,0.2,0.3,0.4,0.5,0.5c0,0,0,0.1,0.1,0.1c0,0,0.1,0,0.2,0
					c0.1,0,0.1-0.1,0.2-0.1c0.9-0.8,1.4-1.9,1.4-3.2c0-2.3-1.9-4.2-4.2-4.2C725.3,355.3,723.3,357.2,723.3,359.5 M720.6,359.5
					c0,2.1,1,4,2.5,5.3l0,0l0,0c0,0,0.1,0,0.2,0c0,0,0,0,0,0c0.2-0.2,0.4-0.4,0.5-0.5c0,0,0,0,0.1-0.1c0,0,0-0.1,0-0.1l0,0l0,0
					c-1.3-1.1-2.1-2.7-2.1-4.5c0-3.2,2.6-5.8,5.8-5.8s5.8,2.6,5.8,5.8c0,1.8-0.8,3.4-2.1,4.5c0,0,0,0-0.1,0.1c0,0,0,0.1,0,0.1l0,0
					c0,0,0,0.1,0.1,0.1c0.1,0.1,0.2,0.3,0.5,0.5l0,0l0,0c0,0,0.1,0,0.1,0c0,0,0,0,0,0c1.5-1.2,2.5-3.1,2.5-5.3
					c0-3.8-3.1-6.9-6.9-6.9S720.6,355.7,720.6,359.5 M718,359.5c0,2.9,1.3,5.5,3.4,7.3c0,0,0,0,0,0c0,0,0.1,0,0.2,0l0,0
					c0.2-0.2,0.4-0.5,0.5-0.6c0,0,0,0,0,0c0,0,0-0.1,0-0.2l0,0c0,0,0,0,0,0c-1.9-1.5-3.1-3.8-3.1-6.4c0-4.7,3.8-8.4,8.4-8.4
					s8.4,3.8,8.4,8.4c0,2.6-1.2,5-3.1,6.5c0,0,0,0,0,0l0,0c0,0,0,0.1,0,0.1l0,0c0,0,0,0,0,0c0.1,0.2,0.3,0.4,0.5,0.6l0,0
					c0,0,0.1,0,0.1,0l0,0c2.1-1.7,3.5-4.4,3.5-7.3c0-5.2-4.3-9.5-9.5-9.5S718,354.3,718,359.5"/>
			</defs>
			<use xlink:href="#SVGID_25_"  style="overflow:visible;fill:#FFFFFF;"/>
			<clipPath id="SVGID_26_">
				<use xlink:href="#SVGID_25_"  style="overflow:visible;"/>
			</clipPath>
			<rect x="715.4" y="347.4" class="st21" width="24.3" height="22.1"/>
		</g>
	</g>
	<g>
		<path class="st19" d="M562.8,378.3c-1.2,1.2-2.4,2.4-3.6,3.6c-6.1-5.8-13.4-8.8-21.9-8.8c-8.5,0.1-15.7,3.2-21.7,9.1
			c-1.2-1.2-2.4-2.4-3.6-3.6C524.9,365.1,548.3,363.9,562.8,378.3z"/>
		<path class="st19" d="M555.3,385.8c-1.2,1.2-2.4,2.4-3.6,3.6c-4-3.9-8.9-5.9-14.5-5.9c-5.6,0-10.5,2.1-14.5,5.9
			c-1.2-1.2-2.4-2.4-3.6-3.6C527.8,376.4,544.8,375.2,555.3,385.8z"/>
		<path class="st19" d="M548,393.1c-1.2,1.2-2.4,2.4-3.6,3.6c-4.3-4.2-10.9-3.6-14.5,0c-1.2-1.2-2.4-2.4-3.6-3.6
			C531.4,387.6,541.7,386.7,548,393.1z"/>
		<path class="st19" d="M537.2,404c-1.2-1.2-2.4-2.4-3.6-3.6c1.6-2,5.3-2,7.2,0c-0.1,0.1-0.1,0.2-0.2,0.2
			C539.5,401.8,538.3,402.9,537.2,404z"/>
	</g>
	<g>
		<path class="st19" d="M454.8,718.3c-1.2,1.2-2.4,2.4-3.6,3.6c-6.1-5.8-13.4-8.8-21.9-8.8c-8.5,0.1-15.7,3.2-21.7,9.1
			c-1.2-1.2-2.4-2.4-3.6-3.6C416.9,705.1,440.3,703.9,454.8,718.3z"/>
		<path class="st19" d="M447.3,725.8c-1.2,1.2-2.4,2.4-3.6,3.6c-4-3.9-8.9-5.9-14.5-5.9c-5.6,0-10.5,2.1-14.5,5.9
			c-1.2-1.2-2.4-2.4-3.6-3.6C419.8,716.4,436.8,715.2,447.3,725.8z"/>
		<path class="st19" d="M440,733.1c-1.2,1.2-2.4,2.4-3.6,3.6c-4.3-4.2-10.9-3.6-14.5,0c-1.2-1.2-2.4-2.4-3.6-3.6
			C423.4,727.6,433.7,726.7,440,733.1z"/>
		<path class="st19" d="M429.2,744c-1.2-1.2-2.4-2.4-3.6-3.6c1.6-2,5.3-2,7.2,0c-0.1,0.1-0.1,0.2-0.2,0.2
			C431.5,741.8,430.3,742.9,429.2,744z"/>
	</g>
	<g>
		<path class="st19" d="M848.8,425.3c-1.2,1.2-2.4,2.4-3.6,3.6c-6.1-5.8-13.4-8.8-21.9-8.8c-8.5,0.1-15.7,3.2-21.7,9.1
			c-1.2-1.2-2.4-2.4-3.6-3.6C810.9,412.1,834.3,410.9,848.8,425.3z"/>
		<path class="st19" d="M841.3,432.8c-1.2,1.2-2.4,2.4-3.6,3.6c-4-3.9-8.9-5.9-14.5-5.9c-5.6,0-10.5,2.1-14.5,5.9
			c-1.2-1.2-2.4-2.4-3.6-3.6C813.8,423.4,830.8,422.2,841.3,432.8z"/>
		<path class="st19" d="M834,440.1c-1.2,1.2-2.4,2.4-3.6,3.6c-4.3-4.2-10.9-3.6-14.5,0c-1.2-1.2-2.4-2.4-3.6-3.6
			C817.4,434.6,827.7,433.7,834,440.1z"/>
		<path class="st19" d="M823.2,451c-1.2-1.2-2.4-2.4-3.6-3.6c1.6-2,5.3-2,7.2,0c-0.1,0.1-0.1,0.2-0.2,0.2
			C825.5,448.8,824.3,449.9,823.2,451z"/>
	</g>
</g>
<g id="Audio_Details">
	
		<image style="overflow:visible;" width="581" height="972" xlink:href="toppng.com-sonos-logo-sonos-one-581x972.png"  transform="matrix(7.407407e-02 0 0 7.407407e-02 122 56)">
	</image>
	<g>
		
			<image style="overflow:visible;" width="1213" height="509" id="_x37_1BNRXjjjcL._x5F_SL1300_x5F__3_" xlink:href="46EBCE27CA378A19.png"  transform="matrix(8.624516e-02 0 0 8.624516e-02 425 416)">
		</image>
	</g>
	<g>
		
			<image style="overflow:visible;" width="500" height="500" id="boston_x5F_acoustics_x5F_sndwrexsw_x5F_replacement_x5F_soundware_x5F_satellite_x5F_1464358890000_x5F_926020_8_" xlink:href="4014CBC03A06F352.png"  transform="matrix(0.1294 0 0 0.1294 47.6785 456.8279)">
		</image>
	</g>
	<g>
		
			<image style="overflow:visible;" width="500" height="500" id="boston_x5F_acoustics_x5F_sndwrexsw_x5F_replacement_x5F_soundware_x5F_satellite_x5F_1464358890000_x5F_926020_7_" xlink:href="4014CBC03A06F355.png"  transform="matrix(-0.1294 0 0 0.1294 210.7253 456.8279)">
		</image>
	</g>
	<polyline class="st22" points="222.8,532.8 52.7,532.8 52.7,509.8 	"/>
	<polyline class="st22" points="625,709.8 625,665.8 325,665.8 327,551.8 138,551.8 138,532 	"/>
	<g>
		
			<image style="overflow:visible;" width="1213" height="509" id="_x37_1BNRXjjjcL._x5F_SL1300_x5F__4_" xlink:href="4014CBC03A06F356.png"  transform="matrix(8.624516e-02 0 0 8.624516e-02 567 710)">
		</image>
	</g>
	<line class="st22" x1="517.1" y1="734" x2="575.5" y2="734"/>
	<polyline class="st22" points="562.7,477.6 392.6,477.6 392.6,518 	"/>
	<line class="st23" x1="477.7" y1="455.7" x2="477.7" y2="478"/>
	<g>
		<g>
			
				<image style="overflow:visible;" width="852" height="1777" id="_x31_fb8667c-a561-433d-9a10-7e90c3ac7ec8_x5F_1.1ab800dad1cc9e8a5268eee21ee1ee4c_2_" xlink:href="4014CBC03A06F354.png"  transform="matrix(3.130836e-02 0 0 3.130836e-02 739 538)">
			</image>
		</g>
		<polyline class="st22" points="762.1,448.4 762.1,478 782.1,478 782.1,563.6 		"/>
		<line class="st22" x1="762.3" y1="566" x2="799.9" y2="566"/>
		<g>
			
				<image style="overflow:visible;" width="852" height="1777" id="_x31_fb8667c-a561-433d-9a10-7e90c3ac7ec8_x5F_1.1ab800dad1cc9e8a5268eee21ee1ee4c_1_" xlink:href="4014CBC03A06F353.png"  transform="matrix(3.130836e-02 0 0 3.130836e-02 798 538)">
			</image>
		</g>
	</g>
	<g>
		
			<image style="overflow:visible;" width="500" height="500" id="boston_x5F_acoustics_x5F_sndwrexsw_x5F_replacement_x5F_soundware_x5F_satellite_x5F_1464358890000_x5F_926020_5_" xlink:href="4014CBC03A06F34D.png"  transform="matrix(-0.1294 0 0 0.1294 566.6808 491)">
		</image>
	</g>
	<g>
		
			<image style="overflow:visible;" width="500" height="500" id="boston_x5F_acoustics_x5F_sndwrexsw_x5F_replacement_x5F_soundware_x5F_satellite_x5F_1464358890000_x5F_926020_1_" xlink:href="4014CBC03A06F34E.png"  transform="matrix(0.1294 0 0 0.1294 389 491)">
		</image>
	</g>
	<line class="st22" x1="562" y1="475.4" x2="562" y2="518"/>
	<line class="st22" x1="221.1" y1="511.7" x2="221.1" y2="534.6"/>
	<line class="st22" x1="477.8" y1="395.1" x2="477.8" y2="418"/>
	
		<image style="overflow:visible;" width="581" height="972" xlink:href="toppng.com-sonos-logo-sonos-one-581x972.png"  transform="matrix(7.407407e-02 0 0 7.407407e-02 379 182)">
	</image>
</g>
</svg>
