<?xml version="1.0" encoding="UTF-8" standalone="no"?>
<svg
   width="900pt"
   height="200pt"
   version="1.1"
   viewBox="0 0 900 200"
   id="svg995"
   sodipodi:docname="arrows.svg"
   inkscape:version="1.1.2 (b8e25be8, 2022-02-05)"
   xmlns:inkscape="http://www.inkscape.org/namespaces/inkscape"
   xmlns:sodipodi="http://sodipodi.sourceforge.net/DTD/sodipodi-0.dtd"
   xmlns="http://www.w3.org/2000/svg"
   xmlns:svg="http://www.w3.org/2000/svg">
  <defs
     id="defs831" />
  <sodipodi:namedview
     id="namedview829"
     pagecolor="#ffffff"
     bordercolor="#666666"
     borderopacity="1.0"
     inkscape:pageshadow="2"
     inkscape:pageopacity="0.0"
     inkscape:pagecheckerboard="0"
     inkscape:document-units="pt"
     showgrid="false"
     inkscape:zoom="0.55685499"
     inkscape:cx="342.09984"
     inkscape:cy="570.1664"
     inkscape:window-width="1288"
     inkscape:window-height="847"
     inkscape:window-x="152"
     inkscape:window-y="25"
     inkscape:window-maximized="0"
     inkscape:current-layer="svg995" />
  <g
     id="g1208"
     fill="#ffffff"
     transform="matrix(0,0.81231091,-2.0694982,0,1007.1506,-189.23706)"
     style="fill:#e41c1c;fill-opacity:1;stroke:#ffffff;stroke-opacity:1">
    <path
       d="m 341.6,143.07 v 226.64 c 0,4.6406 3.7617,8.3984 8.3984,8.3984 4.6367,0 8.3984,-3.7578 8.3984,-8.3984 V 143.07 c 0,-4.6406 -3.7617,-8.3984 -8.3984,-8.3984 -4.6367,0 -8.3984,3.7617 -8.3984,8.3984 z"
       id="path901"
       style="fill:#e41c1c;fill-opacity:1;stroke:#ffffff;stroke-opacity:1" />
    <path
       d="m 423.89,329.75 -56.078,56.07 c -4.7539,4.7617 -11.082,7.3789 -17.809,7.3789 -6.7305,0 -13.059,-2.6211 -17.824,-7.3789 l -56.062,-56.07 c -3.2812,-3.2812 -8.5977,-3.2812 -11.879,0 -3.2812,3.2773 -3.2812,8.6016 0,11.879 l 56.066,56.066 c 7.9336,7.9336 18.48,12.305 29.703,12.305 11.219,0 21.766,-4.3672 29.691,-12.305 l 56.078,-56.066 c 3.2812,-3.2773 3.2812,-8.5977 0,-11.879 -3.2812,-3.2813 -8.6055,-3.2812 -11.887,0 z"
       id="path903"
       style="fill:#e41c1c;fill-opacity:1;stroke:#ffffff;stroke-opacity:1" />
    <path
       d="m 270.17,185.5 c 2.1523,0 4.3008,-0.81641 5.9414,-2.457 l 56.078,-56.07 c 4.7539,-4.7617 11.082,-7.3789 17.809,-7.3789 6.7305,0 13.059,2.6211 17.824,7.3789 l 56.066,56.066 c 3.2812,3.2812 8.5977,3.2812 11.879,0 3.2812,-3.2773 3.2812,-8.6016 0,-11.879 l -56.066,-56.062 c -7.9336,-7.9336 -18.48,-12.305 -29.703,-12.305 -11.219,0 -21.766,4.3672 -29.691,12.305 l -56.074,56.066 c -3.2812,3.2773 -3.2812,8.5977 0,11.879 1.6406,1.6406 3.7891,2.457 5.9375,2.457 z"
       id="path905"
       style="fill:#e41c1c;fill-opacity:1;stroke:#ffffff;stroke-opacity:1" />
  </g>
</svg>
