<?xml version="1.0" encoding="UTF-8" standalone="no"?>
<svg
   version="1.1"
   viewBox="-5 -10 110 110"
   id="svg3"
   sodipodi:docname="noun-scroll-7284306.svg"
   width="110"
   height="110"
   inkscape:version="1.3.2 (091e20e, 2023-11-25)"
   xmlns:inkscape="http://www.inkscape.org/namespaces/inkscape"
   xmlns:sodipodi="http://sodipodi.sourceforge.net/DTD/sodipodi-0.dtd"
   xmlns="http://www.w3.org/2000/svg"
   xmlns:svg="http://www.w3.org/2000/svg">
  <defs
     id="defs3" />
  <sodipodi:namedview
     id="namedview3"
     pagecolor="#ffffff"
     bordercolor="#666666"
     borderopacity="1.0"
     inkscape:showpageshadow="2"
     inkscape:pageopacity="0.0"
     inkscape:pagecheckerboard="0"
     inkscape:deskcolor="#d1d1d1"
     inkscape:zoom="1.7481481"
     inkscape:cx="54.915254"
     inkscape:cy="67.5"
     inkscape:window-width="1224"
     inkscape:window-height="412"
     inkscape:window-x="217"
     inkscape:window-y="25"
     inkscape:window-maximized="0"
     inkscape:current-layer="svg3" />
  <path
     d="M 39.144068,67.135593 C 38.140168,69.334793 38.405788,71.908993 39.843288,73.854393 C 40.308128,74.608303 41.210488,74.963793 42.065988,74.737203 C 48.327688,73.038003 53.487988,75.276263 58.463988,77.436403 C 61.362388,78.936403 64.530388,79.854403 67.784288,80.135603 C 69.167088,80.147322 70.534288,79.846543 71.784288,79.256693 L 71.983508,79.155133 L 81.983508,72.975433 C 84.714008,71.272333 86.260808,68.182433 85.983508,64.975433 C 85.784288,62.596533 85.030388,60.295733 83.784308,58.256633 L 77.065508,47.416633 C 75.674908,45.193933 72.971708,44.178333 70.463908,44.936133 L 58.143908,48.674433 L 48.765008,33.514433 C 47.061908,30.698033 43.522808,29.600333 40.522808,30.955833 C 38.913408,31.760523 37.718108,33.217533 37.245508,34.955833 C 36.745508,36.658933 36.999418,38.494933 37.944728,39.994933 L 50.682728,60.635933 C 46.881928,61.397653 40.944428,63.237533 39.143728,67.135933 Z M 42.745668,68.873893 C 44.065968,66.112193 51.026868,64.412993 54.186668,64.034093 H 54.182761 C 54.862451,63.952061 55.448361,63.530183 55.745261,62.916893 C 56.069481,62.280173 56.034321,61.514593 55.643701,60.916893 L 41.264701,37.854893 C 40.920951,37.308013 40.827201,36.640093 41.006891,36.015093 C 41.186581,35.394003 41.620171,34.878393 42.202191,34.597093 C 43.350591,34.120533 44.670991,34.577561 45.284191,35.655693 L 55.464191,52.135693 C 55.940751,52.905223 56.878291,53.256793 57.745391,52.995073 L 71.546391,48.795873 H 71.542485 C 72.304205,48.577123 73.120585,48.885717 73.542485,49.557593 L 80.261285,60.397593 H 80.265191 C 81.171441,61.897593 81.718291,63.588993 81.862891,65.335093 C 82.007421,67.038193 81.179301,68.678893 79.722291,69.577293 L 69.843391,75.698393 C 67.163691,76.878093 63.983991,75.499173 59.944991,73.698393 V 73.694487 C 55.714491,71.553887 51.081691,70.319487 46.342991,70.077287 C 45.069591,70.081193 43.796091,70.198377 42.542191,70.436667 C 42.370311,69.921047 42.413281,69.358567 42.663281,68.874167 Z"
     id="path1" />
  <path
     d="M 19.785068,60.295593 C 18.999908,59.510433 17.730368,59.510433 16.945268,60.295593 C 16.160108,61.080753 16.160108,62.350293 16.945268,63.135393 L 24.945268,71.135393 C 25.320268,71.514303 25.831988,71.725233 26.363268,71.725233 C 26.898428,71.725233 27.410168,71.514293 27.785168,71.135393 L 35.785168,63.135393 C 36.562508,62.350233 36.558608,61.084593 35.773449,60.307293 C 34.992199,59.526043 33.722649,59.529953 32.945349,60.315106 L 28.367249,64.893206 L 28.363343,47.135206 C 32.187543,46.209426 34.875043,42.787506 34.875043,38.854006 C 34.875043,34.924306 32.187543,31.502406 28.363343,30.576706 V 12.955706 L 32.941443,17.557306 H 32.945349 C 33.320349,17.932306 33.832069,18.147146 34.363349,18.147146 C 34.898509,18.147146 35.410249,17.932306 35.785249,17.557306 C 36.164159,17.178396 36.375089,16.670586 36.375089,16.135406 C 36.375089,15.600226 36.164149,15.092406 35.785249,14.713506 L 27.785249,6.7135062 C 27.410249,6.3385062 26.898529,6.1236662 26.363349,6.1236662 C 25.832099,6.1236662 25.320349,6.3385062 24.945349,6.7135062 L 16.945349,14.713506 C 16.160189,15.498666 16.160189,16.772106 16.945349,17.557306 C 17.730509,18.338556 19.000049,18.338556 19.785149,17.557306 L 24.363249,12.955706 V 30.654706 C 20.554649,31.580486 17.871049,34.994506 17.871049,38.916406 C 17.871049,42.838306 20.554649,46.248406 24.363249,47.174206 V 64.873206 Z M 21.785068,38.916593 C 21.785068,37.080693 22.890568,35.424393 24.585868,34.721293 C 26.285068,34.018163 28.238168,34.404883 29.535068,35.705663 C 30.831968,37.002563 31.222568,38.955663 30.519448,40.650963 C 29.816328,42.350163 28.160048,43.455663 26.324148,43.455663 C 23.839748,43.424413 21.843648,41.400963 21.843648,38.916563 Z"
     id="path2" />
</svg>
