<?xml version="1.0" encoding="UTF-8" standalone="no"?>
<svg
   viewBox="0 0 600 400"
   version="1.1"
   id="svg4147"
   inkscape:version="1.1.2 (b8e25be8, 2022-02-05)"
   sodipodi:docname="wispy-clouds.svg"
   xmlns:inkscape="http://www.inkscape.org/namespaces/inkscape"
   xmlns:sodipodi="http://sodipodi.sourceforge.net/DTD/sodipodi-0.dtd"
   xmlns="http://www.w3.org/2000/svg"
   xmlns:svg="http://www.w3.org/2000/svg"
   xmlns:rdf="http://www.w3.org/1999/02/22-rdf-syntax-ns#"
   xmlns:cc="http://creativecommons.org/ns#"
   xmlns:dc="http://purl.org/dc/elements/1.1/">
  <sodipodi:namedview
     pagecolor="#7b7b7b"
     bordercolor="#ffffff"
     borderopacity="1"
     objecttolerance="10"
     gridtolerance="10"
     guidetolerance="10"
     inkscape:pageopacity="1"
     inkscape:pageshadow="2"
     inkscape:window-width="1440"
     inkscape:window-height="847"
     id="namedview6"
     showgrid="false"
     inkscape:snap-bbox="false"
     inkscape:object-nodes="true"
     borderlayer="true"
     inkscape:showpageshadow="false"
     inkscape:zoom="1.325"
     inkscape:cx="369.43396"
     inkscape:cy="199.62264"
     inkscape:window-x="0"
     inkscape:window-y="25"
     inkscape:window-maximized="1"
     inkscape:current-layer="svg4147"
     inkscape:object-paths="true"
     inkscape:snap-global="true"
     inkscape:pagecheckerboard="0" />
  <metadata
     id="metadata4153">
    <rdf:RDF>
      <cc:Work
         rdf:about="">
        <dc:format>image/svg+xml</dc:format>
        <dc:type
           rdf:resource="http://purl.org/dc/dcmitype/StillImage" />
      </cc:Work>
    </rdf:RDF>
  </metadata>
  <defs
     id="defs4151">
    <filter
       id="filter3786"
       inkscape:label="Noise transparency"
       inkscape:menu="ABCs"
       inkscape:menu-tooltip="Basic noise transparency texture"
       color-interpolation-filters="sRGB"
       x="0"
       y="0"
       width="1"
       height="1">
      <feTurbulence
         id="feTurbulence3788"
         type="fractalNoise"
         numOctaves="10"
         baseFrequency="0.0023952095808383238"
         result="result1"
         seed="313" />
      <feComposite
         id="feComposite3790"
         in2="result1"
         operator="in"
         result="result2"
         in="SourceGraphic" />
      <feColorMatrix
         id="feColorMatrix3792"
         result="result3"
         values="1 0 0 0 0 0 1 0 0 0 0 0 1 0 0 0 0 0 3 -1 "
         in="result2" />
    </filter>
    <clipPath
       clipPathUnits="userSpaceOnUse"
       id="clipPath3799">
      <path
         id="path3801"
         d="m 0,-4.030226700252018 600.0000000000001,0 0,400 -600.0000000000001,0 z"
         style="color:#000000;fill:#ffffff;fill-opacity:1;fill-rule:evenodd;stroke:none;stroke-width:408.299987793;marker:none;visibility:visible;display:inline;overflow:visible;enable-background:accumulate"
         inkscape:connector-curvature="0" />
    </clipPath>
    <filter
       id="filter3884"
       inkscape:label="Emboss"
       inkscape:menu-tooltip="Emboss effect : Colors of the original images are preserved or modified by Blend"
       inkscape:menu="Bumps"
       height="1"
       width="1"
       y="0"
       x="0"
       color-interpolation-filters="sRGB">
      <feColorMatrix
         id="feColorMatrix3886"
         result="result2"
         type="luminanceToAlpha" />
      <feDiffuseLighting
         id="feDiffuseLighting3888"
         diffuseConstant="0.6"
         result="result1"
         surfaceScale="-408.97097625329809">
        <feDistantLight
           id="feDistantLight3890"
           azimuth="225"
           elevation="35" />
      </feDiffuseLighting>
      <feComposite
         id="feComposite3892"
         in2="SourceGraphic"
         result="result3"
         k3="0.5"
         k1="1.5"
         in="result1"
         operator="arithmetic" />
      <feComposite
         id="feComposite3894"
         in2="result3"
         result="result5"
         operator="in"
         in="result3" />
      <feBlend
         id="feBlend3896"
         in2="result1"
         result="result6"
         mode="normal"
         in="result5" />
      <feComposite
         id="feComposite3898"
         in2="result6"
         result="result7"
         operator="arithmetic"
         k2="1" />
      <feComposite
         id="feComposite3900"
         in2="SourceGraphic"
         in="result7"
         operator="in" />
    </filter>
    <filter
       id="filter3916"
       inkscape:label="Inner Shadow"
       inkscape:menu="Shadows and Glows"
       inkscape:menu-tooltip="Adds a colorizable drop shadow inside"
       color-interpolation-filters="sRGB"
       x="-0.027279933"
       y="-0.022392395"
       width="1.0685694"
       height="1.0562843">
      <feGaussianBlur
         id="feGaussianBlur3918"
         stdDeviation="1.2677358490566037"
         result="result8" />
      <feOffset
         id="feOffset3920"
         dx="1.5625"
         dy="1.5625"
         result="result11" />
      <feComposite
         id="feComposite3922"
         in2="result11"
         result="result6"
         in="SourceGraphic"
         operator="in" />
      <feFlood
         id="feFlood3924"
         result="result10"
         in="result6"
         flood-opacity="1"
         flood-color="rgb(245,246,249)" />
      <feBlend
         id="feBlend3926"
         in2="result10"
         mode="normal"
         in="result6"
         result="result12" />
      <feComposite
         id="feComposite3928"
         in2="SourceGraphic"
         result="result2"
         operator="in" />
    </filter>
    <clipPath
       clipPathUnits="userSpaceOnUse"
       id="clipPath3933">
      <path
         inkscape:connector-curvature="0"
         id="path3935"
         d="m 246.1093617975241,202.5000000000005 c 2.2311186254641,1.2692682632189 6.7480793182657,2.6287054514499 11.4375,3.25 4.4478759943837,0.589292643055 9.8885178339247,1.1249999999999 14.0937499999997,1.1249999999999 l 2.78125,0 10.875,15.71875 c -0.965840963376,0.07818004191 -1.822502541047,0.171846880135 -2.46875,0.3125 -1.052132263648,0.228992289784 -2.046474017822,0.6984715811961 -2.59375,1.3125 -0.325579447738,0.365291077994 -0.46875,0.852200780831 -0.46875,1.46875 0,0.6165492191688 0.143170552262,1.1034589220057 0.46875,1.46875 0.547275982179,0.6140284188047 1.541617736352,1.0835077102161 2.59375,1.3125 1.5367319369321,0.3344634293432 4.225741294734,0.4486891569499 6.875,0.5 l 8.71875,12.5937499999995 c -0.9671813089089,0.078207661966 -1.8530285647938,0.171689309661 -2.5,0.3125 -1.052132263648,0.2289922897844 -2.046474017822,0.6984715811964 -2.59375,1.3125 -0.3255794477378,0.3652910779945 -0.46875,0.8522007808316 -0.46875,1.46875 0,0.6165492191692 0.1431705522622,1.1034589220061 0.46875,1.46875 0.547275982178,0.6140284188052 1.541617736352,1.0835077102164 2.59375,1.3125 1.542779582498,0.3357796746991 4.2469246965252,0.4491260645601 6.90625,0.5 l 12.84375,18.59375 c 0.4940800774341,0.7147571919561 1.1832316944332,1.2247951767381 2.15625,1.375 l 3.59375,0.03125 c 0.4946152079769,0.00170475286 0.71875,-0.2578325636538 0.71875,-0.75 0,-0.7656959268968 -0.3799559816838,-2.2322041489225 -0.5625,-2.84375 l -17.15625,-57.46875 1.4375,0 c 1.9096069296711,0 4.9934706210262,-0.18576810836 6.625,-0.28125 8.0534477722219,-0.47131141946 16.235934555915,-1.0006915117947 25.21875,-1.84375 l 13.0625000000003,18.75 c 0.5893228365059,0.8448787108063 1.3651042335739,1.5309499932063 2.21875,1.8125 0.6915224387108,0.22807838447 1.5843145291518,0.25 2.21875,0.25 0.3736743621128,0 0.5651136198,-0.2228579916798 0.5625,-0.59375 -0.0024662394,-0.3499776360751 -0.09190464327,-0.7536617897 -0.1875,-1.15625 l -5.1875,-21.9062499999999 c 0.3079811158339,-0.58560134734 0.59375,-1.1580124300668 0.59375,-1.90625 0,-0.7482375699338 -0.2857688841661,-1.32064865266 -0.59375,-1.90625 l 5.1875,-21.9062499999998 c 0.09559535673,-0.4025882103001 0.1850337606098,-0.806272363925 0.1875,-1.15625 0.0026136198,-0.37089200832 -0.1888256378872,-0.59375 -0.5625,-0.59375 -0.634435470847,0 -1.5272275612892,0.02192161553 -2.21875,0.25 -0.8536457664261,0.2815500067941 -1.6294271634941,0.9676212891941 -2.21875,1.8125 l -13.0625000000003,18.75 c -8.982815444085,-0.8430584882051 -17.1653022277781,-1.3724385805399 -25.21875,-1.84375 -1.6315293789738,-0.09548189164 -4.7153930703289,-0.28125 -6.625,-0.28125 l -1.4375,0 17.15625,-57.46875 c 0.1825440183162,-0.6115458510769 0.5625,-2.078054073103 0.5625,-2.84375 0,-0.4921674363461 -0.2241347920231,-0.75170475286 -0.71875,-0.75 l -3.59375,0.03125 c -0.9730183055668,0.1502048232619 -1.6621699225659,0.6602428080439 -2.15625,1.375 l -12.84375,18.59375 c -2.6593253034748,0.05087393544 -5.363470417502,0.1642203253009 -6.90625,0.5 -1.052132263648,0.2289922897839 -2.046474017822,0.698471581195 -2.59375,1.3125 -0.3255794477378,0.365291077994 -0.46875,0.8522007808311 -0.46875,1.46875 0,0.616549219169 0.1431705522622,1.103458922006 0.46875,1.46875 0.547275982178,0.6140284188041 1.541617736352,1.083507710216 2.59375,1.3125 0.6469714352062,0.1408106903392 1.5328186910911,0.234292338034 2.5,0.3125 l -8.71875,12.59375 c -2.649258705266,0.05131084305 -5.3382680630679,0.1655365706571 -6.875,0.5 -1.052132263648,0.2289922897839 -2.046474017821,0.698471581195 -2.59375,1.3125 -0.325579447738,0.365291077994 -0.46875,0.8522007808311 -0.46875,1.46875 0,0.616549219169 0.143170552262,1.103458922006 0.46875,1.46875 0.547275982178,0.6140284188041 1.541617736352,1.083507710216 2.59375,1.3125 0.646247458953,0.1406531198649 1.502909036624,0.2343199580909 2.46875,0.3125 l -10.875,15.71875 -2.78125,0 c -4.2052321660749,0 -9.645874005616,0.535707356945 -14.0937499999997,1.125 -4.6894206817343,0.6212945485499 -9.2063813745359,1.9807317367811 -11.4375,3.2499999999998 -1.1083666951382,0.6305423002131 -1.875,1.545795761043 -1.875,2.5 0,0.954204238957 0.7666333048618,1.8694576997872 1.875,2.5 z"
         style="color:#000000;fill:#ffffff;fill-opacity:1;fill-rule:evenodd;stroke:none;stroke-width:408.299987793;marker:none;visibility:visible;display:inline;overflow:visible;enable-background:accumulate"
         sodipodi:nodetypes="sssccsssssccsssssccccsccssccsssccsccsssccssccsccccsssssccsssssccsssss" />
    </clipPath>
  </defs>
  <g
     id="g3796"
     clip-path="url(#clipPath3799)"
     transform="translate(0,4.0302267)"
     style="opacity:0.883064">
    <path
       inkscape:connector-curvature="0"
       style="color:#000000;display:inline;overflow:visible;visibility:visible;fill:#ffffff;fill-opacity:1;fill-rule:evenodd;stroke:none;stroke-width:408.3;marker:none;filter:url(#filter3786);enable-background:accumulate"
       d="M 0,-4.0302267 H 600 V 395.96977 H 0 Z"
       id="path3784" />
  </g>
</svg>
