<?xml version="1.0" encoding="UTF-8" standalone="no"?>
<!-- Generator: Adobe Illustrator 19.2.1, SVG Export Plug-In . SVG Version: 6.00 Build 0)  -->

<svg
   version="1.1"
   id="layer"
   x="0px"
   y="0px"
   viewBox="0 0 652 652"
   style="enable-background:new 0 0 652 652;"
   xml:space="preserve"
   sodipodi:docname="boston-red-sox-logo-vector.svg"
   inkscape:version="1.3.2 (091e20e, 2023-11-25)"
   xmlns:inkscape="http://www.inkscape.org/namespaces/inkscape"
   xmlns:sodipodi="http://sodipodi.sourceforge.net/DTD/sodipodi-0.dtd"
   xmlns="http://www.w3.org/2000/svg"
   xmlns:svg="http://www.w3.org/2000/svg"><defs
   id="defs2" /><sodipodi:namedview
   id="namedview2"
   pagecolor="#ffffff"
   bordercolor="#666666"
   borderopacity="1.0"
   inkscape:showpageshadow="2"
   inkscape:pageopacity="0.0"
   inkscape:pagecheckerboard="0"
   inkscape:deskcolor="#d1d1d1"
   inkscape:zoom="0.36196319"
   inkscape:cx="326"
   inkscape:cy="326"
   inkscape:window-width="1248"
   inkscape:window-height="678"
   inkscape:window-x="1238"
   inkscape:window-y="38"
   inkscape:window-maximized="0"
   inkscape:current-layer="layer" />
<style
   type="text/css"
   id="style1">
	.st0{fill:#BD3039;}
</style>
<path
   class="st0"
   d="M530,375.6c-50.3-35.7-139.1,10.2-147.1-104.6c-7.3-104.4-10-120.4-34-136.4l-6.4-51  c-1.1-8.4-8.7-14.3-17.1-13.2l-76.6,9.6c-7.3,1-12.8,7-13.3,14.1c2.7,0.9,7.5,2.7,13.4,4.8l-0.6-4.9c-0.2-1.3,0.8-2.5,2.1-2.6  c1.3-0.2,2.5,0.7,2.7,2.1l0.9,7.2c3.3,1.2,6.9,2.4,10.4,3.7L263,92.9c-0.2-1.7,1-3.3,2.7-3.5c1.7-0.2,3.2,1,3.4,2.7l1.8,14.5  c3.1,1.1,6.1,2.1,9,3.2l-2.3-18.1c-0.3-2.1,1.2-4,3.3-4.2c2.1-0.3,3.9,1.2,4.2,3.3l2.7,21.8c3,1.1,5.8,2.1,8.2,3l-3.2-25.7  c-0.3-2.1,1.2-4,3.2-4.2c2.1-0.3,3.9,1.2,4.2,3.3l3.6,29.5c1.1,0.4,1.7,0.6,1.7,0.6c2.8,1,5.3,2.5,7.5,4.3l-4.5-36.1  c-0.2-1.7,1-3.2,2.7-3.4c1.7-0.2,3.2,1,3.4,2.7l6,47.9c0.8,2.6,1.3,5.2,1.3,7.9c0,2.7-0.5,5.5-1.5,8.3c0,0-13.4,37.7-15.8,44.4  c3,5.8,4.3,12,4.3,18.3c0,18.9-11.1,39.2-21.3,57.8c-4.3,7.9-8.4,15.4-11.5,22.4c-15.7,38.4-23.3,62.1-23.3,78.3  c0,8.6,2.1,15,6.3,20.4c0.1-10.2,2.1-18,3.2-21.9c10.1,3.2,40,12.6,55,15.9c0,0-1.3,30.8,2.5,52.9c1.8,1.4,3.2,2.6,4.3,3.6  c2,1.4,3.8,2.7,5.7,4.1c33.8,1.9,74,10.4,99.8,19.5c40.2,14.1,108.3,20.8,145.4-6.3C585.8,453.5,572.6,405.8,530,375.6 M334,140.3  c-1.3,0.1-2.5-0.8-2.7-2.1l-6.7-53.7c-0.2-1.3,0.8-2.5,2.1-2.7c1.3-0.2,2.5,0.8,2.7,2.1l6.6,53.6C336.2,138.9,335.3,140.1,334,140.3   M565.4,450.3c-12.9,8.6-30.2,12.9-48.6,14.2c-4,0.1-6.6-1.3-7.5-4.4L496,423.8c-1.3-3-1.5-5.8,2.6-7.9c0,0,27.4-11.9,30.4-13.5  c3-1.7,6.9-4.6,10.5-0.9c18.2,19.3,25.9,40.4,25.9,48.6C565.5,450.2,565.4,450.2,565.4,450.3"
   id="path1"
   style="fill:none;stroke:white;stroke-opacity:1" />
<path
   class="st0"
   d="M319.9,451c-3.7-2.9-25.4-21.6-56-42.4c-30.6-20.7-23.6-51.8,3.9-119c13.5-30.4,44.3-68.3,26.9-94l17.2-48.4  c2.9-7.9-1.3-16.7-9.3-19.5L229.9,102c-8-2.8-16.7,1.4-19.5,9.3l-17.2,48.4c-13.4,2.9-25.5,22.5-39.5,67.4  c-19.2,61.4-31.4,111.6-59.1,141.5c-39.6,42.6-44,99.6,40.6,115c48.6,8.4,106,58.7,154.6,79c11.7,4.9,30.7,14.8,92.9-0.8  C395.9,559.3,390.8,500.3,319.9,451 M130.2,468.9c-26.4-6.1-42.9-17-47.9-31.9c-5.1-15.2,1.6-35.3,17.9-54.6  c18.5,7.2,34.1,15.8,45.7,23.5C137.7,423.2,132,444.9,130.2,468.9 M298.7,138.7c1.2,0.5,1.9,1.8,1.4,3.1L282,192.6  c-0.4,1.2-1.8,1.9-3.1,1.4c-1.3-0.4-1.9-1.8-1.4-3.1l18.2-50.9C296.1,138.9,297.4,138.2,298.7,138.7 M284.2,133.5  c1.6,0.6,2.4,2.3,1.9,3.9L268.3,187c-0.6,1.6-2.3,2.5-4,1.8c-1.6-0.6-2.4-2.3-1.9-3.9l17.7-49.6  C280.8,133.8,282.6,132.9,284.2,133.5 M269.7,128.3c2,0.7,3,2.8,2.3,4.8l-17.3,48.3c-0.7,1.9-2.9,3-4.8,2.3c-2-0.7-3-2.9-2.3-4.8  l17.3-48.3C265.5,128.6,267.7,127.6,269.7,128.3 M206.4,168.2c-1.3-0.5-1.9-1.8-1.5-3.1l18.2-50.9c0.5-1.2,1.8-1.9,3.1-1.5  c1.2,0.5,1.9,1.8,1.4,3.1l-18.2,50.9C209,168,207.7,168.6,206.4,168.2 M221,173.4c-1.6-0.5-2.5-2.3-1.9-4l17.7-49.6  c0.6-1.6,2.3-2.5,3.9-1.9c1.6,0.5,2.4,2.3,1.9,4l-17.7,49.6C224.3,173.1,222.5,174,221,173.4 M235.4,178.6c-2-0.7-3-2.8-2.3-4.8  l17.3-48.3c0.7-2,2.9-3,4.8-2.3c2,0.7,3,2.9,2.3,4.8l-17.2,48.3C239.6,178.3,237.4,179.3,235.4,178.6 M374.9,549.8  c-22.9,5.5-39,7.2-50.7,6.9c-4.2,0.5-7.6-1.4-8.2-6.3l-4.3-37.8c0.1-3.9,1.3-7.1,6.1-7.3c11.2,0.1,24.7-1,28.9-2.4  c6.2-2,7.8-1.4,8.6-0.2c15.2,20.4,19.8,37.9,19.8,46C375.1,549.2,374.9,549.4,374.9,549.8 M512.4,491.9h2.3v6.4h1.5v-6.4h2.3v-1.2  h-6.1 M524.2,496l-2.1-5.3H520v7.6h1.4v-5.9l2.3,5.9h1l2.3-5.9v5.9h1.4v-7.6h-2.1"
   id="path2"
   style="fill:none;stroke:white;stroke-opacity:1" />
</svg>
