<?xml version="1.0" encoding="UTF-8" standalone="no"?>
<svg
   version="1.1"
   viewBox="-5 -10 30 30"
   id="svg2"
   sodipodi:docname="noun-plane-6689410.svg"
   width="30"
   height="30"
   inkscape:version="1.3.2 (091e20e, 2023-11-25)"
   xmlns:inkscape="http://www.inkscape.org/namespaces/inkscape"
   xmlns:sodipodi="http://sodipodi.sourceforge.net/DTD/sodipodi-0.dtd"
   xmlns="http://www.w3.org/2000/svg"
   xmlns:svg="http://www.w3.org/2000/svg">
  <defs
     id="defs2" />
  <sodipodi:namedview
     id="namedview2"
     pagecolor="#ffffff"
     bordercolor="#666666"
     borderopacity="1.0"
     inkscape:showpageshadow="2"
     inkscape:pageopacity="0.0"
     inkscape:pagecheckerboard="0"
     inkscape:deskcolor="#d1d1d1"
     inkscape:zoom="4.811613"
     inkscape:cx="13.716814"
     inkscape:cy="19.224322"
     inkscape:window-width="1224"
     inkscape:window-height="733"
     inkscape:window-x="217"
     inkscape:window-y="25"
     inkscape:window-maximized="0"
     inkscape:current-layer="svg2" />
  <path
     d="M -1.9677246,8.4598703 L 3.0940042,10.637034 C 3.0650278,10.772695 3.0492235,10.896503 3.0465901,11.0111 C 3.0426387,11.30218 3.1256181,11.533997 3.2942075,11.703902 C 3.4614786,11.871173 3.6919774,11.954153 3.9790852,11.951519 C 4.0923571,11.950202 4.2135291,11.935714 4.3465427,11.908053 L 6.5395203,16.967085 C 6.5948378,17.094845 6.7107431,17.18704 6.847722,17.213384 C 6.8740641,17.218652 6.9004062,17.221286 6.9267499,17.221286 C 7.0373851,17.221286 7.1453902,17.17782 7.2244148,17.097477 L 8.6324062,15.689486 C 8.740408,15.581484 8.7812404,15.423432 8.740408,15.277217 L 7.3508602,10.364522 C 8.9774784,9.2739506 10.945187,7.7131834 12.966911,5.9127495 L 17.711017,16.839367 C 17.766335,16.967127 17.88224,17.059322 18.019219,17.085666 C 18.156198,17.112008 18.297129,17.068543 18.395915,16.969761 L 20.237215,15.128461 C 20.342584,15.023092 20.384731,14.87031 20.34785,14.726746 L 19.215132,10.284078 L 20.458479,9.0407307 C 20.713996,8.7852132 20.854934,8.4454077 20.854934,8.0832102 C 20.854934,7.7210127 20.714003,7.3812038 20.458479,7.1256897 C 20.202961,6.8701722 19.863156,6.7292348 19.500958,6.7292348 C 19.138761,6.7292348 18.798952,6.8701655 18.543438,7.1256897 L 18.356408,7.3127194 L 16.733735,2.3116828 C 18.835843,0.14372394 20.422809,-1.8174095 21.330494,-3.3728155 C 21.782246,-4.1485966 22.065443,-4.8216393 22.172126,-5.374815 C 22.295935,-6.0175453 22.187931,-6.5154236 21.852069,-6.8512874 C 21.517524,-7.1858329 21.024936,-7.2938346 20.38878,-7.1739777 C 19.840865,-7.0712427 19.175712,-6.7933365 18.40917,-6.3494743 C 16.870791,-5.4591198 14.928135,-3.8957226 12.782329,-1.822511 C 12.065824,-2.0253443 9.6344613,-2.7668815 7.6956492,-3.3622045 L 7.8734571,-3.5400124 C 8.1289746,-3.7955299 8.269912,-4.1353354 8.269912,-4.4975329 C 8.269912,-4.8597304 8.1289814,-5.1995393 7.8734571,-5.4550534 C 7.6179329,-5.7105675 7.2781341,-5.8515083 6.9159366,-5.8515083 C 6.5537391,-5.8515083 6.2139302,-5.7105777 5.9584161,-5.4550534 L 4.7150691,-4.2117064 L 0.27240065,-5.344425 C 0.12883664,-5.3813056 -0.02394923,-5.3391566 -0.12931423,-5.2337899 L -1.9706142,-3.3964349 C -2.0693975,-3.2976516 -2.1128598,-3.156721 -2.0865194,-3.0210537 C -2.060177,-2.8840748 -1.9692958,-2.7694879 -1.8415387,-2.712852 C 0.81900465,-1.5459097 7.1989005,1.2530457 9.0496752,2.0747506 C 7.2860612,4.0569913 5.7503127,5.9931059 4.6703963,7.5974029 C 3.8643365,7.3879845 1.4105512,6.7215134 -0.28073793,6.2578925 C -0.42693523,6.2183785 -0.58235443,6.2592095 -0.69034273,6.3658943 L -2.0983342,7.7738857 C -2.1971174,7.872669 -2.2405832,8.0135996 -2.2142394,8.1518969 C -2.1878973,8.2888758 -2.0957008,8.404781 -1.9679404,8.4600986 Z M -0.26733163,7.1348586 C 0.1699556,7.2547156 1.1472348,7.5207598 2.116624,7.7841976 C 2.8779063,7.9909827 3.486413,8.1543189 3.9223852,8.2702072 C 4.1818545,8.3400134 4.3846912,8.3926976 4.5229682,8.4282598 C 4.5993594,8.4480165 4.6573137,8.4625037 4.6981427,8.4717255 C 4.7231678,8.4783113 4.7429235,8.4822624 4.757412,8.4848968 C 4.9747339,8.5296775 5.1341082,8.4216757 5.2091642,8.3057705 C 6.3471429,6.5777289 8.0699245,4.4110176 10.060156,2.2075539 C 10.151036,2.1074522 10.187917,1.9691583 10.15894,1.8361176 C 10.114159,1.6293325 9.9521546,1.5542563 9.8915669,1.5265975 C 9.8691762,1.5160607 9.834931,1.5002554 9.7914653,1.4804984 C 9.7071706,1.4423028 9.5833619,1.3869852 9.4266378,1.3171757 C 9.1302879,1.1854669 8.694319,0.99316714 8.1319384,0.74424144 C 7.1849379,0.32671294 5.8638712,-0.25411136 4.2054907,-0.98248516 C 2.1310654,-1.8939134 0.03694866,-2.8119502 -0.93783543,-3.2399988 L 0.29762163,-4.4754558 L 4.7416388,-3.3401072 C 4.8852028,-3.3032265 5.0379887,-3.3453752 5.1433537,-3.4507423 L 6.5566051,-4.8639937 C 6.652755,-4.9601436 6.7818305,-5.0141428 6.9174876,-5.0141428 C 7.0544665,-5.0141428 7.182227,-4.9614586 7.2783702,-4.8639937 C 7.3745201,-4.7678438 7.4285193,-4.6387684 7.4285193,-4.5031112 C 7.4285193,-4.3661323 7.3758351,-4.2383718 7.2783702,-4.1422287 L 6.6053275,-3.469186 C 6.5012774,-3.3651359 6.4591301,-3.2136685 6.4946923,-3.0701011 C 6.5302546,-2.9265371 6.6382563,-2.8119502 6.779187,-2.7684845 C 6.7936752,-2.7645331 8.2899168,-2.3022336 9.7703343,-1.8517626 C 10.64093,-1.5870233 11.335046,-1.376273 11.835554,-1.2274423 C 12.133219,-1.1391958 12.366341,-1.0707081 12.525726,-1.025924 C 12.615287,-1.0008992 12.68246,-0.98245816 12.729878,-0.96928796 C 12.827342,-0.94426286 13.028861,-0.89289676 13.201388,-1.0601678 C 15.365402,-3.1662207 17.311936,-4.7455327 18.831938,-5.6252323 C 20.261003,-6.4523657 21.020971,-6.4958281 21.256726,-6.2600726 C 21.495122,-6.0216771 21.447707,-5.2511661 20.602127,-3.8023423 C 19.703849,-2.2626488 18.095674,-0.28961296 15.952768,1.9007009 C 15.843448,2.0126544 15.805252,2.1759771 15.85267,2.3248044 L 17.765114,8.2227368 C 17.809895,8.3623491 17.924485,8.4677175 18.068049,8.5019614 C 18.210298,8.5362053 18.360447,8.4940589 18.464504,8.3900079 L 19.137547,7.7169652 C 19.233697,7.6208153 19.362772,7.5668161 19.498429,7.5668161 C 19.635408,7.5668161 19.763169,7.6195003 19.859312,7.7169652 C 19.955462,7.8131151 20.009461,7.9421905 20.009461,8.0778477 C 20.009461,8.2148266 19.956777,8.3425871 19.859312,8.4387302 L 18.44606,9.8519817 C 18.340692,9.9573501 18.298545,10.110136 18.335425,10.253697 L 19.468144,14.696365 L 18.234002,15.930507 L 13.503045,5.0355841 C 13.449043,4.9104604 13.338408,4.8195806 13.205381,4.7919184 C 13.072353,4.762942 12.934056,4.7998212 12.833944,4.8907017 C 10.615948,6.8979611 8.3531749,8.695765 6.6264821,9.8259885 C 6.4723812,9.9274052 6.4012567,10.11575 6.4513075,10.293555 L 7.857984,15.264245 L 7.0624442,16.059784 L 4.9695751,11.231384 C 4.9010873,11.073331 4.7469831,10.977181 4.5823589,10.977181 C 4.5375782,10.977181 4.4914791,10.985084 4.44538,10.999572 C 4.0897574,11.120747 3.9369817,11.108892 3.8895744,11.098355 C 3.8790375,11.050941 3.8658663,10.894204 3.9936244,10.529366 C 4.0660639,10.321263 3.9646482,10.090764 3.7618139,10.003839 L -1.0692845,7.9254348 Z"
     id="path1"
     style="stroke-width:0.8;stroke:black;stroke-opacity:1;fill:none;stroke-dasharray:none;fill-opacity:1" />
</svg>
