<?xml version="1.0" encoding="UTF-8" standalone="no"?>
<svg
   width="842.97662"
   height="1057.9355"
   viewBox="0 0 842.97662 1057.9355"
   xml:space="preserve"
   version="1.1"
   id="svg3"
   sodipodi:docname="Land_sm-3.svg"
   inkscape:version="1.3.2 (091e20e, 2023-11-25)"
   xmlns:inkscape="http://www.inkscape.org/namespaces/inkscape"
   xmlns:sodipodi="http://sodipodi.sourceforge.net/DTD/sodipodi-0.dtd"
   xmlns="http://www.w3.org/2000/svg"
   xmlns:svg="http://www.w3.org/2000/svg"><sodipodi:namedview
   id="namedview1"
   pagecolor="#ffffff"
   bordercolor="#666666"
   borderopacity="1.0"
   inkscape:showpageshadow="2"
   inkscape:pageopacity="0.0"
   inkscape:pagecheckerboard="0"
   inkscape:deskcolor="#d1d1d1"
   inkscape:zoom="0.059029515"
   inkscape:cx="1600.8941"
   inkscape:cy="1990.5297"
   inkscape:window-width="1264"
   inkscape:window-height="867"
   inkscape:window-x="221"
   inkscape:window-y="33"
   inkscape:window-maximized="0"
   inkscape:current-layer="svg3" /><defs
   id="defs3" />
    <path
   style="fill:#1b1b1b;stroke:none"
   d="M 0,0.43960161 V 417.8996 C 1.294,417.6576 2.455,417.9756 3.365,418.9346 C 5.271,418.5016 8.231,418.7216 9.576,420.2286 C 12.683,419.2036 15.917,420.6026 18.916,421.1716 C 21.608,421.6816 24.708,420.8476 27.434,420.9466 C 29.5,421.0216 32.659,422.0276 34.637,421.1626 C 36.453,420.3676 37.611,417.8926 38.671,416.3466 C 41.317,412.4876 44.075,408.5016 47.024,404.9046 C 48.09,403.6046 48.661,401.8636 50.209,401.0766 C 50.431,399.0886 52.561,396.2356 54.35,395.3826 C 54.825,393.3126 56.619,391.3416 57.897,389.6896 C 60.532,386.2856 63.447,382.6766 65.676,379.0046 C 66.904,376.9796 68.776,373.4026 70.914,372.3486 C 71.732,369.4386 74.254,366.9156 76.075,364.5846 C 76.978,363.4296 77.048,362.3796 78.678,362.2546 C 78.358,361.3486 78.334,360.9346 79.196,360.4446 L 83.426,354.1586 L 86.701,350.3506 C 86.654,348.8796 87.718,347.8756 88.558,346.7406 C 90.528,344.0806 92.9,338.7116 95.76,337.1506 L 100.677,330.1626 V 329.9046 L 98.089,327.5746 C 96.661,327.2366 95.128,326.3166 94.466,324.9866 L 89.474,321.6136 L 72.726,309.7166 C 70.542,313.3316 65.701,314.1936 61.856,312.5636 V 312.3056 C 64.749,310.6926 67.275,308.3686 69.382,305.8356 C 70.288,304.7456 71.336,302.3226 72.565,301.6636 C 73.445,301.1916 75.366,302.5826 76.09,303.0726 C 78.496,304.7006 80.953,306.3456 83.23,308.1296 C 84.24,308.9196 85.286,309.1836 85.666,310.4936 C 89.934,311.4166 92.39,316.0296 95.87,318.2696 C 98.595,320.0236 103.106,321.3546 104.56,324.4696 L 112.397,329.9106 L 115.947,331.1986 C 116.811,331.0546 120.27,331.3386 120.294,332.5036 C 120.313,333.3636 119.386,334.1276 119.311,335.0806 L 123.194,338.4446 H 123.452 L 126.297,336.6866 L 131.366,340.6326 L 136.622,344.8496 L 137.976,346.7086 L 136.205,349.0456 L 134.581,350.3506 L 135.099,351.9026 C 136.713,352.0826 140.069,354.3496 140.793,355.7856 L 142.604,356.0436 C 144.064,353.9916 146.39,348.9806 148.816,348.2796 C 148.633,346.6326 149.916,345.6486 150.855,344.4076 C 152.47,342.2756 155.717,338.5306 155.804,335.8576 C 147.87,332.1136 141.125,325.9016 133.546,321.5836 C 131.932,320.6636 130.614,319.4606 129.071,318.5086 C 127.074,317.2756 124.034,316.3526 122.935,314.1166 C 120.935,314.4436 117.681,311.8966 118.385,309.7166 C 120.585,302.8966 130.43,302.9446 134.322,307.9056 C 135.597,307.9576 136.466,309.0166 137.429,309.7956 C 139.323,311.3296 142.229,312.3646 143.381,314.6346 L 145.451,316.1876 C 146.328,316.1626 147.453,315.7236 148.284,316.0426 C 151.673,317.3436 153.289,322.4746 157.356,322.8106 C 161.659,323.1666 162.122,316.5726 165.638,316.4466 C 166.121,314.6756 167.633,313.7566 168.819,312.4636 C 172.365,308.5966 179.554,302.9006 185.308,304.0236 C 186.696,302.2716 188.309,303.0406 190.225,302.6576 C 193.318,302.0386 199.912,299.1586 202.648,301.9526 L 209.051,300.2556 L 211.965,298.1856 L 214.812,299.0376 L 222.576,300.5006 L 234.482,300.6586 C 235.58,298.5186 238.688,298.7886 240.176,300.3996 L 249.493,300.5246 L 252.916,300.9996 L 253.153,303.4826 L 253.116,311.0116 C 253.86,311.2266 254.375,311.4936 254.586,312.3106 C 255.193,314.6476 254.713,317.6346 254.969,320.0696 C 255.067,321.0016 255.311,322.2666 254.791,323.0996 C 252.957,326.0396 247.204,327.0576 244.081,325.9456 C 242.859,325.5106 241.979,324.3396 240.693,324.0326 C 238.625,323.5396 234.323,323.4246 233.188,321.3626 C 230.404,321.3626 228.219,320.1856 225.659,319.3606 C 218.359,317.0076 211.379,313.5856 206.789,307.1286 H 206.53 L 204.46,308.4226 V 308.6826 C 206.758,310.3006 211.118,314.0066 211.448,316.9636 C 213.075,317.7866 212.562,319.2006 211.114,319.9806 C 209.864,320.6536 207.13,320.8546 205.754,320.5866 C 204.294,322.0766 201.242,321.9186 199.358,322.7866 C 196.01,324.3286 192.667,325.9616 189.448,327.7966 C 187.267,329.0416 185.363,330.8766 182.72,330.9396 C 182.273,332.4186 180.645,332.8526 179.355,333.4756 C 176.412,334.8976 173.441,336.3296 170.038,336.1156 C 169.357,337.4786 167.523,342.0066 165.893,342.0816 C 163.384,342.1966 161.52,339.1716 158.909,338.9626 C 158.676,341.0626 156.303,344.5926 154.251,345.1736 C 154.181,348.1246 151.576,350.9016 149.891,353.1976 C 146.843,357.3456 143.985,361.7516 141.311,366.1376 C 146.586,366.9756 142.245,373.1386 141.314,375.9726 C 140.776,377.6086 140.496,380.0696 139.158,381.3146 C 137.599,382.7656 134.866,380.3246 133.288,379.9966 C 131.876,379.7036 130.113,380.3716 128.628,380.3716 C 127.071,383.2746 121.028,383.2796 118.373,384.8896 C 115.805,386.4476 113.753,389.9396 110.771,390.7246 C 110.55,392.7206 109.041,393.9176 108.297,395.6646 C 107.24,398.1476 108.641,404.2016 106.112,405.4766 C 106.139,408.7686 106.53,411.7366 106.075,415.0526 C 105.749,417.4266 104.791,419.2396 104.951,421.7816 C 105.062,423.5516 105.923,427.3436 103.783,427.9926 L 104.3,431.0986 C 106.54,431.5566 106.03,433.6586 106.102,435.4986 C 106.27,439.7986 106.112,444.1356 106.112,448.4386 C 106.112,450.0646 106.736,452.7746 104.818,453.3566 C 105.82,457.3066 105.361,464.9266 101.454,467.0736 C 102.281,471.3136 98.293,475.8316 97.83,480.0136 C 101.402,480.4776 105.585,482.2886 104.818,486.4836 C 105.502,487.2966 104.892,491.1006 103.783,491.6606 C 104.429,493.4536 103.603,495.2216 102.973,496.8806 C 101.434,500.9346 101.067,503.7776 96.277,504.8596 C 96.328,505.8516 96.9,506.9886 96.702,507.9596 C 96.353,509.6696 93.36,509.8996 92.136,509.2596 H 91.878 C 89.982,511.6966 91.892,516.2296 88.254,517.0236 C 89.146,520.7696 87.165,524.5336 85.146,527.5606 C 84.499,528.5306 84.446,529.4046 83.336,529.9636 C 83.152,532.4306 80.128,535.4286 78.535,537.2546 C 75.321,540.9366 70.885,542.4546 66.558,544.0926 C 65.285,544.5736 64.223,545.5826 62.891,546.0756 C 58.914,547.5476 54.689,548.7156 50.771,550.3416 C 47.403,551.7386 41.504,555.4236 37.786,554.5516 C 37.261,556.2986 34.012,557.0576 32.351,557.3686 C 29.093,557.9786 25.154,560.0846 21.999,561.2386 C 20.126,561.9236 18.653,563.3076 16.564,562.8326 C 15.002,564.6486 11.12,565.6776 8.8,565.6796 C 7.978,567.3096 1.898,569.2416 0,569.3036 V 1057.9356 H 429.107 L 437.793,1057.7796 L 439.459,1054.3126 C 438.445,1051.4916 441.27,1047.5066 442.405,1044.9956 C 443.445,1042.6916 444.928,1040.6516 445.97,1038.4916 C 447.47,1035.3816 448.531,1031.8956 450.51,1028.9486 C 451.425,1027.5886 452.782,1026.5616 453.735,1025.2166 C 455.254,1023.0726 457.526,1019.3366 460.164,1018.5966 C 461.368,1015.7606 465.232,1013.9186 467.659,1012.2106 C 468.715,1011.4686 469.476,1010.5776 470.775,1010.3146 C 471.657,1008.5066 473.303,1008.2776 474.915,1007.3976 C 477.547,1005.9616 479.047,1004.6206 482.163,1004.6206 C 483.001,1002.9436 484.411,1003.1216 486.045,1003.3266 C 486.86,1001.7096 489.105,1001.5726 490.703,1002.0326 C 491.687,1000.1586 494.602,1000.5946 496.397,1000.7466 C 497.87,1000.8726 499.135,999.9396 500.538,999.7716 C 502.758,999.5056 505.253,1000.0516 507.526,999.9516 C 509.208,999.8786 510.978,999.1916 511.926,1000.9976 C 513.724,1000.3476 515.258,1001.2326 517.102,1000.9306 C 523.623,999.8636 529.814,999.9736 536.512,999.9626 C 538.704,999.9586 543.264,998.6426 544.536,1000.9976 C 546.546,1000.5846 550.294,1000.0896 551.782,1001.7736 C 556.758,1000.9056 562.127,1006.0426 566.276,1008.1476 C 568.5,1009.2766 570.772,1009.8556 572.709,1011.5476 C 574.21,1012.8576 574.529,1015.2636 576.629,1016.0756 C 578.255,1016.7036 580.353,1016.1096 582.063,1016.3156 C 585.092,1016.6786 587.83,1017.6316 590.603,1018.6706 C 591.899,1019.1566 592.995,1018.7466 593.968,1019.8906 L 601.215,1020.1496 C 602.161,1018.2696 605.248,1017.8296 607.019,1016.9596 C 611.654,1014.6806 616.082,1015.3886 621.143,1014.9586 C 622.751,1014.8216 624.046,1013.5516 625.543,1013.0536 C 627.328,1012.4606 629.546,1012.8666 631.227,1012.1636 C 633.831,1011.0736 635.823,1005.9236 638.742,1006.1736 C 639.463,1003.7456 643.762,1003.0676 645.652,1001.6396 C 650.587,997.9096 654.479,992.9816 659.337,989.1776 C 661.082,987.8126 663.368,985.5436 665.659,985.4696 C 666.256,983.3706 669.093,981.7296 670.836,980.5826 C 675.039,977.8146 679.495,974.1856 684.811,974.8576 C 684.906,972.6816 688.562,970.9976 690.504,970.9756 C 691.335,969.3876 693.327,969.2056 694.794,968.3966 C 698.211,966.5136 703.399,962.6496 707.327,962.4346 C 706.335,960.5196 707.64,960.1386 709.397,960.3646 C 710.101,959.1106 711.037,959.2126 712.244,958.6596 C 715,957.3946 718.404,956.6646 720.93,954.9776 C 723.486,953.2706 725.06,949.8576 727.783,948.5016 C 731.074,946.8636 736.113,948.8936 739.673,948.1286 C 741.593,947.7156 741.707,945.2506 743.819,944.7316 C 746.829,943.9916 750.011,944.7596 752.878,945.3286 C 755.648,945.8786 757.937,945.8676 760.686,946.9396 C 762.529,947.6596 764.533,947.8066 765.818,949.4946 C 767.714,949.1476 771.992,950.2056 773.323,951.5646 C 774.728,951.0736 776.494,952.1126 777.983,952.3926 C 781.514,953.0566 784.873,953.2496 788.334,954.1526 C 789.982,954.5826 791.796,953.6596 792.734,955.4476 C 794.954,955.6136 799.082,958.1646 799.722,960.3646 C 801.822,960.6906 805.428,962.8726 806.452,964.7646 L 816.804,969.9406 C 816.026,968.6076 814.66,968.1386 813.439,967.3156 C 811.112,965.7466 808.863,964.0906 806.451,962.6436 C 800.711,959.1986 795.889,954.7586 790.664,950.6476 C 788.566,948.9966 783.888,946.1146 783.158,943.5416 C 777.583,941.7836 774.328,937.5866 770.36,933.6416 C 768.903,932.1926 766.515,928.8476 766.594,926.7196 C 765.348,926.0926 765.374,925.0646 764.67,923.9826 C 763.489,922.1646 761.65,919.6296 761.48,917.4006 C 761.307,915.1326 762.335,912.7866 762.172,910.4146 C 761.968,907.4586 760.086,905.1756 759.662,902.3916 C 759.326,900.1926 759.744,897.8776 759.592,895.6616 C 759.513,894.4966 758.962,893.4896 759.214,892.2986 C 759.702,890.0036 761.052,887.8356 761.617,885.5586 C 762.087,883.6696 761.867,882.0466 762.748,880.1336 C 763.338,878.8526 764.503,878.1036 765.223,876.9606 C 766.955,874.2126 768.199,871.0196 769.99,868.2286 C 770.828,866.9206 771.284,865.3166 773.065,865.3816 C 774.111,862.9166 776.68,861.7786 778.521,859.9976 C 782.183,856.4526 786.24,854.5096 790.654,852.1706 C 794.965,849.8866 798.819,847.4436 803.604,846.2156 C 806.261,845.5356 811.763,842.8876 814.215,844.1586 C 815.128,842.3636 817.195,843.0096 818.874,843.0166 C 822.34,843.0306 825.936,842.0196 829.485,842.8646 C 830.598,841.4046 831.927,841.5706 833.626,841.5706 C 836.69,841.5706 839.712,841.2086 842.684,841.5706 V 784.1156 C 841.54,784.0816 840.456,783.5626 839.32,783.6176 C 838.338,783.6656 837.656,784.3376 836.732,784.5516 C 835.001,784.9536 832.812,784.6646 831.038,784.6316 C 829.658,784.6056 828.758,783.6616 827.414,783.6016 C 821.748,783.3566 816.239,784.1156 810.592,784.1156 C 806.487,784.1156 801.64,783.3266 797.652,783.7956 C 796.737,783.9036 796.017,784.5476 795.063,784.6186 C 788.997,785.0716 782.773,784.5616 776.688,784.6336 C 768.972,784.7256 761.185,785.1506 753.395,785.1506 C 750.811,785.1506 748.332,786.0556 745.89,786.0276 C 743.451,786.0006 738.847,784.9786 736.631,786.0076 C 734.653,786.9276 736.896,789.6536 735.24,790.4796 C 733.492,791.3526 728.062,790.9426 726.738,789.5496 H 726.478 L 721.044,790.5856 C 720.695,791.9856 719.604,794.4666 718.358,795.3026 C 717.56,795.8376 716.014,795.5006 715.091,795.5026 C 712.093,795.5086 709.579,796.1226 707.327,793.6906 C 705.837,793.7236 703.13,793.2506 702.41,791.8796 C 700.201,791.9496 700.548,789.5656 700.08,787.9976 C 697.878,788.5216 694.283,788.7126 692.067,788.1746 C 689.89,787.6466 688.267,786.8876 685.846,787.2596 C 683.688,787.5896 681.604,789.6876 679.634,790.5856 V 807.6666 C 679.634,809.6666 680.286,813.0356 679.478,814.8746 C 679.027,815.9036 677.45,815.6296 676.528,815.6706 C 673.949,815.7846 671.346,815.6906 668.764,815.6906 C 667.9,815.6906 666.487,815.9326 665.924,815.0906 C 665.191,813.9906 665.659,811.5316 665.659,810.2546 V 797.8326 C 665.659,796.6266 666.267,792.9956 665.244,792.1856 C 664.542,791.6296 663.128,791.8806 662.294,791.8806 H 633.049 C 629.998,791.8806 625.799,791.1866 622.97,792.5406 C 621.348,793.3166 621.92,796.0936 621.92,797.5746 C 621.92,801.5726 622.688,805.3416 622.696,809.2206 C 622.699,810.3486 623.115,812.6466 622.066,813.4206 C 621.399,813.9126 620.113,813.6216 619.332,813.6206 C 617,813.6166 614.672,813.6496 612.344,813.5256 C 611.552,813.4836 610.514,814.0546 609.838,813.5006 C 608.714,812.5806 609.208,809.9176 609.497,808.7026 C 607.76,808.3626 605.511,809.8306 603.867,808.7056 C 602.729,807.9286 603.647,805.5156 603.511,804.3036 C 603.257,802.0326 602.31,799.8156 602.254,797.5736 C 602.214,795.9936 602.839,793.0486 601.984,791.6696 C 601.351,790.6496 599.642,790.9036 598.627,790.7406 C 597.128,790.5006 594.665,789.6906 593.71,788.5156 H 593.45 C 592.685,793.7736 587.696,792.3976 583.616,792.3976 H 562.394 C 560.309,792.3976 556.181,791.6146 554.453,792.9536 C 553.083,794.0156 553.014,797.0536 552.683,798.6096 C 552.412,799.8896 551.489,800.9996 551.302,802.2556 C 551.002,804.2746 551.382,806.4086 551.242,808.4446 C 551.152,809.7566 550.562,811.0296 550.529,812.3266 C 550.51,813.1086 550.979,813.8566 550.831,814.6326 C 549.99,819.0806 545.495,820.4256 542.206,822.1616 C 542.672,824.3006 542.984,830.1416 540.912,831.2196 V 834.3256 C 542.262,835.0696 541.948,836.5786 541.948,837.9486 C 541.947,840.9336 542.314,844.2386 540.136,846.4886 V 841.3126 C 537.16,839.8126 539.511,832.9756 538.76,830.1986 C 538.48,829.1646 537.263,828.7956 536.771,827.8546 C 534.823,827.9616 531.875,830.6106 530.931,832.3216 C 529.778,834.4126 529.619,836.9866 526.419,836.8946 C 523.352,836.8056 521.704,833.4946 519.356,832.0146 C 518.069,831.2046 516.545,831.0666 515.325,830.0436 C 514.738,829.5506 513,827.9886 512.788,827.2646 C 512.356,825.7946 516.268,825.6386 517.102,825.7846 C 517.687,824.6936 518.769,824.2406 519.949,823.9726 L 521.243,822.4196 C 521.165,821.3746 521.337,820.8476 522.278,820.3496 C 522.528,818.7386 523.812,817.8756 525.384,817.7616 C 526.221,816.0776 528.181,815.1376 528.864,813.3616 C 529.743,811.0806 527.864,807.8116 530.56,806.3736 C 530.812,805.1156 531.638,804.3186 532.319,803.2636 C 533.96,800.7186 536.068,796.0906 538.842,794.7276 L 541.43,789.8096 C 540.883,789.6416 539.676,789.5926 539.449,788.9556 C 539.222,788.3216 540.021,787.7706 540.392,787.3856 C 541.663,786.0666 542.729,784.7636 543.867,783.3726 C 547.536,778.8856 553.209,775.1216 555.434,769.5786 C 557.168,765.2626 554.089,759.8126 555.612,755.3936 C 556.197,753.6936 558.391,754.0936 559.806,754.0936 C 563.936,754.0936 567.294,756.8426 569.899,760.0466 L 577.922,759.7876 H 592.674 L 605.874,759.7736 L 609.497,759.0156 L 634.86,759.2706 L 645.73,759.2226 L 652.977,757.7326 L 667.729,757.2156 L 671.094,757.7126 H 684.034 L 691.799,756.6876 L 739.679,756.6826 C 740.495,755.0626 741.769,755.6056 743.302,755.6426 C 746.317,755.7176 749.343,755.6466 752.36,755.6466 C 758.425,755.6466 764.431,755.1296 770.477,755.1296 C 771.593,755.1296 776.087,755.9376 776.684,755.2306 C 777.423,754.3576 776.904,752.5546 777.021,751.5066 C 777.441,747.7496 777.263,743.1336 776.947,739.3416 L 766.077,739.0836 H 732.173 L 729.359,739.4116 L 726.919,736.9106 L 723.716,736.5216 L 723.609,734.1656 L 723.114,729.7656 L 717.679,729.7796 L 715.432,729.6496 L 714.574,726.1426 C 711.094,726.3636 707.474,727.2376 703.962,726.4016 C 702.206,728.2816 696.126,727.1776 693.61,727.1776 C 688.363,727.1776 682.776,726.6266 677.564,727.2116 C 673.845,727.6286 670.213,727.6956 666.435,727.6956 C 665.007,727.6956 663.145,728.0386 661.777,727.6386 C 660.542,727.2786 657.033,725.6546 657.148,724.0866 C 657.258,722.5866 660.995,720.7306 662.294,720.4486 C 663.498,718.2366 666.236,719.2526 668.247,719.3906 C 673.593,719.7566 678.44,718.3786 683.775,718.3786 C 690.83,718.3786 698.011,717.7896 704.998,717.8626 C 706.912,717.8826 708.731,718.4096 710.692,718.3776 C 712.366,718.3496 713.899,717.8036 715.609,717.8656 C 716.942,717.9146 718.132,718.4556 719.491,718.3646 C 721.051,718.2606 722.363,717.2726 723.891,717.1126 C 728.149,716.6656 732.553,717.2616 736.831,717.0746 C 741.604,716.8646 746.849,716.2046 751.583,717.0846 C 753.329,714.7996 757.079,717.1596 758.526,715.3746 C 759.111,714.6546 758.989,713.2956 759.152,712.4256 C 759.523,710.4546 759.982,708.2386 759.788,706.2146 C 759.664,704.9266 758.947,703.8396 758.845,702.5896 C 758.712,700.9496 759.196,699.0076 758.661,697.4296 C 758.286,696.3226 757.04,696.0896 756.501,695.0856 C 754.91,694.9986 752.861,693.9246 752.101,692.4976 C 749.791,692.4706 747.708,690.7986 745.816,689.6206 C 743.476,688.1636 740.762,686.9006 738.31,685.6176 C 736.8,684.8276 734.753,684.2576 733.984,682.6626 C 732.441,682.8096 730.596,681.9766 729.844,680.5926 C 727.19,680.8026 724.562,677.7626 722.079,677.0106 C 720.419,676.5076 719.857,678.0056 718.455,678.4386 C 716.728,678.9706 711.813,677.5036 710.95,675.9336 C 706.833,674.7836 701.858,671.4076 698.269,669.0586 C 697.001,668.2286 695.118,667.7176 694.387,666.3586 C 690.802,665.9586 686.544,662.2606 683.517,660.3686 C 682.231,659.5646 680.643,659.2246 679.893,657.8166 C 678.409,658.0586 677.503,657.0416 676.27,656.3436 C 673.909,655.0086 671.52,653.7566 669.208,652.3266 C 662.644,648.2666 655.735,644.3506 648.836,640.9326 C 646.393,639.7226 644.195,637.4046 641.331,637.3706 L 640.037,638.6656 C 640.157,639.8296 640.083,640.6616 639.001,641.2536 C 638.384,643.6256 636.316,648.6966 634.084,649.7936 C 634.073,652.9016 631.514,656.0376 629.94,658.5976 C 629.212,659.7816 629.202,661.0076 627.872,661.6996 C 628.145,663.8436 625.41,665.8056 623.472,666.0996 C 623.1,667.3886 622.122,667.6646 621.188,668.5156 C 620.452,669.1876 619.97,670.2836 619.05,670.7286 C 615.97,672.2186 609.534,671.9086 607.425,668.9116 C 606.082,667.0016 607.477,665.3936 608.425,663.7466 A 523.06,523.06 0 0 1 615.075,652.5306 C 615.929,651.1286 616.195,649.5476 617.779,648.7586 V 648.4996 C 616.439,648.4266 614.442,647.0596 616.744,646.6886 C 616.818,644.3886 618.902,642.5486 620.367,640.9306 C 622.146,638.9646 623.707,636.5646 625.057,634.2886 C 626.821,631.3106 628.253,629.9586 624.767,628.0536 C 624.335,628.8876 623.472,630.9676 622.637,631.3866 C 621.464,631.9756 617.077,629.7926 616.584,628.5386 C 615.971,626.9786 617.728,625.0006 617.779,623.3956 L 616.226,623.1356 C 614.876,625.0466 613.314,629.0826 611.309,630.1246 C 610.655,634.4246 606.453,638.2006 604.638,642.0336 C 603.884,643.6236 603.361,645.9796 601.215,645.9116 C 601.652,647.4336 600.836,650.0796 599.403,650.8296 C 599.193,653.6336 596.401,655.9216 595.005,658.1936 C 594.435,659.1236 594.462,660.4906 592.934,660.2286 C 590.809,659.8646 587.962,656.3926 585.735,656.9756 C 583.535,657.5506 583.288,662.1536 581.287,663.2516 C 581.227,664.7656 579.895,666.7486 578.699,667.6516 C 578.804,669.0556 577.171,672.9636 575.579,673.2486 C 574.619,673.4196 573.354,672.5216 572.531,672.0926 C 571.555,671.5846 570.263,670.7696 569.831,669.7126 C 569.564,669.0586 569.967,668.1676 569.471,667.6306 C 568.211,666.2706 566.174,665.7966 565.241,664.0286 C 562.26,663.9936 558.547,661.1146 555.923,659.7016 C 554.746,659.0676 553.529,658.5976 553.488,657.0456 C 553.462,656.0516 554.422,655.3146 554.913,654.5216 C 555.83,653.0416 556.649,651.3316 557.517,649.7936 C 558.332,648.3476 557.31,646.8136 559.029,645.9116 C 559.074,644.0576 560.103,643.3446 561.021,641.8706 C 562.556,639.4026 563.58,634.6396 566.276,633.2306 C 566.302,631.0436 568.406,628.2316 569.48,626.2426 C 572.617,620.4326 576.154,615.0106 579.216,609.1606 C 575.339,608.9106 571.696,603.4106 567.829,604.5026 C 567.601,606.3316 566.401,609.3186 564.723,610.1956 L 559.547,620.0306 C 563.166,620.0436 561.792,623.0326 559.547,624.4306 C 559.491,626.1826 558.012,627.5046 556.962,628.7796 C 555.354,630.7306 553.12,633.3626 551.965,635.5596 C 550.967,637.4576 549.915,640.2676 547.9,641.2536 C 547.006,644.5686 543.723,647.2206 542.226,650.3106 C 541.738,651.3166 540.859,653.2056 539.614,653.4016 C 537.248,653.7746 534.259,650.6846 532.328,649.6416 C 530.572,648.6916 527.436,647.9946 526.69,645.9016 C 526.044,644.0856 528.429,641.5866 529.162,639.9596 C 529.858,638.4156 531.016,637.1876 531.852,635.7446 C 533.726,632.5076 535.163,628.9746 537.157,625.7246 C 538.162,624.0866 538.621,622.0546 540.136,620.8076 C 539.986,619.0286 543.353,613.0286 545.053,612.5256 C 545.066,611.4486 545.097,610.7426 546.089,610.1956 C 546.507,604.6556 553.284,600.3826 553.335,594.6676 C 551.617,594.1636 550.423,592.9726 548.862,592.2166 C 546.941,591.2866 544.842,590.6666 543.027,589.5166 C 541.939,588.8276 540.417,586.9746 538.939,587.5806 C 536.611,588.5346 536.869,592.4656 534.701,593.6326 C 534.681,595.2586 533.869,597.5056 532.371,598.2906 C 531.825,602.0566 528.596,606.0266 526.775,609.3106 C 523.209,615.7386 519.971,622.2866 516.541,628.8306 C 515.311,631.1766 514.102,633.8036 512.661,636.0026 C 512.265,636.6086 511.697,637.7686 510.889,637.8506 C 508.582,638.0836 506.071,635.2766 504.161,634.3556 C 503.129,633.8576 501.989,633.4516 501.705,632.1936 C 501.331,630.5376 503.415,629.3806 503.017,628.0736 C 502.565,626.5896 500.226,626.5506 499.655,624.9376 C 499.205,623.6626 500.047,622.8056 500.689,621.8196 C 502.006,619.7936 503.067,615.4646 505.197,614.3366 C 506.303,609.0396 510.487,603.0736 513.475,598.6236 C 514.425,597.2086 514.453,595.0306 516.067,594.1496 C 516.371,591.4036 518.988,587.9866 520.375,585.6096 C 520.962,584.6026 521.217,583.5896 522.278,583.0206 L 524.608,578.8806 L 518.138,575.2566 L 513.498,583.7966 L 510.89,587.6796 C 510.81,588.7376 510.554,589.2676 509.596,589.7496 C 509.269,594.0736 502.713,590.6566 501.573,588.4556 C 500.513,588.3766 499.247,587.2876 498.246,587.6576 C 496.416,588.3366 496.299,591.6306 494.326,592.2536 C 493.558,592.4966 492.431,591.6046 491.738,591.3156 C 489.428,590.3526 485.133,588.1276 483.974,585.8676 C 482.38,585.7486 479.376,584.3336 479.176,582.5036 C 479.004,580.9196 481.472,576.6936 482.68,575.7736 C 482.6,574.3736 483.772,572.0506 485.01,571.3746 C 485.06,569.0576 486.75,566.1016 487.944,564.1316 C 488.706,562.8756 490.22,561.1356 489.804,559.5076 C 489.525,558.4216 487.444,558.3126 486.562,557.8876 C 483.101,556.2156 478.122,556.2306 475.434,553.2576 C 473.326,555.5676 468.28,552.6346 465.6,552.7456 C 464.415,552.7946 463.65,553.6606 462.492,553.7606 C 457.877,554.1576 452.74,553.4796 448.259,554.8516 C 445.755,555.6186 443.945,558.0316 441.271,558.4346 C 440.785,559.3606 440.227,559.6146 439.201,559.7286 C 437.564,563.0936 433.161,564.4926 431.105,567.5666 C 425.949,575.2766 421.656,583.3516 416.815,591.3026 C 415.35,593.7086 414.042,598.7736 411.508,600.1026 C 411.343,601.5866 410.266,603.5666 408.919,604.2426 C 408.809,605.7576 407.959,607.4146 406.59,608.1256 C 406.277,610.9456 403.842,613.8856 402.422,616.2586 C 400.684,619.1616 399.096,622.4516 397.563,625.4666 C 396.649,627.2646 395.418,630.7066 393.65,631.6766 C 393.602,633.6436 392.348,634.6926 391.447,636.3366 C 389.631,639.6506 388.091,644.8036 385.109,647.2066 V 647.4646 C 385.659,647.7116 386.832,647.8046 387.157,648.3446 C 387.856,649.5076 384.824,653.1716 383.815,653.6756 C 383.879,655.6676 381.658,658.2636 380.557,659.8876 C 378.494,662.9296 376.118,666.0986 374.379,669.3006 C 373.124,671.6106 371.539,675.2836 369.063,676.4506 C 368.995,678.7756 366.743,683.4256 364.663,684.4746 C 364.893,685.8846 363.587,688.1996 362.333,688.8746 C 362.279,690.5946 361.246,691.5586 360.475,693.0146 C 358.542,696.6666 355.679,700.3576 354.175,704.1666 C 353.455,705.9916 352.208,709.6836 350.428,710.6146 C 350.29,712.1476 349.496,714.2626 348.099,715.0146 L 346.206,718.6316 L 341.629,718.8966 L 329.982,718.6366 C 329.903,720.4346 328.452,719.8936 327.136,720.1646 C 324.39,720.7296 322.226,721.4846 319.371,721.4846 C 318.669,722.7566 315.618,723.2446 314.195,723.6626 C 312,724.3066 309.903,725.3306 307.725,725.9976 C 306.715,726.3076 305.635,726.0176 304.619,726.3406 C 302.976,726.8626 301.635,728.1356 299.961,728.4716 C 299.075,730.1616 296.201,731.3326 294.599,732.3846 C 292.006,734.0886 289.159,737.0586 286.945,739.2666 C 285.555,740.6546 284.482,742.5466 282.362,742.7066 C 281.708,744.5896 277.616,748.8676 275.632,749.1766 C 276.028,751.7456 276.704,754.7836 276.069,757.4546 C 275.733,758.8696 274.809,760.1046 274.519,761.5996 C 274.132,763.5866 275.326,765.6956 274.774,767.8066 C 274.224,769.9116 268.314,771.9396 266.315,772.1296 C 264.572,772.2966 259.13,770.1516 262.433,768.3296 C 262.56,766.4176 263.87,764.9546 264.376,763.1526 C 265.027,760.8316 265.334,758.0346 265.649,755.6466 C 265.859,754.0486 265.445,752.3366 267.092,751.5066 C 267.064,748.9876 265.993,744.8866 268.127,742.9656 C 266.696,736.6246 270.956,734.0996 275.125,730.4656 C 276.334,729.4106 279.801,725.4086 281.067,727.6956 L 284.173,726.1426 C 284.559,725.0426 285.128,724.6246 286.243,724.3316 L 287.279,723.0366 C 288.111,718.4446 290.863,717.8726 294.416,715.7986 C 295.809,714.9856 297.519,713.5086 299.184,713.7196 C 302.07,710.0956 308.556,705.6716 313.419,706.2146 L 318.551,703.7076 L 327.653,699.2266 C 328.528,697.5556 332.296,695.9656 334.123,695.6036 C 334.581,693.8236 335.943,692.5716 336.673,690.9446 C 338.451,686.9786 340.09,682.8276 342.313,679.0396 C 343.373,677.2306 343.673,675.2856 345.511,674.1216 C 345.586,671.7016 347.377,668.9876 348.405,666.8316 C 351.098,661.1786 353.825,655.6036 356.543,649.9786 C 357.67,647.6456 358.3,643.5786 360.781,642.2886 C 360.845,639.6166 362.57,637.7346 363.668,635.4486 C 364.656,633.3916 365.401,631.1706 366.368,629.0886 C 366.997,627.7356 367.713,625.6286 369.063,624.9486 C 369.093,622.3196 371.089,619.7286 372.208,617.3986 C 374.582,612.4576 376.875,607.5106 379.338,602.6166 C 380.514,600.2786 377.196,598.1206 378.638,596.4796 C 378.371,593.3716 383.003,590.3196 385.627,590.5266 C 386.367,585.8426 390.353,580.3646 392.549,576.2176 C 393.3,574.7986 393.731,572.6646 395.203,571.8926 C 394.979,569.2926 397.066,566.9386 398.049,564.6456 C 398.569,563.4326 398.903,562.1766 400.119,561.5396 C 400.303,559.8876 402.184,555.2796 403.743,554.8106 C 403.745,552.7396 404.385,551.5746 406.331,550.6706 C 406.331,548.2506 406.436,544.5256 408.401,542.9056 C 408.336,540.8716 410.397,541.4696 411.469,540.1566 C 412.508,538.8856 414.107,535.1666 414.613,533.5886 C 412.703,533.9086 412.604,536.3346 410.727,536.7426 C 406.459,537.6686 409.089,530.7716 409.467,529.1886 C 409.663,528.3676 409.362,527.6216 410.037,526.9416 C 411.855,525.1116 415.753,527.1656 417.939,526.1196 C 419.098,525.5656 419.003,523.5516 419.272,522.4596 C 416.921,523.0196 411.72,523.4786 409.452,522.5626 C 407.202,521.6526 409.166,519.6636 410.732,519.6126 C 412.307,516.6006 418.747,517.2396 421.489,515.8326 C 424.177,514.4536 418.859,513.2166 418.237,513.1426 C 417.202,514.2416 411.964,516.2896 410.997,514.6566 C 410.339,513.5446 410.307,509.0536 411.147,508.0486 C 412.063,506.9496 413.432,506.9316 414.252,505.4886 C 415.099,503.9986 415.089,499.0386 414.467,497.4336 C 413.987,496.1926 412.604,496.3136 411.507,496.3196 C 409.13,496.3346 405.763,498.1476 403.489,497.4346 C 402.757,497.2046 402.322,496.5406 402.239,495.8016 C 401.979,493.4876 402.004,489.8376 402.273,487.5216 C 402.477,485.7616 404.092,486.2146 405.296,485.7166 C 407.598,484.7646 415.866,482.9026 416.425,486.4846 C 417.072,486.0206 417.423,485.2326 418.248,485.0146 C 420.32,484.4656 423.874,485.2546 425.63,483.8586 C 427.285,482.5426 425.103,478.4106 428.589,478.9796 L 426.001,474.5796 C 422.471,475.6416 418.011,478.1096 414.096,477.4266 C 412.85,478.8236 409.442,478.7966 407.884,477.9446 C 407.786,480.1836 401.482,480.5896 399.602,480.8546 C 398.773,480.9716 397.864,481.3186 397.092,480.7926 C 395.469,479.6876 396.442,476.9836 397,475.6146 C 397.318,474.8346 397.182,473.8336 397.668,473.1456 C 398.966,471.3126 402.816,471.3856 404.778,471.7326 C 406.142,470.2176 409.404,469.6636 411.248,470.4386 C 412.12,468.8586 415.935,468.7586 417.46,469.4036 C 418.406,467.6006 424.484,467.0176 426.519,466.7406 C 427.651,466.5866 428.48,466.2246 429.365,467.0746 H 429.625 C 430.213,465.0906 433.836,465.1216 435.577,465.5216 C 436.131,464.7846 437.007,464.1316 437.197,463.1886 C 437.48,461.7776 436.298,459.5866 437.647,458.7926 C 436.691,457.0636 436.505,456.3176 434.542,455.6866 C 433.201,457.2866 430.508,457.1646 428.589,456.7216 C 427.436,458.2356 424.201,458.6566 422.378,458.2746 C 421.358,459.4176 416.947,460.0616 415.805,458.7106 C 415.154,457.9396 414.962,456.1516 414.613,455.1686 C 412.803,455.5046 411.463,454.9786 409.696,454.9146 C 407.126,454.8216 404.236,455.0386 401.696,455.2296 C 400.229,455.3396 398.359,456.8996 396.844,455.7796 C 395.354,454.6766 396.014,451.7926 396.198,450.2516 C 396.68,446.2176 396.063,441.9856 396.453,437.8286 C 396.556,436.7216 395.936,435.2296 396.368,434.2206 C 396.845,433.1066 398.099,433.0776 399.008,432.5306 C 400.454,431.6576 402.102,429.6046 403.484,432.1346 C 405.84,432.1846 407.662,433.5306 409.77,434.3196 C 412.238,435.2436 415.444,435.3636 414.613,438.8636 L 415.39,440.6756 C 421.324,439.5736 428.643,438.7336 434.024,435.7586 C 432.704,432.9356 428.964,434.6626 426.592,435.6176 C 425.632,436.0046 424.512,436.8846 423.495,436.0796 C 422.608,435.3776 422.518,432.3146 423.31,431.5146 C 424.528,430.2846 429.12,429.4786 430.66,430.0646 L 432.212,427.2176 C 428.966,427.4506 425.662,430.2796 422.378,429.0296 C 421.376,430.8896 418.185,430.9046 417.201,429.0296 C 413.139,428.9006 409.039,425.0176 405.296,423.5656 C 402.81,422.6016 399.888,422.7836 397.536,421.8496 C 396.16,421.3026 396.173,420.1536 396.496,418.9356 C 395.278,417.8396 394.258,414.3796 396.051,413.2496 C 398.393,411.7726 404.893,413.1236 406.073,415.5716 C 407.686,415.5586 411.932,415.8766 412.025,417.9006 C 414.061,417.6836 416.351,418.4036 417.719,419.9706 H 417.978 C 420.361,416.1866 417.978,410.5966 418.973,406.5276 C 419.441,404.6196 422.949,404.0036 422.378,406.7716 C 424.691,407.3216 426.998,406.4686 427.036,409.6186 C 429.528,409.2216 427.996,407.1206 428.848,405.4776 C 428.018,405.2326 427.552,404.4876 426.744,404.2656 C 424.668,403.6956 421.431,404.0006 419.272,404.0786 C 416.842,404.1666 413.031,404.9136 410.736,404.0276 C 409.281,403.4656 409.1,400.5676 409.629,399.2806 C 410.41,397.3806 412.971,398.4406 414.067,396.4186 C 414.969,394.7566 414.017,392.5886 415.39,391.2436 C 414.044,387.0566 418.862,388.5346 421.084,387.8786 C 420.07,386.8436 418.057,387.5286 417.978,385.8086 C 415.448,386.9506 411.51,386.1296 411.248,382.7026 C 408.038,383.3736 404.53,381.8686 401.414,381.5796 C 399.844,381.4346 398.214,381.9276 396.774,380.9186 C 395.642,380.1246 395.974,376.3136 396.789,375.2556 C 397.626,374.1696 400.699,374.6066 401.932,374.6936 C 402.961,374.7656 403.782,375.4236 404.778,375.5256 C 407.984,375.8556 410.613,375.8626 413.837,376.6356 C 415.353,376.9986 416.879,376.7986 417.977,378.0436 L 422.119,378.3026 L 422.895,373.1266 C 421.205,372.3306 419.935,371.8386 417.978,372.1296 C 417.185,372.2476 416.473,372.9646 415.672,372.8996 C 414.877,372.8376 414.162,372.1996 413.318,372.0886 C 411.85,371.8946 409.704,371.8706 408.817,370.5336 C 407.832,369.0486 408.788,367.0256 408.32,365.4106 C 407.865,363.8446 404.201,363.5766 406.331,361.4806 L 406.437,359.4166 L 409.437,359.1506 L 416.684,358.8916 L 417.719,355.0096 C 414.969,355.3446 412.257,355.5276 409.437,355.5276 C 408.325,355.5276 407.037,355.6786 406.151,354.8616 C 404.958,353.7616 405.012,351.5016 406.595,350.8316 C 408.541,350.0086 411.264,350.5546 413.319,350.4286 C 414.526,350.3556 415.415,349.7386 416.684,349.8336 V 346.7276 C 414.557,346.7296 411.5,346.9836 409.511,347.6466 C 407.649,348.2666 405.091,349.7086 403.005,348.7076 C 401.888,348.1726 401.871,344.8716 402.615,344.0326 C 403.838,342.6546 407.477,341.9376 409.178,342.3276 C 410.156,341.1266 413.337,340.0516 414.872,339.7396 C 413.563,335.8936 408.626,332.7016 408.402,328.6116 C 404.966,330.9406 401.96,334.5886 398.634,337.1946 C 397.552,338.0426 396.809,339.6626 395.226,339.6686 C 393.734,339.6746 392.606,337.9796 391.653,337.0666 C 390.639,336.0936 388.523,334.6596 388.127,333.2686 C 387.737,331.8946 390.688,328.9056 391.838,328.3526 C 392.368,326.3296 394.016,325.3756 395.265,323.8556 C 397.039,321.6956 398.617,318.0226 401.155,316.7056 C 401.51,315.4536 402.477,314.2356 403.743,313.8586 L 404.52,310.7536 L 401.932,309.9766 C 399.63,313.9606 396.432,317.3756 393.842,321.1796 C 393.09,322.2836 391.778,324.8316 390.275,325.0096 C 389.215,325.1346 387.358,323.6376 386.513,323.0466 C 385.505,322.3426 384.12,321.9736 383.469,320.8366 C 382.814,319.6936 384.634,317.2466 385.627,316.7066 C 385.677,315.1576 386.64,314.4006 387.318,313.0816 C 388.443,310.8936 389.316,308.7126 390.688,306.6516 C 391.251,305.8066 392.462,304.7196 392.683,303.7316 C 392.9,302.7566 391.81,302.1776 391.062,301.9536 C 390.984,302.9766 390.772,303.4606 389.768,303.7656 C 389.526,306.0026 387.855,308.3256 386.144,309.7176 C 386.44,317.7036 372.536,307.6126 379.415,305.5776 C 379.525,303.2136 381.766,299.3296 383.556,297.8126 C 382.514,297.3886 380.844,295.7996 379.719,296.1716 C 377.249,296.9866 377.58,301.3236 375.015,301.4366 C 374.936,302.9796 374.582,305.0846 372.945,305.5766 C 373.393,307.4876 370.392,313.4016 368.017,313.4496 C 366.197,313.4866 365.125,310.9996 363.396,310.6796 C 362.048,310.4296 361.366,312.9876 359.746,313.0146 C 356.694,313.0656 353.457,310.9096 350.428,310.4946 C 348.219,310.1916 341.228,309.3076 341.111,306.6126 L 339.817,306.8716 C 339.332,308.5046 338.16,308.3406 337.229,307.1296 L 330.006,307.1366 L 327.394,308.2106 L 320.665,308.1656 C 320.095,310.0856 317.831,309.9126 316.265,310.6676 C 312.608,312.4326 309.354,314.4426 306.172,316.9646 C 307.495,320.0916 304.445,321.8576 302.222,323.5306 C 298.485,326.3466 294.696,327.3666 290.385,328.8076 C 288.13,329.5616 285.503,330.6856 283.138,330.9406 C 282.442,332.2666 280.758,332.7326 279.515,333.4926 C 276.373,335.4126 273.125,337.7986 269.707,339.1826 C 268.257,339.7706 267.051,341.3106 265.347,340.1116 C 262.637,338.2036 263.687,334.9886 263.609,332.2346 C 263.572,330.8966 263.069,329.7066 263.171,328.3526 C 263.291,326.7696 262.876,325.2636 264.504,324.4706 L 265.021,321.8826 C 261.161,321.8686 261.045,314.6896 261.398,311.5296 C 259.078,310.0966 260.175,307.6106 259.888,305.3286 C 259.786,304.5196 259.086,304.0166 258.891,303.2376 C 258.354,301.0876 257.331,295.0236 260.104,294.1896 C 259.698,291.9766 262.581,290.6886 264.504,291.0836 C 265.343,289.3666 267.772,287.4406 269.68,287.2016 C 269.728,285.6756 270.36,284.2986 271.75,283.5786 C 271.881,282.5176 271.248,280.3586 271.711,279.5446 C 273.592,276.2416 276.481,277.8686 277.444,280.7316 L 280.032,277.8846 C 279.184,275.2026 274.592,273.0416 275.424,269.8616 C 276.513,265.6976 285.615,262.4386 288.055,267.0146 C 289.697,267.0676 290.185,268.0276 291.495,268.8016 C 293.59,270.0376 297.28,270.9376 298.408,273.2256 C 300.645,273.5236 303.58,275.2866 304.878,277.1076 C 307.495,276.6576 309.946,274.7776 312.124,273.3796 C 316.354,270.6656 321.099,267.2226 325.842,265.4616 L 321.701,261.5796 C 320.613,261.6196 320.108,261.2526 319.631,260.2856 C 318.211,260.3376 317.119,259.3256 316.007,258.5256 C 313.483,256.7056 308.113,254.7436 306.69,252.0036 C 303.06,250.9536 305.417,245.7026 309.019,246.5686 C 310.201,243.9656 311.559,243.7006 313.936,242.5136 C 314.631,242.1656 315.549,241.3586 316.376,241.5726 C 319.076,242.2726 321.23,245.0656 323.771,246.1996 C 326.099,247.2376 331.776,249.6526 331.277,252.5216 C 333.337,252.3136 334.469,253.8676 336.194,254.7076 C 340.592,256.8496 344.484,259.8966 349.394,259.5086 L 350.092,256.4136 L 346.437,252.5976 L 341.629,246.3096 C 336.939,244.9706 341.223,240.6096 343.959,239.8396 C 345.163,235.7806 349.926,242.4096 350.429,244.2396 C 351.706,244.6136 352.31,245.5356 352.499,246.8276 C 354.557,247.4136 357.389,250.3846 357.675,252.5216 C 358.525,252.9706 358.747,253.3726 358.71,254.3326 L 360.78,255.1096 H 361.04 L 362.593,253.2976 V 253.0386 C 360.723,253.0986 359.454,251.0916 358.515,249.6786 C 356.636,246.8486 353.963,244.5346 351.99,241.7846 C 351.364,240.9116 349.82,240.1306 349.584,239.0336 C 349.297,237.6976 351.667,236.0506 352.499,237.5106 L 357.299,237.3796 L 363.978,243.9846 L 366.518,246.2806 L 369.063,245.5336 V 244.7566 C 364.707,241.2476 361.63,236.4666 357.709,232.5196 C 356.287,231.0876 355.651,229.0046 353.534,228.4516 C 354.456,225.5496 355.758,224.0526 354.311,221.2056 C 357.407,220.0076 359.225,223.7006 361.11,225.8626 C 364.632,229.9026 368.161,233.8866 371.796,237.8126 C 373.867,240.0506 373.872,242.1746 377.345,241.9096 C 377.946,239.6116 381.27,236.6016 383.556,235.9576 C 385.012,232.9356 388.464,235.6246 388.732,238.0276 C 391.668,239.5176 394.241,243.9626 396.239,246.5726 C 397.078,247.6676 398.095,248.4826 398.049,249.9326 C 400.224,250.5506 402.498,253.9006 403.815,255.6706 C 404.409,256.4686 405.057,258.4976 406.348,258.3536 C 407.49,258.2256 408.38,256.6386 409.438,256.1436 C 407.44,252.3036 402.316,249.3746 401.155,245.2736 C 399.733,244.5366 398.92,242.9306 397.923,241.7246 C 396.143,239.5746 394.331,237.4906 392.551,235.3296 C 391.784,234.3996 389.936,233.1546 389.588,232.0516 C 389.117,230.5576 393.768,227.4046 394.677,226.1776 C 395.04,225.6886 395.605,225.3616 396.227,225.5306 C 397.642,225.9136 399.452,228.3886 400.482,229.4366 C 404.01,233.0266 406.934,237.1796 410.536,240.7266 C 411.747,241.9176 412.946,243.7456 414.613,244.2396 V 242.4276 C 413.196,241.7646 412.145,240.6576 412.025,239.0626 C 409.208,237.6926 407.648,234.2596 405.884,231.9346 C 404.82,230.5316 402.959,229.7166 402.449,227.9346 A 4.5,4.5 0 0 1 400.119,225.0876 C 399.155,224.5856 396.251,221.9706 396.006,220.9326 C 395.633,219.3566 396.226,217.1476 396.24,215.5116 C 396.249,214.4586 396.945,211.0176 398.302,211.0176 C 399.752,211.0176 401.143,215.6886 402.546,216.5996 C 403.395,217.1496 404.404,216.1226 405.14,216.9026 C 406.12,217.9426 405.572,219.6726 406.74,220.9116 C 409.39,223.7196 412.15,226.4656 414.891,229.1846 C 416.157,230.4396 417.989,231.7646 418.754,233.3696 L 422.636,229.7456 V 229.4866 L 421.601,228.1926 C 420.227,227.7926 419.228,226.4846 419.013,225.0876 L 416.943,223.0176 C 414.826,222.3816 414.27,219.0766 412.853,217.5076 C 409.306,213.5746 405.73,209.6596 402.226,205.7366 C 400.581,203.8946 399.126,201.2016 396.756,200.2416 L 401.414,194.2886 H 401.932 C 403.48,196.9286 404.492,195.3656 406.59,194.5486 C 406.886,193.4936 408.284,191.3286 409.653,191.7566 C 414.02,193.1226 416.783,201.2156 421.601,197.3946 V 197.1356 C 419.635,196.1016 417.126,194.5616 416.166,192.4776 C 414.728,192.1356 413.683,191.2216 413.06,189.8896 C 411.439,189.7076 406.886,186.1886 406.806,184.4546 C 406.683,181.7956 408.633,179.3316 409.472,176.9486 C 410.601,173.7416 410.575,170.6656 409.955,167.3726 C 412.746,166.3966 414.408,162.5996 414.613,159.8676 C 411.945,161.1116 410.893,163.7706 409.955,166.3376 H 409.695 C 407.602,160.8266 415.795,157.2446 419.531,154.9496 V 154.6906 C 414.06,156.3126 415.649,150.2076 415.649,146.9266 C 420.93,146.9266 423.745,152.8236 427.046,156.2436 C 428.533,157.7836 430.745,159.1156 430.918,161.4206 C 432.638,161.9006 434.824,163.8186 435.318,165.5606 L 437.648,166.3376 V 166.0786 C 436.018,164.6966 437.318,163.7866 437.906,162.1966 H 437.647 C 435.952,163.7536 435.882,160.9816 436.353,159.8666 C 435.563,159.1866 435.493,158.7766 435.836,157.7966 C 434.354,156.9866 435.123,156.0796 434.949,154.7346 C 434.699,152.8116 432.093,148.9116 433.506,147.1856 V 146.4096 C 432.296,145.3956 431.328,142.5326 432.471,141.2326 C 431.443,139.6206 430.491,138.0996 430.918,136.0566 C 429.285,134.6966 429.73,131.7816 429.883,129.8456 L 427.989,126.4826 L 423.672,125.5066 L 420.004,123.9746 L 415.907,123.8346 L 405.297,121.7616 L 401.155,120.7866 L 396.238,119.7516 C 395.798,120.8716 394.755,122.8506 393.39,122.9666 C 390.943,123.1756 388.477,120.5366 386.403,119.6266 C 382.423,117.8786 378.228,117.3426 373.98,116.8766 C 372.505,116.7146 366.8,115.4926 366.733,114.0576 C 363.253,115.6006 358.595,114.8356 354.828,114.8346 C 353.711,114.8346 351.472,115.1336 350.507,114.5586 C 349.753,114.1086 349.716,113.0176 349.652,112.2466 C 348.082,112.5526 346.774,111.8626 345.252,111.8626 C 342.536,111.8626 338.868,113.2066 336.452,111.4696 H 336.194 C 334.23,112.4116 330.377,110.4636 328.43,109.8096 C 327.51,109.5016 326.515,109.7936 325.583,109.5776 C 321.543,108.6396 317.609,107.4286 313.677,106.0706 C 311.686,105.3826 309.292,104.9456 307.984,103.1876 C 306.034,103.3716 304.234,102.2656 302.504,101.5046 C 299.528,100.1926 296.524,99.724602 294.031,97.416602 C 292.817,96.291602 290.769,92.617602 292.714,91.541602 L 293.232,89.471602 C 292.877,88.231602 293.407,87.451602 294.526,86.882602 C 295.762,82.528602 302.094,86.385602 304.766,84.546602 C 306.104,83.626602 305.098,81.256602 306.959,80.434602 C 307.981,79.984602 308.522,80.884602 308.76,81.706602 H 311.09 C 312.274,81.163602 316.715,83.340602 315.792,85.033602 C 315.125,86.256602 312.29,85.823602 311.089,85.847602 V 86.106602 L 312.125,87.141602 C 313.798,86.948602 317.393,86.949602 318.595,88.176602 C 321.271,87.689602 323.822,88.886602 326.359,89.399602 C 329.034,89.938602 331.764,89.814602 334.382,90.701602 C 336.05,91.266602 337.795,90.559602 338.782,92.317602 C 342.399,91.577602 345.309,93.085602 348.876,93.494602 C 350.563,93.687602 353.351,93.662602 354.569,94.905602 C 356.027,94.721602 357.178,94.441602 357.934,95.941602 H 358.193 C 359.623,94.481602 363.465,95.545602 364.663,96.976602 C 367.276,96.491602 369.161,97.203602 371.651,97.671602 C 375.433,98.383602 378.887,98.859602 382.521,100.2536 C 383.963,100.8066 387.249,101.7136 387.697,103.1876 C 390.897,103.1636 393.692,104.3006 396.755,104.9276 C 398.489,105.2836 400.439,104.8116 401.673,106.2936 C 403.173,106.0316 405.757,106.2136 406.849,107.3286 C 408.714,107.1016 411.625,107.3386 412.802,108.8816 C 416.988,108.1156 421.585,110.2646 425.557,111.3286 C 427.147,111.7546 428.666,110.9826 429.624,112.7636 C 431.964,111.7976 433.954,113.4406 435.836,111.2106 V 110.9526 C 435.402,109.9286 435.68,109.4776 436.353,108.6226 V 108.3646 C 435.619,106.9856 435.733,105.4916 437.389,104.9996 C 436.606,103.1026 436.832,99.182602 438.424,97.752602 L 438.308,93.380602 L 436.871,91.540602 C 435.177,92.020602 433.144,91.881602 431.954,90.506602 C 429.791,90.928602 428.038,90.081602 426.001,89.588602 C 423.089,88.885602 419.751,88.782602 416.946,87.762602 C 416.266,87.515602 415.806,86.803602 415.086,86.674602 C 412.868,86.277602 409.969,86.915602 407.923,85.396602 C 406.051,84.007602 409.283,79.609602 410.731,78.859602 C 410.855,77.214602 412.927,74.649602 414.617,74.288602 C 415.947,74.004602 417.944,75.133602 419.272,75.442602 C 423.202,76.355602 427.422,77.297602 431.177,78.805602 C 432.391,79.292602 433.574,78.907602 434.542,79.895602 L 437.13,80.153602 C 437.481,78.926602 436.7,78.203602 436.833,77.043602 C 437.187,73.973602 437.716,70.036602 436.865,66.998602 C 436.56,65.908602 435.593,64.946602 435.179,63.848602 C 434.612,62.345602 434.387,60.912602 433.309,59.632602 C 429.96,55.653602 422.895,53.188602 422.895,47.543602 C 420.615,47.113602 418.475,46.326602 416.166,46.080602 C 414.834,45.938602 413.803,46.314602 413.06,44.955602 H 409.178 C 409.138,46.196602 408.873,46.923602 407.625,47.285602 C 408.281,52.287602 402.52,51.387602 400.258,48.800602 C 399.207,47.598602 399.613,46.370602 399.861,44.955602 C 397.716,44.025602 395.169,44.340602 393.136,43.347602 C 391.868,42.727602 391.928,40.741602 390.744,40.379602 C 388.875,39.807602 386.522,40.444602 384.591,40.203602 C 381.311,39.793602 377.767,39.265602 374.498,38.675602 C 373.598,38.513602 372.826,37.873602 371.91,37.810602 C 367.903,37.536602 364.009,37.320602 360.004,36.751602 C 358.124,36.484602 356.466,36.981602 355.087,35.379602 C 352.77,35.891602 347.824,36.152602 346.547,33.826602 C 344.855,34.159602 337.861,35.262602 337.747,32.791602 C 335.448,32.956602 329.977,34.006602 328.688,31.497602 C 326.498,32.180602 321.584,32.501602 319.888,30.721602 C 318.008,31.174602 312.258,31.312602 311.607,29.168602 C 309.666,29.584602 303.827,30.640602 303.067,28.133602 L 297.114,27.888602 L 293.749,27.961602 L 291.679,27.121602 L 288.055,29.168602 C 288.38,31.931602 285.375,36.564602 283.138,38.226602 L 281.314,42.477602 L 276.723,50.317602 L 274.856,53.496602 C 274.626,56.576602 268.686,58.816602 268.127,55.308602 C 267.394,55.479602 266.318,56.268602 265.577,56.005602 C 263.402,55.232602 266.913,49.940602 268.386,49.873602 C 268.186,48.483602 268.363,47.444602 269.68,46.767602 C 269.824,44.828602 272.372,39.921602 274.08,39.003602 L 277.962,30.979602 L 274.597,30.462602 L 269.524,39.520602 L 266.574,43.920602 C 266.461,45.433602 265.426,46.548602 264.64,47.802602 C 263.235,50.042602 262.023,53.466602 260.046,55.225602 C 258.854,56.285602 256.634,55.541602 255.963,54.272602 H 254.928 C 254.416,55.171602 253.886,55.171602 253.375,54.272602 C 249.393,54.584602 250.177,51.282602 253.116,49.872602 L 256.222,43.920602 L 253.116,45.214602 C 253.02,48.164602 250.013,49.791602 248.011,51.378602 C 247.273,51.963602 247.016,52.902602 246.117,53.328602 C 244.644,54.024602 242.052,53.049602 242.335,51.167602 C 242.715,48.635602 245.337,45.728602 246.657,43.587602 C 248.797,40.117602 251.005,36.589602 253.039,33.050602 C 254.399,30.685602 255.504,27.547602 257.699,25.818602 C 260.343,23.738602 266.464,28.526602 267.351,24.509602 C 264.692,24.386602 262.031,23.389602 259.327,23.229602 C 257.797,23.139602 256.36,23.650602 255.187,22.439602 C 252.818,22.879602 250.094,22.372602 247.682,22.165602 C 246.999,22.106602 245.824,21.118602 245.234,21.449602 C 243.68,22.322602 242.625,26.324602 241.758,27.873602 C 238.582,33.542602 235.523,39.436602 232.089,44.954602 C 230.893,46.877602 230.15,49.855602 228.011,50.908602 C 227.761,52.473602 226.526,52.540602 225.175,52.018602 C 222.84,51.117602 218.619,49.065602 216.966,47.200602 C 215.94,46.043602 216.716,44.059602 217.918,43.402602 C 218.287,40.957602 220.383,39.040602 221.403,36.858602 C 222.109,35.349602 222.55,33.601602 224.129,32.791602 C 224.241,30.741602 226.681,25.985602 228.529,25.027602 V 23.472602 L 224.906,22.437602 C 222.713,22.934602 220.643,21.867602 218.62,21.310602 C 216.754,20.797602 214.891,20.915602 213,20.107602 L 211.448,21.919602 C 211.387,22.739602 211.169,23.273602 210.765,23.989602 C 208.263,28.422602 206.581,25.653602 202.884,24.432602 C 200.991,23.806602 197.442,22.967602 196.437,21.142602 C 195.332,21.328602 193.417,20.806602 193.021,19.575602 C 192.686,18.539602 194.426,17.489602 193.677,16.672602 C 192.949,15.878602 191.187,16.282602 190.225,16.150602 C 189.185,16.008602 188.332,15.151602 187.355,15.080602 C 185.204,14.921602 181.039,15.874602 179.355,14.155602 C 176.262,14.535602 172.752,13.979602 169.779,13.120602 L 167.191,16.225602 C 167.098,17.469602 166.273,19.337602 164.859,19.568602 C 163.874,19.728602 162.529,18.776602 161.497,18.628602 C 158.153,18.145602 154.563,16.576602 151.404,15.367602 C 149.459,14.623602 147.992,14.908602 147.263,12.602602 C 143.921,13.602602 141.745,10.816602 139.593,8.4506016 C 138.925,7.7156016 137.471,6.7766016 137.673,5.6286016 C 137.984,3.8626016 141.432,2.1786016 142.345,0.43860161 H 0 M 456.023,0.43860161 L 456.282,0.69760161 L 456.022,0.43760161 M 459.905,0.43760161 V 0.69760161 C 465.462,3.4806016 467.768,11.193602 472.735,14.775602 C 474.118,15.772602 476.095,14.326602 477.74,15.232602 C 478.777,15.802602 481.723,18.145602 479.574,18.813602 V 19.073602 L 482.68,19.849602 C 482.07,18.959602 481.13,16.783602 483.187,18.379602 C 484.101,19.089602 484.454,20.291602 485.353,20.987602 C 485.811,21.340602 487.013,21.336602 487.182,21.963602 C 487.299,22.397602 486.829,22.538602 486.562,22.696602 V 22.954602 C 490.879,23.570602 492.256,22.106602 492.256,18.037602 H 491.997 C 491.997,19.266602 492.216,20.850602 491.311,21.837602 C 490.901,22.285602 489.268,22.845602 489.055,21.875602 C 488.914,21.231602 490.451,20.837602 490.61,20.092602 C 490.933,18.576602 489.727,17.052602 490.342,15.454602 C 490.842,14.156602 492.512,13.917602 493.527,13.139602 C 495.54,11.596602 497.381,9.4866016 499.134,7.6516016 C 500.676,6.0376016 502.362,3.0266016 504.679,2.7676016 L 504.42,0.43760161 H 459.905 M 505.973,1.2146016 L 506.232,1.9916016 L 507.785,0.43860161 L 505.973,1.2146016 M 515.549,0.43860161 L 516.843,1.2146016 L 515.549,0.43860161 M 519.431,0.43860161 L 518.914,1.9916016 L 519.431,0.43860161 M 593.71,0.43860161 L 593.968,0.69760161 L 593.71,0.43760161 M 599.145,0.43760161 V 0.69760161 C 602.539,0.96560161 605.525,2.3936016 608.721,3.3976016 C 613.144,4.7866016 617.844,5.8546016 622.437,7.0416016 C 624.311,7.5256016 626.191,8.5036016 628.131,8.6936016 C 629.631,8.8396016 632.976,9.2586016 634.283,8.4536016 C 635.304,7.8266016 634.746,6.7966016 635.039,5.8786016 C 635.51,4.4046016 637.768,4.2816016 638.996,4.7716016 C 640.192,5.2476016 640.286,6.4916016 641.021,7.3876016 C 641.735,8.2576016 643.079,8.0476016 643.653,9.0176016 C 644.696,10.780602 643.593,13.730602 644.177,15.707602 H 644.437 C 644.532,14.492602 644.289,12.664602 644.741,11.567602 C 645.189,10.482602 646.227,9.7736016 646.691,8.6976016 C 647.545,6.7196016 647.683,5.0796016 649.656,3.7286016 C 650.359,3.2476016 655.096,1.6406016 653.495,3.5446016 V 3.8026016 L 655.824,3.5446016 C 655.921,1.4456016 658.896,2.6506016 660.224,2.9606016 C 663.601,3.7486016 666.593,5.8166016 670.058,6.3366016 C 671.499,6.5536016 674.626,6.4486016 675.669,7.5086016 C 676.567,8.4216016 675.924,9.9646016 675.707,11.049602 C 675.07,14.246602 673.687,17.311602 673.729,20.625602 C 673.748,22.077602 675.666,27.872602 677.104,28.307602 C 678.59,28.757602 680.675,28.389602 682.222,28.389602 H 692.834 C 694.661,28.389602 697.238,28.855602 698.971,28.244602 C 701.12,27.487602 705.433,22.522602 707.327,24.766602 C 709.117,24.361602 712.813,23.234602 714.133,21.986602 C 715.028,21.141602 715.001,19.889602 716.128,19.140602 C 721.52,15.555602 727.26,12.560602 732.69,9.0726016 C 735.394,7.3366016 738.827,3.4836016 742.266,3.8026016 C 743.63,2.0776016 746.69,1.3526016 748.736,0.69760161 C 745.402,-0.70239839 739.429,0.43760161 735.796,0.43760161 H 599.145 M 780.311,0.43760161 C 779.201,2.5806016 775.99,3.5426016 774.1,4.9356016 C 773.091,5.6806016 772.291,6.4416016 770.994,6.3916016 C 770.424,7.4286016 769.86,7.8366016 768.664,7.6856016 C 768.19,9.2556016 765.708,10.391602 764.524,11.567602 C 761.012,15.056602 756.459,17.467602 752.434,20.308602 C 750.84,21.433602 749.52,23.057602 747.443,23.213602 L 748.025,25.175602 L 744.592,27.051602 L 737.09,30.949602 L 732.95,32.789602 C 731.97,34.535602 726.625,37.629602 724.667,37.707602 C 723.1,39.489602 720.337,40.220602 718.307,41.331602 C 713.88,43.754602 709.133,48.061602 704.221,49.353602 C 703.867,52.593602 704.465,55.679602 704.481,58.929602 C 704.486,60.066602 704.941,61.547602 704.072,62.469602 C 702.932,63.680602 698.128,63.069602 696.457,63.069602 C 693.892,63.069602 689.159,63.972602 686.925,62.569602 C 685.475,61.657602 684.654,59.820602 683.602,58.518602 C 682.928,57.683602 681.724,56.810602 681.342,55.809602 C 680.654,54.002602 681.296,51.331602 680.928,49.353602 C 678.051,49.355602 675.273,49.009602 672.388,48.993602 C 671.571,48.989602 670.402,48.387602 669.664,48.847602 C 668.442,49.609602 668.964,51.321602 669.013,52.459602 C 669.115,54.806602 668.403,57.741602 665.659,58.324602 C 664.942,58.477602 664.271,58.169602 663.589,58.010602 C 662.707,57.806602 662.163,57.777602 661.518,57.117602 L 658.675,57.194602 L 654.227,59.657602 L 650.647,58.114602 L 644.437,56.198602 L 632.531,55.960602 L 620.885,54.532602 L 621.661,44.696602 C 620.771,44.247602 620.348,43.676602 620.387,42.626602 C 620.442,41.165602 621.26,40.068602 621.128,38.496602 C 620.945,36.302602 619.638,34.736602 619.073,32.791602 C 615.053,32.791602 610.736,31.703602 606.909,30.383602 C 604.759,29.643602 602.45,28.399602 600.179,28.391602 C 599.747,29.411602 598.358,30.410602 598.326,31.507602 C 598.284,32.923602 599.693,33.906602 599.456,35.379602 C 599.259,36.595602 598.57,39.133602 597.554,39.882602 C 595.161,41.646602 588.926,40.305602 587.144,38.190602 C 586.162,37.026602 585.405,35.782602 584.927,34.344602 C 584.697,33.654602 584.567,32.224602 583.977,31.764602 C 583.168,31.128602 581.231,31.497602 580.251,31.497602 C 580.108,34.578602 578.581,37.647602 575.334,37.782602 C 574.314,37.824602 573.166,38.462602 572.644,37.175602 C 572.044,35.705602 572.487,33.329602 572.487,31.755602 V 19.592602 H 571.711 C 571.711,24.672602 571.97,29.764602 571.97,34.862602 C 571.97,36.367602 572.52,39.354602 571.121,40.389602 C 570.051,41.182602 566.623,40.297602 565.241,40.297602 H 549.971 C 548.134,40.297602 544.855,40.487602 543.56,41.974602 C 541.567,44.263602 543.973,48.748602 542.827,51.387602 C 541.974,53.350602 540.202,51.630602 539.877,50.390602 H 539.618 C 539.144,53.461602 536.746,52.232602 534.701,51.684602 C 534.701,53.124602 535.057,54.807602 533.407,55.308602 C 533.43,57.883602 534.84,61.450602 532.372,63.331602 C 532.688,65.255602 530.803,64.871602 530.254,66.441602 C 529.576,68.383602 528.385,70.130602 527.84,72.131602 C 527.548,73.201602 527.618,74.291602 526.408,74.785602 C 525.162,75.293602 523.343,74.977602 522.019,74.977602 C 519.453,74.977602 516.807,75.451602 514.255,75.162602 C 512.933,75.012602 509.817,74.369602 508.866,75.641602 C 508.15,76.598602 508.509,78.284602 508.551,79.377602 C 508.661,82.215602 508.561,85.077602 508.561,87.917602 C 508.561,89.417602 508.728,90.739602 507.526,91.800602 C 509.185,94.261602 510.17,94.408602 508.302,97.235602 C 511.619,97.678602 512.587,101.3056 511.408,103.9646 C 514.088,104.3886 513.22,111.0396 513.22,113.2816 C 517.64,113.2816 516.843,116.1296 516.843,119.7516 C 516.843,120.7896 517.252,122.9536 516.243,123.6266 C 514.763,124.6146 510.553,124.0316 508.82,123.9166 C 506.48,123.7596 503.656,123.5736 501.338,123.9296 C 500.438,124.0686 499.842,124.7996 498.984,125.0536 C 497.726,125.4276 496.147,125.1866 494.844,125.1866 V 125.4456 C 499.524,126.8286 505.113,125.1866 509.855,125.1866 C 511.562,125.1866 513.494,124.8836 515.031,125.7046 H 515.291 C 517.433,125.1446 517.421,130.8846 516.428,132.0516 C 515.405,133.2536 514.213,132.3946 512.961,132.5146 C 509.832,132.8146 506.86,132.1676 503.644,132.1746 C 502.176,132.1776 500.621,133.2986 499.503,132.1746 H 499.244 L 498.726,147.7036 C 501.169,149.5236 506.213,146.9146 508.146,149.0896 C 508.889,149.9256 508.439,151.3356 508.599,152.3396 C 508.725,153.1246 509.333,153.6706 509.515,154.4356 C 510.045,156.6626 510.563,163.6826 507.008,161.9376 C 506.338,163.0616 505.062,162.4626 503.903,162.4556 C 500.816,162.4356 497.339,162.9136 494.327,162.1966 L 494.067,163.7496 C 496.065,164.3396 498.463,164.0086 500.538,164.0086 H 512.702 C 514.238,164.0086 518.242,163.3006 519.312,164.6086 C 520.35,165.8786 518.591,169.9176 519.232,171.7286 C 519.757,173.2146 521.305,172.9076 522.162,173.9246 C 523.098,175.0346 522.173,178.1596 521.242,179.0196 C 521.523,180.3236 521.459,182.1966 520.208,182.9016 C 520.663,183.9256 520.972,186.0056 519.416,186.3766 C 518.474,186.6016 516.7,185.8566 515.808,185.5336 C 513.529,184.7066 510.241,184.5256 508.561,182.6426 L 506.231,183.4186 C 508.396,183.3486 507.113,185.2626 506.75,186.5246 L 510.373,188.5946 C 514.143,187.9836 515.015,192.0856 511.926,193.7716 C 512.156,196.0776 511.077,197.0816 512.343,199.4606 C 513.514,201.6606 516.506,201.8426 517.675,203.6436 C 518.492,204.9036 516.78,206.2816 517.34,207.7466 C 518.14,209.8436 519.344,211.7616 520.563,213.6326 C 520.918,214.1776 521.685,214.5846 521.785,215.2666 C 521.999,216.7346 519.107,220.0826 517.878,220.6866 C 517.922,221.8866 517.232,222.3326 516.638,223.2986 C 516.009,224.3226 515.487,226.0486 514.222,226.4826 C 513.321,226.7926 512.402,226.1176 511.644,225.7096 C 509.67,224.6496 505.742,222.9126 504.679,220.9466 C 503.207,220.8366 500.985,219.8356 500.539,218.3586 H 498.468 L 500.538,219.9036 L 505.995,223.5276 L 508.302,225.0876 C 509.455,225.4116 512.9,227.0426 512.91,228.4656 C 512.922,230.2146 510.093,233.3036 509.058,234.6666 C 506.909,237.4986 504.516,239.7616 502.136,242.4276 C 501.433,243.2156 500.556,245.1076 499.481,245.3846 C 497.812,245.8166 493.951,242.4846 493.291,241.1336 L 488.891,239.8736 L 485.013,240.9736 L 474.916,234.6636 L 473.881,236.9926 C 476.911,237.3276 479.483,240.1146 482.163,241.4366 C 483.5,242.0966 485.537,242.8116 486.257,244.2446 C 486.866,245.4556 483.756,250.2006 482.407,250.5176 C 481.475,250.7356 480.267,249.8246 479.316,249.6746 V 249.9326 C 480.292,250.3216 480.821,250.6576 480.869,251.7446 C 483.331,251.3166 488.406,254.7806 485.68,257.5286 C 483.39,259.8386 477.337,257.4886 474.916,256.6616 L 473.622,259.5086 C 476.22,260.3226 477.415,264.3776 473.871,264.9286 C 471.398,265.3136 468.95,262.2716 466.595,261.9306 C 465.625,261.7906 464.935,262.8686 464.045,263.1326 V 263.3916 C 465.649,263.3916 466.864,263.3426 467.928,264.6856 C 470.884,264.5156 472.664,266.6806 472.328,269.3436 C 473.788,270.0866 477.368,272.7106 474.916,274.0026 C 474.874,275.7256 473.897,277.7926 472.586,278.9196 V 279.6966 C 473.773,280.0436 474.609,280.3616 475.175,281.5076 H 475.434 C 477.42,277.4886 480.165,279.0976 483.089,280.8746 C 483.885,281.3586 484.932,281.4106 485.394,282.3186 C 486.984,285.4436 484.356,289.1596 481.904,291.0836 C 481.991,293.4086 478.715,297.0676 477.504,299.1066 C 480.481,298.8796 481.474,294.1716 484.492,294.3946 C 485.575,294.4746 486.348,295.1046 487.339,295.4476 C 490.279,296.4626 495.659,298.5196 497.161,301.4796 C 497.817,302.7726 496.237,303.3826 495.737,304.3306 C 494.581,306.5196 494.237,309.7676 491.739,311.0126 L 490.445,314.6356 H 490.962 C 491.402,313.0536 494.535,308.1896 496.142,307.6336 C 497.325,307.2256 500.844,308.3596 501.086,309.7336 C 501.263,310.7336 500.017,311.8126 499.503,312.5646 L 501.573,313.6006 C 502.987,313.0926 505.433,309.9346 506.232,312.5646 C 511.322,311.7426 508.175,318.5826 505.714,319.8116 C 505.636,323.0836 502.78,325.7096 501.572,328.6546 C 501.013,330.0156 500.224,331.7826 498.726,332.2346 C 499.026,334.0886 497.076,338.0756 495.362,338.9636 L 500.02,346.9866 H 500.28 C 500.793,344.8336 502.955,343.8366 504.278,342.2176 C 506.163,339.9136 507.309,336.7056 509.481,334.6426 C 510.339,333.8266 511.165,334.1716 511.667,335.0816 C 512.758,335.2496 515.629,336.9086 515.644,338.1916 C 515.663,339.7116 512.236,344.4706 510.89,345.1746 C 510.64,346.8196 509.178,348.4286 508.295,349.8336 C 507.969,350.3536 507.13,351.1426 507.356,351.8236 C 507.584,352.5096 509.01,352.7926 509.596,353.0596 C 511.896,354.1076 516.337,354.9996 515.549,358.1156 C 516.339,357.6716 516.977,356.9106 517.879,356.6756 C 520.692,355.9436 523.072,359.1676 525.394,360.0626 C 526.612,360.5316 530.074,361.7356 530.077,363.2926 C 530.08,364.9546 527.699,367.7746 526.789,369.1346 C 523.931,373.4076 521.176,377.7536 518.316,382.0356 C 517.202,383.7056 516.134,387.0236 513.996,387.3606 V 387.6206 C 517.485,388.8036 521.196,391.7066 524.337,393.6636 C 525.993,394.6936 527.453,396.0466 529.525,396.1606 L 530.56,395.1256 C 531.028,392.0356 534.655,387.4916 536.543,385.0356 C 537.273,384.0856 537.795,382.7556 538.842,382.1856 C 539.845,378.5676 543.811,372.0886 548.159,372.4116 C 549.669,372.5236 551.47,373.9306 552.818,374.6056 C 553.971,375.1836 556.569,376.0056 557.056,377.3016 C 557.481,378.4316 556.162,380.3376 555.578,381.2596 C 553.58,384.4136 552.055,389.6696 549.194,392.0196 L 550.145,393.8316 L 547.665,397.3136 L 542.983,403.1486 L 542.465,405.7366 L 551.782,410.1366 L 553.335,408.3246 C 553.513,406.7186 554.575,406.1306 555.328,404.8416 C 556.226,403.3066 556.252,401.1606 558.253,400.5606 C 558.017,399.1326 559.21,397.9786 559.767,396.6786 C 561.399,392.8606 563.657,388.5916 566.689,385.6106 C 567.548,384.7666 568.978,384.8026 569.743,383.8876 C 570.713,382.7276 568.443,377.7046 571.97,378.5176 C 574.846,379.1806 578.25,381.9046 580.77,383.4426 C 581.586,383.9426 583.12,384.4886 583.609,385.3286 C 584.557,386.9586 581.527,392.0816 579.993,392.5376 C 580.771,396.1756 575.33,400.3386 574.298,403.7096 C 573.88,405.0756 575.641,405.8416 574.952,407.2156 C 574.199,408.7186 573.528,410.6226 571.97,411.4306 L 571.71,414.0186 L 575.593,412.2066 C 574.953,408.3936 580.042,402.9816 581.681,399.7096 C 582.343,398.3876 583.055,396.6296 584.392,395.9016 C 584.422,394.7016 584.576,393.8966 585.686,393.3136 C 586.37,389.7826 588.536,390.3786 591.121,391.1116 C 592.758,391.5746 594.179,391.3416 594.745,393.3136 C 596.862,392.5966 599.027,390.5366 600.439,393.3136 C 603.024,393.4866 603.675,395.3576 604.579,397.4536 C 607.565,397.3606 606.992,402.0486 605.356,403.4076 L 605.615,404.4426 H 605.874 C 606.515,403.7796 606.794,403.6746 607.685,403.9246 C 606.5,401.7356 608.28,400.6886 608.462,398.4896 C 606.397,397.4476 607.778,395.6076 609.497,395.1256 L 610.532,393.3136 H 610.791 C 611.909,394.4436 614.395,394.6806 615.173,396.0036 C 615.75,396.9836 615.178,399.4036 615.192,400.5606 C 615.281,408.0426 608.662,413.3236 606.132,420.2306 L 608.462,418.4186 C 608.296,416.4766 611.433,410.9706 613.379,410.3946 C 613.436,408.6426 614.729,405.6666 616.28,404.6986 C 617.844,403.7216 620.63,404.9086 621.31,406.5456 C 621.736,407.5706 620.73,407.9456 620.603,408.8426 C 620.486,409.6596 620.685,411.0186 620.651,411.9576 C 620.491,416.3916 620.939,420.9676 620.626,425.4056 C 623.62,423.5696 619.814,417.8426 622.076,415.7376 C 623.092,414.7926 627.284,415.3246 627.355,416.8656 C 631.236,416.3616 633.049,415.4286 633.049,420.2296 L 636.931,420.4886 C 637.174,419.4686 636.818,417.8016 637.39,416.9546 C 638.13,415.8576 641.297,415.5686 642.11,416.6886 C 642.908,417.7886 642.625,419.7286 642.625,421.0066 H 642.883 C 642.883,419.2976 642.477,415.6996 643.66,414.5366 C 643.077,413.1596 642.515,409.7536 643.408,408.4066 C 643.916,407.6406 645.045,407.9616 645.359,406.9926 C 645.819,405.5696 645.319,403.8456 645.52,402.3726 C 645.784,400.4366 646.507,398.9896 646.507,396.9366 L 649.871,396.4196 C 648.237,400.2766 650.019,405.0716 649.354,409.1006 C 650.448,409.7676 650.758,411.0556 651.771,411.6816 C 652.825,412.3336 658.306,412.4616 659.291,411.6816 C 660.363,410.8326 659.49,407.9896 659.787,406.7756 C 660.257,404.8596 662.177,405.3086 663.063,404.0356 C 663.729,403.0796 662.871,401.8496 663.237,400.8356 C 663.834,399.1786 667.139,399.8036 667.988,400.8186 C 673.068,399.8796 670.871,406.5086 671.611,409.6186 H 672.388 L 674.717,408.0656 C 674.453,404.3816 679.857,401.2816 682.481,404.4426 C 683.746,403.9446 685.742,403.9776 686.784,403.3896 C 688.926,402.1796 689.7,397.9936 690.504,395.9016 C 685.399,394.1696 687.721,391.1146 689.48,387.7686 C 690.223,386.3566 690.553,384.5556 692.057,383.7376 C 692.152,382.0176 693.321,381.0606 694.072,379.5926 C 694.943,377.8906 695.991,374.5626 697.762,373.6106 C 699.89,372.4666 702.619,375.3836 704.332,376.2836 C 705.092,376.6836 706.064,376.7826 706.697,377.3996 C 707.494,378.1766 707.362,379.2496 708.377,379.9166 C 710.757,381.4806 716.432,384.0786 716.903,387.1026 C 718.361,387.9056 718.864,390.7096 718.866,392.2786 C 718.866,393.8326 719.336,395.3616 719.266,396.9366 C 719.184,398.7796 718.609,400.4846 718.738,402.3716 C 719.212,409.3036 719.853,416.5976 718.682,423.5946 C 717.892,428.3236 715.682,432.6746 714.72,437.3116 C 713.881,441.3456 712.557,445.2466 711.1,449.0316 C 710.633,450.2466 710.924,451.3456 709.915,452.3216 C 710.113,454.8706 708.555,458.7916 707.578,461.1216 C 707.276,461.8416 707.372,462.7516 706.728,463.2946 C 705.608,464.2366 703.91,463.0926 702.824,464.1906 C 701.736,465.2906 702.454,466.9516 701.116,468.1096 L 701.374,470.4396 C 704.006,469.4056 704.097,473.1166 701.634,472.2496 L 702.134,475.2856 L 700.983,476.7086 L 701.121,479.7526 L 698.631,487.2246 L 697.471,488.6326 L 697.356,491.1326 L 695.678,495.5086 L 693.918,498.1276 L 695.939,500.7196 C 698.859,501.2746 700.969,504.2496 703.704,504.7056 C 706.8,505.2206 710.627,504.6016 713.797,504.6016 C 714.965,504.6016 716.949,504.2506 717.672,505.4376 C 718.479,506.7616 717.254,508.5786 717.518,510.0376 C 717.865,511.9536 718.014,513.1276 717.162,514.9546 C 719.071,514.6426 722.129,516.9826 723.114,518.5776 C 725.229,518.5056 728.292,521.3776 729.954,522.6646 C 733.939,525.7526 738.531,528.3656 742.783,531.1326 C 744.391,532.1786 747.032,533.1646 747.96,534.8826 L 752.693,537.9096 L 755.466,539.7996 C 756.375,539.9806 761.47,542.7566 759.812,543.6616 C 759.184,544.0046 758.381,543.6096 757.8,543.3416 C 756.271,542.6396 752.838,540.7196 752.101,539.2816 C 751.174,539.1356 750.821,538.8916 750.548,537.9886 L 744.522,534.7686 L 734.761,534.6236 V 534.8826 C 739.023,535.9476 743.275,538.7576 746.999,541.0606 C 748.383,541.9156 750.069,542.3726 751.066,543.6816 C 753.018,543.5256 754.242,545.1606 755.834,546.0396 C 759.262,547.9326 763.017,549.4896 766.336,551.5266 C 767.683,552.3526 769.996,552.9626 770.476,554.5516 C 772.556,554.4556 778.012,557.1216 779.017,558.9516 L 785.487,561.5396 V 561.0226 L 779.75,557.4946 L 776.17,554.8106 L 773.065,552.7406 C 771.728,552.5906 769.568,551.3326 768.924,550.1526 C 766.446,549.7626 763.539,546.9956 761.432,545.6196 C 760.765,545.1836 759.965,543.9456 761.194,543.5506 C 762.085,543.2646 764.228,545.1886 765.037,545.6566 C 767.514,547.0896 769.79,548.9906 772.288,550.4366 C 774,551.4276 776.522,552.4766 777.464,554.2936 L 779.017,555.3286 C 782.104,555.5586 785.132,558.8886 787.591,560.5436 C 788.749,561.3226 790.254,561.5596 790.923,562.8336 C 793.049,563.4176 798.836,566.6736 799.463,568.7866 C 803.145,569.0616 807.417,573.3206 810.407,575.3186 C 817.915,580.3356 825.75,585.0686 833.552,589.5846 C 836.412,591.2396 839.367,594.2596 842.684,594.9266 V 197.3926 C 842.684,195.7916 843.401,192.4026 841.649,191.6986 V 191.4396 L 842.684,191.6996 C 842.684,190.0766 843.13,187.6926 841.929,186.3956 C 840.375,184.7176 838.115,185.0506 836.991,182.6406 C 834.238,182.6326 831.89,181.2626 829.485,180.0526 C 823.285,176.9326 817.352,171.9986 812.693,166.8906 C 810.871,164.8926 807.451,164.2766 806.969,161.1596 C 805.131,160.1976 805.96,158.6946 805.78,157.0186 C 805.574,155.0966 805.048,151.6786 806.532,150.1286 C 807.318,149.3086 808.51,149.1386 809.332,148.3806 C 810.348,147.4466 810.943,146.0126 812.145,145.3716 C 812.089,142.1006 816.066,135.9636 819.392,135.0196 C 819.267,133.3356 820.392,132.1006 821.98,131.6546 C 822.356,130.2686 823.544,128.9156 824.827,128.2906 L 828.709,123.8906 C 829.183,122.1326 830.532,121.0456 831.587,119.6406 C 833.551,117.0216 835.165,114.1076 837.552,111.8336 C 839.087,110.3706 842.069,108.4206 842.602,106.2916 C 843.394,103.1326 842.684,98.939602 842.684,95.680602 V 0.43960161 H 814.733 L 801.016,0.49360161 L 784.452,3.6636016 L 777.982,6.3926016 V 6.1326016 L 783.676,2.5026016 L 792.216,0.69860161 C 789.126,-0.59839839 783.677,0.43860161 780.311,0.43860161 M 456.541,0.69860161 V 0.95760161 L 458.093,1.2156016 V 0.95760161 L 456.54,0.69760161 M 750.807,0.95760161 V 1.2156016 L 752.619,0.95760161 H 750.807 M 508.82,0.95760161 L 509.079,1.2156016 L 508.82,0.95760161 M 595.262,0.95760161 V 1.2156016 L 597.851,1.7336016 L 595.262,0.95760161 M 458.352,1.2156016 L 458.611,1.4756016 L 458.352,1.2156016 M 517.102,1.2156016 L 517.62,1.7336016 L 517.102,1.2156016 M 750.289,1.2156016 L 750.031,1.7336016 L 750.289,1.2156016 M 776.688,1.2156016 L 776.947,1.4756016 L 776.688,1.2156016 M 144.675,1.4756016 L 144.416,2.2516016 L 144.675,1.4746016 M 749.255,1.9926016 L 749.513,2.2516016 L 749.254,1.9916016 M 459.905,2.2516016 L 460.94,3.2866016 L 459.905,2.2516016 M 599.662,2.2516016 V 2.5096016 L 601.732,2.7696016 L 599.662,2.2516016 M 747.702,2.2516016 V 2.5096016 H 748.478 L 747.701,2.2516016 M 601.991,2.7686016 L 602.768,3.2866016 L 601.991,2.7686016 M 603.717,3.3726016 L 603.889,3.4586016 L 603.717,3.3726016 M 605.529,3.6316016 L 605.701,3.7176016 L 605.529,3.6316016 M 745.113,3.5456016 L 745.372,3.8036016 L 745.113,3.5456016 M 656.859,3.8036016 L 657.377,4.3216016 L 656.859,3.8036016 M 505.973,4.0636016 C 504.391,4.5366016 503.589,4.6686016 502.609,6.1336016 L 506.232,4.3216016 L 505.973,4.0626016 M 742.266,4.0626016 L 740.713,5.6156016 V 5.8746016 L 744.337,4.5806016 L 742.267,4.0626016 M 607.167,4.3226016 V 4.5806016 L 609.497,4.8396016 L 607.167,4.3216016 M 650.647,4.5806016 V 4.8396016 L 652.459,4.5796016 H 650.648 M 657.636,4.3216016 V 4.5806016 L 663.588,5.8746016 C 661.691,4.3876016 659.953,4.3216016 657.636,4.3216016 M 461.976,4.5806016 L 463.011,6.3926016 H 463.269 L 461.975,4.5806016 M 610.015,4.8396016 L 611.826,5.8746016 V 5.6156016 L 610.015,4.8396016 M 649.871,5.3566016 L 649.612,5.8746016 L 649.872,5.3566016 M 612.862,5.8746016 V 6.1336016 H 614.156 L 612.861,5.8736016 M 636.672,6.6506016 C 637.752,6.5376016 638.311,6.8636016 639.002,7.6866016 C 639.726,6.2076016 637.024,5.0086016 636.672,6.6506016 M 664.537,5.9606016 L 664.71,6.0466016 L 664.537,5.9606016 M 739.161,5.8746016 L 737.349,8.2046016 C 738.234,7.6366016 739.159,7.0026016 739.161,5.8746016 M 665.4,6.3926016 L 665.917,6.9096016 L 665.4,6.3926016 M 777.982,6.3926016 L 777.723,6.6506016 L 777.983,6.3926016 M 463.787,6.9096016 V 7.1686016 L 464.564,7.4276016 L 463.787,6.9096016 M 501.573,6.9096016 L 501.315,7.4276016 L 501.573,6.9096016 M 615.967,6.9096016 V 7.1686016 L 617.779,7.4276016 L 615.967,6.9096016 M 648.663,7.0826016 L 648.75,7.2546016 L 648.663,7.0826016 M 666.176,6.9096016 V 7.1686016 L 668.246,7.4276016 L 666.176,6.9096016 M 500.538,7.9446016 L 500.279,8.4626016 L 500.539,7.9446016 M 619.591,7.9446016 V 8.2046016 L 621.402,8.4626016 V 8.2036016 L 619.591,7.9446016 M 670.576,7.9446016 V 8.2046016 C 671.902,8.3716016 673.05,8.4276016 673.941,9.4976016 L 674.976,8.2036016 L 670.576,7.9446016 M 465.081,8.2046016 L 466.634,10.014602 L 465.081,8.2046016 M 648.577,8.2046016 L 648.318,9.2386016 H 648.578 V 8.2036016 M 640.037,8.7216016 L 641.072,9.4976016 V 9.2386016 L 640.037,8.7216016 M 622.697,8.9806016 L 622.955,9.2386016 L 622.696,8.9806016 M 735.796,8.9806016 L 735.278,9.2386016 V 9.4986016 L 735.796,8.9806016 M 499.416,9.3256016 L 499.589,9.4116016 L 499.417,9.3256016 M 624.507,9.2386016 L 624.767,9.4986016 L 624.507,9.2386016 M 636.413,9.2386016 L 635.119,10.533602 C 635.875,10.315602 636.433,10.077602 636.413,9.2386016 M 625.284,9.4986016 V 9.7566016 L 626.32,10.015602 V 9.7566016 L 625.284,9.4976016 M 641.589,9.4976016 L 642.366,10.791602 H 642.625 V 9.4976016 H 641.589 M 733.467,10.533602 L 734.761,9.7566016 L 733.467,10.533602 M 763.834,9.6706016 L 763.92,9.8426016 L 763.834,9.6706016 M 466.634,10.274602 L 466.893,10.533602 L 466.634,10.273602 M 647.542,10.273602 L 646.248,12.862602 H 646.507 L 647.542,10.274602 M 497.95,10.532602 L 498.209,10.790602 L 497.95,10.532602 M 732.432,11.049602 L 733.208,10.532602 L 732.432,11.049602 M 673.682,11.049602 V 12.602602 H 673.941 L 673.681,11.049602 M 496.656,11.826602 L 496.915,12.084602 L 496.655,11.826602 M 642.365,12.343602 C 642.365,14.135602 641.777,17.108602 643.919,17.778602 V 17.519602 C 642.052,16.039602 643.157,14.229602 642.366,12.343602 M 495.88,12.602602 L 495.62,13.120602 L 495.88,12.602602 M 729.585,12.602602 L 729.067,12.861602 V 13.120602 L 729.585,12.602602 M 468.963,12.861602 L 469.223,13.120602 L 468.963,12.860602 M 673.423,13.120602 L 673.164,14.414602 H 673.423 V 13.120602 M 727.514,14.155602 L 728.808,13.378602 L 727.514,14.155602 M 469.999,14.155602 L 470.516,14.672602 L 469.999,14.155602 M 493.809,14.414602 V 14.672602 L 494.844,14.414602 H 493.809 M 725.703,15.190602 L 727.255,14.414602 L 725.703,15.190602 M 471.033,15.190602 L 473.104,16.743602 V 16.484602 L 471.034,15.190602 M 491.739,15.708602 V 15.967602 L 493.291,15.449602 L 491.739,15.708602 M 725.185,15.190602 L 725.444,15.449602 L 725.184,15.190602 M 475.174,16.225602 L 474.657,16.485602 V 16.743602 L 475.175,16.225602 M 723.632,16.225602 L 723.114,16.485602 V 16.743602 L 723.632,16.225602 M 477.159,16.570602 L 477.331,16.657602 L 477.159,16.570602 M 672.388,16.484602 V 18.814602 H 672.647 L 672.387,16.484602 M 722.338,16.743602 L 720.268,18.037602 V 18.296602 L 722.338,16.743602 M 645.73,17.261602 L 644.177,17.778602 V 18.037602 C 644.794,18.027602 646.031,18.070602 645.73,17.261602 M 478.54,17.778602 L 478.798,18.037602 L 478.539,17.778602 M 718.973,18.813602 L 719.233,19.073602 L 718.973,18.813602 M 568.346,19.073602 L 568.864,19.849602 L 568.346,19.072602 M 672.129,19.590602 C 671.776,20.490602 671.707,20.950602 672.388,21.660602 L 672.128,19.590602 M 717.162,20.366602 L 717.938,19.849602 L 717.162,20.366602 M 716.644,20.366602 L 715.35,22.954602 L 716.644,20.366602 M 483.457,21.402602 C 483.669,22.774602 484.772,24.195602 486.045,22.954602 C 484.695,22.910602 484.218,22.462602 483.457,21.402602 M 266.574,21.919602 L 266.833,22.178602 L 266.574,21.919602 M 241.987,22.178602 L 241.728,22.696602 L 241.988,22.178602 M 672.388,22.178602 V 22.954602 H 672.647 L 672.387,22.178602 M 714.574,23.472602 L 713.538,23.731602 V 23.990602 L 714.832,23.730602 L 714.574,23.472602 M 711.727,24.507602 L 711.468,25.025602 L 711.727,24.507602 M 673.423,24.766602 L 674.717,27.613602 L 673.423,24.766602 M 710.433,25.025602 L 710.692,25.284602 L 710.432,25.024602 M 706.033,25.284602 L 702.668,27.354602 V 27.613602 L 708.88,26.319602 V 26.060602 L 706.033,25.284602 M 709.139,26.060602 L 709.915,25.542602 L 709.139,26.060602 M 534.701,27.872602 V 41.330602 L 534.96,49.353602 C 536.57,47.776602 535.23,45.343602 535.219,43.400602 C 535.209,41.712602 535.733,40.165602 535.736,38.483602 C 535.743,34.891602 535.219,31.460602 535.219,27.872602 H 534.701 M 674.717,27.872602 V 28.648602 H 674.976 L 674.717,27.872602 M 700.08,29.683602 L 701.892,28.648602 L 700.08,29.683602 M 675.235,29.425602 L 675.493,29.683602 L 675.235,29.425602 M 676.011,29.683602 V 29.943602 H 699.821 L 692.575,29.683602 H 676.011 M 701.633,29.943602 L 701.892,30.201602 L 701.633,29.942602 M 733.984,30.201602 L 734.244,30.460602 L 733.984,30.201602 M 678.858,30.977602 L 679.117,31.237602 L 678.858,30.977602 M 696.63,31.581602 L 696.802,31.668602 L 696.63,31.581602 M 255.445,32.013602 L 255.705,32.272602 L 255.445,32.012602 M 586.722,33.048602 L 586.981,33.307602 L 586.721,33.047602 M 576.456,34.773602 L 576.542,34.946602 L 576.456,34.773602 M 267.351,38.224602 L 267.609,38.483602 L 267.351,38.224602 M 711.986,42.365602 L 712.244,42.624602 L 711.986,42.365602 M 230.255,43.228602 L 230.427,43.314602 L 230.255,43.228602 M 272.095,45.385602 L 272.182,45.557602 L 272.095,45.385602 M 250.269,46.765602 V 47.282602 H 250.787 V 46.765602 H 250.269 M 275.891,47.282602 L 276.151,47.542602 L 275.891,47.282602 M 672.905,47.800602 L 673.165,48.059602 L 672.905,47.800602 M 255.705,48.059602 L 256.222,48.835602 L 255.704,48.059602 M 271.492,54.012602 L 271.75,54.270602 L 271.492,54.012602 M 702.927,54.012602 L 703.187,54.270602 L 702.927,54.012602 M 661.777,56.082602 L 662.035,56.341602 L 661.777,56.082602 M 661.517,56.600602 L 661.777,56.858602 L 661.517,56.600602 M 527.799,66.090602 L 527.886,66.262602 L 527.799,66.089602 M 415.562,76.615602 L 415.735,76.702602 L 415.562,76.615602 M 426.26,87.917602 L 426.519,88.175602 L 426.259,87.917602 M 507.009,91.540602 L 507.267,91.799602 L 507.008,91.539602 M 500.969,103.7906 L 501.142,103.8776 L 500.969,103.7906 M 502.091,103.7046 L 502.35,103.9636 L 502.09,103.7046 M 509.338,103.7046 L 509.596,103.9636 L 509.338,103.7046 M 499.934,104.0496 L 500.107,104.1356 L 499.934,104.0496 M 508.82,103.9636 L 509.079,104.2226 L 508.82,103.9626 M 497.95,106.5516 L 498.209,106.8106 L 497.95,106.5506 M 509.251,113.3666 L 509.424,113.4536 L 509.251,113.3666 M 510.891,113.2806 V 113.5396 H 511.667 L 510.89,113.2796 M 500.02,114.8336 L 500.797,114.5746 L 500.02,114.8336 M 495.362,114.5746 V 114.8336 H 496.656 L 495.362,114.5746 M 502.867,114.5746 V 114.8336 H 504.42 L 502.867,114.5746 M 835.783,117.3346 L 835.869,117.5076 L 835.783,117.3356 M 432.73,139.6796 L 432.989,139.9376 L 432.729,139.6796 M 420.307,151.0666 L 420.048,151.8436 L 420.308,151.0666 M 808.004,151.8436 L 808.78,151.3256 L 808.004,151.8436 M 423.413,160.9016 L 423.672,161.1606 L 423.412,160.9006 M 437.906,161.6776 L 438.165,161.9376 L 437.906,161.6776 M 424.706,162.4546 L 424.966,162.7136 L 424.706,162.4536 M 427.036,165.0426 L 427.813,166.0776 L 427.036,165.0426 M 429.624,167.6306 V 168.6656 H 429.883 L 429.624,167.6306 M 501.314,180.3126 L 501.574,180.5706 L 501.314,180.3126 M 504.679,181.6066 L 504.938,181.8646 L 504.679,181.6066 M 835.697,187.8176 L 836.991,188.5946 V 188.8526 L 835.697,187.8176 M 837.508,188.8526 L 837.249,189.1126 L 837.509,188.8526 M 838.544,189.6296 L 837.767,189.3706 L 838.544,189.6296 M 841.649,191.1826 L 841.39,191.4406 L 841.65,191.1826 M 515.031,205.1576 L 515.808,204.6406 L 515.031,205.1576 M 494.068,214.9926 L 494.327,215.2516 L 494.067,214.9926 M 368.545,215.7696 V 216.0276 C 364.743,217.3456 361.855,219.3926 357.675,219.3926 C 360.04,216.6686 365.115,216.5626 368.545,215.7696 M 495.103,216.2866 V 216.5456 L 496.397,216.8046 L 495.103,216.2866 M 399.343,216.8046 L 399.603,217.0636 L 399.343,216.8036 M 496.915,217.0636 V 218.0986 H 498.468 L 496.915,217.0636 M 398.049,220.1686 L 398.826,219.6516 L 398.049,220.1686 M 356.381,220.1686 L 356.122,220.4286 L 356.382,220.1686 M 404.779,227.9336 V 228.4506 L 405.296,227.9336 H 404.779 M 473.967,232.5056 L 474.053,232.6776 L 473.967,232.5056 M 476.469,232.8506 L 476.728,233.1096 L 476.468,232.8506 M 408.661,233.1096 L 408.919,233.3686 L 408.661,233.1086 M 488.115,237.2506 V 237.5096 H 489.15 L 488.115,237.2496 M 367.251,241.1326 L 367.51,241.3916 L 367.251,241.1316 M 498.985,241.1316 L 498.726,241.3916 V 241.9086 L 499.503,241.1326 H 498.985 M 380.709,241.3916 L 380.968,241.6506 L 380.709,241.3906 M 400.81,241.4776 L 400.983,241.5636 L 400.81,241.4776 M 378.207,242.5996 L 378.294,242.7716 L 378.207,242.5996 M 416.943,242.4266 L 417.46,243.4616 L 416.943,242.4266 M 369.322,243.2026 L 369.58,243.4626 L 369.322,243.2026 M 379.415,243.7206 L 380.709,245.5326 L 379.415,243.7206 M 342.578,245.3606 L 342.75,245.4456 L 342.578,245.3596 M 381.227,246.0496 C 382.03,249.2366 386.611,251.5406 386.144,255.1086 C 387.921,255.3886 390.871,258.7336 390.803,260.5436 C 393.733,261.9366 394.381,265.9346 398.049,265.9786 V 264.4256 C 396.189,263.6976 395.315,262.0396 394.047,260.6186 C 391.565,257.8356 389.234,254.9356 386.803,252.1136 C 385.503,250.6036 383.452,249.3866 383.038,247.3436 L 381.227,246.0496 M 472.5,246.3946 L 472.673,246.4816 L 472.5,246.3946 M 474.916,247.3446 V 247.8616 L 475.434,247.3436 H 474.916 M 395.72,249.6736 V 250.1906 L 396.238,249.6736 H 395.72 M 467.67,251.7436 L 468.446,252.5206 L 468.186,251.7436 H 467.669 M 397.014,252.0026 V 252.2616 L 399.602,254.8496 H 399.862 V 253.2966 L 398.567,252.0026 H 397.014 M 355.432,252.4336 L 355.518,252.6066 L 355.432,252.4336 M 363.11,252.7786 L 363.369,253.0386 L 363.11,252.7786 M 391.838,254.0726 L 392.097,254.3326 L 391.838,254.0726 M 471.293,254.5906 L 472.328,255.1086 V 254.8486 L 471.293,254.5906 M 332.312,254.8496 L 332.571,255.1086 L 332.311,254.8486 M 287.797,255.4536 C 287.997,255.4536 287.838,255.5826 287.71,255.5396 L 287.797,255.4536 M 400.637,255.3666 L 401.155,256.1436 L 400.638,255.3666 M 286.761,255.6266 V 255.8846 L 283.656,256.4026 L 286.761,255.6256 M 473.621,255.6256 L 473.881,256.4026 H 474.139 V 255.6256 H 473.622 M 325.324,261.5786 L 325.583,261.8376 L 325.323,261.5776 M 469.999,268.3076 L 470.257,268.5666 L 469.999,268.3066 M 470.257,270.6366 L 470.517,270.8956 L 470.257,270.6366 M 384.591,299.6236 L 384.333,300.3996 L 384.591,299.6236 M 195.661,304.0236 C 196.417,304.8896 198.013,304.5806 199.025,304.2816 V 304.0236 H 195.66 M 206.013,304.0236 L 207.048,304.7996 L 206.013,304.0236 M 392.356,307.1286 L 392.614,307.3886 L 392.356,307.1286 M 379.674,307.6466 L 379.933,308.4226 L 379.674,307.6466 M 490.531,309.3716 L 490.617,309.5446 L 490.531,309.3716 M 404.52,310.2346 L 404.778,310.4936 L 404.52,310.2346 M 389.768,311.7876 V 312.3056 L 390.285,311.7876 H 389.768 M 495.621,312.0466 L 495.88,312.3056 L 495.62,312.0456 M 498.985,313.0816 L 498.726,313.8576 L 498.986,313.0816 M 86.701,313.3406 L 86.961,313.5996 L 86.701,313.3396 M 386.921,317.4816 L 387.179,317.7406 L 386.921,317.4806 M 400.896,320.3286 L 400.638,320.8456 L 400.896,320.3286 M 494.326,320.5866 L 494.586,320.8466 L 494.326,320.5866 M 96.795,320.8466 L 97.054,321.1046 L 96.795,320.8456 M 96.277,323.9516 L 96.537,324.2106 L 96.277,323.9516 M 96.795,324.2106 L 98.348,325.2456 L 96.795,324.2106 M 101.712,324.7276 L 102.23,325.2456 L 101.712,324.7276 M 157.27,325.3316 L 157.443,325.4186 L 157.27,325.3316 M 101.712,327.5746 L 101.972,327.8346 L 101.712,327.5746 M 183.237,328.3516 L 183.497,328.6106 L 183.237,328.3506 M 275.891,332.4926 L 275.374,333.5276 L 275.891,332.4926 M 400.12,332.4926 L 399.861,333.0096 L 400.12,332.4926 M 395.461,336.6326 L 395.721,336.8926 L 395.461,336.6326 M 494.068,337.1506 V 337.6686 L 494.585,337.1506 H 494.068 M 511.408,337.6686 L 511.667,338.1866 H 511.926 L 512.185,337.6686 H 511.408 M 416.943,340.5156 L 417.201,340.7746 L 416.943,340.5146 M 511.149,341.0326 L 510.89,341.5506 L 511.15,341.0326 M 93.948,341.5506 L 94.207,341.8096 L 93.948,341.5506 M 77.729,366.0506 L 77.816,366.2236 L 77.729,366.0516 M 548.677,374.6786 L 548.935,374.9366 L 548.677,374.6786 M 70.137,376.7486 L 70.397,377.0076 L 70.137,376.7486 M 138.808,376.9216 L 138.895,377.0936 L 138.808,376.9216 M 686.881,378.0426 C 686.805,381.6116 684.101,389.2786 680.67,390.8716 C 677.48,392.3516 674.086,391.6546 670.835,390.9836 V 390.7236 C 673.743,389.7426 678.262,390.8616 680.625,388.7876 C 683.901,385.9126 682.982,380.3036 686.881,378.0426 M 65.048,383.9096 L 65.134,384.0816 L 65.048,383.9096 M 563.86,393.6576 L 564.033,393.7436 L 563.86,393.6576 M 562.394,395.9006 L 562.652,396.1596 L 562.394,395.9006 M 105.336,396.1596 V 396.6766 H 105.853 V 396.1596 H 105.336 M 561.445,397.8846 L 561.531,398.0576 L 561.445,397.8846 M 609.152,398.0576 L 609.324,398.1436 L 609.152,398.0576 M 584.134,399.2656 V 399.7826 H 584.651 L 584.134,399.2656 M 52.539,399.7826 L 52.797,400.0416 L 52.539,399.7826 M 604.407,399.9556 L 604.493,400.1276 L 604.407,399.9556 M 582.581,400.8176 L 582.84,401.0776 L 582.58,400.8176 M 690.504,401.8536 L 690.764,402.1116 L 690.504,401.8536 M 557.821,403.3196 L 557.908,403.4926 L 557.821,403.3196 M 604.321,405.4766 L 604.062,406.7706 L 605.097,406.2526 L 604.321,405.4766 M 603.286,407.5466 L 603.026,408.5826 L 603.286,407.5466 M 661.604,409.0136 L 661.69,409.1866 L 661.604,409.0136 M 646.766,409.8766 L 647.024,410.1356 L 646.766,409.8756 M 600.697,411.4296 V 412.2056 H 600.957 L 600.697,411.4296 M 599.662,413.7586 V 415.0526 H 599.921 L 599.662,413.7586 M 611.567,416.0886 L 612.085,415.3116 L 611.567,416.0876 M 650.647,416.0876 C 650.649,417.1376 650.517,418.0216 651.424,418.6756 V 416.0876 H 650.648 M 597.074,417.3816 L 597.333,417.6416 L 597.074,417.3816 M 7.074,421.6956 L 7.161,421.8676 L 7.074,421.6956 M 606.391,422.0406 L 606.651,422.2996 L 606.391,422.0396 M 636.672,424.3696 V 425.9226 H 636.931 L 636.672,424.3696 M 0,424.8876 V 453.0976 C 5.21,451.0876 10.312,448.8136 15.455,446.7316 C 16.328,446.3776 16.891,445.6646 17.858,445.4586 C 21.765,444.6246 26.07,445.0596 30.022,445.5926 C 29.892,444.4406 29.286,443.0516 30.127,442.0356 C 31.331,440.5806 33.006,441.0586 34.28,440.1496 C 35.204,439.4906 35.483,437.8216 35.634,436.7926 C 35.756,435.9546 35.934,435.2096 35.159,434.6196 C 34.11,433.8216 32.702,434.6246 31.59,433.9576 C 30.533,433.3236 30.596,432.4226 31.575,431.8756 C 31.169,430.6686 31.678,428.8896 30.654,427.9656 C 29.606,427.0206 27.677,427.6306 26.399,427.3576 C 22.339,426.4926 18.108,427.2036 13.976,426.9466 C 12.756,426.8706 11.825,425.9706 10.611,425.9816 C 8.216,426.0016 2.655,426.4576 1.035,424.6286 L 0,424.8876 M 636.672,427.9926 L 636.931,428.2526 L 636.672,427.9926 M 619.849,430.5816 V 432.1336 H 620.109 L 619.849,430.5816 M 636.759,431.0116 L 636.845,431.1846 L 636.758,431.0126 M 33.128,431.6166 L 33.387,431.8756 L 33.127,431.6156 M 599.576,431.7026 L 599.748,431.7886 L 599.576,431.7026 M 635.636,432.3926 V 433.1696 H 635.896 L 635.636,432.3926 M 598.109,432.9106 V 434.4636 H 598.369 L 598.627,432.9106 H 598.109 M 600.956,433.1696 L 601.474,433.9456 L 600.956,433.1696 M 619.849,434.7226 V 438.3456 H 620.109 L 619.849,434.7226 M 597.333,434.9806 L 594.745,439.1216 C 595.945,438.2686 597.571,436.5766 597.333,434.9816 M 635.378,434.9816 L 635.637,435.2396 L 635.377,434.9806 M 635.723,436.4476 L 635.809,436.6196 L 635.723,436.4476 M 412.025,436.7926 L 412.284,437.0516 L 412.025,436.7926 M 636.845,437.9136 L 637.017,438.0006 L 636.845,437.9136 M 619.849,439.6396 V 440.9336 H 620.109 L 619.849,439.6396 M 619.849,442.4866 C 619.849,444.0696 620.236,446.1366 619.879,447.6626 C 619.22,450.4846 617.883,452.0536 618.814,455.1676 H 619.591 C 620.701,452.5496 620.321,448.8916 620.131,446.1096 C 620.049,444.9146 620.318,443.6036 619.849,442.4866 M 4.141,453.6156 L 4.4,453.8736 L 4.141,453.6156 M 417.633,456.8076 L 417.805,456.8936 L 417.633,456.8076 M 93.948,469.1426 L 94.725,468.6256 L 93.948,469.1426 M 82.043,483.3776 L 81.008,488.2946 C 85.345,488.2916 85.773,481.9486 88.772,479.4946 C 88.433,477.4146 91.551,472.3876 93.43,471.4716 V 469.6606 C 91.93,469.5816 91.13,470.5866 90.11,471.5826 C 87.82,473.8126 85.898,477.2766 84.237,480.0126 C 83.501,481.2256 83.505,482.9326 82.043,483.3776 M 89.98,479.5816 L 90.152,479.6676 L 89.98,479.5816 M 86.184,486.7416 L 85.925,487.5186 H 86.184 V 486.7416 M 423.93,486.7416 V 487.0016 L 424.966,487.2596 L 423.93,486.7416 M 81.266,490.6236 L 81.526,490.8836 L 81.266,490.6236 M 80.49,491.6596 C 77.678,496.7946 78.42,503.5116 78.42,509.2586 C 78.42,511.0816 79.259,512.9886 78.678,514.6936 C 79.666,514.6516 80.838,515.0296 81.333,513.8886 C 82.103,512.1116 81.202,509.9906 81.061,508.2226 C 80.75,504.3326 81.524,500.4586 81.525,496.5766 C 81.525,494.7406 82.019,492.9946 80.49,491.6596 M 101.971,492.9536 L 102.23,493.2116 L 101.971,492.9536 M 75.831,513.6576 L 76.091,513.9176 L 75.831,513.6576 M 76.091,514.4346 L 76.349,514.6936 L 76.09,514.4336 M 64.703,529.7036 C 63.622,531.6366 61.355,531.4266 59.6,532.2856 C 56.198,533.9506 52.594,535.9696 48.915,537.0356 C 45.551,538.0096 41.995,538.0956 38.822,539.6106 C 35.621,541.1386 32.979,544.4686 28.987,544.1976 C 27.809,545.5676 25.499,546.0116 23.811,546.5706 C 20.165,547.7776 16.284,550.1476 12.423,550.1506 C 11.867,551.1576 11.092,551.0856 10.093,551.4986 C 7.835,552.4326 5.035,554.0956 2.588,553.5146 L 0.156,555.6936 L 0,558.9496 V 566.4556 L 3.882,562.8316 C 3.477,560.5376 4.932,559.0246 7.247,558.9496 C 7.912,557.7426 10.131,557.4466 11.387,556.8346 C 13.877,555.6226 16.582,555.1296 19.152,554.1066 C 21.505,553.1696 23.802,551.6876 26.399,551.9616 C 28.631,549.4816 33.433,548.8526 36.492,548.4346 C 37.373,548.3146 38.165,547.6846 39.08,547.8376 C 41.012,548.1596 41.86,549.6306 43.998,549.6326 C 45.227,547.3276 48.091,547.7526 50.099,546.7936 C 54.076,544.8936 58.279,543.5406 62.373,542.0706 C 64.853,541.1806 66.606,539.8546 69.361,539.7976 C 70.005,538.5476 71.343,537.4906 72.726,537.2096 C 73.348,535.6176 75.102,534.5596 76.608,533.8456 L 79.196,528.9276 C 77.626,528.1036 77.606,526.3656 79.196,525.5636 C 79.199,521.0706 83.956,521.4276 86.184,518.0576 L 85.407,517.0226 C 83.47,517.0576 81.074,516.6366 79.196,517.1046 C 77.208,517.5996 74.331,520.1146 72.909,521.5766 C 70.893,523.6486 67.849,529.5716 64.703,529.7046 M 734.847,527.8066 L 734.933,527.9786 L 734.847,527.8066 M 413.837,530.9986 L 414.096,531.2576 L 413.836,530.9976 M 408.661,547.5626 V 549.1146 H 408.919 L 408.661,547.5626 M 764.006,552.9976 V 553.5146 H 764.524 V 552.9976 H 764.006 M 488.116,556.1026 L 488.374,556.3626 L 488.115,556.1026 M 428.33,568.0076 L 428.848,568.7846 L 428.33,568.0076 M 487.339,570.3376 L 487.598,570.5966 L 487.338,570.3366 M 419.789,579.9136 L 420.049,580.1726 L 419.789,579.9126 M 822.411,585.4346 L 822.584,585.5206 L 822.411,585.4346 M 536.771,585.6076 L 537.031,585.8656 L 536.771,585.6076 M 835.697,593.3716 V 593.6306 L 836.991,593.3706 H 835.697 M 532.199,595.0966 L 532.285,595.2696 L 532.199,595.0966 M 407.712,602.3436 L 407.798,602.5156 L 407.712,602.3436 M 527.713,603.4646 L 527.972,603.7246 L 527.713,603.4646 M 564.982,605.7946 L 565.241,606.0526 L 564.981,605.7946 M 523.572,610.1946 L 523.313,610.7116 H 523.831 L 523.572,610.1936 M 402.794,610.6256 L 402.881,610.7976 L 402.794,610.6256 M 545.83,614.8526 L 546.089,615.1116 L 545.829,614.8526 M 620.109,624.1696 L 620.367,625.4636 H 620.626 L 620.108,624.1696 M 571.97,624.6876 V 625.4636 H 572.228 L 571.97,624.6876 M 504.938,626.4986 L 505.197,626.7586 L 504.937,626.4986 M 619.332,627.0166 L 619.072,627.7936 L 619.332,627.0166 M 391.062,632.7106 L 391.32,632.9696 L 391.062,632.7096 M 606.392,633.7456 L 606.65,634.0046 L 606.391,633.7456 M 642.625,634.7806 L 642.883,635.0406 L 642.625,634.7806 M 640.037,635.2986 V 635.8166 L 640.554,635.2986 H 640.037 M 639.26,638.1456 L 639.519,638.4046 L 639.26,638.1446 M 387.525,639.0946 L 387.611,639.2666 L 387.525,639.0946 M 563.774,640.1296 L 563.86,640.3026 L 563.774,640.1296 M 544.277,642.0276 L 544.536,642.2866 L 544.276,642.0276 M 602.25,643.0626 L 602.51,643.3226 L 602.25,643.0626 M 560.064,646.4276 L 560.324,646.6866 L 560.064,646.4266 M 664.364,646.9446 V 647.2046 L 665.659,647.4626 L 664.365,646.9446 M 598.109,648.2386 V 649.2746 H 598.369 L 598.109,648.2386 M 382.521,651.3446 V 652.1216 H 382.78 L 383.038,651.3446 H 382.521 M 672.905,651.6036 L 673.165,651.8626 L 672.905,651.6036 M 718.197,675.9316 L 718.456,676.1906 L 718.197,675.9316 M 732.259,680.5036 L 732.345,680.6766 L 732.259,680.5036 M 756.501,692.7536 L 756.76,693.0136 L 756.5,692.7536 M 346.288,713.4596 L 346.028,713.9766 L 346.288,713.4596 M 292.455,730.5396 L 292.196,731.0586 L 292.456,730.5406 M 725.185,734.1636 V 734.4236 H 726.22 L 725.185,734.1636 M 273.045,734.9406 L 273.303,735.1996 L 273.044,734.9396 M 284.174,738.3046 L 283.914,738.8226 L 284.174,738.3046 M 268.127,748.1396 V 748.6576 H 268.645 L 268.127,748.1396 M 557.735,756.1626 V 756.6806 H 558.253 V 756.1626 H 557.735 M 272.009,767.0326 L 272.268,767.2916 L 272.009,767.0326 M 270.197,767.8096 L 270.457,768.0676 L 270.197,767.8096 M 733.984,784.8906 L 734.244,785.1496 L 733.984,784.8906 M 598.109,789.0306 L 598.886,788.7726 L 598.109,789.0316 M 726.22,789.0316 L 726.479,789.2906 L 726.22,789.0306 M 589.051,789.2906 V 790.0666 L 589.569,789.8076 V 789.5496 L 589.051,789.2896 M 707.845,792.6546 L 707.327,793.4316 L 707.845,792.6546 M 711.209,793.9486 L 711.468,794.2086 L 711.209,793.9486 M 532.63,805.0786 V 805.5956 H 533.148 V 805.0776 H 532.63 M 539.618,822.9356 L 539.878,823.1946 L 539.618,822.9356 M 726.738,849.3346 L 709.138,839.9496 L 702.928,836.9116 C 704.656,836.1946 707.724,837.8816 709.398,838.5386 C 713.841,840.2836 717.456,842.2436 721.562,844.7416 C 723.546,845.9486 725.94,846.9866 726.738,849.3346 M 764.783,880.9086 L 765.042,881.1686 L 764.782,880.9086 M 749.255,889.1926 L 751.067,896.4396 C 748.791,895.9596 746.317,890.2726 749.255,889.1926 M 793.339,957.9496 L 793.425,958.1226 L 793.339,957.9496 M 808.523,961.1416 L 808.781,961.4016 L 808.523,961.1416 M 801.535,962.9536 L 801.794,963.2126 L 801.534,962.9536 M 710.174,963.2126 L 710.693,963.9886 L 710.175,963.2126 M 817.581,970.4586 V 970.7186 H 819.393 L 817.581,970.4586 M 693.87,970.9766 V 971.2356 H 694.646 L 693.87,970.9766 M 819.91,971.4946 L 820.169,971.7536 L 819.91,971.4936 M 820.687,971.7536 V 972.0116 H 822.498 L 820.687,971.7536 M 823.016,972.5296 L 824.828,973.3056 V 973.0476 L 823.016,972.5296 M 825.604,974.0826 V 974.3416 L 827.674,974.5996 L 825.604,974.0826 M 828.451,975.1176 V 975.3766 L 830.781,975.6356 L 828.451,975.1176 M 832.591,976.4116 L 833.627,976.9296 L 833.11,976.1526 L 832.592,976.4126 M 831.298,976.4126 L 832.333,976.9296 V 976.6706 L 831.298,976.4116 M 835.18,977.7056 V 977.9646 C 836.48,978.0216 837.614,978.1526 838.027,979.5176 L 842.685,979.7766 V 978.7406 L 835.18,977.7056 M 834.404,977.4466 L 834.662,977.7066 L 834.404,977.4466 M 662.813,982.8816 C 659.07,988.5406 653.918,990.5066 648.319,993.6996 C 640.727,998.0306 633.399,1003.2146 624.509,1004.3636 V 1004.1036 L 635.897,998.8686 L 653.237,989.3706 L 662.813,982.8816 M 624.25,1004.3636 L 623.991,1004.6216 L 624.251,1004.3636 M 564.983,1007.9866 L 565.5,1008.5046 L 564.983,1007.9866 M 477.246,1009.0216 L 478.023,1009.5396 L 477.246,1009.0216 M 465.6,1016.2686 L 464.823,1016.5276 V 1016.7866 L 465.6,1016.2686 M 453.436,1029.2086 L 454.471,1028.4326 L 453.436,1029.2086 M 440.754,1054.8306 L 441.013,1055.0906 Z"
   id="path1" />
    <path
   style="fill:none;stroke:#178f08;stroke-width:0.264583;stroke-miterlimit:0;stroke-opacity:1;paint-order:stroke markers fill"
   d="M 109.08,557.7886 L 131.306,617.2096 L 169.862,606.3236 L 144.46,545.5416 Z"
   id="path2" />
    <path
   style="fill:none;stroke:#178f07;stroke-width:0.264583;stroke-miterlimit:0;stroke-opacity:1;paint-order:stroke markers fill"
   d="M 150.811,543.7266 L 174.851,605.8696 L 211.139,610.4056 L 222.933,569.5826 L 212.046,527.3976 Z"
   id="path3" />
</svg>
