<svg xmlns="http://www.w3.org/2000/svg" width="842.977" height="1057.936" xml:space="preserve"><defs><metadata id="geo-bounds"><georeference xmlns=""><bounds xmlns="" minLat="42.353375" maxLat="42.365045" minLng="-71.069484" maxLng="-71.057982"/><controlPoints xmlns=""><point xmlns="" lat="42.353375" lng="-71.069484" label="Public Garden"/><point xmlns="" lat="42.365045" lng="-71.060257" label="North Station"/><point xmlns="" lat="42.356292" lng="-71.062360" label="Park Street"/><point xmlns="" lat="42.362000" lng="-71.057982" label="Haymarket"/></controlPoints></georeference></metadata></defs>
    <path style="fill:#1b1b1b;stroke:none" d="M0 .44V417.9c1.294-.242 2.455.076 3.365 1.035 1.906-.433 4.866-.213 6.211 1.294 3.107-1.025 6.341.374 9.34.943 2.692.51 5.792-.324 8.518-.225 2.066.075 5.225 1.08 7.203.216 1.816-.795 2.974-3.27 4.034-4.816 2.646-3.86 5.404-7.845 8.353-11.442 1.066-1.3 1.637-3.041 3.185-3.828.222-1.988 2.352-4.841 4.141-5.694.475-2.07 2.269-4.041 3.547-5.693 2.635-3.404 5.55-7.013 7.779-10.685 1.228-2.025 3.1-5.602 5.238-6.656.818-2.91 3.34-5.433 5.161-7.764.903-1.155.973-2.205 2.603-2.33-.32-.906-.344-1.32.518-1.81l4.23-6.286 3.275-3.808c-.047-1.471 1.017-2.475 1.857-3.61 1.97-2.66 4.342-8.03 7.202-9.59l4.917-6.988v-.258l-2.588-2.33c-1.428-.338-2.961-1.258-3.623-2.588l-4.992-3.373-16.748-11.897c-2.184 3.615-7.025 4.477-10.87 2.847v-.258c2.893-1.613 5.419-3.937 7.526-6.47.906-1.09 1.954-3.513 3.183-4.172.88-.472 2.801.919 3.525 1.409 2.406 1.628 4.863 3.273 7.14 5.057 1.01.79 2.056 1.054 2.436 2.364 4.268.923 6.724 5.536 10.204 7.776 2.725 1.754 7.236 3.085 8.69 6.2l7.837 5.44 3.55 1.289c.864-.144 4.323.14 4.347 1.305.019.86-.908 1.624-.983 2.577l3.883 3.364h.258l2.845-1.758 5.069 3.946 5.256 4.217 1.354 1.859-1.771 2.337-1.624 1.305.518 1.552c1.614.18 4.97 2.447 5.694 3.883l1.811.258c1.46-2.052 3.786-7.063 6.212-7.764-.183-1.647 1.1-2.631 2.039-3.872 1.615-2.132 4.862-5.877 4.949-8.55-7.934-3.744-14.679-9.956-22.258-14.274-1.614-.92-2.932-2.123-4.475-3.075-1.997-1.233-5.037-2.156-6.136-4.392-2 .327-5.254-2.22-4.55-4.4 2.2-6.82 12.045-6.772 15.937-1.811 1.275.052 2.144 1.11 3.107 1.89 1.894 1.534 4.8 2.569 5.952 4.839l2.07 1.553c.877-.025 2.002-.464 2.833-.145 3.389 1.3 5.005 6.432 9.072 6.768 4.303.356 4.766-6.238 8.282-6.364.483-1.771 1.995-2.69 3.181-3.983 3.546-3.867 10.735-9.563 16.489-8.44 1.388-1.752 3.001-.983 4.917-1.366 3.093-.62 9.687-3.5 12.423-.705l6.403-1.697 2.914-2.07 2.847.852 7.764 1.463 11.906.158c1.098-2.14 4.206-1.87 5.694-.26l9.317.126 3.423.475.237 2.483-.037 7.529c.744.215 1.259.482 1.47 1.299.607 2.337.127 5.324.383 7.759.098.932.342 2.197-.178 3.03-1.834 2.94-7.587 3.958-10.71 2.846-1.222-.435-2.102-1.606-3.388-1.913-2.068-.493-6.37-.608-7.505-2.67-2.784 0-4.969-1.177-7.529-2.002-7.3-2.353-14.28-5.775-18.87-12.232h-.259l-2.07 1.294v.26c2.298 1.618 6.658 5.324 6.988 8.28 1.627.824 1.114 2.238-.334 3.018-1.25.673-3.984.874-5.36.606-1.46 1.49-4.512 1.332-6.396 2.2-3.348 1.542-6.691 3.175-9.91 5.01-2.181 1.245-4.085 3.08-6.728 3.143-.447 1.479-2.075 1.913-3.365 2.536-2.943 1.422-5.914 2.854-9.317 2.64-.681 1.363-2.515 5.89-4.145 5.966-2.509.115-4.373-2.91-6.984-3.12-.233 2.1-2.606 5.63-4.658 6.212-.07 2.95-2.675 5.728-4.36 8.024-3.048 4.148-5.906 8.554-8.58 12.94 5.275.838.934 7 .003 9.835-.538 1.636-.818 4.097-2.156 5.342-1.559 1.45-4.292-.99-5.87-1.318-1.412-.293-3.175.375-4.66.375-1.557 2.903-7.6 2.908-10.255 4.518-2.568 1.558-4.62 5.05-7.602 5.835-.221 1.996-1.73 3.193-2.474 4.94-1.057 2.483.344 8.537-2.185 9.812.027 3.292.418 6.26-.037 9.576-.326 2.374-1.284 4.187-1.124 6.729.111 1.77.972 5.562-1.168 6.21l.517 3.107c2.24.458 1.73 2.56 1.802 4.4.168 4.3.01 8.637.01 12.94 0 1.626.624 4.336-1.294 4.918 1.002 3.95.543 11.57-3.364 13.717.827 4.24-3.161 8.758-3.624 12.94 3.572.464 7.755 2.275 6.988 6.47.684.813.074 4.617-1.035 5.177.646 1.793-.18 3.56-.81 5.22-1.539 4.054-1.906 6.897-6.696 7.979.051.992.623 2.129.425 3.1-.349 1.71-3.342 1.94-4.566 1.3h-.258c-1.896 2.437.014 6.97-3.624 7.764.892 3.746-1.089 7.51-3.108 10.537-.647.97-.7 1.844-1.81 2.403-.184 2.467-3.208 5.465-4.801 7.29-3.214 3.683-7.65 5.2-11.977 6.839-1.273.48-2.335 1.49-3.667 1.983-3.977 1.472-8.202 2.64-12.12 4.266-3.368 1.397-9.267 5.082-12.985 4.21-.525 1.747-3.774 2.506-5.435 2.817-3.258.61-7.197 2.716-10.352 3.87-1.873.685-3.346 2.069-5.435 1.594-1.562 1.816-5.444 2.845-7.764 2.847-.822 1.63-6.902 3.562-8.8 3.624v488.632h429.107l8.686-.156 1.666-3.467c-1.014-2.821 1.811-6.806 2.946-9.317 1.04-2.304 2.523-4.344 3.565-6.504 1.5-3.11 2.561-6.596 4.54-9.543.915-1.36 2.272-2.387 3.225-3.732 1.519-2.144 3.791-5.88 6.429-6.62 1.204-2.836 5.068-4.678 7.495-6.386 1.056-.742 1.817-1.633 3.116-1.896.882-1.808 2.528-2.037 4.14-2.917 2.632-1.436 4.132-2.777 7.248-2.777.838-1.677 2.248-1.5 3.882-1.294.815-1.617 3.06-1.754 4.658-1.294.984-1.874 3.899-1.438 5.694-1.286 1.473.126 2.738-.807 4.141-.975 2.22-.266 4.715.28 6.988.18 1.682-.073 3.452-.76 4.4 1.046 1.798-.65 3.332.235 5.176-.067 6.521-1.067 12.712-.957 19.41-.968 2.192-.004 6.752-1.32 8.024 1.035 2.01-.413 5.758-.908 7.246.776 4.976-.868 10.345 4.269 14.494 6.374 2.224 1.129 4.496 1.708 6.433 3.4 1.501 1.31 1.82 3.716 3.92 4.528 1.626.628 3.724.034 5.434.24 3.029.363 5.767 1.316 8.54 2.355 1.296.486 2.392.076 3.365 1.22l7.247.259c.946-1.88 4.033-2.32 5.804-3.19 4.635-2.28 9.063-1.571 14.124-2.001 1.608-.137 2.903-1.407 4.4-1.905 1.785-.593 4.003-.187 5.684-.89 2.604-1.09 4.596-6.24 7.515-5.99.721-2.428 5.02-3.106 6.91-4.534 4.935-3.73 8.827-8.658 13.685-12.462 1.745-1.365 4.031-3.634 6.322-3.708.597-2.1 3.434-3.74 5.177-4.887 4.203-2.768 8.659-6.397 13.975-5.725.095-2.176 3.751-3.86 5.693-3.882.831-1.588 2.823-1.77 4.29-2.58 3.417-1.882 8.605-5.746 12.533-5.961-.992-1.915.313-2.296 2.07-2.07.704-1.254 1.64-1.152 2.847-1.705 2.756-1.265 6.16-1.995 8.686-3.682 2.556-1.707 4.13-5.12 6.853-6.476 3.291-1.638 8.33.392 11.89-.373 1.92-.413 2.034-2.878 4.146-3.397 3.01-.74 6.192.028 9.059.597 2.77.55 5.059.539 7.808 1.61 1.843.72 3.847.868 5.132 2.556 1.896-.347 6.174.71 7.505 2.07 1.405-.491 3.171.548 4.66.828 3.531.664 6.89.857 10.351 1.76 1.648.43 3.462-.493 4.4 1.295 2.22.166 6.348 2.717 6.988 4.917 2.1.326 5.706 2.508 6.73 4.4l10.352 5.176c-.778-1.333-2.144-1.802-3.365-2.625-2.327-1.57-4.576-3.225-6.988-4.672-5.74-3.445-10.562-7.885-15.787-11.996-2.098-1.651-6.776-4.533-7.506-7.106-5.575-1.758-8.83-5.955-12.798-9.9-1.457-1.45-3.845-4.794-3.766-6.922-1.246-.627-1.22-1.655-1.924-2.737-1.181-1.818-3.02-4.353-3.19-6.582-.173-2.268.855-4.614.692-6.986-.204-2.956-2.086-5.24-2.51-8.023-.336-2.2.082-4.514-.07-6.73-.079-1.165-.63-2.172-.378-3.363.488-2.295 1.838-4.463 2.403-6.74.47-1.89.25-3.512 1.131-5.425.59-1.281 1.755-2.03 2.475-3.173 1.732-2.748 2.976-5.941 4.767-8.732.838-1.308 1.294-2.912 3.075-2.847 1.046-2.465 3.615-3.603 5.456-5.384 3.662-3.545 7.719-5.488 12.133-7.827 4.311-2.284 8.165-4.727 12.95-5.955 2.657-.68 8.159-3.328 10.611-2.057.913-1.795 2.98-1.15 4.659-1.142 3.466.014 7.062-.997 10.611-.152 1.113-1.46 2.442-1.294 4.141-1.294 3.064 0 6.086-.362 9.058 0v-57.455c-1.144-.034-2.228-.553-3.364-.498-.982.048-1.664.72-2.588.934-1.731.402-3.92.113-5.694.08-1.38-.026-2.28-.97-3.624-1.03-5.666-.245-11.175.514-16.822.514-4.105 0-8.952-.79-12.94-.32-.915.108-1.635.752-2.589.823-6.066.453-12.29-.057-18.375.015-7.716.092-15.503.517-23.293.517-2.584 0-5.063.905-7.505.877-2.439-.027-7.043-1.05-9.259-.02-1.978.92.265 3.646-1.391 4.472-1.748.873-7.178.463-8.502-.93h-.26l-5.434 1.036c-.349 1.4-1.44 3.88-2.686 4.717-.798.535-2.344.198-3.267.2-2.998.006-5.512.62-7.764-1.812-1.49.033-4.197-.44-4.917-1.811-2.209.07-1.862-2.314-2.33-3.882-2.202.524-5.797.715-8.013.177-2.177-.528-3.8-1.287-6.221-.915-2.158.33-4.242 2.428-6.212 3.326v17.08c0 2 .652 5.37-.156 7.209-.451 1.029-2.028.755-2.95.796-2.579.114-5.182.02-7.764.02-.864 0-2.277.242-2.84-.6-.733-1.1-.265-3.56-.265-4.836v-12.422c0-1.206.608-4.837-.415-5.647-.702-.556-2.116-.305-2.95-.305h-29.245c-3.051 0-7.25-.694-10.079.66-1.622.776-1.05 3.553-1.05 5.034 0 3.998.768 7.767.776 11.646.003 1.128.419 3.426-.63 4.2-.667.492-1.953.2-2.734.2-2.332-.004-4.66.029-6.988-.095-.792-.042-1.83.529-2.506-.025-1.124-.92-.63-3.583-.341-4.798-1.737-.34-3.986 1.128-5.63.003-1.138-.777-.22-3.19-.356-4.402-.254-2.271-1.201-4.488-1.257-6.73-.04-1.58.585-4.525-.27-5.904-.633-1.02-2.342-.766-3.357-.93-1.499-.24-3.962-1.05-4.917-2.224h-.26c-.765 5.258-5.754 3.882-9.834 3.882h-21.222c-2.085 0-6.213-.783-7.941.556-1.37 1.062-1.439 4.1-1.77 5.656-.271 1.28-1.194 2.39-1.381 3.646-.3 2.019.08 4.153-.06 6.189-.09 1.312-.68 2.585-.713 3.882-.019.782.45 1.53.302 2.306-.841 4.448-5.336 5.793-8.625 7.529.466 2.139.778 7.98-1.294 9.058v3.106c1.35.744 1.036 2.253 1.036 3.623-.001 2.985.366 6.29-1.812 8.54v-5.176c-2.976-1.5-.625-8.337-1.376-11.114-.28-1.034-1.497-1.403-1.989-2.344-1.948.107-4.896 2.756-5.84 4.467-1.153 2.09-1.312 4.665-4.512 4.573-3.067-.09-4.715-3.4-7.063-4.88-1.287-.81-2.811-.948-4.031-1.971-.587-.493-2.325-2.055-2.537-2.78-.432-1.47 3.48-1.625 4.314-1.48.585-1.09 1.667-1.543 2.847-1.811l1.294-1.553c-.078-1.045.094-1.572 1.035-2.07.25-1.611 1.534-2.474 3.106-2.588.837-1.684 2.797-2.624 3.48-4.4.879-2.281-1-5.55 1.696-6.988.252-1.258 1.078-2.055 1.759-3.11 1.641-2.545 3.749-7.173 6.523-8.536l2.588-4.918c-.547-.168-1.754-.217-1.981-.854-.227-.634.572-1.185.943-1.57 1.271-1.32 2.337-2.622 3.475-4.013 3.669-4.487 9.342-8.251 11.567-13.794 1.734-4.316-1.345-9.766.178-14.185.585-1.7 2.779-1.3 4.194-1.3 4.13 0 7.488 2.749 10.093 5.953l8.023-.26h14.752l13.2-.013 3.623-.758 25.363.255 10.87-.048 7.247-1.49 14.752-.517 3.365.497h12.94l7.765-1.025 47.88-.005c.816-1.62 2.09-1.077 3.623-1.04 3.015.075 6.041.004 9.058.004 6.065 0 12.071-.517 18.117-.517 1.116 0 5.61.808 6.207.1.739-.872.22-2.675.337-3.723.42-3.757.242-8.373-.074-12.165l-10.87-.258h-33.904l-2.814.328-2.44-2.501-3.203-.39-.107-2.355-.495-4.4-5.435.014-2.247-.13-.858-3.507c-3.48.22-7.1 1.095-10.612.259-1.756 1.88-7.836.776-10.352.776-5.247 0-10.834-.551-16.046.034-3.719.417-7.351.484-11.129.484-1.428 0-3.29.343-4.658-.057-1.235-.36-4.744-1.984-4.629-3.552.11-1.5 3.847-3.356 5.146-3.638 1.204-2.212 3.942-1.196 5.953-1.058 5.346.366 10.193-1.012 15.528-1.012 7.055 0 14.236-.59 21.223-.516 1.914.02 3.733.547 5.694.515 1.674-.028 3.207-.574 4.917-.512 1.333.049 2.523.59 3.882.499 1.56-.104 2.872-1.092 4.4-1.252 4.258-.447 8.662.149 12.94-.038 4.773-.21 10.018-.87 14.752.01 1.746-2.285 5.496.075 6.943-1.71.585-.72.463-2.08.626-2.95.371-1.97.83-4.186.636-6.21-.124-1.288-.841-2.375-.943-3.625-.133-1.64.351-3.582-.184-5.16-.375-1.107-1.621-1.34-2.16-2.344-1.591-.087-3.64-1.161-4.4-2.588-2.31-.027-4.393-1.7-6.285-2.877-2.34-1.457-5.054-2.72-7.506-4.003-1.51-.79-3.557-1.36-4.326-2.955-1.543.147-3.388-.686-4.14-2.07-2.654.21-5.282-2.83-7.765-3.582-1.66-.503-2.222.995-3.624 1.428-1.727.532-6.642-.935-7.505-2.505-4.117-1.15-9.092-4.526-12.681-6.875-1.268-.83-3.151-1.341-3.882-2.7-3.585-.4-7.843-4.098-10.87-5.99-1.286-.804-2.874-1.144-3.624-2.552-1.484.242-2.39-.775-3.623-1.473-2.361-1.335-4.75-2.587-7.062-4.017-6.564-4.06-13.473-7.976-20.372-11.394-2.443-1.21-4.641-3.528-7.505-3.562l-1.294 1.295c.12 1.164.046 1.996-1.036 2.588-.617 2.372-2.685 7.443-4.917 8.54-.011 3.108-2.57 6.244-4.144 8.804-.728 1.184-.738 2.41-2.068 3.102.273 2.144-2.462 4.106-4.4 4.4-.372 1.289-1.35 1.565-2.284 2.416-.736.672-1.218 1.768-2.138 2.213-3.08 1.49-9.516 1.18-11.625-1.817-1.343-1.91.052-3.518 1-5.165a523.06 523.06 0 0 1 6.65-11.216c.854-1.402 1.12-2.983 2.704-3.772v-.26c-1.34-.072-3.337-1.44-1.035-1.81.074-2.3 2.158-4.14 3.623-5.758 1.779-1.966 3.34-4.366 4.69-6.642 1.764-2.978 3.196-4.33-.29-6.235-.432.834-1.295 2.914-2.13 3.333-1.173.589-5.56-1.594-6.053-2.848-.613-1.56 1.144-3.538 1.195-5.143l-1.553-.26c-1.35 1.91-2.912 5.947-4.917 6.989-.654 4.3-4.856 8.076-6.671 11.909-.754 1.59-1.277 3.946-3.423 3.878.437 1.522-.379 4.168-1.812 4.918-.21 2.804-3.002 5.092-4.398 7.364-.57.93-.543 2.297-2.071 2.035-2.125-.364-4.972-3.836-7.199-3.253-2.2.575-2.447 5.178-4.448 6.276-.06 1.514-1.392 3.497-2.588 4.4.105 1.404-1.528 5.312-3.12 5.597-.96.17-2.225-.727-3.048-1.156-.976-.508-2.268-1.323-2.7-2.38-.267-.654.136-1.545-.36-2.082-1.26-1.36-3.297-1.834-4.23-3.602-2.981-.035-6.694-2.914-9.318-4.327-1.177-.634-2.394-1.104-2.435-2.656-.026-.994.934-1.731 1.425-2.524.917-1.48 1.736-3.19 2.604-4.728.815-1.446-.207-2.98 1.512-3.882.045-1.854 1.074-2.567 1.992-4.041 1.535-2.468 2.559-7.231 5.255-8.64.026-2.187 2.13-5 3.204-6.988 3.137-5.81 6.674-11.232 9.736-17.082-3.877-.25-7.52-5.75-11.387-4.658-.228 1.829-1.428 4.816-3.106 5.693l-5.176 9.835c3.619.013 2.245 3.002 0 4.4-.056 1.752-1.535 3.074-2.585 4.349-1.608 1.95-3.842 4.583-4.997 6.78-.998 1.898-2.05 4.708-4.065 5.694-.894 3.315-4.177 5.967-5.674 9.057-.488 1.006-1.367 2.895-2.612 3.09-2.366.374-5.355-2.716-7.286-3.76-1.756-.95-4.892-1.646-5.638-3.74-.646-1.815 1.739-4.314 2.472-5.941.696-1.544 1.854-2.772 2.69-4.215 1.874-3.237 3.311-6.77 5.305-10.02 1.005-1.638 1.464-3.67 2.979-4.917-.15-1.78 3.217-7.78 4.917-8.282.013-1.077.044-1.783 1.036-2.33.418-5.54 7.195-9.813 7.246-15.528-1.718-.504-2.912-1.695-4.473-2.451-1.921-.93-4.02-1.55-5.835-2.7-1.088-.69-2.61-2.542-4.088-1.936-2.328.954-2.07 4.885-4.238 6.052-.02 1.626-.832 3.873-2.33 4.658-.546 3.766-3.775 7.736-5.596 11.02-3.566 6.428-6.804 12.976-10.234 19.52-1.23 2.346-2.439 4.973-3.88 7.172-.396.606-.964 1.766-1.772 1.848-2.307.233-4.818-2.574-6.728-3.495-1.032-.498-2.172-.904-2.456-2.162-.374-1.656 1.71-2.813 1.312-4.12-.452-1.484-2.791-1.523-3.362-3.136-.45-1.275.392-2.132 1.034-3.118 1.317-2.026 2.378-6.355 4.508-7.483 1.106-5.297 5.29-11.263 8.278-15.713.95-1.415.978-3.593 2.592-4.474.304-2.746 2.921-6.163 4.308-8.54.587-1.007.842-2.02 1.903-2.59l2.33-4.14-6.47-3.623-4.64 8.54-2.608 3.883c-.08 1.058-.336 1.588-1.294 2.07-.327 4.324-6.883.907-8.023-1.294-1.06-.08-2.326-1.168-3.327-.798-1.83.679-1.947 3.973-3.92 4.596-.768.243-1.895-.65-2.588-.938-2.31-.963-6.605-3.188-7.764-5.448-1.594-.12-4.598-1.534-4.798-3.364-.172-1.584 2.296-5.81 3.504-6.73-.08-1.4 1.092-3.723 2.33-4.4.05-2.316 1.74-5.272 2.934-7.242.762-1.256 2.276-2.996 1.86-4.624-.279-1.086-2.36-1.195-3.242-1.62-3.461-1.672-8.44-1.657-11.128-4.63-2.108 2.31-7.154-.623-9.834-.512-1.185.049-1.95.915-3.108 1.015-4.615.397-9.752-.281-14.233 1.09-2.504.768-4.314 3.18-6.988 3.584-.486.926-1.044 1.18-2.07 1.294-1.637 3.365-6.04 4.764-8.096 7.838-5.156 7.71-9.449 15.785-14.29 23.736-1.465 2.406-2.773 7.47-5.307 8.8-.165 1.484-1.242 3.464-2.589 4.14-.11 1.515-.96 3.172-2.329 3.883-.313 2.82-2.748 5.76-4.168 8.133-1.738 2.903-3.326 6.193-4.859 9.208-.914 1.798-2.145 5.24-3.913 6.21-.048 1.967-1.302 3.016-2.203 4.66-1.816 3.314-3.356 8.467-6.338 10.87v.258c.55.247 1.723.34 2.048.88.699 1.163-2.333 4.827-3.342 5.33.064 1.993-2.157 4.589-3.258 6.213-2.063 3.042-4.439 6.21-6.178 9.413-1.255 2.31-2.84 5.983-5.316 7.15-.068 2.325-2.32 6.975-4.4 8.024.23 1.41-1.076 3.725-2.33 4.4-.054 1.72-1.087 2.684-1.858 4.14-1.933 3.652-4.796 7.343-6.3 11.152-.72 1.825-1.967 5.517-3.747 6.448-.138 1.533-.932 3.648-2.329 4.4l-1.893 3.617-4.577.265-11.647-.26c-.079 1.798-1.53 1.257-2.846 1.528-2.746.565-4.91 1.32-7.765 1.32-.702 1.272-3.753 1.76-5.176 2.178-2.195.644-4.292 1.668-6.47 2.335-1.01.31-2.09.02-3.106.343-1.643.522-2.984 1.795-4.658 2.13-.886 1.69-3.76 2.862-5.362 3.914-2.593 1.704-5.44 4.674-7.654 6.882-1.39 1.388-2.463 3.28-4.583 3.44-.654 1.883-4.746 6.16-6.73 6.47.396 2.569 1.072 5.607.437 8.278-.336 1.415-1.26 2.65-1.55 4.145-.387 1.987.807 4.096.255 6.207-.55 2.105-6.46 4.133-8.459 4.323-1.743.167-7.185-1.978-3.882-3.8.127-1.912 1.437-3.375 1.943-5.177.651-2.321.958-5.118 1.273-7.506.21-1.598-.204-3.31 1.443-4.14-.028-2.52-1.099-6.62 1.035-8.541-1.431-6.341 2.829-8.866 6.998-12.5 1.209-1.055 4.676-5.057 5.942-2.77l3.106-1.553c.386-1.1.955-1.518 2.07-1.811l1.036-1.295c.832-4.592 3.584-5.164 7.137-7.238 1.393-.813 3.103-2.29 4.768-2.08 2.886-3.623 9.372-8.047 14.235-7.504l5.132-2.507 9.102-4.481c.875-1.671 4.643-3.261 6.47-3.623.458-1.78 1.82-3.032 2.55-4.66 1.778-3.965 3.417-8.116 5.64-11.904 1.06-1.81 1.36-3.754 3.198-4.918.075-2.42 1.866-5.134 2.894-7.29 2.693-5.653 5.42-11.228 8.138-16.853 1.127-2.333 1.757-6.4 4.238-7.69.064-2.672 1.789-4.554 2.887-6.84.988-2.057 1.733-4.278 2.7-6.36.629-1.353 1.345-3.46 2.695-4.14.03-2.63 2.026-5.22 3.145-7.55 2.374-4.941 4.667-9.888 7.13-14.782 1.176-2.338-2.142-4.496-.7-6.137-.267-3.108 4.365-6.16 6.989-5.953.74-4.684 4.726-10.162 6.922-14.31.751-1.418 1.182-3.552 2.654-4.324-.224-2.6 1.863-4.954 2.846-7.247.52-1.213.854-2.47 2.07-3.106.184-1.652 2.065-6.26 3.624-6.73.002-2.07.642-3.235 2.588-4.14 0-2.42.105-6.144 2.07-7.764-.065-2.034 1.996-1.436 3.068-2.75 1.039-1.27 2.638-4.99 3.144-6.567-1.91.32-2.009 2.746-3.886 3.154-4.268.926-1.638-5.971-1.26-7.554.196-.821-.105-1.567.57-2.247 1.818-1.83 5.716.224 7.902-.822 1.159-.554 1.064-2.568 1.333-3.66-2.351.56-7.552 1.019-9.82.103-2.25-.91-.286-2.9 1.28-2.95 1.575-3.012 8.015-2.373 10.757-3.78 2.688-1.38-2.63-2.616-3.252-2.69-1.035 1.099-6.273 3.147-7.24 1.514-.658-1.112-.69-5.603.15-6.608.916-1.1 2.285-1.117 3.105-2.56.847-1.49.837-6.45.215-8.055-.48-1.241-1.863-1.12-2.96-1.114-2.377.015-5.744 1.828-8.018 1.115-.732-.23-1.167-.894-1.25-1.633-.26-2.314-.235-5.964.034-8.28.204-1.76 1.819-1.307 3.023-1.805 2.302-.952 10.57-2.814 11.129.768.647-.464.998-1.252 1.823-1.47 2.072-.55 5.626.24 7.382-1.156 1.655-1.316-.527-5.448 2.959-4.88l-2.588-4.4c-3.53 1.063-7.99 3.53-11.905 2.848-1.246 1.397-4.654 1.37-6.212.518-.098 2.239-6.402 2.645-8.282 2.91-.829.117-1.738.464-2.51-.062-1.623-1.105-.65-3.81-.092-5.178.318-.78.182-1.781.668-2.47 1.298-1.832 5.148-1.76 7.11-1.412 1.364-1.515 4.626-2.07 6.47-1.294.872-1.58 4.687-1.68 6.212-1.035.946-1.803 7.024-2.386 9.059-2.663 1.132-.154 1.961-.516 2.846.334h.26c.588-1.984 4.211-1.953 5.952-1.553.554-.737 1.43-1.39 1.62-2.333.283-1.411-.899-3.602.45-4.396-.956-1.73-1.142-2.475-3.105-3.106-1.341 1.6-4.034 1.478-5.953 1.035-1.153 1.514-4.388 1.935-6.211 1.553-1.02 1.143-5.431 1.787-6.573.436-.651-.771-.843-2.56-1.192-3.542-1.81.336-3.15-.19-4.917-.254-2.57-.093-5.46.124-8 .315-1.467.11-3.337 1.67-4.852.55-1.49-1.103-.83-3.987-.646-5.528.482-4.034-.135-8.266.255-12.423.103-1.107-.517-2.6-.085-3.608.477-1.114 1.731-1.143 2.64-1.69 1.446-.873 3.094-2.926 4.476-.396 2.356.05 4.178 1.396 6.286 2.185 2.468.924 5.674 1.044 4.843 4.544l.777 1.812c5.934-1.102 13.253-1.942 18.634-4.917-1.32-2.823-5.06-1.096-7.432-.141-.96.387-2.08 1.267-3.097.462-.887-.702-.977-3.765-.185-4.565 1.218-1.23 5.81-2.036 7.35-1.45l1.552-2.847c-3.246.233-6.55 3.062-9.834 1.812-1.002 1.86-4.193 1.875-5.177 0-4.062-.13-8.162-4.012-11.905-5.464-2.486-.964-5.408-.782-7.76-1.716-1.376-.547-1.363-1.696-1.04-2.914-1.218-1.096-2.238-4.556-.445-5.686 2.342-1.477 8.842-.126 10.022 2.322 1.613-.013 5.859.305 5.952 2.329 2.036-.217 4.326.503 5.694 2.07h.259c2.383-3.784 0-9.374.995-13.443.468-1.908 3.976-2.524 3.405.244 2.313.55 4.62-.303 4.658 2.847 2.492-.397.96-2.498 1.812-4.141-.83-.245-1.296-.99-2.104-1.212-2.076-.57-5.313-.265-7.472-.187-2.43.088-6.241.835-8.536-.051-1.455-.562-1.636-3.46-1.107-4.747.781-1.9 3.342-.84 4.438-2.862.902-1.662-.05-3.83 1.323-5.175-1.346-4.187 3.472-2.71 5.694-3.365-1.014-1.035-3.027-.35-3.106-2.07-2.53 1.142-6.468.32-6.73-3.106-3.21.67-6.718-.834-9.834-1.123-1.57-.145-3.2.348-4.64-.661-1.132-.794-.8-4.605.015-5.663.837-1.086 3.91-.65 5.143-.562 1.029.072 1.85.73 2.846.832 3.206.33 5.835.337 9.059 1.11 1.516.363 3.042.163 4.14 1.408l4.142.259.776-5.176c-1.69-.796-2.96-1.288-4.917-.997-.793.118-1.505.835-2.306.77-.795-.062-1.51-.7-2.354-.811-1.468-.194-3.614-.218-4.501-1.555-.985-1.485-.029-3.508-.497-5.123-.455-1.566-4.119-1.834-1.989-3.93l.106-2.064 3-.266 7.247-.26 1.035-3.881c-2.75.335-5.462.518-8.282.518-1.112 0-2.4.15-3.286-.666-1.193-1.1-1.139-3.36.444-4.03 1.946-.823 4.669-.277 6.724-.403 1.207-.073 2.096-.69 3.365-.595v-3.106c-2.127.002-5.184.256-7.173.919-1.862.62-4.42 2.062-6.506 1.06-1.117-.534-1.134-3.835-.39-4.674 1.223-1.378 4.862-2.095 6.563-1.705.978-1.201 4.159-2.276 5.694-2.588-1.309-3.846-6.246-7.038-6.47-11.128-3.436 2.329-6.442 5.977-9.768 8.583-1.082.848-1.825 2.468-3.408 2.474-1.492.006-2.62-1.69-3.573-2.602-1.014-.973-3.13-2.407-3.526-3.798-.39-1.374 2.561-4.363 3.711-4.916.53-2.023 2.178-2.977 3.427-4.497 1.774-2.16 3.352-5.833 5.89-7.15.355-1.252 1.322-2.47 2.588-2.847l.777-3.105-2.588-.777c-2.302 3.984-5.5 7.399-8.09 11.203-.752 1.104-2.064 3.652-3.567 3.83-1.06.125-2.917-1.372-3.762-1.963-1.008-.704-2.393-1.073-3.044-2.21-.655-1.143 1.165-3.59 2.158-4.13.05-1.55 1.013-2.306 1.691-3.625 1.125-2.188 1.998-4.37 3.37-6.43.563-.845 1.774-1.932 1.995-2.92.217-.975-.873-1.554-1.621-1.778-.078 1.023-.29 1.507-1.294 1.812-.242 2.237-1.913 4.56-3.624 5.952.296 7.986-13.608-2.105-6.729-4.14.11-2.364 2.351-6.248 4.141-7.765-1.042-.424-2.712-2.013-3.837-1.641-2.47.815-2.139 5.152-4.704 5.265-.079 1.543-.433 3.648-2.07 4.14.448 1.91-2.553 7.825-4.928 7.873-1.82.037-2.892-2.45-4.621-2.77-1.348-.25-2.03 2.308-3.65 2.335-3.052.05-6.289-2.105-9.318-2.52-2.209-.303-9.2-1.187-9.317-3.882l-1.294.259c-.485 1.633-1.657 1.469-2.588.258l-7.223.007-2.612 1.074-6.729-.045c-.57 1.92-2.834 1.747-4.4 2.502-3.657 1.765-6.911 3.775-10.093 6.297 1.323 3.127-1.727 4.893-3.95 6.566-3.737 2.816-7.526 3.836-11.837 5.277-2.255.754-4.882 1.878-7.247 2.133-.696 1.326-2.38 1.792-3.623 2.552-3.142 1.92-6.39 4.306-9.808 5.69-1.45.588-2.656 2.128-4.36.929-2.71-1.908-1.66-5.123-1.738-7.877-.037-1.338-.54-2.528-.438-3.882.12-1.583-.295-3.09 1.333-3.882l.517-2.588c-3.86-.014-3.976-7.193-3.623-10.353-2.32-1.433-1.223-3.92-1.51-6.201-.102-.81-.802-1.312-.997-2.091-.537-2.15-1.56-8.214 1.213-9.048-.406-2.213 2.477-3.501 4.4-3.106.839-1.717 3.268-3.643 5.176-3.882.048-1.526.68-2.903 2.07-3.623.131-1.061-.502-3.22-.039-4.034 1.881-3.303 4.77-1.676 5.733 1.187l2.588-2.847c-.848-2.682-5.44-4.843-4.608-8.023 1.089-4.164 10.191-7.423 12.631-2.847 1.642.053 2.13 1.013 3.44 1.787 2.095 1.236 5.785 2.136 6.913 4.424 2.237.298 5.172 2.06 6.47 3.882 2.617-.45 5.068-2.33 7.246-3.728 4.23-2.714 8.975-6.157 13.718-7.918l-4.141-3.882c-1.088.04-1.593-.327-2.07-1.294-1.42.052-2.512-.96-3.624-1.76-2.524-1.82-7.894-3.782-9.317-6.522-3.63-1.05-1.273-6.301 2.329-5.435 1.182-2.603 2.54-2.868 4.917-4.055.695-.348 1.613-1.155 2.44-.941 2.7.7 4.854 3.493 7.395 4.627 2.328 1.038 8.005 3.453 7.506 6.322 2.06-.208 3.192 1.346 4.917 2.186 4.398 2.142 8.29 5.189 13.2 4.8l.698-3.094-3.655-3.816-4.808-6.288c-4.69-1.34-.406-5.7 2.33-6.47 1.204-4.06 5.967 2.57 6.47 4.4 1.277.374 1.881 1.296 2.07 2.588 2.058.586 4.89 3.557 5.176 5.694.85.449 1.072.85 1.035 1.81l2.07.778h.26l1.553-1.812v-.26c-1.87.06-3.139-1.946-4.078-3.36-1.879-2.83-4.552-5.143-6.525-7.893-.626-.873-2.17-1.654-2.406-2.751-.287-1.336 2.083-2.983 2.915-1.523l4.8-.131 6.679 6.605 2.54 2.296 2.545-.747v-.777c-4.356-3.51-7.433-8.29-11.354-12.237-1.422-1.432-2.058-3.515-4.175-4.068.922-2.902 2.224-4.4.777-7.246 3.096-1.198 4.914 2.495 6.799 4.657 3.522 4.04 7.051 8.024 10.686 11.95 2.071 2.238 2.076 4.362 5.549 4.097.601-2.298 3.925-5.308 6.211-5.952 1.456-3.022 4.908-.333 5.176 2.07 2.936 1.49 5.509 5.935 7.507 8.545.839 1.095 1.856 1.91 1.81 3.36 2.175.618 4.449 3.968 5.766 5.738.594.798 1.242 2.827 2.533 2.683 1.142-.128 2.032-1.715 3.09-2.21-1.998-3.84-7.122-6.77-8.283-10.87-1.422-.737-2.235-2.343-3.232-3.55-1.78-2.15-3.592-4.233-5.372-6.394-.767-.93-2.615-2.175-2.963-3.278-.471-1.494 4.18-4.647 5.089-5.874.363-.49.928-.816 1.55-.647 1.415.383 3.225 2.858 4.255 3.906 3.528 3.59 6.452 7.743 10.054 11.29 1.211 1.19 2.41 3.019 4.077 3.513v-1.812c-1.417-.663-2.468-1.77-2.588-3.365-2.817-1.37-4.377-4.803-6.141-7.128-1.064-1.403-2.925-2.218-3.435-4a4.5 4.5 0 0 1-2.33-2.847c-.964-.502-3.868-3.117-4.113-4.155-.373-1.576.22-3.785.234-5.421.009-1.053.705-4.494 2.062-4.494 1.45 0 2.841 4.67 4.244 5.582.849.55 1.858-.477 2.594.303.98 1.04.432 2.77 1.6 4.009 2.65 2.808 5.41 5.554 8.151 8.273 1.266 1.255 3.098 2.58 3.863 4.185l3.882-3.624v-.26l-1.035-1.293c-1.374-.4-2.373-1.708-2.588-3.105l-2.07-2.07c-2.117-.636-2.673-3.941-4.09-5.51-3.547-3.933-7.123-7.848-10.627-11.771-1.645-1.842-3.1-4.535-5.47-5.495l4.658-5.953h.518c1.548 2.64 2.56 1.077 4.658.26.296-1.055 1.694-3.22 3.063-2.792 4.367 1.366 7.13 9.459 11.948 5.638v-.26c-1.966-1.033-4.475-2.573-5.435-4.657-1.438-.342-2.483-1.256-3.106-2.588-1.621-.182-6.174-3.701-6.254-5.435-.123-2.66 1.827-5.123 2.666-7.506 1.129-3.207 1.103-6.283.483-9.576 2.791-.976 4.453-4.773 4.658-7.505-2.668 1.244-3.72 3.903-4.658 6.47h-.26c-2.093-5.511 6.1-9.093 9.836-11.388v-.26c-5.471 1.623-3.882-4.482-3.882-7.763 5.281 0 8.096 5.897 11.397 9.317 1.487 1.54 3.699 2.872 3.872 5.177 1.72.48 3.906 2.398 4.4 4.14l2.33.777v-.26c-1.63-1.381-.33-2.291.258-3.881h-.259c-1.695 1.557-1.765-1.215-1.294-2.33-.79-.68-.86-1.09-.517-2.07-1.482-.81-.713-1.717-.887-3.062-.25-1.923-2.856-5.823-1.443-7.55v-.775c-1.21-1.014-2.178-3.877-1.035-5.177-1.028-1.612-1.98-3.133-1.553-5.176-1.633-1.36-1.188-4.275-1.035-6.211l-1.894-3.363-4.317-.976-3.668-1.532-4.097-.14-10.61-2.073-4.142-.975-4.917-1.035c-.44 1.12-1.483 3.099-2.848 3.215-2.447.209-4.913-2.43-6.987-3.34-3.98-1.748-8.175-2.284-12.423-2.75-1.475-.162-7.18-1.384-7.247-2.82-3.48 1.544-8.138.779-11.905.778-1.117 0-3.356.299-4.321-.276-.754-.45-.791-1.541-.855-2.312-1.57.306-2.878-.384-4.4-.384-2.716 0-6.384 1.344-8.8-.393h-.258c-1.964.942-5.817-1.006-7.764-1.66-.92-.308-1.915-.016-2.847-.232-4.04-.938-7.974-2.15-11.906-3.507-1.991-.688-4.385-1.125-5.693-2.883-1.95.184-3.75-.922-5.48-1.683-2.976-1.312-5.98-1.78-8.473-4.088-1.214-1.125-3.262-4.8-1.317-5.875l.518-2.07c-.355-1.24.175-2.02 1.294-2.59 1.236-4.353 7.568-.496 10.24-2.335 1.338-.92.332-3.29 2.193-4.112 1.022-.45 1.563.45 1.801 1.272h2.33c1.184-.543 5.625 1.634 4.702 3.327-.667 1.223-3.502.79-4.703.814v.259l1.036 1.035c1.673-.193 5.268-.192 6.47 1.035 2.676-.487 5.227.71 7.764 1.223 2.675.539 5.405.415 8.023 1.302 1.668.565 3.413-.142 4.4 1.616 3.617-.74 6.527.768 10.094 1.177 1.687.193 4.475.168 5.693 1.41 1.458-.183 2.609-.463 3.365 1.037h.259c1.43-1.46 5.272-.396 6.47 1.035 2.613-.485 4.498.227 6.988.695 3.782.712 7.236 1.188 10.87 2.582 1.442.553 4.728 1.46 5.176 2.934 3.2-.024 5.995 1.113 9.058 1.74 1.734.356 3.684-.116 4.918 1.366 1.5-.262 4.084-.08 5.176 1.035 1.865-.227 4.776.01 5.953 1.553 4.186-.766 8.783 1.383 12.755 2.447 1.59.426 3.109-.346 4.067 1.435 2.34-.966 4.33.677 6.212-1.553v-.258c-.434-1.024-.156-1.475.517-2.33v-.258c-.734-1.38-.62-2.873 1.036-3.365-.783-1.897-.557-5.817 1.035-7.247l-.116-4.372-1.437-1.84c-1.694.48-3.727.34-4.917-1.034-2.163.422-3.916-.425-5.953-.918-2.912-.703-6.25-.806-9.055-1.826-.68-.247-1.14-.96-1.86-1.088-2.218-.397-5.117.24-7.163-1.278-1.872-1.39 1.36-5.787 2.808-6.537.124-1.645 2.196-4.21 3.886-4.571 1.33-.284 3.327.845 4.655 1.154 3.93.913 8.15 1.855 11.905 3.363 1.214.487 2.397.102 3.365 1.09l2.588.258c.351-1.227-.43-1.95-.297-3.11.354-3.07.883-7.007.032-10.045-.305-1.09-1.272-2.052-1.686-3.15-.567-1.503-.792-2.936-1.87-4.216-3.349-3.98-10.414-6.444-10.414-12.09-2.28-.43-4.42-1.216-6.729-1.462-1.332-.142-2.363.234-3.106-1.125h-3.882c-.04 1.24-.305 1.968-1.553 2.33.656 5.002-5.105 4.102-7.367 1.515-1.051-1.202-.645-2.43-.397-3.845-2.145-.93-4.692-.615-6.725-1.608-1.268-.62-1.208-2.606-2.392-2.968-1.869-.572-4.222.065-6.153-.176-3.28-.41-6.824-.938-10.093-1.528-.9-.162-1.672-.802-2.588-.865-4.007-.274-7.901-.49-11.906-1.06-1.88-.266-3.538.23-4.917-1.371-2.317.512-7.263.773-8.54-1.553-1.692.333-8.686 1.436-8.8-1.035-2.299.165-7.77 1.215-9.059-1.294-2.19.683-7.104 1.004-8.8-.776-1.88.453-7.63.59-8.281-1.553-1.941.416-7.78 1.472-8.54-1.035l-5.953-.245-3.365.073-2.07-.84-3.624 2.047c.325 2.763-2.68 7.396-4.917 9.058l-1.824 4.25-4.591 7.84-1.867 3.18c-.23 3.08-6.17 5.32-6.729 1.812-.733.17-1.809.96-2.55.697-2.175-.773 1.336-6.065 2.809-6.132-.2-1.39-.023-2.43 1.294-3.106.144-1.94 2.692-6.846 4.4-7.764l3.882-8.024-3.365-.517-5.073 9.058-2.95 4.4c-.113 1.513-1.148 2.628-1.934 3.882-1.405 2.24-2.617 5.664-4.594 7.423-1.192 1.06-3.412.316-4.083-.953h-1.035c-.512.899-1.042.899-1.553 0-3.982.312-3.198-2.99-.259-4.4l3.106-5.952-3.106 1.294c-.096 2.95-3.103 4.577-5.105 6.164-.738.585-.995 1.524-1.894 1.95-1.473.696-4.065-.28-3.782-2.161.38-2.532 3.002-5.44 4.322-7.58 2.14-3.47 4.348-6.998 6.382-10.537 1.36-2.365 2.465-5.503 4.66-7.232 2.644-2.08 8.765 2.708 9.652-1.31-2.659-.122-5.32-1.12-8.024-1.28-1.53-.09-2.967.422-4.14-.79-2.369.44-5.093-.066-7.505-.273-.683-.06-1.858-1.047-2.448-.716-1.554.873-2.609 4.875-3.476 6.424-3.176 5.669-6.235 11.563-9.669 17.08-1.196 1.924-1.939 4.902-4.078 5.955-.25 1.565-1.485 1.632-2.836 1.11-2.335-.901-6.556-2.953-8.209-4.818-1.026-1.157-.25-3.141.952-3.798.369-2.445 2.465-4.362 3.485-6.544.706-1.51 1.147-3.257 2.726-4.067.112-2.05 2.552-6.806 4.4-7.764v-1.555l-3.623-1.035c-2.193.497-4.263-.57-6.286-1.127-1.866-.513-3.729-.395-5.62-1.203l-1.552 1.812c-.061.82-.279 1.354-.683 2.07-2.502 4.433-4.184 1.664-7.881.443-1.893-.626-5.442-1.465-6.447-3.29-1.105.186-3.02-.336-3.416-1.567-.335-1.036 1.405-2.086.656-2.903-.728-.794-2.49-.39-3.452-.522-1.04-.142-1.893-1-2.87-1.07-2.151-.16-6.316.794-8-.925-3.093.38-6.603-.176-9.576-1.035l-2.588 3.105c-.093 1.244-.918 3.112-2.332 3.343-.985.16-2.33-.792-3.362-.94-3.344-.483-6.934-2.052-10.093-3.261-1.945-.744-3.412-.46-4.141-2.765-3.342 1-5.518-1.786-7.67-4.152-.668-.735-2.122-1.674-1.92-2.822.311-1.766 3.759-3.45 4.672-5.19H0m456.023 0 .259.259-.26-.26m3.883 0v.26c5.557 2.783 7.863 10.496 12.83 14.078 1.383.997 3.36-.45 5.005.457 1.037.57 3.983 2.913 1.834 3.58v.26l3.106.777c-.61-.89-1.55-3.066.507-1.47.914.71 1.267 1.912 2.166 2.608.458.353 1.66.349 1.829.976.117.434-.353.575-.62.733v.258c4.317.616 5.694-.848 5.694-4.917h-.259c0 1.229.219 2.813-.686 3.8-.41.448-2.043 1.008-2.256.038-.141-.644 1.396-1.038 1.555-1.783.323-1.516-.883-3.04-.268-4.638.5-1.298 2.17-1.537 3.185-2.315 2.013-1.543 3.854-3.653 5.607-5.488 1.542-1.614 3.228-4.625 5.545-4.884l-.259-2.33h-44.515m46.068.777.259.777 1.553-1.553-1.812.776m9.576-.776 1.294.776-1.294-.776m3.882 0-.517 1.553.517-1.553m74.279 0 .258.259-.258-.26m5.435 0v.26c3.394.268 6.38 1.696 9.576 2.7 4.423 1.389 9.123 2.457 13.716 3.644 1.874.484 3.754 1.462 5.694 1.652 1.5.146 4.845.565 6.152-.24 1.021-.627.463-1.657.756-2.575.471-1.474 2.729-1.597 3.957-1.107 1.196.476 1.29 1.72 2.025 2.616.714.87 2.058.66 2.632 1.63 1.043 1.763-.06 4.713.524 6.69h.26c.095-1.215-.148-3.043.304-4.14.448-1.085 1.486-1.794 1.95-2.87.854-1.978.992-3.618 2.965-4.97.703-.48 5.44-2.087 3.839-.183v.258l2.329-.258c.097-2.1 3.072-.894 4.4-.584 3.377.788 6.369 2.856 9.834 3.376 1.441.217 4.568.112 5.611 1.172.898.913.255 2.456.038 3.54-.637 3.198-2.02 6.263-1.978 9.577.019 1.452 1.937 7.247 3.375 7.682 1.486.45 3.571.082 5.118.082h10.612c1.827 0 4.404.466 6.137-.145 2.149-.757 6.462-5.722 8.356-3.478 1.79-.405 5.486-1.532 6.806-2.78.895-.845.868-2.097 1.995-2.846 5.392-3.585 11.132-6.58 16.562-10.068 2.704-1.736 6.137-5.59 9.576-5.27 1.364-1.725 4.424-2.45 6.47-3.105-3.334-1.4-9.307-.26-12.94-.26H599.145m181.166 0c-1.11 2.143-4.321 3.105-6.211 4.498-1.009.745-1.809 1.506-3.106 1.456-.57 1.037-1.134 1.445-2.33 1.294-.474 1.57-2.956 2.706-4.14 3.882-3.512 3.489-8.065 5.9-12.09 8.74-1.594 1.126-2.914 2.75-4.991 2.906l.582 1.962-3.433 1.876-7.502 3.898-4.14 1.84c-.98 1.746-6.325 4.84-8.283 4.918-1.567 1.782-4.33 2.513-6.36 3.624-4.427 2.423-9.174 6.73-14.086 8.022-.354 3.24.244 6.326.26 9.576.005 1.137.46 2.618-.409 3.54-1.14 1.21-5.944.6-7.615.6-2.565 0-7.298.903-9.532-.5-1.45-.912-2.271-2.75-3.323-4.051-.674-.835-1.878-1.708-2.26-2.71-.688-1.806-.046-4.477-.414-6.455-2.877.002-5.655-.344-8.54-.36-.817-.004-1.986-.606-2.724-.146-1.222.762-.7 2.474-.651 3.612.102 2.347-.61 5.282-3.354 5.865-.717.153-1.388-.155-2.07-.314-.882-.204-1.426-.233-2.071-.893l-2.843.077-4.448 2.463-3.58-1.543-6.21-1.916-11.906-.238-11.646-1.428.776-9.836c-.89-.45-1.313-1.02-1.274-2.07.055-1.461.873-2.558.741-4.13-.183-2.194-1.49-3.76-2.055-5.705-4.02 0-8.337-1.088-12.164-2.408-2.15-.74-4.459-1.984-6.73-1.992-.432 1.02-1.821 2.019-1.853 3.116-.042 1.416 1.367 2.399 1.13 3.872-.197 1.216-.886 3.754-1.902 4.503-2.393 1.764-8.628.423-10.41-1.692-.982-1.164-1.739-2.408-2.217-3.846-.23-.69-.36-2.12-.95-2.58-.809-.636-2.746-.267-3.726-.267-.143 3.08-1.67 6.15-4.917 6.285-1.02.042-2.168.68-2.69-.607-.6-1.47-.157-3.846-.157-5.42V19.593h-.776c0 5.08.259 10.172.259 15.27 0 1.505.55 4.492-.849 5.527-1.07.793-4.498-.092-5.88-.092h-15.27c-1.837 0-5.116.19-6.411 1.677-1.993 2.289.413 6.774-.733 9.413-.853 1.963-2.625.243-2.95-.997h-.259c-.474 3.07-2.872 1.842-4.917 1.294 0 1.44.356 3.123-1.294 3.624.023 2.575 1.433 6.142-1.035 8.023.316 1.924-1.569 1.54-2.118 3.11-.678 1.942-1.869 3.689-2.414 5.69-.292 1.07-.222 2.16-1.432 2.654-1.246.508-3.065.192-4.389.192-2.566 0-5.212.474-7.764.185-1.322-.15-4.438-.793-5.389.479-.716.957-.357 2.643-.315 3.736.11 2.838.01 5.7.01 8.54 0 1.5.167 2.822-1.035 3.883 1.659 2.46 2.644 2.608.776 5.435 3.317.443 4.285 4.07 3.106 6.729 2.68.424 1.812 7.075 1.812 9.317 4.42 0 3.623 2.848 3.623 6.47 0 1.038.409 3.202-.6 3.875-1.48.988-5.69.405-7.423.29-2.34-.157-5.164-.343-7.482.013-.9.139-1.496.87-2.354 1.124-1.258.374-2.837.133-4.14.133v.259c4.68 1.383 10.269-.26 15.011-.26 1.707 0 3.639-.302 5.176.519h.26c2.142-.56 2.13 5.18 1.137 6.347-1.023 1.202-2.215.343-3.467.463-3.129.3-6.101-.347-9.317-.34-1.468.003-3.023 1.124-4.141 0h-.259l-.518 15.529c2.443 1.82 7.487-.79 9.42 1.386.743.836.293 2.246.453 3.25.126.785.734 1.33.916 2.096.53 2.227 1.048 9.247-2.507 7.502-.67 1.124-1.946.525-3.105.518-3.087-.02-6.564.458-9.576-.26l-.26 1.554c1.998.59 4.396.259 6.471.259h12.164c1.536 0 5.54-.708 6.61.6 1.038 1.27-.721 5.309-.08 7.12.525 1.486 2.073 1.179 2.93 2.196.936 1.11.011 4.235-.92 5.095.281 1.304.217 3.177-1.034 3.882.455 1.024.764 3.104-.792 3.475-.942.225-2.716-.52-3.608-.843-2.279-.827-5.567-1.008-7.247-2.891l-2.33.776c2.165-.07.882 1.844.519 3.106l3.623 2.07c3.77-.611 4.642 3.49 1.553 5.177.23 2.306-.849 3.31.417 5.689 1.171 2.2 4.163 2.382 5.332 4.183.817 1.26-.895 2.638-.335 4.103.8 2.097 2.004 4.015 3.223 5.886.355.545 1.122.952 1.222 1.634.214 1.468-2.678 4.816-3.907 5.42.044 1.2-.646 1.646-1.24 2.612-.629 1.024-1.151 2.75-2.416 3.184-.901.31-1.82-.365-2.578-.773-1.974-1.06-5.902-2.797-6.965-4.763-1.472-.11-3.694-1.111-4.14-2.588h-2.071l2.07 1.545 5.457 3.624 2.307 1.56c1.153.324 4.598 1.955 4.608 3.378.012 1.749-2.817 4.838-3.852 6.2-2.149 2.833-4.542 5.096-6.922 7.762-.703.788-1.58 2.68-2.655 2.957-1.669.432-5.53-2.9-6.19-4.251l-4.4-1.26-3.878 1.1-10.097-6.31-1.035 2.329c3.03.335 5.602 3.122 8.282 4.444 1.337.66 3.374 1.375 4.094 2.808.609 1.21-2.501 5.956-3.85 6.273-.932.218-2.14-.693-3.091-.843v.258c.976.389 1.505.725 1.553 1.812 2.462-.428 7.537 3.036 4.811 5.784-2.29 2.31-8.343-.04-10.764-.867l-1.294 2.847c2.598.814 3.793 4.869.249 5.42-2.473.385-4.921-2.657-7.276-2.998-.97-.14-1.66.938-2.55 1.202v.259c1.604 0 2.819-.05 3.883 1.294 2.956-.17 4.736 1.995 4.4 4.658 1.46.743 5.04 3.367 2.588 4.659-.042 1.723-1.019 3.79-2.33 4.917v.777c1.187.347 2.023.665 2.589 1.81h.259c1.986-4.018 4.731-2.41 7.655-.632.796.484 1.843.536 2.305 1.444 1.59 3.125-1.038 6.84-3.49 8.765.087 2.325-3.189 5.984-4.4 8.023 2.977-.227 3.97-4.935 6.988-4.712 1.083.08 1.856.71 2.847 1.053 2.94 1.015 8.32 3.072 9.822 6.032.656 1.293-.924 1.903-1.424 2.85-1.156 2.19-1.5 5.438-3.998 6.683l-1.294 3.623h.517c.44-1.582 3.573-6.446 5.18-7.002 1.183-.408 4.702.726 4.944 2.1.177 1-1.069 2.079-1.583 2.83l2.07 1.037c1.414-.508 3.86-3.666 4.659-1.036 5.09-.822 1.943 6.018-.518 7.247-.078 3.272-2.934 5.898-4.142 8.843-.559 1.36-1.348 3.128-2.846 3.58.3 1.854-1.65 5.84-3.364 6.729l4.658 8.023h.26c.513-2.153 2.675-3.15 3.998-4.77 1.885-2.303 3.031-5.511 5.203-7.574.858-.816 1.684-.471 2.186.439 1.091.168 3.962 1.827 3.977 3.11.019 1.52-3.408 6.279-4.754 6.983-.25 1.645-1.712 3.254-2.595 4.659-.326.52-1.165 1.309-.939 1.99.228.686 1.654.969 2.24 1.236 2.3 1.048 6.741 1.94 5.953 5.056.79-.444 1.428-1.205 2.33-1.44 2.813-.732 5.193 2.492 7.515 3.387 1.218.469 4.68 1.673 4.683 3.23.003 1.662-2.378 4.482-3.288 5.842-2.858 4.273-5.613 8.619-8.473 12.9-1.114 1.67-2.182 4.989-4.32 5.326v.26c3.489 1.183 7.2 4.086 10.341 6.043 1.656 1.03 3.116 2.383 5.188 2.497l1.035-1.035c.468-3.09 4.095-7.634 5.983-10.09.73-.95 1.252-2.28 2.299-2.85 1.003-3.618 4.969-10.097 9.317-9.774 1.51.112 3.311 1.519 4.659 2.194 1.153.578 3.751 1.4 4.238 2.696.425 1.13-.894 3.036-1.478 3.958-1.998 3.154-3.523 8.41-6.384 10.76l.951 1.812-2.48 3.482-4.682 5.835-.518 2.588 9.317 4.4 1.553-1.812c.178-1.606 1.24-2.194 1.993-3.483.898-1.535.924-3.681 2.925-4.281-.236-1.428.957-2.582 1.514-3.882 1.632-3.818 3.89-8.087 6.922-11.068.859-.844 2.289-.808 3.054-1.723.97-1.16-1.3-6.183 2.227-5.37 2.876.663 6.28 3.387 8.8 4.925.816.5 2.35 1.046 2.839 1.886.948 1.63-2.082 6.753-3.616 7.209.778 3.638-4.663 7.8-5.695 11.172-.418 1.366 1.343 2.132.654 3.506-.753 1.503-1.424 3.407-2.982 4.215l-.26 2.588 3.883-1.812c-.64-3.813 4.449-9.225 6.088-12.497.662-1.322 1.374-3.08 2.711-3.808.03-1.2.184-2.005 1.294-2.588.684-3.531 2.85-2.935 5.435-2.202 1.637.463 3.058.23 3.624 2.202 2.117-.717 4.282-2.777 5.694 0 2.585.173 3.236 2.044 4.14 4.14 2.986-.093 2.413 4.595.777 5.954l.259 1.035h.259c.641-.663.92-.768 1.811-.518-1.185-2.19.595-3.236.777-5.435-2.065-1.042-.684-2.882 1.035-3.364l1.035-1.812h.259c1.118 1.13 3.604 1.367 4.382 2.69.577.98.005 3.4.019 4.557.089 7.482-6.53 12.763-9.06 19.67l2.33-1.812c-.166-1.942 2.971-7.448 4.917-8.024.057-1.752 1.35-4.728 2.901-5.696 1.564-.977 4.35.21 5.03 1.847.426 1.025-.58 1.4-.707 2.297-.117.817.082 2.176.048 3.115-.16 4.434.288 9.01-.025 13.448 2.994-1.836-.812-7.563 1.45-9.668 1.016-.945 5.208-.413 5.279 1.128 3.881-.504 5.694-1.437 5.694 3.364l3.882.259c.243-1.02-.113-2.687.459-3.534.74-1.097 3.907-1.386 4.72-.266.798 1.1.515 3.04.515 4.318h.258c0-1.71-.406-5.307.777-6.47-.583-1.377-1.145-4.783-.252-6.13.508-.766 1.637-.445 1.951-1.414.46-1.423-.04-3.147.161-4.62.264-1.936.987-3.383.987-5.436l3.364-.517c-1.634 3.857.148 8.652-.517 12.68 1.094.668 1.404 1.956 2.417 2.582 1.054.652 6.535.78 7.52 0 1.072-.85.199-3.692.496-4.906.47-1.916 2.39-1.467 3.276-2.74.666-.956-.192-2.186.174-3.2.597-1.657 3.902-1.032 4.751-.017 5.08-.94 2.883 5.69 3.623 8.8h.777l2.329-1.553c-.264-3.684 5.14-6.784 7.764-3.623 1.265-.498 3.261-.465 4.303-1.053 2.142-1.21 2.916-5.396 3.72-7.488-5.105-1.732-2.783-4.787-1.024-8.133.743-1.412 1.073-3.213 2.577-4.031.095-1.72 1.264-2.677 2.015-4.145.871-1.702 1.919-5.03 3.69-5.982 2.128-1.144 4.857 1.773 6.57 2.673.76.4 1.732.499 2.365 1.116.797.777.665 1.85 1.68 2.517 2.38 1.564 8.055 4.162 8.526 7.186 1.458.803 1.961 3.607 1.963 5.176 0 1.554.47 3.083.4 4.658-.082 1.843-.657 3.548-.528 5.435.474 6.932 1.115 14.226-.056 21.223-.79 4.729-3 9.08-3.962 13.717-.839 4.034-2.163 7.935-3.62 11.72-.467 1.215-.176 2.314-1.185 3.29.198 2.549-1.36 6.47-2.337 8.8-.302.72-.206 1.63-.85 2.173-1.12.942-2.818-.202-3.904.896-1.088 1.1-.37 2.76-1.708 3.919l.258 2.33c2.632-1.034 2.723 2.677.26 1.81l.5 3.036-1.151 1.423.138 3.044-2.49 7.472-1.16 1.408-.115 2.5-1.678 4.376-1.76 2.619 2.021 2.592c2.92.555 5.03 3.53 7.765 3.986 3.096.515 6.923-.104 10.093-.104 1.168 0 3.152-.351 3.875.836.807 1.324-.418 3.14-.154 4.6.347 1.916.496 3.09-.356 4.917 1.909-.312 4.967 2.028 5.952 3.623 2.115-.072 5.178 2.8 6.84 4.087 3.985 3.088 8.577 5.7 12.829 8.468 1.608 1.046 4.249 2.032 5.177 3.75l4.733 3.027 2.773 1.89c.909.18 6.004 2.957 4.346 3.862-.628.343-1.431-.052-2.012-.32-1.529-.702-4.962-2.622-5.699-4.06-.927-.146-1.28-.39-1.553-1.293l-6.026-3.22-9.761-.145v.259c4.262 1.065 8.514 3.875 12.238 6.178 1.384.855 3.07 1.312 4.067 2.62 1.952-.155 3.176 1.48 4.768 2.359 3.428 1.893 7.183 3.45 10.502 5.487 1.347.826 3.66 1.436 4.14 3.025 2.08-.096 7.536 2.57 8.541 4.4l6.47 2.588v-.517l-5.737-3.528-3.58-2.684-3.105-2.07c-1.337-.15-3.497-1.408-4.141-2.588-2.478-.39-5.385-3.157-7.492-4.533-.667-.436-1.467-1.674-.238-2.07.891-.285 3.034 1.639 3.843 2.107 2.477 1.433 4.753 3.334 7.251 4.78 1.712.99 4.234 2.04 5.176 3.857l1.553 1.035c3.087.23 6.115 3.56 8.574 5.215 1.158.779 2.663 1.016 3.332 2.29 2.126.584 7.913 3.84 8.54 5.953 3.682.275 7.954 4.534 10.944 6.532 7.508 5.017 15.343 9.75 23.145 14.266 2.86 1.655 5.815 4.675 9.132 5.342V197.393c0-1.601.717-4.99-1.035-5.694v-.26l1.035.26c0-1.622.446-4.006-.755-5.303-1.554-1.678-3.814-1.345-4.938-3.755-2.753-.008-5.101-1.378-7.506-2.588-6.2-3.12-12.133-8.054-16.792-13.162-1.822-1.998-5.242-2.614-5.724-5.731-1.838-.962-1.009-2.465-1.189-4.141-.206-1.922-.732-5.34.752-6.89.786-.82 1.978-.99 2.8-1.748 1.016-.934 1.611-2.368 2.813-3.01-.056-3.27 3.921-9.407 7.247-10.351-.125-1.684 1-2.92 2.588-3.365.376-1.386 1.564-2.74 2.847-3.364l3.882-4.4c.474-1.758 1.823-2.845 2.878-4.25 1.964-2.62 3.578-5.533 5.965-7.807 1.535-1.463 4.517-3.413 5.05-5.542.792-3.16.082-7.352.082-10.611V.44h-27.951l-13.717.054-16.564 3.17-6.47 2.729v-.26l5.694-3.63 8.54-1.804c-3.09-1.297-8.539-.26-11.905-.26m-323.77.26v.259l1.552.258V.958l-1.553-.26m294.267.26v.258l1.812-.258h-1.812m-241.987 0 .259.258-.259-.258m86.442 0v.258l2.589.518-2.589-.776m-136.91.258.259.26-.259-.26m58.75 0 .518.518-.518-.518m233.187 0-.258.518.258-.518m26.399 0 .259.26-.259-.26m-632.013.26-.259.776.259-.777m604.58.518.258.259-.259-.26m-289.349.26 1.035 1.035-1.035-1.035m139.757 0v.258l2.07.26-2.07-.518m148.04 0v.258h.776l-.777-.258m-145.71.517.777.518-.777-.518m1.726.604.172.086-.172-.086m1.812.259.172.086-.172-.086m139.584-.086.259.258-.259-.258m-88.254.258.518.518-.518-.518m-150.886.26c-1.582.473-2.384.605-3.364 2.07l3.623-1.812-.259-.26m236.293 0-1.553 1.554v.259l3.624-1.294-2.07-.518m-135.1.26v.258l2.33.259-2.33-.518m43.48.259v.259l1.812-.26h-1.811m6.988-.258v.259l5.952 1.294c-1.897-1.487-3.635-1.553-5.952-1.553m-195.66.259 1.035 1.812h.258l-1.294-1.812m148.04.259 1.811 1.035v-.26l-1.811-.775m39.856.517-.259.518.26-.518m-37.01.518v.259h1.294l-1.295-.26m23.811.777c1.08-.113 1.639.213 2.33 1.036.724-1.48-1.978-2.678-2.33-1.036m27.865-.69.173.086-.173-.086m74.624-.086-1.812 2.33c.885-.568 1.81-1.202 1.812-2.33m-73.761.518.517.517-.517-.517m112.582 0-.259.258.26-.258m-314.196.517v.259l.777.259-.777-.518m37.786 0-.258.518.258-.518m114.394 0v.259l1.812.259-1.812-.518m32.696.173.087.172-.087-.172m17.513-.173v.259l2.07.259-2.07-.518M500.538 7.945l-.259.518.26-.518m119.052 0v.26l1.811.258v-.26l-1.811-.258m50.985 0v.26c1.326.167 2.474.223 3.365 1.293l1.035-1.294-4.4-.26m-205.495.26 1.553 1.81-1.553-1.81m183.496 0-.259 1.035h.26V8.204m-8.541.518 1.035.776v-.26l-1.035-.516m-17.34.259.258.258-.259-.258m113.1 0-.518.258v.26l.518-.518m-236.38.345.173.086-.172-.086m125.09-.087.26.26-.26-.26m11.906 0-1.294 1.295c.756-.218 1.314-.456 1.294-1.295m-11.129.26v.258l1.036.259v-.26l-1.036-.258m16.305 0 .777 1.294h.259V9.498h-1.036m91.878 1.036 1.294-.777-1.294.777m30.367-.863.086.172-.086-.172m-297.2.604.259.259-.259-.26m180.908 0-1.294 2.589h.259l1.035-2.588m-149.592.258.259.258-.259-.258m234.482.517.776-.517-.776.517m-58.75 0v1.553h.259l-.26-1.553m-177.025.777.259.258-.26-.258m145.71.517c0 1.792-.588 4.765 1.554 5.435v-.26c-1.867-1.48-.762-3.29-1.553-5.175m-146.486.259-.26.518.26-.518m233.705 0-.518.259v.259l.518-.518m-260.622.259.26.259-.26-.26m204.46.26-.259 1.294h.259V13.12m54.091 1.035 1.294-.777-1.294.777m-257.515 0 .517.517-.517-.517m23.81.259v.258l1.035-.258h-1.035m231.894.776 1.552-.776-1.552.776m-254.67 0 2.071 1.553v-.26l-2.07-1.293m20.705.518v.259l1.552-.518-1.552.259m233.446-.518.259.259-.26-.26m-250.01 1.036-.517.26v.258l.518-.518m248.457 0-.518.26v.258l.518-.518m-246.473.345.172.087-.172-.087m195.229-.086v2.33h.259l-.26-2.33m49.951.259-2.07 1.294v.259l2.07-1.553m-76.608.518-1.553.517v.259c.617-.01 1.854.033 1.553-.776m-167.19.517.258.259-.259-.26m240.434 1.036.26.26-.26-.26m-150.627.26.518.776-.518-.777m103.783.518c-.353.9-.422 1.36.259 2.07l-.26-2.07m45.034.776.776-.517-.776.517m-.518 0-1.294 2.588 1.294-2.588m-233.187 1.036c.212 1.372 1.315 2.793 2.588 1.552-1.35-.044-1.827-.492-2.588-1.552m-216.883.517.259.259-.259-.26m-24.587.26-.259.518.26-.518m430.4 0v.776h.259l-.26-.776m42.187 1.294-1.036.259v.259l1.294-.26-.258-.258m-2.847 1.035-.259.518.259-.518m-38.304.259 1.294 2.847-1.294-2.847m37.01.259.259.259-.26-.26m-4.399.26-3.365 2.07v.259l6.212-1.294v-.26l-2.847-.775m3.106.776.776-.518-.776.518m-174.438 1.812V41.33l.259 8.023c1.61-1.577.27-4.01.259-5.953-.01-1.688.514-3.235.517-4.917.007-3.592-.517-7.023-.517-10.611h-.518m140.016 0v.776h.259l-.259-.776m25.363 1.81 1.812-1.034-1.812 1.035m-24.845-.258.258.258-.258-.258m.776.258v.26h23.81l-7.246-.26h-16.564m25.622.26.259.258-.259-.26m32.351.26.26.259-.26-.26m-55.126.777.259.26-.259-.26m17.772.604.172.087-.172-.087m-441.185.432.26.259-.26-.26m331.277 1.036.259.259-.26-.26m-10.265 1.726.086.173-.086-.173m-309.105 3.45.258.26-.258-.26m444.635 4.142.258.259-.258-.26m-481.731.864.172.086-.172-.086m41.84 2.157.087.172-.087-.172m-21.826 1.38v.517h.518v-.517h-.518m25.622.517.26.26-.26-.26m397.014.518.26.259-.26-.26m-417.2.26.517.776-.518-.776m15.788 5.953.258.258-.258-.258m431.435 0 .26.258-.26-.258m-41.15 2.07.258.259-.258-.26m-.26.519.26.258-.26-.258m-133.718 9.49.087.172-.087-.173M415.562 76.616l.173.087-.173-.087m10.698 11.302.259.258-.26-.258m80.75 3.623.258.259-.259-.26m-6.039 12.25.173.088-.173-.087m1.122-.086.259.259-.26-.26m7.248 0 .258.26-.258-.26m-9.404.346.173.086-.173-.086m8.886-.086.259.259-.259-.26m-10.87 2.589.259.259-.259-.26m11.301 6.816.173.087-.173-.087m1.64-.086v.259h.776l-.777-.26m-10.87 1.554.777-.26-.777.26m-4.658-.26v.26h1.294l-1.294-.26m7.505 0v.26h1.553l-1.553-.26m332.916 2.76.086.174-.086-.172M432.73 139.68l.259.258-.26-.258m-12.422 11.387-.259.777.26-.777m387.696.777.776-.518-.776.518m-384.591 9.058.259.259-.26-.26m14.494.777.259.26-.259-.26m-13.2.777.26.259-.26-.26m2.33 2.589.777 1.035-.777-1.035m2.588 2.588v1.035h.259l-.259-1.035m71.69 12.682.26.258-.26-.258m3.365 1.294.259.258-.259-.258m331.018 6.21 1.294.778v.258l-1.294-1.035m1.811 1.035-.259.26.26-.26m1.035.777-.777-.26.777.26m3.105 1.553-.259.258.26-.258m-326.619 13.975.777-.517-.777.517m-20.963 9.835.259.259-.26-.26m-125.522.778v.258c-3.802 1.318-6.69 3.365-10.87 3.365 2.365-2.724 7.44-2.83 10.87-3.623m126.558.517v.259l1.294.259-1.294-.518m-95.76.518.26.259-.26-.26m97.572.26v1.035h1.553l-1.553-1.035m-98.866 3.105.777-.517-.777.517m-41.668 0-.259.26.26-.26m48.397 7.765v.517l.517-.517h-.517m69.188 4.572.086.172-.086-.172m2.502.345.259.259-.26-.26m-67.807.26.258.259-.258-.26m79.454 4.142v.259h1.035l-1.035-.26m-120.864 3.883.259.259-.259-.26m131.734 0-.259.26v.517l.777-.776h-.518m-118.276.259.259.259-.259-.26m20.101.087.173.086-.173-.086m-22.603 1.122.087.172-.087-.172m38.736-.173.517 1.035-.517-1.035m-47.621.776.258.26-.258-.26m10.093.518 1.294 1.812-1.294-1.812m-36.837 1.64.172.085-.172-.086m38.649.69c.803 3.187 5.384 5.49 4.917 9.059 1.777.28 4.727 3.625 4.659 5.435 2.93 1.393 3.578 5.39 7.246 5.435v-1.553c-1.86-.728-2.734-2.386-4.002-3.807-2.482-2.783-4.813-5.683-7.244-8.505-1.3-1.51-3.351-2.727-3.765-4.77l-1.811-1.294m91.273.345.173.087-.173-.087m2.416.95v.517l.518-.518h-.518m-79.196 2.33v.517l.518-.517h-.518m71.95 2.07.776.777-.26-.777h-.517m-70.655.259v.259l2.588 2.588h.26v-1.553l-1.295-1.294h-1.553m-41.582.43.086.174-.086-.173m7.678.345.259.26-.259-.26m28.728 1.294.259.26-.259-.26m79.455.518 1.035.518v-.26l-1.035-.258m-138.981.259.259.259-.26-.26m-44.514.605c.2 0 .041.129-.087.086l.087-.086m112.84-.087.518.777-.517-.777m-113.877.26v.258l-3.105.518 3.105-.777m186.86 0 .26.777h.258v-.777h-.517m-148.298 5.953.259.259-.26-.26m144.676 6.73.258.259-.258-.26m.258 2.33.26.259-.26-.26m-85.666 28.988-.258.776.258-.776m-188.93 4.4c.756.866 2.352.557 3.364.258v-.258h-3.365m10.353 0 1.035.776-1.035-.776m186.343 3.105.258.26-.258-.26m-12.682.518.259.776-.259-.776m110.857 1.725.086.173-.086-.173m-86.011.863.258.259-.258-.26m-14.752 1.554v.518l.517-.518h-.517m105.853.259.259.259-.26-.26m3.365 1.036-.259.776.26-.776m-412.285.259.26.259-.26-.26m300.22 4.142.258.259-.258-.26m13.975 2.848-.258.517.258-.517m93.43.258.26.26-.26-.26m-397.531.26.259.258-.259-.26m-.518 3.107.26.259-.26-.26m.518.26 1.553 1.035-1.553-1.035m4.917.517.518.518-.518-.518m55.558.604.173.087-.173-.087m-55.558 2.243.26.26-.26-.26m81.525.777.26.259-.26-.26m92.654 4.142-.517 1.035.517-1.035m124.229 0-.259.517.259-.517m-4.659 4.14.26.26-.26-.26m98.607.518v.518l.517-.518h-.517m17.34.518.259.518h.259l.259-.518h-.777m-94.465 2.847.258.259-.258-.26m94.206.518-.259.518.26-.518m-417.202.518.259.259-.259-.26m-16.219 24.5.087.174-.087-.172m470.948 8.627.258.258-.258-.258m-478.54 2.07.26.259-.26-.26m68.671.174.087.172-.087-.172m548.073 1.12c-.076 3.57-2.78 11.237-6.211 12.83-3.19 1.48-6.584.783-9.835.112v-.26c2.908-.981 7.427.138 9.79-1.936 3.276-2.875 2.357-8.484 6.256-10.745M65.048 383.91l.086.172-.086-.172m498.812 9.748.173.086-.173-.086m-1.466 2.243.258.259-.258-.26m-457.058.26v.517h.517v-.517h-.517m456.109 1.725.086.173-.086-.173m47.707.173.172.086-.172-.086m-25.018 1.208v.517h.517l-.517-.517m-531.595.517.258.259-.258-.26m551.868.174.086.172-.086-.172m-21.826.862.259.26-.26-.26m107.924 1.036.26.258-.26-.258m-132.683 1.466.087.173-.087-.173m46.5 2.157-.259 1.294 1.035-.518-.776-.776m-1.035 2.07-.26 1.036.26-1.036m58.318 1.467.086.173-.086-.173m-14.838.863.258.259-.258-.26m-46.069 1.554v.776h.26l-.26-.776m-1.035 2.329v1.294h.259l-.259-1.294m11.905 2.33.518-.777-.518.776m39.08 0c.002 1.05-.13 1.934.777 2.588v-2.588h-.776m-53.574 1.294.259.26-.259-.26m-590 4.314.087.172-.087-.172m599.317.345.26.259-.26-.26m30.281 2.33v1.553h.259l-.259-1.553M0 424.888v28.21c5.21-2.01 10.312-4.284 15.455-6.366.873-.354 1.436-1.067 2.403-1.273 3.907-.834 8.212-.4 12.164.134-.13-1.152-.736-2.541.105-3.557 1.204-1.455 2.879-.977 4.153-1.886.924-.66 1.203-2.328 1.354-3.357.122-.838.3-1.583-.475-2.173-1.049-.798-2.457.005-3.569-.662-1.057-.634-.994-1.535-.015-2.082-.406-1.207.103-2.986-.921-3.91-1.048-.945-2.977-.335-4.255-.608-4.06-.865-8.291-.154-12.423-.411-1.22-.076-2.151-.976-3.365-.965-2.395.02-7.956.476-9.576-1.353L0 424.888m636.672 3.105.259.26-.259-.26m-16.823 2.589v1.552h.26l-.26-1.552m16.91.43.086.173-.087-.172m-603.63.604.259.259-.26-.26m566.449.087.172.086-.172-.086m36.06.69v.777h.26l-.26-.777m-37.527.518v1.553h.26l.258-1.553h-.518m2.847.259.518.776-.518-.776m18.893 1.553v3.623h.26l-.26-3.623m-22.516.258-2.588 4.14c1.2-.852 2.826-2.544 2.588-4.14m38.045 0 .259.259-.26-.26m.346 1.468.086.172-.086-.172m-223.698.345.259.259-.259-.26m224.82 1.122.172.087-.172-.087m-16.996 1.726v1.294h.26l-.26-1.294m0 2.847c0 1.583.387 3.65.03 5.176-.659 2.822-1.996 4.39-1.065 7.505h.777c1.11-2.618.73-6.276.54-9.058-.082-1.195.187-2.506-.282-3.623M4.141 453.616l.259.258-.259-.258m413.492 3.192.172.086-.172-.086M93.948 469.143l.777-.517-.777.517m-11.905 14.235-1.035 4.917c4.337-.003 4.765-6.346 7.764-8.8-.339-2.08 2.779-7.107 4.658-8.023v-1.811c-1.5-.08-2.3.926-3.32 1.922-2.29 2.23-4.212 5.694-5.873 8.43-.736 1.213-.732 2.92-2.194 3.365m7.937-3.796.172.086-.172-.086m-3.796 7.16-.259.777h.259v-.777m337.746 0v.26l1.036.258-1.036-.518m-342.664 3.882.26.26-.26-.26m-.776 1.036c-2.812 5.135-2.07 11.852-2.07 17.599 0 1.823.839 3.73.258 5.435.988-.042 2.16.336 2.655-.805.77-1.777-.131-3.898-.272-5.666-.311-3.89.463-7.764.464-11.646 0-1.836.494-3.582-1.035-4.917m21.481 1.294.259.258-.259-.258m-26.14 20.704.26.26-.26-.26m.26.777.258.259-.259-.26m-11.387 15.27c-1.081 1.933-3.348 1.723-5.103 2.582-3.402 1.665-7.006 3.684-10.685 4.75-3.364.974-6.92 1.06-10.093 2.575-3.201 1.528-5.843 4.858-9.835 4.587-1.178 1.37-3.488 1.814-5.176 2.373-3.646 1.207-7.527 3.577-11.388 3.58-.556 1.007-1.331.935-2.33 1.348-2.258.934-5.058 2.597-7.505 2.016l-2.432 2.179L0 558.95v7.506l3.882-3.624c-.405-2.294 1.05-3.807 3.365-3.882.665-1.207 2.884-1.503 4.14-2.115 2.49-1.212 5.195-1.705 7.765-2.728 2.353-.937 4.65-2.42 7.247-2.145 2.232-2.48 7.034-3.11 10.093-3.527.881-.12 1.673-.75 2.588-.597 1.932.322 2.78 1.793 4.918 1.795 1.229-2.305 4.093-1.88 6.101-2.84 3.977-1.9 8.18-3.252 12.274-4.722 2.48-.89 4.233-2.216 6.988-2.273.644-1.25 1.982-2.307 3.365-2.588.622-1.592 2.376-2.65 3.882-3.364l2.588-4.918c-1.57-.824-1.59-2.562 0-3.364.003-4.493 4.76-4.136 6.988-7.506l-.777-1.035c-1.937.035-4.333-.386-6.211.082-1.988.495-4.865 3.01-6.287 4.472-2.016 2.072-5.06 7.995-8.206 8.128m670.144-1.898.086.172-.086-.172m-321.01 3.192.259.259-.26-.26m-5.175 16.565v1.552h.258l-.258-1.552m355.345 5.435v.517h.518v-.517h-.518m-275.89 3.105.258.26-.259-.26m-59.785 11.905.518.777-.518-.777m59.009 2.33.259.259-.26-.26m-67.549 9.577.26.259-.26-.26m402.622 5.522.173.086-.173-.086m-285.64.173.26.258-.26-.258m298.926 7.764v.259l1.294-.26h-1.294m-303.498 1.726.086.173-.086-.173m-124.487 7.247.086.172-.086-.172m120.001 1.12.259.26-.259-.26m37.269 2.33.259.259-.26-.258m-41.409 4.4-.259.517h.518l-.259-.518m-120.778.432.087.172-.087-.172m143.036 4.227.259.259-.26-.26m74.28 9.318.258 1.294h.259l-.518-1.294m-48.138.518v.776h.258l-.258-.776m-67.032 1.81.259.26-.26-.26m114.395.519-.26.777.26-.777m-228.27 5.694.258.259-.258-.26m215.33 1.036.258.259-.259-.26m36.234 1.036.258.26-.258-.26m-2.588.518v.518l.517-.518h-.517m-.777 2.847.259.259-.259-.26m-251.735.95.086.172-.086-.172m176.249 1.035.086.173-.086-.173m-19.497 1.898.259.259-.26-.26m57.974 1.036.26.26-.26-.26m-42.186 3.365.26.259-.26-.26m104.3.518v.26l1.295.258-1.294-.518m-66.256 1.294v1.036h.26l-.26-1.036m-215.588 3.106v.777h.259l.258-.777h-.517m290.384.259.26.259-.26-.26m45.292 24.329.259.259-.259-.26m14.062 4.573.086.173-.086-.173m24.242 12.25.259.26-.26-.26M346.288 713.46l-.26.517.26-.517m-53.833 17.08-.259.519.26-.518m432.729 3.623v.26h1.035l-1.035-.26m-452.14.777.258.259-.259-.26m11.13 3.365-.26.518.26-.518m-16.047 9.835v.518h.518l-.518-.518m289.608 8.023v.518h.518v-.518h-.518m-285.726 10.87.259.259-.259-.26m-1.812.778.26.258-.26-.258m463.787 17.08.26.26-.26-.26m-135.875 4.14.777-.257-.777.259m128.111 0 .259.259-.259-.26m-137.169.26v.776l.518-.26v-.257l-.518-.26m118.794 3.365-.518.777.518-.777m3.364 1.294.259.26-.259-.26m-178.579 11.13v.517h.518v-.518h-.518m6.988 17.858.26.259-.26-.26m187.12 26.4-17.6-9.385-6.21-3.038c1.728-.717 4.796.97 6.47 1.627 4.443 1.745 8.058 3.705 12.164 6.203 1.984 1.207 4.378 2.245 5.176 4.593m38.045 31.574.259.26-.26-.26m-15.527 8.284 1.812 7.247c-2.276-.48-4.75-6.167-1.812-7.247m44.084 68.757.086.173-.086-.173m15.184 3.192.258.26-.258-.26m-6.988 1.812.259.259-.26-.26m-91.36.26.519.776-.518-.776m107.406 7.246v.26h1.812l-1.812-.26m-123.711.518v.259h.776l-.776-.26m126.04.519.259.259-.259-.26m.777.26v.258h1.811l-1.811-.258m2.329.776 1.812.776v-.258l-1.812-.518m2.588 1.553v.259l2.07.258-2.07-.517m2.847 1.035v.259l2.33.259-2.33-.518m4.14 1.294 1.036.518-.517-.777-.518.26m-1.294 0 1.035.517v-.26l-1.035-.258m3.882 1.294v.259c1.3.057 2.434.188 2.847 1.553l4.658.259v-1.036l-7.505-1.035m-.776-.26.258.26-.258-.26m-171.591 5.436c-3.743 5.659-8.895 7.625-14.494 10.818-7.592 4.33-14.92 9.515-23.81 10.664v-.26l11.388-5.235 17.34-9.498 9.576-6.49m-38.563 21.483-.259.258.26-.258m-59.268 3.623.517.518-.517-.518m-87.737 1.035.777.518-.777-.518m-11.646 7.247-.777.259v.259l.777-.518m-12.164 12.94 1.035-.776-1.035.776m-12.682 25.622.259.26Z"/>
    <path style="fill:none;stroke:#178f08;stroke-width:.264583;stroke-miterlimit:0;stroke-opacity:1;paint-order:stroke markers fill" d="m109.08 557.789 22.226 59.42 38.556-10.885-25.402-60.782Z"/>
    <path style="fill:none;stroke:#178f07;stroke-width:.264583;stroke-miterlimit:0;stroke-opacity:1;paint-order:stroke markers fill" d="m150.811 543.727 24.04 62.143 36.288 4.536 11.794-40.823-10.887-42.185Z"/>
</svg>