<?xml version="1.0" encoding="UTF-8" standalone="no"?>
<svg
   version="1.1"
   viewBox="-5 -10 30 30"
   id="svg2"
   sodipodi:docname="noun-home-6708524.svg"
   width="30"
   height="30"
   inkscape:version="1.3.2 (091e20e, 2023-11-25)"
   xmlns:inkscape="http://www.inkscape.org/namespaces/inkscape"
   xmlns:sodipodi="http://sodipodi.sourceforge.net/DTD/sodipodi-0.dtd"
   xmlns="http://www.w3.org/2000/svg"
   xmlns:svg="http://www.w3.org/2000/svg">
  <defs
     id="defs2" />
  <sodipodi:namedview
     id="namedview2"
     pagecolor="#ffffff"
     bordercolor="#666666"
     borderopacity="1.0"
     inkscape:showpageshadow="2"
     inkscape:pageopacity="0.0"
     inkscape:pagecheckerboard="0"
     inkscape:deskcolor="#d1d1d1"
     inkscape:zoom="4.5900253"
     inkscape:cx="27.015102"
     inkscape:cy="11.11105"
     inkscape:window-width="1160"
     inkscape:window-height="670"
     inkscape:window-x="217"
     inkscape:window-y="25"
     inkscape:window-maximized="0"
     inkscape:current-layer="svg2" />
  <path
     d="M 10.823737,-7.4859601 C 10.387327,-7.8944415 9.7099127,-7.8957081 9.272268,-7.4884972 L -2.6840441,3.6244169 C -3.4413811,4.3284936 -2.9428377,5.5945325 -1.9102093,5.5945325 H -0.25978616 C -0.16971761,5.5945325 -0.09740686,5.6668432 -0.09740686,5.7569117 V 16.65646 C -0.09740686,17.284413 0.41256155,17.793115 1.0392482,17.793115 H 6.6134045 C 7.2413577,17.793115 7.7500596,17.284413 7.7500596,16.65646 V 9.9989089 C 7.7500596,9.9101069 7.8223703,9.8365289 7.9124388,9.8365289 H 12.512319 C 12.602388,9.8365289 12.674699,9.9101069 12.674699,9.9989089 V 16.65646 C 12.674699,17.284413 13.1834,17.793115 13.811354,17.793115 H 19.056854 C 19.684808,17.793115 20.193509,17.284413 20.193509,16.65646 V 5.7569117 C 20.193509,5.6668432 20.26582,5.5945325 20.355889,5.5945325 H 21.909923 C 22.941292,5.5945325 23.439829,4.3322932 22.687558,3.6282166 L 20.785934,1.8471106 V -4.2966723 C 20.785934,-4.7457485 20.423114,-5.1085688 19.974038,-5.1085688 H 16.89643 C 16.447354,-5.1085688 16.084534,-4.7457485 16.084534,-4.2966723 V -2.5574277 Z M 17.058777,-1.6455018 L 19.811626,0.93353611 V -4.1343216 H 17.058777 Z M 9.9355225,-6.7757131 C 9.9976845,-6.834069 10.095365,-6.8327992 10.157524,-6.7744443 L 22.02128,4.3384698 C 22.12911,4.4399569 22.056802,4.6200972 21.909644,4.6200972 H 20.355609 C 19.727656,4.6200972 19.218954,5.1287991 19.218954,5.7567523 V 16.6563 C 19.218954,16.746369 19.146644,16.818679 19.056575,16.818679 H 13.811074 C 13.721006,16.818679 13.648695,16.746369 13.648695,16.6563 V 9.9987489 C 13.648695,9.3707958 13.139993,8.8620939 12.51204,8.8620939 H 7.9121596 C 7.2842063,8.8620939 6.7755045,9.3707958 6.7755045,9.9987489 V 16.6563 C 6.7755045,16.746369 6.7031937,16.818679 6.6131252,16.818679 H 1.0389689 C 0.95016692,16.818679 0.87658961,16.746369 0.87658961,16.6563 V 5.7567523 C 0.87658961,5.1287991 0.36788776,4.6200972 -0.26006545,4.6200972 H -1.9104886 C -2.058913,4.6200972 -2.129954,4.4386903 -2.0208546,4.3384698 Z"
     fill-rule="evenodd"
     id="path1"
     style="stroke-width:0.7;stroke:black;stroke-opacity:1;fill:black;stroke-dasharray:none;fill-opacity:1" />
</svg>
