<?xml version="1.0" encoding="utf-8"?>
<!-- Generator: Adobe Illustrator 22.1.0, SVG Export Plug-In . SVG Version: 6.00 Build 0)  -->
<svg version="1.1" id="Layer_1" xmlns="http://www.w3.org/2000/svg" xmlns:xlink="http://www.w3.org/1999/xlink" x="0px" y="0px"
	 viewBox="0 0 600 400" style="enable-background:new 0 0 600 400;" xml:space="preserve">
<style type="text/css">
	.st0{fill:none;stroke:#fff;stroke-linecap:round;stroke-linejoin:round;}
</style>
<g>
	<g>
		<g>
			<line class="st0" x1="429.8" y1="183.3" x2="430.2" y2="183"/>
			<polyline class="st0" points="428.9,177.1 459.7,159.3 431.9,177.2 461.4,160.2 433.8,177.7 462.2,161.3 			"/>
			<line class="st0" x1="460.6" y1="158.5" x2="462.2" y2="157.6"/>
			<polyline class="st0" points="34.2,113.7 34.7,113.4 34,115.3 35.5,114.4 34.1,116.6 36.5,115.2 			"/>
			<line class="st0" x1="463.1" y1="202.8" x2="464.1" y2="202.2"/>
			<line class="st0" x1="463.4" y1="198.4" x2="464.1" y2="198"/>
			<line class="st0" x1="426.4" y1="199.1" x2="464.1" y2="177.3"/>
			<polyline class="st0" points="412.3,196.4 463.9,166.7 413.5,197.3 463.7,168.3 			"/>
			<polyline class="st0" points="462.4,164.1 463.6,163.4 434.5,181.5 463.6,164.7 436.2,182 463.7,166.1 			"/>
			<line class="st0" x1="432" y1="182" x2="459.7" y2="166"/>
			<polyline class="st0" points="417.9,188 462.1,162.5 419.9,188.9 429.3,183.4 			"/>
			<line class="st0" x1="414.1" y1="189.6" x2="432.3" y2="179.1"/>
			<polyline class="st0" points="399.3,198.6 412.7,190.9 400.9,199.2 416.9,189.9 402.8,199.9 429.6,184.4 			"/>
			<line class="st0" x1="460.5" y1="150.9" x2="461.3" y2="150.5"/>
			<line class="st0" x1="458.6" y1="151.4" x2="459.8" y2="150.7"/>
			<polyline class="st0" points="438.6,163 458,151.8 440.2,164 461.6,151.6 			"/>
			<polyline class="st0" points="435.3,164.7 437.7,163.3 435.7,166.1 439.2,164.1 436.6,167.1 460.9,153.1 436.5,168.9 
				458.5,156.2 436.9,169.9 460.4,156.3 437.5,170.7 460,157.7 			"/>
			<line class="st0" x1="434" y1="168.9" x2="434.7" y2="168.5"/>
			<polyline class="st0" points="433.5,170 434,169.6 434.5,170.6 435.8,169.8 			"/>
			<polyline class="st0" points="421,178.3 433.7,171 425.5,177.8 437.2,171.1 426.6,178.4 427.8,177.7 			"/>
			<line class="st0" x1="434.1" y1="166.8" x2="434.5" y2="166.6"/>
			<line class="st0" x1="457.9" y1="148.1" x2="459.2" y2="147.4"/>
			<line class="st0" x1="457" y1="144.5" x2="459.1" y2="143.2"/>
			<line class="st0" x1="458.1" y1="143.1" x2="458.9" y2="142.6"/>
			<polyline class="st0" points="439,154.1 456.5,144 440.6,154.6 455.2,146.1 			"/>
			<line class="st0" x1="456.4" y1="142.9" x2="457.6" y2="142.2"/>
			<line class="st0" x1="456.9" y1="138" x2="457.5" y2="137.6"/>
			<line class="st0" x1="455.6" y1="137.8" x2="456.4" y2="137.3"/>
			<line class="st0" x1="455.7" y1="135.6" x2="456.5" y2="135.1"/>
			<polyline class="st0" points="448.8,114.5 449.4,114.2 448.8,116.5 449.4,116.1 			"/>
			<polyline class="st0" points="447.2,117.5 447.8,117.2 445.8,120 449.8,117.7 446.2,121.3 451.6,118.2 447.3,122.6 452.4,119.7 
							"/>
			<polyline class="st0" points="445.2,121.9 445.7,121.7 445.2,123.4 446.5,122.6 445.1,124.9 447.9,123.3 			"/>
			<polyline class="st0" points="443.3,125.3 443.9,124.9 444.1,126 444.9,125.6 444.7,127 452.3,122.7 445.3,128.2 453,123.8 			
				"/>
			<polyline class="st0" points="442.7,127.9 443.3,127.5 443.9,129.3 445,128.7 444,130.5 451.3,126.3 			"/>
			<polyline class="st0" points="441.9,130.9 442.6,130.5 442.8,132.3 454.6,125.5 443.5,133.1 454.7,126.6 443.9,135.1 
				454.6,128.9 443.5,137.1 454.4,130.8 			"/>
			<polyline class="st0" points="441,135.8 441.5,135.5 441.4,137.2 442.6,136.5 442.9,137.9 456.2,130.2 			"/>
			<polyline class="st0" points="440.3,137.7 440.9,137.3 441,138.7 441.7,138.2 441.8,140.4 455.1,132.6 442.9,140.9 453.9,134.5 
							"/>
			<polyline class="st0" points="439.3,141 439.9,140.6 440.5,142.6 454.1,134.8 441.1,144.4 454.7,136.5 			"/>
			<polyline class="st0" points="438.1,143.6 438.8,143.1 438.7,145.3 440.2,144.4 438.9,147.1 454.7,138 439.7,148 454.7,139.4 			
				"/>
			<polyline class="st0" points="438.6,149 439.1,148.7 440.3,149.8 457.7,139.8 440.1,151.1 456.9,141.4 			"/>
			<polyline class="st0" points="438.1,151.6 438.7,151.2 439,152.6 457.4,142 437.6,155.3 438.3,154.9 437.9,157.1 458.9,145 
				439.6,157.8 458.3,147 			"/>
			<polyline class="st0" points="435.4,157.2 435.9,156.9 435.8,158.3 436.9,157.7 436.2,159.8 438.1,158.7 437.6,160.8 
				458.2,148.9 			"/>
			<line class="st0" x1="437" y1="162" x2="437.8" y2="161.5"/>
			<polyline class="st0" points="434.6,162.1 435.5,161.6 423.1,170.7 459.2,149.9 428.7,169.1 435.1,165.3 413,179.5 431.4,168.8 
				416.5,179 431.3,170.4 417.7,180.3 420.3,178.8 			"/>
			<line class="st0" x1="415.3" y1="181" x2="416.3" y2="180.4"/>
			<polyline class="st0" points="395.6,187.5 422.3,172.1 396.2,188.7 410.7,180.3 			"/>
			<line class="st0" x1="414.6" y1="173.3" x2="433.9" y2="162.2"/>
			<line class="st0" x1="432.4" y1="160.8" x2="433.1" y2="160.4"/>
			<line class="st0" x1="429.7" y1="162.3" x2="430.4" y2="162"/>
			<polyline class="st0" points="397.9,178.5 421,165.1 399.7,179.1 427.8,162.9 401.7,180.2 434.8,161.1 403.3,181.3 414.8,174.6 
							"/>
			<polyline class="st0" points="422.2,161 432.1,155.3 424.9,160.8 432.5,156.5 431.3,159.1 433.1,158.1 			"/>
			<polyline class="st0" points="418.6,162.4 431.8,154.8 419.8,162.9 422.1,161.5 			"/>
			<polyline class="st0" points="427.6,154.6 432.2,151.9 430.9,153.9 432.6,152.9 			"/>
			<polyline class="st0" points="410.3,162.5 430.8,150.6 413.4,162.5 426.8,154.8 414.8,163.7 431,154.3 			"/>
			<polyline class="st0" points="404.5,162.5 429.2,148.3 407.1,162.6 429,149.9 408,164 409.7,163 			"/>
			<polyline class="st0" points="413.2,155.1 425.5,148 415,155.4 427.3,148.3 			"/>
			<polyline class="st0" points="397.4,163.5 425.6,147.2 400.5,163.3 413.3,155.9 			"/>
			<polyline class="st0" points="394.1,164.6 424.6,146.9 395.2,165.9 397.2,164.8 			"/>
			<polyline class="st0" points="387.8,170.3 394.3,166.5 389.1,171.3 403.8,162.8 393.7,170.1 404.8,163.7 394.7,171 406,164.4 			
				"/>
			<line class="st0" x1="393.2" y1="172.5" x2="394.4" y2="171.8"/>
			<polyline class="st0" points="425.3,146.1 429,143.9 427.2,146.2 429.8,144.8 			"/>
			<line class="st0" x1="422.9" y1="146.9" x2="428.5" y2="143.6"/>
			<polyline class="st0" points="416.3,147.9 424.5,143.2 418.3,148.7 427.4,143.4 419.2,149.4 421.5,148.1 			"/>
			<polyline class="st0" points="403.4,155 415.7,147.9 404.9,155.9 417.2,148.8 			"/>
			<line class="st0" x1="424" y1="140.1" x2="426.7" y2="138.6"/>
			<polyline class="st0" points="413.2,141.1 421.1,136.5 414.5,141.5 423.1,136.5 417,141.6 424.8,137.1 			"/>
			<line class="st0" x1="404.5" y1="148" x2="414.1" y2="142.4"/>
			<polyline class="st0" points="410.7,141.7 419.6,136.6 411,143.3 413.3,142 			"/>
			<polyline class="st0" points="410.3,135.4 415.3,132.5 412,136 420.9,130.9 416.7,135.2 422.8,131.7 419.1,135.2 423.7,132.6 
				421.5,135 424.1,133.5 			"/>
			<polyline class="st0" points="414.2,129.5 419.8,126.2 416.5,129.5 420.9,126.9 419.1,129.4 420.5,128.6 			"/>
			<polyline class="st0" points="405.9,129.6 413.3,125.3 406.5,131.5 416.1,126 			"/>
			<polyline class="st0" points="401,135 405.8,132.2 403.8,135.4 413.7,129.7 406.8,135.4 414.3,131 408.3,136.4 409.5,135.7 
				408.2,138 409.4,137.3 			"/>
			<line class="st0" x1="401.9" y1="141.4" x2="407.4" y2="138.2"/>
			<polyline class="st0" points="392.3,146 407.1,137.5 394.4,146.4 401.3,142.4 395.4,147.3 412.5,137.4 396.1,148.3 416.7,136.4 
				397.8,149.1 409.6,142.3 399,150 409.8,143.7 400.3,150.5 402.8,149.1 			"/>
			<polyline class="st0" points="415.1,122.3 417.9,120.7 416.6,122.7 417.8,122 			"/>
			<line class="st0" x1="410.8" y1="123.8" x2="417" y2="120.3"/>
			<line class="st0" x1="415.3" y1="117.8" x2="416.3" y2="117.3"/>
			<polyline class="st0" points="410.8,118.2 414.3,116.1 413.5,118.3 415.8,117 415.2,118.5 415.5,118.3 			"/>
			<polyline class="st0" points="405,118.6 413.6,113.6 407.5,118.6 413.5,115.1 			"/>
			<line class="st0" x1="414.6" y1="113" x2="417" y2="111.6"/>
			<line class="st0" x1="411" y1="109.1" x2="411.8" y2="108.6"/>
			<polyline class="st0" points="407.2,100.2 407.9,99.8 407.3,102 409.2,100.9 408,103.6 409.4,102.8 407.9,105.6 409.9,104.4 
				408,106.7 409.7,105.7 408,108.1 409.9,107 407.9,110.3 410,109.1 			"/>
			<line class="st0" x1="404" y1="109.4" x2="404.5" y2="109.2"/>
			<polyline class="st0" points="402.8,110.1 403.4,109.7 403.2,111.2 406.1,109.5 			"/>
			<line class="st0" x1="402.6" y1="111.8" x2="402.8" y2="111.7"/>
			<polyline class="st0" points="401.6,112.4 402.3,111.9 402.1,114.1 408,110.7 405.1,114.1 412.7,109.7 407.3,114.9 414.7,110.6 
							"/>
			<line class="st0" x1="403.5" y1="114.9" x2="403.8" y2="114.7"/>
			<polyline class="st0" points="402.2,115.8 403.1,115.3 402.8,117 406.1,115.1 403.1,118.3 416,110.9 			"/>
			<polyline class="st0" points="400.7,119.6 401.7,119 401.2,120.7 404.1,119 402.5,121.3 405.7,119.5 404,121.9 410.2,118.3 
				404,123.3 411,119.2 406.6,123.7 412.7,120.2 408,124.8 417.1,119.5 			"/>
			<line class="st0" x1="401.9" y1="124" x2="402" y2="123.9"/>
			<line class="st0" x1="398.8" y1="125.3" x2="400.9" y2="124.1"/>
			<polyline class="st0" points="396.4,126.5 397,126.2 396.8,128.1 403.1,124.5 398.5,128.3 404.3,124.9 399.9,129.4 407.2,125.2 
				400,130.6 409.9,124.9 401.1,131.2 409.9,126.1 			"/>
			<polyline class="st0" points="394.5,131.5 395.5,130.9 394.4,133.1 398,131 395.9,134.5 401.3,131.3 397.5,135.2 404.7,131.1 
				396.4,137.1 405.2,132 			"/>
			<polyline class="st0" points="390.4,138.8 391.7,138.1 390.8,139.9 394.2,137.9 392.8,140.9 401,136.2 			"/>
			<polyline class="st0" points="387.5,144.2 388.8,143.4 388.4,145.8 404.7,136.4 389.9,147 406.9,137.2 390.4,148 392.2,147 
				391.1,148.7 392.9,147.8 391.7,150 394.9,148.1 			"/>
			<line class="st0" x1="385.5" y1="148.9" x2="385.8" y2="148.8"/>
			<polyline class="st0" points="384,149.7 385,149.1 384.4,151.1 387.8,149.2 385.3,152.5 390,149.8 387.6,153.1 395.1,148.8 
				391.1,153 395.8,150.3 			"/>
			<line class="st0" x1="388.4" y1="154.3" x2="389.7" y2="153.6"/>
			<line class="st0" x1="386.4" y1="156" x2="387.8" y2="155.1"/>
			<polyline class="st0" points="382.8,156.7 383.9,156.1 383,158.7 386.2,156.9 384.1,159.8 399.1,151.1 385.1,160.5 425,137.4 
				388.3,160.4 426.6,138.3 389.8,160.7 424.5,140.7 392,160.6 425.2,141.4 392.7,161.5 402.4,155.9 394.8,162.3 403.2,157.5 			"/>
			<polyline class="st0" points="392.6,163.3 393.9,162.5 393.1,164.4 418.9,149.5 			"/>
			<polyline class="st0" points="378.1,167.9 385.9,163.4 380,168.4 387.6,164 381.4,169.1 389.2,164.6 			"/>
			<polyline class="st0" points="378.2,162.2 379.8,161.3 379.2,162.9 380.7,162.1 			"/>
			<line class="st0" x1="379.9" y1="158.2" x2="381.2" y2="157.5"/>
			<line class="st0" x1="370.4" y1="161.4" x2="380.9" y2="155.4"/>
			<polyline class="st0" points="371.6,150 374.9,148.2 373.5,150.7 377.5,148.4 			"/>
			<polyline class="st0" points="374.3,143.8 374.7,143.6 374.1,145.5 375.1,144.9 374.1,147.2 374.7,146.8 			"/>
			<polyline class="st0" points="371.1,145.6 371.5,145.4 372,146.4 372.5,146.1 373.3,147.5 373.8,147.3 			"/>
			<line class="st0" x1="370.8" y1="148.7" x2="371.1" y2="148.5"/>
			<polyline class="st0" points="368.6,147.7 369,147.4 369.8,148.9 370.2,148.7 			"/>
			<polyline class="st0" points="368.2,149.1 368.6,148.8 368.3,150.7 374,147.4 369.7,151.8 371.8,150.6 			"/>
			<polyline class="st0" points="369.1,152.3 369.6,152.1 369.4,153.6 372.5,151.8 			"/>
			<line class="st0" x1="367.7" y1="153.8" x2="368.2" y2="153.5"/>
			<polyline class="st0" points="365.7,153.4 366.1,153.2 365.5,155.6 367.5,154.5 365.8,157.1 378.5,149.8 366.6,158.2 
				378.4,151.4 368.3,159.3 380.4,152.3 			"/>
			<line class="st0" x1="366.8" y1="160.1" x2="367.8" y2="159.5"/>
			<line class="st0" x1="363.8" y1="158.5" x2="364.3" y2="158.2"/>
			<line class="st0" x1="362.8" y1="158.6" x2="363.3" y2="158.4"/>
			<polyline class="st0" points="353.3,164.9 362.5,159.6 357.4,164.7 357.7,164.5 			"/>
			<polyline class="st0" points="357.9,164.4 366.5,159.4 359.3,165.6 380.3,153.5 			"/>
			<line class="st0" x1="342.8" y1="168.2" x2="343.5" y2="167.8"/>
			<polyline class="st0" points="340.1,167.3 355.8,158.3 340.9,168.4 356.7,159.3 342.6,169.1 342.8,168.9 			"/>
			<polyline class="st0" points="343.7,167.5 357.5,159.5 344.6,168.3 361.2,158.7 347.5,168.8 353.5,165.3 			"/>
			<polyline class="st0" points="316.2,183.7 340.1,170 319.4,184.1 343.4,170.3 			"/>
			<line class="st0" x1="316.8" y1="184.8" x2="317" y2="184.7"/>
			<line class="st0" x1="357.4" y1="156.5" x2="359.1" y2="155.5"/>
			<line class="st0" x1="359.4" y1="154.8" x2="360" y2="154.5"/>
			<polyline class="st0" points="354.7,156.2 359.7,153.3 355.4,157 360.5,154.1 356.6,157.7 357.6,157.2 			"/>
			<polyline class="st0" points="333.5,168 359.1,153.2 335.3,168.5 354.2,157.5 			"/>
			<line class="st0" x1="352.5" y1="147.1" x2="353.1" y2="146.8"/>
			<line class="st0" x1="348.8" y1="146.1" x2="349" y2="146"/>
			<line class="st0" x1="349.3" y1="146" x2="351.8" y2="144.5"/>
			<line class="st0" x1="353.1" y1="142.5" x2="354.5" y2="141.7"/>
			<line class="st0" x1="354.3" y1="141.4" x2="355.6" y2="140.6"/>
			<line class="st0" x1="351.4" y1="136.9" x2="352.2" y2="136.4"/>
			<line class="st0" x1="349.8" y1="136.8" x2="351.5" y2="135.8"/>
			<line class="st0" x1="347.8" y1="137.2" x2="351.6" y2="135"/>
			<line class="st0" x1="349" y1="127" x2="349.2" y2="126.8"/>
			<line class="st0" x1="348.4" y1="127.3" x2="348.7" y2="127.1"/>
			<line class="st0" x1="343.7" y1="128.6" x2="346.5" y2="127"/>
			<line class="st0" x1="347.4" y1="125.8" x2="348.5" y2="125.1"/>
			<line class="st0" x1="338.9" y1="112.6" x2="339.7" y2="112.1"/>
			<polyline class="st0" points="337.9,112.9 338.5,112.6 338.5,114.6 340.3,113.6 			"/>
			<polyline class="st0" points="337.5,114.5 337.8,114.3 338.2,115.6 340.1,114.4 			"/>
			<line class="st0" x1="337.5" y1="115.5" x2="337.7" y2="115.4"/>
			<polyline class="st0" points="334.3,116.2 335.6,115.5 334.4,117.6 337,116.1 335.2,118.6 341.6,114.9 334.7,120.3 342.5,115.8 
				335.1,121.7 342.7,117.3 334.7,123.1 342.8,118.4 			"/>
			<line class="st0" x1="330.3" y1="123.2" x2="330.6" y2="123"/>
			<polyline class="st0" points="329,124.1 329.9,123.6 329.5,126 334.4,123.1 330.8,126.5 342.4,119.8 			"/>
			<line class="st0" x1="328.8" y1="127.5" x2="328.9" y2="127.4"/>
			<polyline class="st0" points="327,127.9 327.5,127.6 326.8,129.6 343.7,119.9 327.3,130.5 343.3,121.3 326.7,132.3 343.9,122.4 
							"/>
			<line class="st0" x1="325.6" y1="131.6" x2="325.8" y2="131.5"/>
			<line class="st0" x1="324.7" y1="131.6" x2="324.9" y2="131.5"/>
			<polyline class="st0" points="323.4,131.9 323.8,131.7 324.2,133.5 326.4,132.2 324.7,134.6 345.9,122.3 			"/>
			<line class="st0" x1="323.6" y1="134.2" x2="323.8" y2="134.1"/>
			<polyline class="st0" points="322.4,135.1 323.4,134.5 322.6,136.5 346.4,122.7 			"/>
			<polyline class="st0" points="321.8,137.4 322.3,137.1 322.2,138.5 348.5,123.3 323.1,139.8 346.3,126.4 			"/>
			<polyline class="st0" points="322.6,140 322.8,139.9 323,142 348.1,127.5 326.4,141.8 350.8,127.7 326.2,143.1 351,128.8 
				329.4,143.3 352,130.3 329.8,144.5 350.9,132.4 			"/>
			<line class="st0" x1="324.3" y1="144.8" x2="325.4" y2="144.2"/>
			<line class="st0" x1="322.7" y1="146.5" x2="323.1" y2="146.3"/>
			<line class="st0" x1="321.1" y1="146.5" x2="321.5" y2="146.3"/>
			<polyline class="st0" points="320.5,147.3 321,147 320.2,148.7 326.5,145 320.2,150.1 329.1,145 320,151.4 351.7,133.1 			"/>
			<line class="st0" x1="317.8" y1="151.5" x2="318" y2="151.4"/>
			<line class="st0" x1="317.1" y1="151.5" x2="317.4" y2="151.4"/>
			<line class="st0" x1="316.7" y1="151.6" x2="316.8" y2="151.5"/>
			<polyline class="st0" points="313.1,153.6 316.2,151.8 314,154.5 315.4,153.7 314.8,155.5 315.6,155 			"/>
			<polyline class="st0" points="315.6,153.1 317.1,152.3 318.1,153.9 352,134.4 318.2,156.1 347.3,139.3 319.4,156.8 320.7,156.1 
							"/>
			<polyline class="st0" points="321,155.9 349.7,139.4 320.9,157.3 351.1,139.8 			"/>
			<polyline class="st0" points="317.9,157.8 318.1,157.7 314.8,161.4 352.9,139.4 			"/>
			<polyline class="st0" points="316.6,161.1 354.3,139.4 318.4,161.7 355.4,140.3 			"/>
			<polyline class="st0" points="319.2,161.5 354,141.4 322.2,161.1 352.1,143.9 			"/>
			<line class="st0" x1="321.5" y1="161.9" x2="322" y2="161.6"/>
			<line class="st0" x1="320.7" y1="166" x2="321.4" y2="165.6"/>
			<line class="st0" x1="321.6" y1="165" x2="322.7" y2="164.3"/>
			<polyline class="st0" points="319.8,163.5 320.2,163.3 318.9,165.6 353,145.9 319.6,166.7 320.4,166.2 			"/>
			<polyline class="st0" points="323.2,163.8 352.2,147 324.8,164.1 353,147.8 325.9,164.9 355.5,147.8 326.9,166 356.2,149.1 
				327.5,167.1 357,150.2 329.8,167.1 357.5,151.1 331.5,167.6 358.1,152.2 332.1,168.4 359.7,152.5 			"/>
			<line class="st0" x1="331.7" y1="168.8" x2="331.9" y2="168.6"/>
			<polyline class="st0" points="328.7,168.6 329.4,168.2 315.4,178.2 331.3,169 			"/>
			<line class="st0" x1="322.1" y1="167.9" x2="322.6" y2="167.7"/>
			<line class="st0" x1="321.6" y1="168.4" x2="321.8" y2="168.3"/>
			<line class="st0" x1="317.6" y1="168.6" x2="317.8" y2="168.4"/>
			<line class="st0" x1="313.2" y1="165.7" x2="315" y2="164.7"/>
			<polyline class="st0" points="310.1,166.8 315.1,163.9 311.6,167.7 312.6,167.1 			"/>
			<polyline class="st0" points="311.5,155.3 313.1,154.4 312.9,156.1 313.9,155.5 			"/>
			<polyline class="st0" points="277.8,173 313.4,152.4 280.2,173 312.8,154.1 			"/>
			<polyline class="st0" points="312.4,150.1 314.7,148.8 313.7,151.6 315.4,150.6 			"/>
			<line class="st0" x1="281.3" y1="167.6" x2="314.3" y2="148.6"/>
			<polyline class="st0" points="279.2,161.1 312.6,141.8 281.6,161.5 312.3,143.8 283.2,162.2 312.8,145.1 			"/>
			<line class="st0" x1="279.7" y1="163.2" x2="280.4" y2="162.8"/>
			<polyline class="st0" points="310.1,137 312.1,135.9 310.9,137.8 311.8,137.3 			"/>
			<polyline class="st0" points="306.5,137.8 309.7,135.9 308.1,139 309.8,138.1 308.9,140 310.9,138.8 			"/>
			<polyline class="st0" points="308.6,133.2 310,132.4 309.6,133.8 310.3,133.4 			"/>
			<line class="st0" x1="309.3" y1="130.7" x2="310.3" y2="130.1"/>
			<line class="st0" x1="309.8" y1="129.2" x2="310.8" y2="128.7"/>
			<polyline class="st0" points="301.7,124.5 307.4,121.3 303.2,124.9 304.8,124 			"/>
			<line class="st0" x1="303.8" y1="117.4" x2="304.8" y2="116.8"/>
			<polyline class="st0" points="300.2,110.6 302.5,109.3 298.8,113.1 303.1,110.6 			"/>
			<line class="st0" x1="301.1" y1="106.1" x2="301.9" y2="105.7"/>
			<line class="st0" x1="300.7" y1="103.9" x2="301.6" y2="103.3"/>
			<polyline class="st0" points="297.2,94.3 297.6,94 296.2,97.1 299,95.5 296.9,98.5 298.5,97.6 			"/>
			<polyline class="st0" points="295.2,98.5 296,98 295.8,100.2 299,98.3 			"/>
			<polyline class="st0" points="293.7,101.8 294.5,101.4 293.9,103.5 299.1,100.5 294.6,104.8 300.6,101.3 294.3,106.5 
				299.5,103.5 294.8,107.6 299.2,105.1 			"/>
			<polyline class="st0" points="292.3,107.5 293.1,107 293.2,108.6 294.4,107.9 292.1,110.8 301.8,105.2 291.8,112.2 299.1,108.1 
				291.7,114.1 302.6,107.8 293.4,114.6 299.2,111.2 294.6,116.1 303.3,111.2 			"/>
			<polyline class="st0" points="290.9,115.2 291.6,114.7 291.6,116.1 292.9,115.3 290.9,117.9 294.2,116 			"/>
			<polyline class="st0" points="291.3,118.8 291.6,118.6 292.1,120.1 302.9,113.9 			"/>
			<polyline class="st0" points="288.4,120.6 289.2,120.1 288.3,122.6 291.5,120.7 288,124.1 304.5,114.6 287.9,125.9 304.3,116.5 
				288.9,127.1 302.9,119 291.3,127.2 305.3,119.1 			"/>
			<line class="st0" x1="287" y1="128" x2="288.1" y2="127.4"/>
			<polyline class="st0" points="285.5,129.4 286.3,129 286.7,130.2 305.5,119.4 286.9,131.3 307.2,119.6 287.5,132.3 307,121 			
				"/>
			<polyline class="st0" points="284.1,132.8 284.8,132.4 283.9,134.2 286.7,132.6 285.6,135.4 303.2,125.3 288,136.3 305.9,126 			
				"/>
			<polyline class="st0" points="282.3,138.6 283.7,137.8 284.3,139.6 306.5,126.8 284.5,141.6 307.5,128.4 285.6,143 309.3,129.4 
				287.2,144.1 308.5,131.8 			"/>
			<polyline class="st0" points="278.2,147.7 278.9,147.3 278.8,149.3 284.6,145.9 279.7,150.8 308.7,134.1 282.4,151.1 
				309.5,135.5 281.6,152.8 306.3,138.5 282.4,153.6 307.2,139.3 282.6,155.4 308.3,140.6 282.2,157.5 310.6,141.1 			"/>
			<line class="st0" x1="279.7" y1="158.8" x2="281.1" y2="158"/>
			<polyline class="st0" points="244.7,172 275.4,154.3 246.7,172.3 276.2,155.2 			"/>
			<polyline class="st0" points="262.2,132.3 263.1,131.7 262.1,133.5 264.8,131.9 262.1,135.3 265.3,133.4 262.5,137.4 
				265.3,135.7 262.8,138.6 264.6,137.6 			"/>
			<polyline class="st0" points="260.7,139.6 261.8,138.9 262,140.8 265.9,138.6 			"/>
			<polyline class="st0" points="259.6,141.1 260,140.8 256.8,144.5 266.1,139.1 255.8,146.8 267,140.3 254.8,149.2 266.2,142.6 
				253,152 268.5,143.1 249.7,155.7 269.6,144.3 250.7,157.4 270.5,146 251.1,159 270.8,147.6 			"/>
			<polyline class="st0" points="247.4,161.1 250.3,159.4 248.8,161.9 271.3,148.9 			"/>
			<polyline class="st0" points="243.1,163.2 246.7,161.2 244.9,163.5 247.1,162.3 244.2,165.5 247.9,163.3 244,166.9 272.3,150.6 
							"/>
			<line class="st0" x1="240.8" y1="168.6" x2="241.4" y2="168.2"/>
			<line class="st0" x1="241" y1="165.3" x2="242" y2="164.8"/>
			<line class="st0" x1="242.2" y1="164.5" x2="242.7" y2="164.2"/>
			<polyline class="st0" points="243.8,157.3 244.4,157 242.4,159.6 247.9,156.4 			"/>
			<line class="st0" x1="241.8" y1="159.8" x2="242.1" y2="159.7"/>
			<polyline class="st0" points="167.1,199 239.3,157.3 168.9,199.5 239.2,158.9 			"/>
			<polyline class="st0" points="167.9,199.9 168.4,199.7 167.4,201.6 239.8,159.8 			"/>
			<line class="st0" x1="240.7" y1="156.4" x2="241.3" y2="156.1"/>
			<line class="st0" x1="242.5" y1="154.7" x2="243.7" y2="154"/>
			<line class="st0" x1="238.9" y1="148.7" x2="240.1" y2="148"/>
			<line class="st0" x1="234.2" y1="151.5" x2="237.6" y2="149.5"/>
			<line class="st0" x1="233.9" y1="152.5" x2="234.4" y2="152.3"/>
			<line class="st0" x1="238" y1="148" x2="239.9" y2="146.9"/>
			<line class="st0" x1="241.8" y1="145" x2="243.6" y2="144"/>
			<line class="st0" x1="241.6" y1="139.2" x2="242.6" y2="138.7"/>
			<line class="st0" x1="239.8" y1="140.8" x2="240.2" y2="140.5"/>
			<polyline class="st0" points="233.5,144.6 238,142 234,145.7 245,139.4 			"/>
			<line class="st0" x1="238.4" y1="140.4" x2="238.9" y2="140.1"/>
			<polyline class="st0" points="144.1,188.8 239.6,133.6 146.1,188.9 239.3,135.1 146.8,189.7 238.7,136.6 			"/>
			<line class="st0" x1="146.1" y1="190" x2="146.4" y2="189.9"/>
			<line class="st0" x1="145.2" y1="191" x2="145.8" y2="190.6"/>
			<line class="st0" x1="237.8" y1="127.3" x2="239" y2="126.6"/>
			<polyline class="st0" points="233.5,128.9 236.9,127 232.2,130.9 238.9,127 			"/>
			<line class="st0" x1="182.9" y1="159.2" x2="230.9" y2="131.4"/>
			<polyline class="st0" points="184.4,158.6 231.9,131.2 184.5,159.8 240.1,127.7 			"/>
			<line class="st0" x1="183.4" y1="160.1" x2="183.9" y2="159.8"/>
			<polyline class="st0" points="234.3,125.6 234.6,125.4 234,127.1 235.7,126.2 			"/>
			<line class="st0" x1="232.4" y1="126.8" x2="232.8" y2="126.5"/>
			<polyline class="st0" points="227.5,129.8 231.9,127.2 227.7,131 233.5,127.7 			"/>
			<line class="st0" x1="234.4" y1="123.2" x2="234.9" y2="123"/>
			<polyline class="st0" points="220.7,129.8 235.5,121.3 221.2,131.3 230.9,125.7 			"/>
			<polyline class="st0" points="215.4,126.5 233.5,116 216.6,127.4 232.9,118 217.2,128.2 233.4,118.9 217.3,130.4 235.9,119.6 			
				"/>
			<polyline class="st0" points="211.3,133.2 216.9,130 212,134.1 235.9,120.3 212.6,134.9 220.5,130.3 			"/>
			<line class="st0" x1="210.8" y1="134.4" x2="211.1" y2="134.2"/>
			<polyline class="st0" points="226.4,114.5 228.6,113.3 226.7,116.3 232.4,113 			"/>
			<polyline class="st0" points="218.2,114.3 229.2,107.9 219.1,115.5 229.8,109.3 219.8,116.5 230,110.6 			"/>
			<line class="st0" x1="227.6" y1="107.4" x2="227.9" y2="107.2"/>
			<line class="st0" x1="224.8" y1="107.5" x2="225.1" y2="107.4"/>
			<polyline class="st0" points="222.2,97.7 222.5,97.5 221.9,100 224.1,98.8 221.9,101.9 223.7,100.8 222.3,103.3 224.2,102.2 			
				"/>
			<polyline class="st0" points="221.8,103.6 222.1,103.5 222.2,105.3 224.4,104.1 			"/>
			<line class="st0" x1="221.1" y1="106.7" x2="221.4" y2="106.5"/>
			<line class="st0" x1="220.3" y1="107.5" x2="220.6" y2="107.3"/>
			<line class="st0" x1="218.1" y1="108.1" x2="218.4" y2="107.9"/>
			<line class="st0" x1="217.2" y1="108.9" x2="217.7" y2="108.6"/>
			<polyline class="st0" points="216.2,109.4 216.5,109.2 216.5,111 224.5,106.4 217,112.1 224.3,107.9 217.3,113.3 227,107.7 			
				"/>
			<polyline class="st0" points="215.2,112.9 216.3,112.3 214.5,114.9 217,113.5 214,116.4 217.5,114.4 212.9,118.4 218.1,115.3 			
				"/>
			<line class="st0" x1="212" y1="119.1" x2="212.6" y2="118.8"/>
			<polyline class="st0" points="210.6,119.9 210.9,119.7 211.8,121.5 229.8,111.1 212.7,123.2 225.2,116 212.3,125.3 225.9,117.5 
							"/>
			<line class="st0" x1="211.1" y1="125.1" x2="211.6" y2="124.8"/>
			<line class="st0" x1="210.3" y1="125.9" x2="210.8" y2="125.6"/>
			<polyline class="st0" points="208.3,126.2 209.4,125.5 207.9,127.9 212.2,125.4 208.4,129.6 233.3,115.2 209.2,130.5 
				214.8,127.2 209.1,132.6 215.7,128.9 210,133.8 210.3,133.6 200.5,141 211.4,134.7 			"/>
			<line class="st0" x1="199.8" y1="141.6" x2="200" y2="141.4"/>
			<polyline class="st0" points="190.1,145.1 209.4,134 189.5,147.1 199.4,141.4 			"/>
			<polyline class="st0" points="173.6,150.2 206.5,131.2 175.1,151 206.5,132.9 			"/>
			<line class="st0" x1="203.4" y1="129.7" x2="204" y2="129.3"/>
			<polyline class="st0" points="189.1,131.4 198.5,126 191,131.8 198.9,127.2 			"/>
			<polyline class="st0" points="188.5,132 188.8,131.9 189.7,132.5 190.3,132.2 169.4,145.8 199.6,128.3 170.8,147.2 201.4,129.5 
							"/>
			<line class="st0" x1="200.4" y1="123.3" x2="201.7" y2="122.6"/>
			<line class="st0" x1="203.6" y1="119.2" x2="204" y2="119"/>
			<line class="st0" x1="203.4" y1="115.5" x2="203.8" y2="115.3"/>
			<polyline class="st0" points="201.8,114.9 202.3,114.6 201,116.8 201.9,116.2 			"/>
			<line class="st0" x1="199.6" y1="115.9" x2="200.2" y2="115.5"/>
			<line class="st0" x1="198.9" y1="117.1" x2="199.2" y2="116.9"/>
			<polyline class="st0" points="180.9,120.5 193.3,113.3 182.8,120.5 183.2,120.3 			"/>
			<polyline class="st0" points="184,119.2 193.1,113.9 185.7,119.7 195.6,114 185.5,121.5 195.6,115.7 			"/>
			<line class="st0" x1="184.4" y1="120.8" x2="184.8" y2="120.6"/>
			<line class="st0" x1="182.2" y1="122.5" x2="183.2" y2="122"/>
			<line class="st0" x1="180.4" y1="121.6" x2="180.9" y2="121.3"/>
			<line class="st0" x1="193.1" y1="112.9" x2="193.6" y2="112.6"/>
			<line class="st0" x1="193.6" y1="112.4" x2="194.7" y2="111.8"/>
			<line class="st0" x1="195.9" y1="111.1" x2="196.9" y2="110.5"/>
			<polyline class="st0" points="163.1,128.1 196.5,108.8 165,129.1 192.7,113.1 166.2,129.8 179.9,121.9 166.8,131.8 181.4,123.3 
							"/>
			<line class="st0" x1="165.3" y1="132.9" x2="166.1" y2="132.4"/>
			<line class="st0" x1="162.5" y1="129.8" x2="162.9" y2="129.5"/>
			<line class="st0" x1="194.4" y1="106.3" x2="195.5" y2="105.7"/>
			<line class="st0" x1="193.2" y1="106.6" x2="193.8" y2="106.3"/>
			<polyline class="st0" points="185.2,107.6 194.1,102.5 187.3,108.5 193.3,105 			"/>
			<polyline class="st0" points="184,108.9 185.2,108.2 186.3,109.4 187,109 185.8,110.9 192.6,107 			"/>
			<line class="st0" x1="184.4" y1="110.8" x2="184.8" y2="110.6"/>
			<line class="st0" x1="183.7" y1="109.4" x2="184.1" y2="109.2"/>
			<line class="st0" x1="191.8" y1="101.9" x2="193" y2="101.1"/>
			<line class="st0" x1="192.4" y1="94.7" x2="193" y2="94.4"/>
			<line class="st0" x1="190.4" y1="95.6" x2="191.4" y2="95.1"/>
			<polyline class="st0" points="186.4,94.3 186.7,94.1 186.3,95.9 186.9,95.5 186.1,97.2 187.8,96.2 			"/>
			<polyline class="st0" points="185.6,96 185.6,96 185.6,97.3 185.7,97.2 			"/>
			<line class="st0" x1="184.9" y1="96.7" x2="185.1" y2="96.6"/>
			<polyline class="st0" points="172.2,104.8 184.7,97.6 173.2,106.1 189.8,96.5 172.9,107.7 192.5,96.4 			"/>
			<polyline class="st0" points="177.1,96.1 187.5,90 177.8,97.3 185.2,93 178.4,98.3 183.4,95.4 			"/>
			<polyline class="st0" points="176.9,97.7 177.1,97.5 176.6,99.3 177.9,98.5 			"/>
			<polyline class="st0" points="184.4,88.4 184.7,88.2 183.9,89.9 184.6,89.5 			"/>
			<line class="st0" x1="182.9" y1="90.5" x2="183.3" y2="90.3"/>
			<line class="st0" x1="182.2" y1="88.7" x2="182.9" y2="88.3"/>
			<line class="st0" x1="180.9" y1="85.4" x2="181.4" y2="85.1"/>
			<line class="st0" x1="181" y1="74.6" x2="181.5" y2="74.4"/>
			<polyline class="st0" points="180,75.1 180.4,74.8 179.6,76.5 181.3,75.6 			"/>
			<line class="st0" x1="177.8" y1="75.1" x2="177.9" y2="75"/>
			<polyline class="st0" points="177.7,75.8 177.9,75.7 178,77.4 179.3,76.6 177.4,79.5 181.7,77 177.9,80.4 182,78 178.3,81.4 
				180.6,80 			"/>
			<polyline class="st0" points="177.1,80.7 177.3,80.6 177.3,82.1 178.2,81.6 177.5,83.6 181.7,81.2 177.7,85.7 181.3,83.6 
				178.2,86.9 180.2,85.7 			"/>
			<polyline class="st0" points="177,86.3 177.3,86.1 177.4,87.4 177.9,87.1 177.8,88.7 181.5,86.6 			"/>
			<polyline class="st0" points="176.8,89 176.9,88.9 176.9,90.6 181.3,88.1 			"/>
			<line class="st0" x1="175.4" y1="89.9" x2="175.6" y2="89.8"/>
			<line class="st0" x1="174.2" y1="89.3" x2="174.3" y2="89.2"/>
			<polyline class="st0" points="173.5,88.2 173.7,88.2 173.2,89.7 174,89.3 			"/>
			<line class="st0" x1="172.3" y1="89.8" x2="172.7" y2="89.6"/>
			<polyline class="st0" points="171.2,90.4 171.5,90.1 172,92 174.9,90.3 173.4,93.4 181,89 174.1,94.7 182.3,90 174.4,96.2 
				186.6,89.2 			"/>
			<line class="st0" x1="172.1" y1="95.4" x2="172.4" y2="95.3"/>
			<polyline class="st0" points="171.4,95.7 171.7,95.5 172.3,96.8 173.3,96.2 173.6,98.1 176,96.7 			"/>
			<line class="st0" x1="172" y1="98.8" x2="172.3" y2="98.7"/>
			<line class="st0" x1="169.5" y1="95.8" x2="169.9" y2="95.6"/>
			<polyline class="st0" points="168.1,94.5 168.5,94.3 168.1,96 169.1,95.4 			"/>
			<line class="st0" x1="166.1" y1="95.9" x2="166.5" y2="95.7"/>
			<polyline class="st0" points="165.3,96.5 165.4,96.5 165.7,97.5 168,96.1 			"/>
			<line class="st0" x1="164.3" y1="96.8" x2="164.6" y2="96.6"/>
			<polyline class="st0" points="163.6,97.8 164,97.5 163.8,99.9 169,96.8 165,100.6 170.1,97.7 166.7,101.6 171.6,98.8 
				168.2,102.2 176.1,97.6 			"/>
			<polyline class="st0" points="167.3,103 167.6,102.8 168,104.5 176.3,99.7 			"/>
			<polyline class="st0" points="165,104 165.8,103.6 164.7,106 167.3,104.5 			"/>
			<line class="st0" x1="160.4" y1="104.6" x2="160.7" y2="104.4"/>
			<polyline class="st0" points="158.6,105.4 159,105.2 159.4,106.2 160.1,105.8 159.2,107.5 161.9,105.9 			"/>
			<polyline class="st0" points="158.2,108.3 158.6,108.1 159.5,109.7 164.8,106.7 161,110.9 184.6,97.3 			"/>
			<polyline class="st0" points="158.6,110.2 159.1,110 160.2,111.2 160.7,110.9 160.8,113 172.1,106.5 161.7,114.3 172.7,107.9 
				163.6,114.4 194.2,96.7 164.3,115.1 194.5,97.7 166.1,115.9 192.7,100.6 167,117.3 191.9,102.9 			"/>
			<line class="st0" x1="165" y1="117.1" x2="165.1" y2="117.1"/>
			<polyline class="st0" points="161.9,115.4 162.3,115.2 162.1,116.8 162.8,116.4 			"/>
			<line class="st0" x1="160.9" y1="117.1" x2="161.6" y2="116.6"/>
			<line class="st0" x1="158.5" y1="116.4" x2="158.9" y2="116.2"/>
			<line class="st0" x1="157.5" y1="116.9" x2="157.8" y2="116.7"/>
			<line class="st0" x1="155" y1="117.7" x2="155.3" y2="117.5"/>
			<polyline class="st0" points="153.6,118.7 154,118.5 154.7,119.5 157.4,117.9 			"/>
			<polyline class="st0" points="153.2,120.6 153.8,120.2 155,121.8 164,116.6 156.3,122.6 165,117.5 160.1,122.6 183.5,109.1 
				160.9,123.9 183.4,110.9 161.7,124.9 184.5,111.7 			"/>
			<polyline class="st0" points="159.8,125.1 160.3,124.8 161.8,125.9 195,106.8 			"/>
			<line class="st0" x1="159.6" y1="126.9" x2="160.1" y2="126.6"/>
			<line class="st0" x1="158.1" y1="127.9" x2="159" y2="127.4"/>
			<polyline class="st0" points="155.9,127.5 156.3,127.3 156.3,128.5 157.2,128 			"/>
			<polyline class="st0" points="155.2,129 155.7,128.7 156,129.8 156.5,129.5 			"/>
			<line class="st0" x1="154.5" y1="129.5" x2="154.7" y2="129.4"/>
			<line class="st0" x1="153" y1="130.1" x2="153.3" y2="130"/>
			<line class="st0" x1="151.8" y1="129.7" x2="151.9" y2="129.7"/>
			<line class="st0" x1="148.9" y1="128.3" x2="149.1" y2="128.1"/>
			<polyline class="st0" points="148.5,128.6 148.7,128.5 149,129.6 150.3,128.8 			"/>
			<polyline class="st0" points="146.8,130 147.3,129.7 147.1,131.6 150.9,129.5 148.3,132.7 151.9,130.6 148,134.9 196.4,107 
				151.3,135.2 161.7,129.2 153.2,135.5 161.7,130.7 155,136.4 164,131.1 156.6,136.9 164,132.6 			"/>
			<line class="st0" x1="152.9" y1="137" x2="153.6" y2="136.6"/>
			<polyline class="st0" points="151.1,135.8 151.4,135.7 150.7,137.2 151.4,136.8 			"/>
			<line class="st0" x1="148" y1="135.8" x2="148.4" y2="135.6"/>
			<polyline class="st0" points="146.6,136.8 147.1,136.6 146.7,138.8 150.1,136.8 			"/>
			<line class="st0" x1="145.8" y1="139.3" x2="146.4" y2="139"/>
			<polyline class="st0" points="144.9,140.2 145.8,139.6 145.6,141.3 152.5,137.3 146.9,141.8 154.4,137.5 148.7,142.6 
				164.9,133.2 150.4,143.6 195.6,117.5 151.6,144.3 198.3,117.3 153.2,145.2 203.8,115.9 			"/>
			<polyline class="st0" points="150.9,145.6 152.1,144.9 152.1,146.2 203.7,116.4 			"/>
			<polyline class="st0" points="149.7,146.5 150.2,146.2 151.4,147.7 204.7,116.9 153.1,149 202.9,120.3 154.9,149.3 202.1,122 
				156.5,149.9 188.1,131.7 158.6,150.1 187.8,133.2 160.7,150.4 167.8,146.3 161.5,151.5 169.2,147.1 			"/>
			<polyline class="st0" points="161.1,152 161.5,151.8 160.1,154.6 202.4,130.2 			"/>
			<polyline class="st0" points="157.1,153.1 157.5,152.8 157.7,154.5 158.4,154 158.7,155.8 159.4,155.4 			"/>
			<polyline class="st0" points="152.2,152.5 152.7,152.3 152.7,153.7 153.5,153.3 			"/>
			<line class="st0" x1="149.9" y1="151.7" x2="150.1" y2="151.6"/>
			<line class="st0" x1="148.6" y1="151.2" x2="148.9" y2="151"/>
			<polyline class="st0" points="146.9,151.9 147.4,151.7 147.4,153.2 148.8,152.4 			"/>
			<polyline class="st0" points="146.5,153.6 146.7,153.5 145.7,155.8 151,152.7 147.7,156.3 152.1,153.8 148.6,157.9 155.3,154 
				149.7,159 156.3,155.2 151.2,159.9 157.8,156.1 151.8,161 203,131.4 154,161.7 173.1,150.7 154.1,163.9 207.7,133 			"/>
			<polyline class="st0" points="152.8,164.7 153.5,164.2 154.2,165.2 208.5,133.9 			"/>
			<line class="st0" x1="152.5" y1="165.8" x2="152.9" y2="165.6"/>
			<polyline class="st0" points="151.3,166.2 151.8,166 152.7,167.1 189.2,146 			"/>
			<polyline class="st0" points="151.4,167.4 151.7,167.2 153.8,167.8 189.2,147.4 			"/>
			<polyline class="st0" points="152.4,168 152.8,167.8 153.5,168.9 200.3,141.9 153.6,170.2 220.8,131.4 155.3,170.9 230.7,127.4 
							"/>
			<line class="st0" x1="151.4" y1="170.7" x2="151.6" y2="170.5"/>
			<polyline class="st0" points="149.1,165.1 149.6,164.8 138.1,173.7 149.6,167 141.3,174.1 150.8,168.6 142.4,174.9 150.8,170 			
				"/>
			<line class="st0" x1="147.7" y1="165.4" x2="148.2" y2="165.1"/>
			<line class="st0" x1="145.4" y1="164.6" x2="145.9" y2="164.3"/>
			<line class="st0" x1="144.8" y1="163.7" x2="145.1" y2="163.5"/>
			<polyline class="st0" points="142.8,163.2 143.2,163 143.2,164.2 144.2,163.7 			"/>
			<line class="st0" x1="142.1" y1="164.1" x2="142.3" y2="164"/>
			<line class="st0" x1="141.5" y1="164.1" x2="141.6" y2="164.1"/>
			<polyline class="st0" points="138.7,162.8 140.1,162 139.8,163.5 140.7,163 			"/>
			<polyline class="st0" points="140,161.3 141.9,160.2 140.9,162.2 142,161.5 			"/>
			<polyline class="st0" points="139.4,158.1 141.4,156.9 140,159 141.6,158 			"/>
			<polyline class="st0" points="137.3,146.5 139.1,145.5 138.7,147.7 139.3,147.3 			"/>
			<polyline class="st0" points="134.1,147.2 136.9,145.5 135.4,148.2 137,147.3 136.2,149.2 138,148.2 			"/>
			<line class="st0" x1="136" y1="143.1" x2="137.2" y2="142.4"/>
			<line class="st0" x1="136.7" y1="140.8" x2="137.6" y2="140.3"/>
			<line class="st0" x1="137.5" y1="139.7" x2="138.1" y2="139.4"/>
			<line class="st0" x1="132.7" y1="134" x2="135" y2="132.7"/>
			<line class="st0" x1="131.7" y1="129" x2="132.6" y2="128.5"/>
			<polyline class="st0" points="128.9,122.9 130.6,122 127.1,125.4 131.1,123 			"/>
			<line class="st0" x1="129.2" y1="120.5" x2="130.6" y2="119.7"/>
			<line class="st0" x1="129.5" y1="119" x2="130" y2="118.7"/>
			<line class="st0" x1="128.8" y1="117.1" x2="129.8" y2="116.6"/>
			<polyline class="st0" points="125.8,108.5 126.2,108.2 124.8,110.7 127.3,109.3 125.5,112.1 127,111.2 			"/>
			<polyline class="st0" points="124.1,112.2 124.8,111.8 124.4,113.5 127.4,111.7 			"/>
			<polyline class="st0" points="122.7,115.2 123.4,114.8 123.4,116 128.2,113.2 123.3,117.7 128.8,114.5 123.4,119.7 127.4,117.4 
				123.9,120.6 130,117.1 			"/>
			<polyline class="st0" points="121.5,120.2 122.3,119.8 122.7,121.7 130,117.4 121.1,124.1 127.6,120.3 120.9,126.1 130.6,120.5 
				122.5,126.4 127.8,123.3 123.5,127.7 131.2,123.3 			"/>
			<polyline class="st0" points="120.3,127.1 121,126.7 120.1,129.1 122.7,127.6 120.4,130.3 131.3,124 121.3,131.5 130.9,125.9 			
				"/>
			<polyline class="st0" points="118,131.9 118.8,131.4 118.1,133.4 120.2,132.2 117.8,135 132.5,126.5 117.6,136.5 132,128.2 
				119.9,137.1 131.3,130.5 			"/>
			<line class="st0" x1="116.7" y1="138.5" x2="117.8" y2="137.9"/>
			<polyline class="st0" points="115.4,139.7 116.2,139.3 116.7,141.3 134.6,130.9 117.1,142.2 134.5,132.2 			"/>
			<polyline class="st0" points="114.2,142.7 114.8,142.4 114.8,144.4 132.4,134.2 116.2,145.8 133.5,135.9 			"/>
			<polyline class="st0" points="112.7,147.8 113.8,147.2 114.2,148.7 134,137.3 114.7,150.6 135.3,138.8 115.5,151.9 137.9,139 
				117.3,153 136,142.2 			"/>
			<polyline class="st0" points="106.5,158.1 113.4,154.2 109.7,157.9 136.8,142.2 109.1,159.4 136,143.9 			"/>
			<polyline class="st0" points="55.5,174.7 105.6,145.8 56.8,175.3 108.1,145.7 54.6,177.8 109.7,146 			"/>
			<polyline class="st0" points="86.5,105.4 87.4,104.9 86.4,107.7 90.3,105.4 86.4,109.6 90.6,107.2 86.7,111.6 90.6,109.3 
				87.3,113.3 89.6,112 			"/>
			<polyline class="st0" points="84.5,114.9 85.9,114.1 85.8,116.1 90.9,113.2 			"/>
			<polyline class="st0" points="83.1,116.8 83.6,116.6 80.6,120 85.5,117.2 79.2,122.6 92.3,115.1 77.7,125.2 92.9,116.4 
				76.8,127.3 91.5,118.8 77.1,128.4 94.5,118.3 74.6,131.6 95.2,119.7 70.6,135.1 95.9,120.5 70.8,137.3 96.5,122.4 72,138.8 
				97.5,124 72.2,139.9 97.6,125.2 			"/>
			<polyline class="st0" points="66,141.6 68.5,140.1 67.2,142.4 70.6,140.4 68.5,143.3 97.3,126.7 69.5,144.2 98.9,127.3 			"/>
			<polyline class="st0" points="65.1,146.4 65.9,145.9 63.2,148.7 68.5,145.7 63.8,150 99.4,129.4 64.4,150.9 100.4,130.1 
				65.1,151.7 100.5,131.2 66,152.3 101.1,132.1 65.8,153.8 101.7,133.1 			"/>
			<polyline class="st0" points="61,154.2 61.3,154 62.3,155.6 64.6,154.2 63.2,156.6 102.9,133.7 65.8,157.2 104.5,134.9 
				67.5,157.8 104.7,136.3 68,159.3 103.1,139 			"/>
			<polyline class="st0" points="57.5,160.1 58.4,159.6 58.5,161.5 64.5,158 57.9,163.2 65.8,158.7 60.9,163.5 66.9,160 62.8,164.2 
				103.5,140.7 64.1,165.8 107.7,140.6 66.1,166.9 107.8,142.8 			"/>
			<line class="st0" x1="61.6" y1="166.7" x2="62.7" y2="166.1"/>
			<polyline class="st0" points="57.1,169.1 58.5,168.3 57.8,170 60.9,168.3 59,170.6 64.5,167.5 			"/>
			<line class="st0" x1="56.5" y1="171.6" x2="57.1" y2="171.2"/>
			<polyline class="st0" points="22.9,180.1 23.1,180 22.9,182.2 54.4,164 22.9,184.5 55.6,165.5 22.9,186.7 55.1,168 22.9,188.8 
				54,170.8 22.9,191.1 55,172.5 22.9,192.5 65.9,167.7 22.9,193.9 55.2,175.2 22.9,195.4 53.8,177.5 22.9,197.7 110.3,147.2 
				22.9,199.4 111.9,148 22.9,200.7 112,149.3 22.9,202.2 109.2,152.3 22.9,203.8 108.7,154.3 25.2,204.1 111.9,154.1 27.6,204.1 
				106.3,158.7 31.3,204.1 107.8,160 34.5,204.1 136.8,145 37.5,204.1 134.4,148.1 40.3,204.1 134.9,149.5 42.4,204.1 136.5,149.8 
				45.6,204.1 138.7,150.4 48.7,204.1 138.9,152 51.2,204.1 139.5,153.2 53.7,204.1 139,154.9 56.5,204.1 138.6,156.7 59.8,204.1 
				139,158.4 63.7,204.1 139.8,160.2 65.8,204.1 139.5,161.5 69.2,204.1 138.2,164.2 71.8,204.1 140.5,164.4 74.7,204.1 
				142.9,164.7 78.4,204.1 145,165.6 81.8,204.1 147,166.5 84.7,204.1 136.5,174.2 87.9,204.1 139.2,174.5 90.1,204.1 140.9,174.8 
				92.6,204.1 151,170.4 95.5,204.1 152.5,171.2 98,204.1 155,171.2 101,204.1 227.5,131.1 104,204.1 231.8,130.3 107.4,204.1 
				182.8,160.6 109.6,204.1 239.8,128.9 112.4,204.1 237.9,131.7 115.2,204.1 238.4,133 117.6,204.1 143.2,189.3 120.5,204.1 
				144,190.5 124,204.1 239.8,137.3 126.1,204.1 239.4,138.7 129.6,204.1 237.8,141.6 132.9,204.1 233.1,146.3 135.8,204.1 
				245.9,140.6 137.9,204.1 243.6,143.1 140.6,204.1 237.3,148.3 144.2,204.1 233.2,152.7 147.9,204.1 243,149.2 151.3,204.1 
				244.7,150.2 154.2,204.1 244.9,151.7 157.4,204.1 241.8,155.4 160.5,204.1 166.4,200.7 162.6,204.1 167,201.5 165,204.1 
				241.2,160.2 167.2,204.1 249.6,156.6 169.3,204.1 249.8,157.6 171.5,204.1 249.4,159.1 173.9,204.1 240.3,165.7 177.5,204.1 
				241.4,167.2 180.8,204.1 242.8,168.3 183.3,203.8 273,152 186.7,204.1 274.1,153.7 190.7,204.1 245.1,172.7 194.1,204.1 
				275.7,157 196.6,204.1 274.9,158.9 199.5,204.1 277.6,159 202.9,204.1 311.5,141.4 206.6,204.1 277,163.5 209.6,204.1 
				281.2,162.8 211.7,204.1 283.5,162.7 215.3,204.1 311.7,148.5 219.1,204.1 279.8,169.1 222.8,204.1 312.4,152.4 226.6,204.1 
				278.4,174.2 230.2,204.1 311.5,157.2 233.5,204.1 313.6,157.8 236.1,204.1 314.9,158.6 240.1,204.1 312.8,162.1 243.6,204.1 
				314.7,163.1 246,204.1 309.1,167.7 249,204.1 311.1,168.3 251.9,204.1 313.3,168.6 254.3,204.1 315.1,169 257.1,204.1 
				317.6,169.2 260.1,204.1 321.4,168.7 262.2,204.1 324,168.4 265.9,204.1 327.7,168.4 269.3,204.1 314.2,178.2 273.2,204.1 
				334.1,168.9 275.2,204.1 354.6,158.3 279.1,204.1 339.9,169 282,204.1 315.8,184.6 284.9,204.1 317.8,185.1 288.5,204.1 
				354.1,166.3 292.1,204.1 355.9,167.3 296.1,204.1 369.5,161.7 298.8,204.1 381.1,156.6 302.3,204.1 378,160.4 305.1,204.1 
				376.6,162.9 307.2,204.1 377.8,163.3 310.1,204.1 381,163.2 314,204.1 384.1,163.6 316.9,204.1 377.8,169 320.2,204.1 
				380.6,169.3 324.1,204.1 392.1,164.8 326.7,204.1 394.1,165.2 329,204.1 387.1,170.6 331.1,204.1 388.1,171.2 333.2,204.1 
				389,171.9 335.5,204.1 390.5,172.3 338.9,204.1 392.9,172.9 341.1,204.1 410.2,164.2 344.6,204.1 413.7,164.2 347.6,204.1 
				419,162.9 350.2,204.1 419.5,164.1 353,204.1 397.3,178.5 356.6,204.1 399.1,179.6 360.1,204.1 400.6,180.7 363.3,204.1 
				402.4,181.5 366.5,204.1 395.1,187.6 369,204.1 395,189.1 372.6,204.1 412.7,181 374.8,204.1 414.1,181.4 378.2,204.1 
				420.1,179.9 381.2,204.1 422,180.6 384.4,204.1 428.7,178.5 386.4,204.1 430.9,178.4 388.9,204.1 412.4,190.5 391.7,204.1 
				400,199.3 395,204.1 400.6,200.9 398.6,204.1 411.8,196.5 402.5,204.1 413,198 406.3,204.1 463.4,171.2 408.5,204.1 464.1,172.1 
				411.7,204.1 463.6,174.1 414.5,204.1 464.1,175.5 417.3,204.1 425.7,199.3 420.1,204.1 464.1,178.7 422.9,204.1 463.3,180.8 
				426.4,204.1 464.1,182.3 430,203.8 464.1,184.1 432,204.1 463.8,185.7 435.5,204.1 464.1,187.6 438.5,204.1 464.1,189.3 
				441.6,204.1 463.9,191.2 445.3,204.1 464.1,193.3 449,204.1 464.1,195.4 451.9,204.1 464.1,197.1 454.7,204.1 463.4,199.1 
				456.8,204.1 464.1,199.9 460.6,204.1 461.7,203.5 463.3,204.1 464.1,203.7 			"/>
			<line class="st0" x1="52.8" y1="159.3" x2="54.1" y2="158.6"/>
			<line class="st0" x1="51.2" y1="160.1" x2="51.9" y2="159.8"/>
			<line class="st0" x1="51.9" y1="154.7" x2="52.7" y2="154.2"/>
			<line class="st0" x1="50.9" y1="153.2" x2="52.6" y2="152.2"/>
			<polyline class="st0" points="22.9,164.5 23.1,164.4 22.9,166.5 24.1,165.8 22.9,168.4 25.1,167.1 22.9,170.6 53.1,153.2 
				22.9,172.2 51.9,155.5 22.9,173.8 52.8,156.6 22.9,175.6 52.8,158.3 22.9,176.8 49.6,161.3 23.6,177.7 54.4,159.9 24.6,179 
				54.3,161.8 24.6,180.2 53.5,163.5 			"/>
			<line class="st0" x1="50.9" y1="145" x2="51.5" y2="144.6"/>
			<line class="st0" x1="48.6" y1="145.6" x2="49.9" y2="144.9"/>
			<polyline class="st0" points="27,158.1 47.9,146 27.7,158.9 49.1,146.6 28.8,159.9 51.3,146.9 			"/>
			<line class="st0" x1="47.3" y1="144.1" x2="48.6" y2="143.3"/>
			<polyline class="st0" points="22.8,156.4 23.1,156.2 22.8,158.3 24.5,157.3 22.9,159.7 48.8,144.8 24,161.4 27.5,159.3 25,163 
				50,148.5 24.9,165.1 50.3,150.5 25.9,166.5 50.2,152.5 26.7,167.4 49.9,154 			"/>
			<line class="st0" x1="25.4" y1="157" x2="26.2" y2="156.5"/>
			<polyline class="st0" points="23.6,151.8 24.2,151.5 24,153 25.2,152.4 24.4,154.1 26.1,153.1 25.2,155.4 47.5,142.6 26.8,156.3 
				46.3,145 			"/>
			<line class="st0" x1="46.3" y1="138.5" x2="49.3" y2="136.8"/>
			<line class="st0" x1="48.2" y1="136.5" x2="49" y2="136.1"/>
			<polyline class="st0" points="27.1,148.6 46.2,137.6 29.3,149.1 45,140 			"/>
			<line class="st0" x1="46.3" y1="136.4" x2="47.5" y2="135.7"/>
			<polyline class="st0" points="26.6,145.7 27.2,145.4 27.3,146.7 46.9,135.3 25.8,149.6 26.5,149.2 26,151.3 45,140.3 26.5,152.2 
				49.2,139.1 28.4,152.6 48.4,141 			"/>
			<polyline class="st0" points="27,143 27.6,142.7 29.1,144.1 47.7,133.3 			"/>
			<line class="st0" x1="46.9" y1="130.9" x2="47.5" y2="130.6"/>
			<line class="st0" x1="45.4" y1="130.8" x2="46.3" y2="130.3"/>
			<polyline class="st0" points="26.5,137 27.2,136.6 27.1,138.2 28.3,137.5 27.6,139.7 29.4,138.6 27.8,141.6 44.2,132.1 			"/>
			<line class="st0" x1="45.5" y1="128.5" x2="46.4" y2="128"/>
			<polyline class="st0" points="27.9,134.4 28.5,134 29,135.9 31.1,134.7 29.6,137.1 44.8,128.4 29.9,138.4 46.6,128.8 			"/>
			<line class="st0" x1="44.6" y1="126.4" x2="45.8" y2="125.7"/>
			<polyline class="st0" points="28.9,130.7 29.5,130.3 29.7,131.9 30.6,131.4 29.5,133.4 45.2,124.4 31.8,134.3 43,127.8 			"/>
			<polyline class="st0" points="29.7,128.7 30.2,128.3 30,130 31.1,129.3 30.9,130.7 32.1,130.1 			"/>
			<polyline class="st0" points="30.6,123.5 31.5,123 31.5,124.2 32.3,123.8 31.8,125.3 44.1,118.2 32.7,126.6 43.9,120.1 
				32.7,127.9 44.4,121.2 32.9,129.1 43.8,122.8 			"/>
			<polyline class="st0" points="31.5,120.2 32.1,119.8 32.7,121.6 33.8,120.9 33.2,122.5 42.8,116.9 33.3,123.6 44.3,117.3 			"/>
			<polyline class="st0" points="32.2,117.3 32.8,117 33.4,118.5 42.4,113.3 34.3,120.3 42.6,115.5 			"/>
			<polyline class="st0" points="36.3,109 36.9,108.6 36.2,110.7 39,109.1 35.3,113.3 40.9,110.1 37.1,114.6 41.7,111.9 			"/>
			<polyline class="st0" points="38,105.7 38.7,105.3 38,107.1 38.7,106.7 38.1,108.8 38.9,108.4 			"/>
		</g>
	</g>
</g>
</svg>
