<?xml version="1.0" encoding="UTF-8" standalone="no"?>
<svg
   data-name="Layer 1"
   viewBox="-3.2 -6.4 70.4 69.999999"
   x="0px"
   y="0px"
   version="1.1"
   id="svg5"
   sodipodi:docname="noun-santa-6377217.svg"
   width="70.400002"
   height="70"
   inkscape:version="1.3.2 (091e20e, 2023-11-25)"
   xmlns:inkscape="http://www.inkscape.org/namespaces/inkscape"
   xmlns:sodipodi="http://sodipodi.sourceforge.net/DTD/sodipodi-0.dtd"
   xmlns="http://www.w3.org/2000/svg"
   xmlns:svg="http://www.w3.org/2000/svg"
   xmlns:rdf="http://www.w3.org/1999/02/22-rdf-syntax-ns#"
   xmlns:cc="http://creativecommons.org/ns#"
   xmlns:dc="http://purl.org/dc/elements/1.1/">
  <defs
     id="defs5" />
  <sodipodi:namedview
     id="namedview5"
     pagecolor="#ffffff"
     bordercolor="#666666"
     borderopacity="1.0"
     inkscape:showpageshadow="2"
     inkscape:pageopacity="0.0"
     inkscape:pagecheckerboard="0"
     inkscape:deskcolor="#d1d1d1"
     inkscape:zoom="2.7314814"
     inkscape:cx="5.1254238"
     inkscape:cy="43.200001"
     inkscape:window-width="1224"
     inkscape:window-height="412"
     inkscape:window-x="217"
     inkscape:window-y="25"
     inkscape:window-maximized="0"
     inkscape:current-layer="svg5" />
  <title
     id="title1">CHRIS</title>
  <path
     d="M 52.949437,26.4815 A 4.98292,4.98292 0 0 0 53.409087,24.42766 A 5.45081,5.45081 0 0 0 52.216277,21.15813 C 52.213837,18.01079 50.262427,14.91527 48.353427,12.30266 A 23.33805,23.33805 0 0 0 43.066077,6.8349496 C 44.725677,6.5428396 46.446567,6.3151796 47.733857,6.1628896 A 3.38852,3.38852 0 1 0 48.082857,3.8267696 C 43.784337,1.7144696 34.240387,-2.0001304 26.239167,1.8514896 A 27.57915,27.57915 0 0 0 11.477567,20.95623 A 5.551,5.551 0 0 0 10.125887,24.42766 A 5.41607,5.41607 0 0 0 11.329317,27.70312 C 11.312777,27.74694 11.299537,27.79192 11.283237,27.83581 C 11.266937,27.86919 11.243077,27.90093 11.227447,27.9345 L 11.245947,27.94311 A 21.3021,21.3021 0 0 0 10.019437,33.497 C 8.5155366,51.76751 31.456937,57.248 31.688387,57.30071 A 0.48913,0.48913 0 0 0 31.800687,57.31341 A 0.49678,0.49678 0 0 0 31.942297,57.2929 A 42.78775,42.78775 0 0 0 46.758697,49.01946 A 0.49984,0.49984 0 1 0 46.086827,48.27923 A 42.51737,42.51737 0 0 1 31.785067,56.29485 C 29.969637,55.83585 9.6395566,50.30462 11.015537,33.57903 A 20.29715,20.29715 0 0 1 12.201017,28.23894 C 13.114837,26.40356 15.317907,24.79778 18.351017,23.57958 A 9.70279,9.70279 0 0 0 17.767457,26.88567 C 17.767457,29.69036 18.066287,32.81341 20.279177,34.70794 C 22.602417,36.69524 26.156127,37.05657 29.791877,35.66888 C 29.904177,35.62688 30.092657,35.53899 30.321167,35.43255 A 9.13205,9.13205 0 0 1 31.973517,34.77337 L 31.979377,34.77437 L 32.723517,35.04098 A 20.49541,20.49541 0 0 0 39.386597,36.62887 A 6.72971,6.72971 0 0 0 44.589727,34.37787 C 46.329957,32.48334 46.570197,29.65717 46.570197,26.88568 A 9.70143,9.70143 0 0 0 45.908567,23.39917 A 16.93613,16.93613 0 0 1 52.073057,27.01611 A 21.19648,21.19648 0 0 1 53.243057,32.86611 A 18.69973,18.69973 0 0 1 48.480357,46.35537 A 0.50017292,0.50017292 0 0 0 49.242077,47.00381 A 19.66934,19.66934 0 0 0 54.241077,32.81142 A 22.2327,22.2327 0 0 0 52.949437,26.4815 Z M 50.990147,3.0760996 A 2.3709,2.3709 0 1 1 48.712557,5.9587796 L 48.655127,5.4368696 A 2.35526,2.35526 0 0 1 50.990147,3.0760996 Z M 11.920257,26.812 A 4.29349,4.29349 0 0 1 11.125887,24.42766 C 11.125887,19.61224 20.579017,15.54388 31.767487,15.54388 C 43.149327,15.54388 52.409087,19.52923 52.409087,24.42766 A 3.913,3.913 0 0 1 52.156087,25.72234 C 48.313377,22.41143 40.478537,20.15325 32.574177,20.15325 C 23.014497,20.15325 14.863737,22.84142 11.920257,26.812 Z M 44.776257,23.245 A 8.78277,8.78277 0 0 1 45.570257,26.88562 C 45.570257,29.27918 45.437437,31.97742 43.853457,33.70203 C 40.893457,36.92078 36.732367,35.42273 33.062457,34.09949 L 32.313457,33.83094 C 31.863257,33.67664 31.176737,33.92859 29.897457,34.52625 C 29.698247,34.62 29.533207,34.69812 29.436527,34.73525 C 26.148437,35.98725 22.968747,35.69325 20.929687,33.94814 C 19.024417,32.31826 18.767577,29.46279 18.767577,26.88564 A 8.774,8.774 0 0 1 19.628577,23.10537 A 40.98724,40.98724 0 0 1 32.574257,21.15322 A 40.41534,40.41534 0 0 1 44.741257,22.99514 A 0.48537,0.48537 0 0 0 44.776277,23.24505 Z"
     id="path1" />
  <path
     d="M 36.04071,42.08944 C 36.04071,43.17444 34.50653,44.09139 32.6911,44.09139 C 30.87567,44.09139 29.34149,43.17439 29.34149,42.08944 A 0.5,0.5 0 0 0 28.34149,42.08944 C 28.34149,43.77303 30.25164,45.09139 32.6911,45.09139 C 35.13056,45.09139 37.04071,43.77303 37.04071,42.08944 A 0.5,0.5 0 0 0 36.04071,42.08944 Z"
     id="path2" />
  <path
     d="M 38.84442,29.26815 A 2.91024,2.91024 0 0 0 36.695,29.93807 A 0.50052176,0.50052176 0 0 0 37.33758,30.70565 A 1.90019,1.90019 0 0 1 38.75067,30.26424 A 1.92187,1.92187 0 0 1 40.06317,30.96542 A 0.49967,0.49967 0 0 0 40.83661,30.3326 A 2.91088,2.91088 0 0 0 38.84442,29.26815 Z"
     id="path3" />
  <path
     d="M 27.80047,28.86483 A 2.92321,2.92321 0 0 0 25.65106,29.53378 A 0.49989,0.49989 0 1 0 26.29168,30.30135 A 1.9238,1.9238 0 0 1 29.01825,30.56112 A 0.4996605,0.4996605 0 0 0 29.79168,29.92831 A 2.91338,2.91338 0 0 0 27.80047,28.86483 Z"
     id="path4" />
  <metadata
     id="metadata5">
    <rdf:RDF>
      <cc:Work
         rdf:about="">
        <dc:title>CHRIS</dc:title>
      </cc:Work>
    </rdf:RDF>
  </metadata>
</svg>
