<?xml version="1.0" encoding="UTF-8" standalone="no"?>
<svg
   version="1.1"
   viewBox="-5 -10 110 110"
   id="svg2"
   sodipodi:docname="noun-page-7198951.svg"
   width="110"
   height="110"
   inkscape:version="1.3.2 (091e20e, 2023-11-25)"
   xmlns:inkscape="http://www.inkscape.org/namespaces/inkscape"
   xmlns:sodipodi="http://sodipodi.sourceforge.net/DTD/sodipodi-0.dtd"
   xmlns="http://www.w3.org/2000/svg"
   xmlns:svg="http://www.w3.org/2000/svg">
  <defs
     id="defs2" />
  <sodipodi:namedview
     id="namedview2"
     pagecolor="#ffffff"
     bordercolor="#666666"
     borderopacity="1.0"
     inkscape:showpageshadow="2"
     inkscape:pageopacity="0.0"
     inkscape:pagecheckerboard="0"
     inkscape:deskcolor="#d1d1d1"
     inkscape:zoom="2.0214038"
     inkscape:cx="62.332919"
     inkscape:cy="48.48116"
     inkscape:window-width="1224"
     inkscape:window-height="412"
     inkscape:window-x="217"
     inkscape:window-y="25"
     inkscape:window-maximized="0"
     inkscape:current-layer="svg2" />
  <path
     d="M 3.125,12.5 V 87.5 H 96.875 V 12.5 Z M 43.75,18.75 C 45.4766,18.75 46.875,20.1484 46.875,21.875 C 46.875,23.6016 45.4766,25 43.75,25 C 42.0234,25 40.625,23.6016 40.625,21.875 C 40.625,20.1484 42.0234,18.75 43.75,18.75 Z M 31.25,18.75 C 32.9766,18.75 34.375,20.1484 34.375,21.875 C 34.375,23.6016 32.9766,25 31.25,25 C 29.5234,25 28.125,23.6016 28.125,21.875 C 28.125,20.1484 29.5234,18.75 31.25,18.75 Z M 18.75,18.75 C 20.4766,18.75 21.875,20.1484 21.875,21.875 C 21.875,23.6016 20.4766,25 18.75,25 C 17.0234,25 15.625,23.6016 15.625,21.875 C 15.625,20.1484 17.0234,18.75 18.75,18.75 Z M 93.75,84.375 H 6.25 V 31.25 H 64.641 L 75.579,23.4375 H 93.751 Z"
     id="path1"
     sodipodi:nodetypes="cccccsssssssssssssssccccccc" />
</svg>
