<?xml version="1.0" encoding="UTF-8" standalone="no"?>
<svg
   viewBox="0 0 32 32"
   version="1.1"
   xml:space="preserve"
   x="0px"
   y="0px"
   fill-rule="evenodd"
   clip-rule="evenodd"
   stroke-linejoin="round"
   stroke-miterlimit="2"
   id="svg2"
   sodipodi:docname="noun-panorama-6422517a.svg"
   width="32"
   height="32"
   inkscape:version="1.3.2 (091e20e, 2023-11-25)"
   xmlns:inkscape="http://www.inkscape.org/namespaces/inkscape"
   xmlns:sodipodi="http://sodipodi.sourceforge.net/DTD/sodipodi-0.dtd"
   xmlns="http://www.w3.org/2000/svg"
   xmlns:svg="http://www.w3.org/2000/svg"><defs
     id="defs2" /><sodipodi:namedview
     id="namedview2"
     pagecolor="#ffffff"
     bordercolor="#666666"
     borderopacity="1.0"
     inkscape:showpageshadow="2"
     inkscape:pageopacity="0.0"
     inkscape:pagecheckerboard="0"
     inkscape:deskcolor="#d1d1d1"
     inkscape:zoom="5.9"
     inkscape:cx="15.59322"
     inkscape:cy="18.983051"
     inkscape:window-width="1208"
     inkscape:window-height="754"
     inkscape:window-x="217"
     inkscape:window-y="25"
     inkscape:window-maximized="0"
     inkscape:current-layer="svg2" /><g
     transform="translate(-342.073,-0.237985)"
     id="g1"
     style="fill:#38bed6;fill-opacity:1"><path
       d="M 372.573,7.194 C 372.573,7.043 372.506,6.901 372.389,6.806 C 372.272,6.711 372.119,6.674 371.972,6.704 C 362.708,8.631 353.445,8.749 344.181,6.706 C 344.033,6.673 343.878,6.709 343.76,6.804 C 343.642,6.899 343.573,7.042 343.573,7.194 V 25.282 C 343.573,25.436 343.644,25.581 343.766,25.676 C 343.887,25.771 344.045,25.804 344.194,25.767 C 353.447,23.459 362.699,23.449 371.952,25.767 C 372.101,25.804 372.26,25.771 372.381,25.676 C 372.502,25.581 372.573,25.436 372.573,25.282 Z M 360.743,23.094 L 353.735,16.789 C 353.075,16.194 352.072,16.194 351.411,16.789 L 344.573,22.941 V 24.645 C 349.964,23.359 355.354,22.841 360.743,23.094 Z M 371.573,22.941 L 364.736,16.789 C 364.075,16.194 363.072,16.194 362.411,16.789 L 358.821,20.02 L 362.347,23.193 C 365.423,23.425 368.498,23.909 371.573,24.645 Z M 371.573,21.596 V 7.806 V 7.806 C 362.573,9.602 353.573,9.708 344.573,7.813 C 344.573,7.813 344.573,16.744 344.573,21.596 L 350.742,16.046 C 351.783,15.109 353.363,15.109 354.404,16.046 L 358.073,19.347 L 361.742,16.046 C 362.784,15.109 364.364,15.109 365.405,16.046 Z M 358.073,11.728 C 356.793,11.728 355.754,12.767 355.754,14.047 C 355.754,15.327 356.793,16.367 358.073,16.367 C 359.354,16.367 360.393,15.327 360.393,14.047 C 360.393,12.767 359.354,11.728 358.073,11.728 Z M 358.073,12.728 C 358.802,12.728 359.393,13.319 359.393,14.047 C 359.393,14.775 358.802,15.367 358.073,15.367 C 357.345,15.367 356.754,14.775 356.754,14.047 C 356.754,13.319 357.345,12.728 358.073,12.728 Z"
       id="path1"
       style="fill:#38bed6;fill-opacity:1" /></g></svg>
