<?xml version="1.0" encoding="UTF-8" standalone="no"?>
<svg
   version="1.1"
   viewBox="-5 -10 110 110"
   id="svg2"
   sodipodi:docname="noun-gyroscope-6968546.svg"
   width="110"
   height="110"
   inkscape:version="1.3.2 (091e20e, 2023-11-25)"
   xmlns:inkscape="http://www.inkscape.org/namespaces/inkscape"
   xmlns:sodipodi="http://sodipodi.sourceforge.net/DTD/sodipodi-0.dtd"
   xmlns="http://www.w3.org/2000/svg"
   xmlns:svg="http://www.w3.org/2000/svg">
  <defs
     id="defs2" />
  <sodipodi:namedview
     id="namedview2"
     pagecolor="#ffffff"
     bordercolor="#666666"
     borderopacity="1.0"
     inkscape:showpageshadow="2"
     inkscape:pageopacity="0.0"
     inkscape:pagecheckerboard="0"
     inkscape:deskcolor="#d1d1d1"
     inkscape:zoom="1.7481481"
     inkscape:cx="54.915254"
     inkscape:cy="67.5"
     inkscape:window-width="1224"
     inkscape:window-height="412"
     inkscape:window-x="217"
     inkscape:window-y="25"
     inkscape:window-maximized="0"
     inkscape:current-layer="svg2" />
  <path
     d="M 59.689966,81.601695 C 63.529766,83.339995 67.588366,84.793095 72.068966,85.429795 C 74.307266,85.730575 76.658766,85.839955 79.127566,85.398545 C 81.568966,84.976665 84.205666,83.937645 86.256466,82.000145 C 88.428366,80.031345 89.744766,77.269645 90.236966,74.711045 C 90.768216,72.121245 90.705716,69.632945 90.385406,67.289145 C 89.713526,62.609445 88.166606,58.378945 86.307306,54.398145 C 84.717506,51.046545 82.885406,47.878645 80.897106,44.827845 C 82.998706,41.577845 84.908806,38.187245 86.557306,34.616845 C 88.295606,30.777045 89.748706,26.718445 90.385406,22.237845 C 90.686186,19.999545 90.795566,17.648045 90.354156,15.179245 C 89.932276,12.737845 88.885356,10.101145 86.955756,8.0503449 C 84.986956,5.8784449 82.225256,4.5620449 79.666656,4.0698449 C 77.076856,3.5385949 74.588556,3.6010949 72.244756,3.9214049 C 67.565056,4.5932849 63.334556,6.1323049 59.353756,7.9995049 C 55.955356,9.6089049 52.724856,11.480005 49.623256,13.511205 C 47.064656,11.819805 44.412356,10.249505 41.634956,8.8510049 C 37.724756,6.8705049 33.576356,5.2104049 29.032956,4.2729049 C 26.103256,3.6439949 22.013456,3.1010049 18.552956,4.2924359 C 16.853756,4.8510259 15.431856,5.8432359 14.732656,6.8822359 C 14.002186,7.9017359 13.982656,8.8939359 14.552966,9.5814359 C 15.193586,10.350966 16.013866,10.503316 16.834166,10.421276 C 17.674006,10.362683 18.595866,10.093156 19.693566,9.8509659 C 21.841966,9.3197159 24.974766,9.1908059 27.365466,9.6517459 C 31.095966,10.362686 34.763866,11.823646 38.287466,13.550146 C 40.428066,14.608746 42.506266,15.811846 44.549166,17.081346 C 42.260066,18.811846 40.037466,20.620446 37.888966,22.503246 C 32.388966,27.382146 27.318966,32.733246 22.810966,38.573246 C 20.580466,34.631846 18.732866,30.542046 17.541466,26.382246 C 16.592246,23.054146 16.053166,19.022846 16.119566,16.370246 C 16.119566,15.010846 16.170348,13.928846 16.088316,12.870246 C 15.978936,11.819446 15.799256,10.780446 14.869516,9.9093459 C 14.150766,9.2374659 12.978916,9.2296559 11.740616,10.159346 C 10.502316,11.057786 9.3109161,12.889846 8.7406161,15.049946 C 8.1390561,17.210146 8.0804561,19.628046 8.3499961,21.878046 C 8.6117161,24.139746 9.1703061,26.268646 9.7405961,28.096846 C 11.029696,32.276546 12.849996,36.128046 14.900796,39.787846 C 15.931996,41.608146 17.021896,43.377646 18.170296,45.096446 C 16.592196,47.518346 15.119496,50.026146 13.799196,52.635546 C 11.818696,56.545746 10.158596,60.694146 9.2210961,65.237546 C 8.5921861,68.167246 8.0491961,72.257046 9.2406271,75.717546 C 9.7992171,77.416746 10.791427,78.838646 11.830427,79.537846 C 12.849927,80.268316 13.842127,80.287846 14.529627,79.717536 C 15.299157,79.076906 15.451507,78.256636 15.369467,77.436336 C 15.299155,76.596496 15.041347,75.674636 14.799157,74.576936 C 14.267907,72.428536 14.138997,69.295736 14.599937,66.905036 C 15.310877,63.174536 16.771837,59.506636 18.498337,55.983036 C 19.486617,53.983036 20.599937,52.041636 21.767837,50.131436 C 21.779555,50.143155 21.787368,50.162686 21.799087,50.170498 C 26.838187,56.740798 32.569087,62.690498 38.850087,68.010498 C 40.299287,69.240998 41.791487,70.420698 43.299287,71.580798 C 39.420387,73.760498 35.408687,75.561298 31.330287,76.729198 C 28.002187,77.678418 23.970887,78.217498 21.318287,78.151098 C 19.958887,78.151098 18.869087,78.100317 17.818287,78.182348 C 16.767487,78.291728 15.728487,78.471408 14.857387,79.401148 C 14.185507,80.119898 14.177697,81.291748 15.107387,82.530048 C 16.005827,83.768348 17.837887,84.959748 19.997987,85.530048 C 22.158187,86.131608 24.576087,86.190208 26.826087,85.920668 C 29.087787,85.658948 31.216687,85.100358 33.044887,84.530068 C 37.224587,83.240968 41.076087,81.428468 44.735887,79.369868 C 46.505387,78.369868 48.216387,77.311268 49.896087,76.197968 C 53.005487,78.186268 56.255487,80.006568 59.665587,81.576868 Z M 80.138966,54.871695 C 81.928066,58.371695 83.439766,62.020095 84.287366,65.742695 C 84.709246,67.594295 84.935806,69.461495 84.888926,71.254395 C 84.838144,73.043495 84.478766,74.754395 83.689726,76.113795 C 82.178026,78.894995 78.830326,80.094295 75.170226,79.894995 C 71.521826,79.754375 67.760026,78.605895 64.182226,77.105895 C 61.111926,75.785595 58.143126,74.183995 55.272026,72.394995 C 61.791526,67.375495 67.702026,61.683995 72.991026,55.433995 C 74.491026,53.652795 75.940226,51.824595 77.342626,49.945695 C 78.330906,51.555095 79.272326,53.195695 80.143426,54.867595 Z M 59.826966,14.172695 C 63.326966,12.383595 66.975366,10.871895 70.697966,10.024295 C 72.549566,9.6024149 74.416766,9.3758549 76.209666,9.4227349 C 77.998766,9.4735169 79.697966,9.8328949 81.069066,10.621935 C 83.850266,12.133635 85.049566,15.481335 84.850266,19.141435 C 84.709646,22.789835 83.561166,26.551635 82.061166,30.129435 C 80.682266,33.348235 78.990866,36.449735 77.092366,39.449735 C 75.400966,37.219235 73.631466,35.051335 71.791566,32.949735 C 66.619666,27.129435 60.939566,21.789735 54.689566,17.090735 C 56.369266,16.051635 58.080166,15.071235 59.818466,14.168835 Z M 44.338966,64.313695 C 38.327266,59.122295 32.858966,53.262695 28.190966,46.891695 C 27.460496,45.891695 26.761266,44.872195 26.069866,43.852595 C 30.319866,38.122095 35.179266,32.813595 40.460866,27.981595 C 43.382766,25.333195 46.429666,22.821395 49.609266,20.512795 C 55.660066,24.911195 61.257266,29.981595 66.320266,35.524795 C 68.910066,38.376395 71.371066,41.364595 73.628866,44.473995 C 72.230466,46.364595 70.769466,48.204495 69.249966,49.985695 C 64.058566,55.997395 58.198966,61.465695 51.827966,66.133695 C 50.898276,66.805575 49.956866,67.461795 49.007666,68.102495 C 47.406066,66.891595 45.847466,65.621995 44.327966,64.321295 Z"
     id="path1" />
</svg>
