<?xml version="1.0" encoding="UTF-8" standalone="no"?>
<svg
   viewBox="0 0 256 256"
   version="1.1"
   x="0px"
   y="0px"
   id="svg2"
   sodipodi:docname="noun-sun-2242211a.svg"
   width="256"
   height="256"
   inkscape:version="1.3.2 (091e20e, 2023-11-25)"
   xmlns:inkscape="http://www.inkscape.org/namespaces/inkscape"
   xmlns:sodipodi="http://sodipodi.sourceforge.net/DTD/sodipodi-0.dtd"
   xmlns="http://www.w3.org/2000/svg"
   xmlns:svg="http://www.w3.org/2000/svg">
  <defs
     id="defs2" />
  <sodipodi:namedview
     id="namedview2"
     pagecolor="#ffffff"
     bordercolor="#666666"
     borderopacity="1.0"
     inkscape:showpageshadow="2"
     inkscape:pageopacity="0.0"
     inkscape:pagecheckerboard="0"
     inkscape:deskcolor="#d1d1d1"
     inkscape:zoom="0.7375"
     inkscape:cx="127.45763"
     inkscape:cy="160"
     inkscape:window-width="1224"
     inkscape:window-height="412"
     inkscape:window-x="217"
     inkscape:window-y="25"
     inkscape:window-maximized="0"
     inkscape:current-layer="svg2" />
  <g
     id="g1"
     transform="matrix(0.89622271,0,0,0.89622271,12.712953,13.954973)"
     style="stroke-width:1.11579;fill:#e48c1d;fill-opacity:1">
    <path
       d="M 128.92773,3.8125 L 115.07227,28.0625 L 143,27.9375 Z M 82.441406,12.888672 L 78.480469,40.535156 L 104.4043,30.146484 Z M 177.34961,13.601562 L 155.13281,30.527344 L 180.89648,41.304688 Z M 129.03516,31.9375 A 96,96 0 0 0 33.035156,127.9375 A 96,96 0 0 0 129.03516,223.9375 A 96,96 0 0 0 225.03516,127.9375 A 96,96 0 0 0 129.03516,31.9375 Z M 216.66797,40.03125 L 189.72852,47.400391 L 209.57812,67.046875 Z M 41.259766,40.173828 L 48.394531,67.175781 L 68.212891,47.498047 Z M 42.505859,76.146484 L 14.771484,79.453125 L 31.501953,101.81641 Z M 216.33398,77.451172 L 226.94922,103.2832 L 244.01367,81.171875 Z M 228.9082,113.94922 L 229.03906,141.87695 L 253.16016,127.79883 Z M 29.158203,113.99802 L 4.9101562,127.85935 L 29.039062,141.92575 Z M 31.238281,152.54685 L 13.976563,174.50192 L 41.621094,178.47263 Z M 226.45508,154.00974 L 215.68164,179.77731 L 243.38477,176.22263 Z M 209.58984,188.6113 L 189.94727,208.46677 L 216.96289,215.5488 Z M 48.582031,188.74219 L 41.25,215.69141 L 68.253906,208.56445 Z M 77.224609,214.45703 L 80.523438,242.18945 L 102.89063,225.46484 Z M 179.54492,215.22461 L 153.71484,225.8457 L 175.82812,242.9043 Z M 115.07227,227.8125 L 128.92773,252.0625 L 143,227.9375 Z"
       fill="black"
       stroke="none"
       id="path1"
       style="stroke-width:1.11579;fill:#e48c1d;fill-opacity:1" />
  </g>
</svg>
