<?xml version="1.0" encoding="UTF-8" standalone="no"?>
<svg
   version="1.1"
   viewBox="-5 -10 110 110"
   id="svg8"
   sodipodi:docname="noun-aperture-6806225a.svg"
   width="110"
   height="110"
   inkscape:version="1.3.2 (091e20e, 2023-11-25)"
   xmlns:inkscape="http://www.inkscape.org/namespaces/inkscape"
   xmlns:sodipodi="http://sodipodi.sourceforge.net/DTD/sodipodi-0.dtd"
   xmlns="http://www.w3.org/2000/svg"
   xmlns:svg="http://www.w3.org/2000/svg">
  <defs
     id="defs8" />
  <sodipodi:namedview
     id="namedview8"
     pagecolor="#ffffff"
     bordercolor="#666666"
     borderopacity="1.0"
     inkscape:showpageshadow="2"
     inkscape:pageopacity="0.0"
     inkscape:pagecheckerboard="0"
     inkscape:deskcolor="#d1d1d1"
     inkscape:zoom="1.7481481"
     inkscape:cx="45.762713"
     inkscape:cy="51.769069"
     inkscape:window-width="1224"
     inkscape:window-height="705"
     inkscape:window-x="217"
     inkscape:window-y="25"
     inkscape:window-maximized="0"
     inkscape:current-layer="svg8" />
  <g
     id="g7"
     transform="translate(0,-5.1483051)"
     style="fill:#38bed6;fill-opacity:1">
    <path
       d="M 50.031,100 C 28.656,100 8.828,86.172 2.219,64.719 C -1.7185,51.953 -0.4372,38.422 5.8128,26.625 C 12.0628,14.828 22.5318,6.156 35.2818,2.219 C 61.6258,-5.8904 89.6568,8.9378 97.7818,35.281 C 101.7193,48.047 100.438,61.578 94.188,73.375 C 87.938,85.172 77.469,93.844 64.719,97.781 C 59.8284,99.281 54.8909,99.9998 50.031,99.9998 Z M 50.06225,3.016 C 45.42165,3.016 40.74975,3.71912 36.18725,5.1254 C 24.18725,8.8129 14.35925,16.9534 8.48425,28.0314 C 2.62485,39.1254 1.42175,51.8284 5.10925,63.8124 C 8.79675,75.7964 16.93725,85.6404 28.03125,91.5004 C 39.12525,97.3604 51.82825,98.5629 63.81225,94.8754 C 75.79625,91.1879 85.64025,83.0474 91.50025,71.9534 C 97.36025,60.8594 98.56275,48.1564 94.87525,36.1724 C 91.18775,24.1884 83.04725,14.3444 71.95325,8.4844 C 65.09385,4.8594 57.60925,3.0156 50.06225,3.0156 Z"
       id="path1"
       style="fill:#38bed6;fill-opacity:1" />
    <path
       d="M 98.359,48.016 C 98.24962,48.016 98.12462,48.000375 98.01525,47.969125 L 50.40625,36.969125 C 49.59375,36.781625 49.07815,35.969125 49.26565,35.156625 C 49.45315,34.344125 50.26565,33.828525 51.07815,34.016025 L 98.68715,45.016025 C 99.49965,45.203525 100.01525,46.016025 99.82775,46.828525 C 99.6715,47.547275 99.0465,48.016025 98.35895,48.016025 Z"
       id="path2"
       style="fill:#38bed6;fill-opacity:1" />
    <path
       d="M 34.219,47.312 C 33.85962,47.312 33.50025,47.187 33.219,46.937 C 32.594,46.39012 32.5315,45.4214 33.07838,44.7964 L 68.32838,4.6084 C 68.87526,3.9834 69.84398,3.9209 70.46898,4.46778 C 71.09398,5.01466 71.15648,5.98338 70.6096,6.60838 L 35.3596,46.79638 C 35.0471,47.14013 34.64085,47.312 34.219,47.312 Z"
       id="path3"
       style="fill:#38bed6;fill-opacity:1" />
    <path
       d="M 32.906,60.406 C 32.26538,60.406 31.656,59.98412 31.4529,59.3435 L 17.3119,13.3595 C 17.0619,12.56262 17.51502,11.7189 18.3119,11.4689 C 19.10878,11.2189 19.9525,11.67202 20.2025,12.4689 L 34.3585,58.4379 C 34.6085,59.23478 34.15538,60.0785 33.3585,60.3285 C 33.20225,60.375375 33.06162,60.406625 32.90538,60.406625 Z"
       id="path4"
       style="fill:#38bed6;fill-opacity:1" />
    <path
       d="M 30.688,95.984 C 30.32862,95.984 29.96925,95.859 29.688,95.59338 C 29.063,95.03088 29.01612,94.07778 29.563,93.45278 L 61.032,58.15578 C 61.5945,57.53078 62.5476,57.46828 63.1726,58.03078 C 63.7976,58.59328 63.84448,59.54638 63.2976,60.17138 L 31.8136,95.46838 C 31.51672,95.81213 31.09485,95.984 30.6886,95.984 Z"
       id="path5"
       style="fill:#38bed6;fill-opacity:1" />
    <path
       d="M 77.984,91.109 C 77.34338,91.109 76.734,90.68712 76.5309,90.0465 L 62.5619,44.6875 C 62.3119,43.89062 62.76502,43.0469 63.5619,42.7969 C 64.35878,42.5469 65.2025,43.00002 65.4525,43.7969 L 79.4215,89.1559 C 79.6715,89.95278 79.21838,90.7965 78.4215,91.0465 C 78.28088,91.093375 78.12462,91.109 77.984,91.109 Z"
       id="path6"
       style="fill:#38bed6;fill-opacity:1" />
    <path
       d="M 46.812,69.484 C 46.687,69.484 46.57762,69.468375 46.45262,69.437125 L 1.70262,58.687125 C 0.89012,58.484005 0.39012,57.671525 0.57762,56.859025 C 0.76512,56.046525 1.59322,55.546525 2.40572,55.734025 L 47.17172,66.484025 C 47.98422,66.687145 48.48422,67.499625 48.29672,68.312125 C 48.12484,69.015245 47.49984,69.484025 46.81232,69.484025 Z"
       id="path7"
       style="fill:#38bed6;fill-opacity:1" />
  </g>
</svg>
