<?xml version="1.0" encoding="UTF-8" standalone="no"?>
<svg
   version="1.1"
   viewBox="-5 -10 110 110"
   id="svg2"
   sodipodi:docname="noun-postcard-6986028.svg"
   width="110"
   height="110"
   inkscape:version="1.3.2 (091e20e, 2023-11-25)"
   xmlns:inkscape="http://www.inkscape.org/namespaces/inkscape"
   xmlns:sodipodi="http://sodipodi.sourceforge.net/DTD/sodipodi-0.dtd"
   xmlns="http://www.w3.org/2000/svg"
   xmlns:svg="http://www.w3.org/2000/svg">
  <defs
     id="defs2" />
  <sodipodi:namedview
     id="namedview2"
     pagecolor="#ffffff"
     bordercolor="#666666"
     borderopacity="1.0"
     inkscape:showpageshadow="2"
     inkscape:pageopacity="0.0"
     inkscape:pagecheckerboard="0"
     inkscape:deskcolor="#d1d1d1"
     inkscape:zoom="5.0529397"
     inkscape:cx="71.641465"
     inkscape:cy="73.026797"
     inkscape:window-width="1224"
     inkscape:window-height="720"
     inkscape:window-x="217"
     inkscape:window-y="25"
     inkscape:window-maximized="0"
     inkscape:current-layer="svg2" />
  <path
     d="M 56.963034,13.802661 H 91.811034 L 91.010254,9.958861 C 90.814944,9.115111 90.299314,8.419761 89.619654,7.974461 C 88.939964,7.529151 88.092354,7.333841 87.240754,7.493991 L 56.959754,13.802591 Z M 44.182034,74.755661 H 9.3340339 L 10.134814,78.599461 C 10.330124,79.443211 10.845754,80.138561 11.525414,80.583861 C 12.205104,81.029171 13.052714,81.224481 13.904314,81.064331 L 44.185314,74.755731 Z M 86.975034,26.216661 H 71.967034 V 33.716661 H 86.975034 Z M 70.967034,24.216661 H 87.975034 C 88.525814,24.216661 88.975034,24.665881 88.975034,25.216661 V 34.720561 C 88.975034,35.271341 88.525814,35.720561 87.975034,35.720561 H 70.967034 C 70.416254,35.720561 69.967034,35.271341 69.967034,34.720561 V 25.216661 C 69.967034,24.665881 70.416254,24.216661 70.967034,24.216661 Z M 63.506134,50.384661 C 62.955354,50.384661 62.506134,49.935441 62.506134,49.384661 C 62.506134,48.833881 62.955354,48.384661 63.506134,48.384661 H 87.975134 C 88.525914,48.384661 88.975134,48.833881 88.975134,49.384661 C 88.975134,49.935441 88.525914,50.384661 87.975134,50.384661 Z M 51.010134,59.087761 C 50.459354,59.087761 50.010134,58.638541 50.010134,58.087761 C 50.010134,57.536981 50.459354,57.087761 51.010134,57.087761 H 87.975134 C 88.525914,57.087761 88.975134,57.536981 88.975134,58.087761 C 88.975134,58.638541 88.525914,59.087761 87.975134,59.087761 Z M 94.166934,15.798561 H 6.9759339 C 6.1751539,15.798561 5.4486339,16.126681 4.9251339,16.650121 C 4.3977939,17.177461 4.0696639,17.904021 4.0696639,18.704821 V 69.845821 C 4.0696639,70.646601 4.3977839,71.373121 4.9212239,71.896621 C 5.4485639,72.423961 6.1751239,72.752091 6.9759239,72.752091 H 94.166924 C 94.967704,72.752091 95.694224,72.423971 96.217724,71.900531 C 96.745064,71.373191 97.073194,70.646631 97.073194,69.845831 V 18.704831 C 97.073194,17.904051 96.745074,17.177531 96.221634,16.654031 C 95.694294,16.126691 94.967734,15.798561 94.166934,15.798561 Z"
     id="path1"
     sodipodi:nodetypes="cccsccccccsccccccccssssssssssssssssssssssssscsscsscsscs" />
</svg>
