<?xml version="1.0" encoding="UTF-8" standalone="no"?>
<svg
   version="1.1"
   viewBox="-5 -10 110 110"
   id="svg2"
   sodipodi:docname="noun-network-7086336.svg"
   width="110"
   height="110"
   inkscape:version="1.3.2 (091e20e, 2023-11-25)"
   xmlns:inkscape="http://www.inkscape.org/namespaces/inkscape"
   xmlns:sodipodi="http://sodipodi.sourceforge.net/DTD/sodipodi-0.dtd"
   xmlns="http://www.w3.org/2000/svg"
   xmlns:svg="http://www.w3.org/2000/svg">
  <defs
     id="defs2" />
  <sodipodi:namedview
     id="namedview2"
     pagecolor="#ffffff"
     bordercolor="#666666"
     borderopacity="1.0"
     inkscape:showpageshadow="2"
     inkscape:pageopacity="0.0"
     inkscape:pagecheckerboard="0"
     inkscape:deskcolor="#d1d1d1"
     inkscape:zoom="1.7481481"
     inkscape:cx="54.915254"
     inkscape:cy="67.5"
     inkscape:window-width="1224"
     inkscape:window-height="412"
     inkscape:window-x="217"
     inkscape:window-y="25"
     inkscape:window-maximized="0"
     inkscape:current-layer="svg2" />
  <path
     d="M 11.91,17.758 H 13.9452 L 13.949107,5.735 C 13.949107,5.33656 14.281137,5.00453 14.679577,5.00453 H 32.218577 C 32.617017,5.00453 32.949047,5.33656 32.949047,5.735 V 17.758 H 34.964647 V 19.2853 C 34.964647,20.14858 34.277147,20.8361 33.413847,20.8361 H 13.460847 C 12.621007,20.8361 11.910047,20.1486 11.910047,19.2853 Z M 5.0038,78.145 H 7.039 V 66.145 C 7.039,65.74656 7.37103,65.41453 7.76947,65.41453 H 25.30847 C 25.70691,65.41453 26.03894,65.74656 26.03894,66.145 V 78.149 H 28.05454 V 79.6998 C 28.05454,80.56308 27.36704,81.2506 26.52724,81.2506 L 6.55424,81.246694 C 5.71049,81.246694 5.00344,80.559194 5.00344,79.695894 Z M 9.2772,78.145 H 13.1756 V 78.52391 C 13.1756,78.92235 13.50763,79.25438 13.90607,79.25438 H 19.15607 C 19.55451,79.25438 19.8631,78.92235 19.8631,78.52391 V 78.145 H 23.785 L 23.781094,67.672 H 9.277094 Z M 45.7692,91.899 H 47.8044 L 47.808306,79.895 C 47.808306,79.49656 48.140336,79.16453 48.538776,79.16453 H 66.077776 C 66.476216,79.16453 66.808246,79.49656 66.808246,79.895 V 91.899 H 68.843446 V 93.4498 C 68.843446,94.31308 68.132506,95.0006 67.292646,95.0006 H 47.319646 C 46.479806,95.0006 45.768846,94.3131 45.768846,93.4498 Z M 50.0661,91.899 H 53.9411 V 92.274 C 53.9411,92.67244 54.27313,93.00447 54.67157,93.00447 H 59.92157 C 60.32001,93.00447 60.65204,92.66853 60.65204,92.274 V 91.899 H 64.55044 L 64.546534,81.426 H 50.066534 Z M 71.9451,69.11 H 73.9803 L 73.984206,57.11 C 73.984206,56.71156 74.316236,56.37953 74.714676,56.37953 H 92.253676 C 92.652116,56.37953 92.984146,56.71156 92.984146,57.11 V 69.11 H 94.999746 V 70.6608 C 94.999746,71.50455 94.312246,72.2116 93.472446,72.2116 H 73.495446 C 72.651696,72.2116 71.944646,71.50457 71.944646,70.6608 Z M 76.2185,69.11 H 80.1169 V 69.46547 C 80.1169,69.86391 80.44893,70.19594 80.84737,70.19594 H 86.07397 C 86.49585,70.19594 86.80444,69.86391 86.80444,69.46547 L 86.800533,69.11 H 90.722433 V 58.614 H 76.218433 Z M 71.9451,20.88 H 73.9803 L 73.984206,8.857 C 73.984206,8.45856 74.316236,8.12653 74.714676,8.12653 H 92.253676 C 92.652116,8.12653 92.984146,8.45856 92.984146,8.857 V 20.88 H 94.999746 V 22.4073 C 94.999746,23.27058 94.312246,23.9581 93.472446,23.9581 H 73.495446 C 72.651696,23.9581 71.944646,23.2706 71.944646,22.4073 Z M 76.2185,20.88 H 80.1169 V 21.23547 C 80.1169,21.63391 80.44893,21.96594 80.84737,21.96594 H 86.07397 C 86.49585,21.96594 86.80444,21.63391 86.80444,21.23547 L 86.800533,20.88 H 90.722433 V 10.384 H 76.218433 Z M 40.7415,33.505 C 47.6282,33.505 53.2105,39.0636 53.2105,45.95 C 53.2105,52.8364 47.6285,58.395 40.7415,58.395 C 33.8782,58.395 28.2965,52.8364 28.2965,45.95 C 28.2965,39.0636 33.8785,33.505 40.7415,33.505 Z M 39.636,51.95 C 39.636,51.32891 40.12038,50.8211 40.7415,50.8211 C 41.36259,50.8211 41.8704,51.32891 41.8704,51.95 C 41.8704,52.56719 41.36259,53.0789 40.7415,53.0789 C 40.12431,53.0789 39.636,52.56718 39.636,51.95 Z M 38.90553,49.6922 C 38.41725,50.09064 37.71023,50.02423 37.33133,49.53595 C 36.93289,49.07111 36.9993,48.36015 37.48758,47.96565 C 37.92899,47.59065 38.4407,47.30159 39.01488,47.10237 C 39.54613,46.90315 40.14378,46.78987 40.74148,46.78987 C 41.36257,46.78987 41.93678,46.89925 42.49148,47.10237 C 42.534448,47.10237 42.557886,47.125808 42.60085,47.145339 C 43.10866,47.344559 43.59694,47.610179 44.01885,47.965649 C 44.50713,48.364089 44.57354,49.071149 44.1751,49.535949 C 43.8001,50.024229 43.0892,50.090639 42.6048,49.692199 C 42.36261,49.512509 42.09699,49.336729 41.80792,49.227359 C 41.784482,49.227359 41.764951,49.227359 41.741514,49.203922 C 41.429014,49.094542 41.096984,49.047672 40.745424,49.047672 C 40.413394,49.047672 40.081364,49.090641 39.772764,49.203922 C 39.460264,49.313302 39.147764,49.489082 38.905574,49.692202 Z M 36.82353,46.282 C 36.31572,46.63747 35.60473,46.50466 35.24933,45.99294 C 34.89386,45.48122 35.02667,44.77414 35.53839,44.44214 C 36.2923,43.91089 37.13219,43.48902 38.01889,43.22334 C 38.88217,42.95772 39.81189,42.80146 40.74159,42.80146 C 41.69471,42.80146 42.62439,42.95771 43.48769,43.22334 C 44.37441,43.48896 45.21429,43.91084 45.96819,44.44214 C 46.47991,44.77417 46.58928,45.48124 46.25725,45.99294 C 45.90178,46.50075 45.19475,46.63747 44.68695,46.282 C 44.13226,45.88356 43.49165,45.57106 42.82755,45.37575 C 42.16349,45.15309 41.47595,45.06325 40.74555,45.06325 C 40.03461,45.06325 39.32755,45.153094 38.68695,45.37575 C 38.01898,45.57106 37.37835,45.88356 36.82365,46.282 Z M 34.80793,42.825 C 34.27668,43.18047 33.58913,43.02422 33.23763,42.51641 C 32.9056,41.98516 33.05794,41.29761 33.56966,40.96561 C 34.60876,40.27811 35.76106,39.72731 37.00326,39.37181 C 38.19856,39.01634 39.46026,38.81712 40.74546,38.81712 C 42.05406,38.81712 43.31576,39.01634 44.51106,39.37181 C 45.72986,39.72728 46.90166,40.27806 47.94076,40.96561 C 48.45248,41.29764 48.60482,41.98511 48.27279,42.51641 C 47.91732,43.02422 47.23369,43.18047 46.70249,42.825 C 45.83921,42.27031 44.88609,41.8055 43.86659,41.5164 C 42.89003,41.23124 41.85099,41.07499 40.74549,41.07499 C 39.65959,41.07499 38.62049,41.23124 37.64389,41.5164 C 36.62439,41.80937 35.67119,42.27031 34.80799,42.825 Z M 33.38993,33.2156 L 28.87043,24.7351 C 28.58137,24.20385 28.804024,23.5163 29.33527,23.2273 C 29.88996,22.93824 30.57747,23.137457 30.86257,23.69214 L 35.42507,32.23904 C 34.72195,32.5281 34.03447,32.8406 33.38987,33.2156 Z M 51.48393,35.8953 L 68.66793,24.0903 C 69.17574,23.73483 69.88673,23.86764 70.23823,24.37936 C 70.5937,24.88717 70.46089,25.57466 69.94917,25.93016 L 52.89817,37.66416 C 52.45676,37.04697 51.99192,36.44936 51.48407,35.89466 Z M 54.96053,49.6923 L 71.05853,56.8017 C 71.61322,57.04389 71.87884,57.70795 71.63275,58.2861 C 71.36713,58.84079 70.7265,59.10641 70.14835,58.86032 L 54.22635,51.81732 C 54.53885,51.12982 54.78104,50.42282 54.96073,49.69232 Z M 47.62853,58.9462 L 54.15973,75.3802 C 54.40192,75.95442 54.112855,76.599 53.53864,76.8411 C 52.96442,77.06376 52.31984,76.774694 52.07774,76.19657 L 45.58944,59.83357 C 46.30038,59.59138 46.98784,59.27888 47.62854,58.94685 Z M 31.33153,57.2196 L 26.50343,62.7782 C 26.08155,63.26258 25.37453,63.30945 24.90963,62.91101 C 24.44479,62.48913 24.40182,61.78211 24.80025,61.31721 L 29.71435,55.64921 C 30.20263,56.22343 30.75735,56.73121 31.33155,57.21951 Z M 16.18353,17.7586 H 20.08193 V 18.11407 C 20.08193,18.51251 20.41396,18.84454 20.8124,18.84454 H 26.039 C 26.43744,18.84454 26.76947,18.51251 26.76947,18.11407 V 17.7586 H 30.68747 V 7.2626 H 16.18347 Z"
     fill-rule="evenodd"
     id="path1" />
</svg>
