<?xml version="1.0" encoding="UTF-8" standalone="no"?>
<svg
   version="1.1"
   x="0px"
   y="0px"
   viewBox="0 0 100 100"
   enable-background="new 0 0 100 100"
   xml:space="preserve"
   id="svg14"
   sodipodi:docname="noun-advent-calendar-5342366.svg"
   width="100"
   height="100"
   inkscape:version="1.3.2 (091e20e, 2023-11-25)"
   xmlns:inkscape="http://www.inkscape.org/namespaces/inkscape"
   xmlns:sodipodi="http://sodipodi.sourceforge.net/DTD/sodipodi-0.dtd"
   xmlns="http://www.w3.org/2000/svg"
   xmlns:svg="http://www.w3.org/2000/svg"><defs
     id="defs14" /><sodipodi:namedview
     id="namedview14"
     pagecolor="#ffffff"
     bordercolor="#666666"
     borderopacity="1.0"
     inkscape:showpageshadow="2"
     inkscape:pageopacity="0.0"
     inkscape:pagecheckerboard="0"
     inkscape:deskcolor="#d1d1d1"
     inkscape:zoom="1.888"
     inkscape:cx="49.788136"
     inkscape:cy="62.5"
     inkscape:window-width="1224"
     inkscape:window-height="412"
     inkscape:window-x="217"
     inkscape:window-y="25"
     inkscape:window-maximized="0"
     inkscape:current-layer="svg14" /><g
     id="g13"><path
       d="M 84.468,27.2 H 69.322 L 53.454,11.333 C 52.532,10.41 51.305,9.902 50,9.902 C 48.695,9.902 47.469,10.41 46.546,11.333 L 30.679,27.2 H 15.533 C 12.84,27.2 10.648,29.391 10.648,32.085 V 85.212 C 10.648,87.906 12.839,90.097 15.533,90.097 H 84.468 C 87.161,90.097 89.352,87.906 89.352,85.212 V 32.085 C 89.352,29.392 87.161,27.2 84.468,27.2 Z M 48.932,13.718 C 49.503,13.148 50.498,13.148 51.068,13.718 L 64.55,27.2 H 35.45 Z M 85.979,85.213 C 85.979,86.046 85.301,86.725 84.468,86.725 H 15.533 C 14.7,86.725 14.022,86.046 14.022,85.213 V 32.085 C 14.022,31.252 14.7,30.574 15.533,30.574 H 84.468 C 85.301,30.574 85.979,31.252 85.979,32.085 Z"
       id="path1" /><path
       d="M 34.923,62.401 C 34.839,62.401 34.758,62.414 34.677,62.426 C 34.596,62.414 34.515,62.401 34.431,62.401 H 32.856 C 31.924,62.401 31.169,63.156 31.169,64.088 C 31.169,65.02 31.924,65.775 32.856,65.775 H 33.236 V 74.512 C 33.236,75.345 32.558,76.023 31.725,76.023 H 24.5 C 23.667,76.023 22.989,75.345 22.989,74.512 V 65.764 C 23.868,65.706 24.566,64.982 24.566,64.088 C 24.566,63.156 23.811,62.401 22.879,62.401 H 21.302 C 20.37,62.401 19.615,63.156 19.615,64.088 V 74.512 C 19.615,77.205 21.806,79.397 24.5,79.397 H 31.725 C 34.419,79.397 36.61,77.206 36.61,74.512 V 64.088 C 36.61,63.156 35.855,62.401 34.923,62.401 Z"
       id="path2" /><path
       d="M 27.079,62.401 C 26.147,62.401 25.392,63.156 25.392,64.088 C 25.392,65.02 26.147,65.775 27.079,65.775 H 28.655 C 29.587,65.775 30.342,65.02 30.342,64.088 C 30.342,63.156 29.587,62.401 28.655,62.401 Z"
       id="path3" /><path
       d="M 56.811,62.401 C 56.727,62.401 56.646,62.414 56.565,62.426 C 56.484,62.414 56.403,62.401 56.319,62.401 H 54.744 C 53.812,62.401 53.057,63.156 53.057,64.088 C 53.057,65.02 53.812,65.775 54.744,65.775 H 55.124 V 74.512 C 55.124,75.345 54.446,76.023 53.613,76.023 H 46.388 C 45.555,76.023 44.877,75.345 44.877,74.512 V 65.764 C 45.756,65.706 46.454,64.982 46.454,64.088 C 46.454,63.156 45.699,62.401 44.767,62.401 H 43.19 C 42.258,62.401 41.503,63.156 41.503,64.088 C 41.503,64.089 41.503,64.09 41.503,64.091 V 74.512 C 41.503,77.205 43.694,79.397 46.388,79.397 H 53.613 C 56.306,79.397 58.498,77.206 58.498,74.512 V 64.088 C 58.498,63.156 57.743,62.401 56.811,62.401 Z"
       id="path4" /><path
       d="M 50.543,65.774 C 51.475,65.774 52.23,65.019 52.23,64.087 C 52.23,63.155 51.475,62.4 50.543,62.4 H 48.967 C 48.035,62.4 47.28,63.155 47.28,64.087 C 47.28,65.019 48.035,65.774 48.967,65.774 Z"
       id="path5" /><path
       d="M 78.699,62.401 C 78.615,62.401 78.534,62.414 78.453,62.426 C 78.372,62.414 78.291,62.401 78.207,62.401 H 76.632 C 75.7,62.401 74.945,63.156 74.945,64.088 C 74.945,65.02 75.7,65.775 76.632,65.775 H 77.012 V 74.512 C 77.012,75.345 76.334,76.023 75.501,76.023 H 68.276 C 67.443,76.023 66.765,75.345 66.765,74.512 V 65.764 C 67.644,65.706 68.342,64.982 68.342,64.088 C 68.342,63.156 67.587,62.401 66.655,62.401 H 65.077 C 64.145,62.401 63.39,63.156 63.39,64.088 C 63.39,64.09 63.391,64.091 63.391,64.093 V 74.511 C 63.391,77.204 65.582,79.396 68.276,79.396 H 75.501 C 78.194,79.396 80.386,77.205 80.386,74.511 V 64.088 C 80.386,63.156 79.631,62.401 78.699,62.401 Z"
       id="path6" /><path
       d="M 70.855,62.401 C 69.923,62.401 69.168,63.156 69.168,64.088 C 69.168,65.02 69.923,65.775 70.855,65.775 H 72.431 C 73.363,65.775 74.118,65.02 74.118,64.088 C 74.118,63.156 73.363,62.401 72.431,62.401 Z"
       id="path7" /><path
       d="M 24.033,56.465 H 31.259 C 33.952,56.465 36.144,54.274 36.144,51.58 V 41.157 C 36.144,41.141 36.14,41.126 36.139,41.11 C 36.141,40.429 35.733,39.786 35.059,39.528 C 34.78,39.421 34.491,39.401 34.214,39.442 C 34.132,39.43 34.05,39.417 33.965,39.417 H 32.39 C 31.458,39.417 30.703,40.172 30.703,41.104 C 30.703,41.909 31.268,42.58 32.023,42.748 L 30.843,45.836 C 30.463,46.832 29.146,47.738 28.08,47.738 H 20.854 C 20.533,47.738 20.357,47.652 20.316,47.594 C 20.276,47.536 20.258,47.34 20.373,47.04 L 21.997,42.791 H 22.413 C 23.345,42.791 24.1,42.036 24.1,41.104 C 24.1,40.172 23.345,39.417 22.413,39.417 H 20.836 C 20.827,39.417 20.819,39.42 20.81,39.42 C 20.744,39.421 20.68,39.431 20.616,39.44 C 20.569,39.446 20.521,39.449 20.475,39.459 C 20.423,39.47 20.374,39.49 20.324,39.506 C 20.269,39.524 20.214,39.538 20.162,39.561 C 20.119,39.58 20.081,39.605 20.04,39.627 C 19.986,39.656 19.931,39.683 19.88,39.718 C 19.839,39.746 19.804,39.781 19.766,39.812 C 19.721,39.849 19.674,39.884 19.634,39.926 C 19.6,39.96 19.573,40 19.542,40.038 C 19.503,40.085 19.462,40.131 19.428,40.183 C 19.405,40.218 19.389,40.256 19.368,40.293 C 19.334,40.355 19.299,40.416 19.273,40.482 C 19.27,40.49 19.265,40.496 19.262,40.504 L 17.224,45.838 C 16.722,47.151 16.837,48.489 17.539,49.509 C 17.933,50.082 18.492,50.512 19.151,50.784 V 51.583 C 19.148,54.273 21.34,56.465 24.033,56.465 Z M 22.522,51.112 H 28.078 C 29.806,51.112 31.561,50.264 32.769,48.968 V 51.58 C 32.769,52.413 32.091,53.091 31.258,53.091 H 24.032 C 23.199,53.091 22.521,52.413 22.521,51.58 V 51.112 Z"
       id="path8" /><path
       d="M 26.613,42.791 H 28.189 C 29.121,42.791 29.876,42.036 29.876,41.104 C 29.876,40.172 29.121,39.417 28.189,39.417 H 26.613 C 25.681,39.417 24.926,40.172 24.926,41.104 C 24.926,42.036 25.681,42.791 26.613,42.791 Z"
       id="path9" /><path
       d="M 67.809,56.412 H 75.035 C 77.728,56.412 79.919,54.221 79.919,51.527 V 41.104 C 79.919,40.172 79.164,39.417 78.232,39.417 C 78.148,39.417 78.067,39.43 77.986,39.442 C 77.905,39.43 77.824,39.417 77.74,39.417 H 76.164 C 75.232,39.417 74.477,40.172 74.477,41.104 C 74.477,42.036 75.232,42.791 76.164,42.791 H 76.544 V 51.527 C 76.544,52.36 75.866,53.038 75.033,53.038 H 67.807 C 66.974,53.038 66.296,52.36 66.296,51.527 V 42.78 C 67.175,42.722 67.873,41.998 67.873,41.104 C 67.873,40.172 67.118,39.417 66.186,39.417 H 64.609 C 63.677,39.417 62.922,40.172 62.922,41.104 C 62.922,41.106 62.923,41.107 62.923,41.109 V 51.527 C 62.924,54.221 65.115,56.412 67.809,56.412 Z"
       id="path10" /><path
       d="M 70.388,42.791 H 71.964 C 72.896,42.791 73.651,42.036 73.651,41.104 C 73.651,40.172 72.896,39.417 71.964,39.417 H 70.388 C 69.456,39.417 68.701,40.172 68.701,41.104 C 68.701,42.036 69.457,42.791 70.388,42.791 Z"
       id="path11" /><path
       d="M 57.472,39.528 C 57.192,39.421 56.903,39.401 56.627,39.442 C 56.545,39.43 56.463,39.417 56.378,39.417 H 54.803 C 53.871,39.417 53.116,40.172 53.116,41.104 C 53.116,41.909 53.681,42.58 54.435,42.748 L 53.255,45.835 C 52.875,46.831 51.557,47.738 50.492,47.738 H 43.267 C 42.946,47.738 42.769,47.652 42.729,47.594 C 42.689,47.536 42.671,47.341 42.786,47.04 L 44.41,42.791 H 44.826 C 45.758,42.791 46.513,42.036 46.513,41.104 C 46.513,40.172 45.758,39.417 44.826,39.417 H 43.249 C 43.24,39.417 43.232,39.42 43.223,39.42 C 43.157,39.421 43.093,39.431 43.028,39.44 C 42.981,39.446 42.933,39.449 42.888,39.459 C 42.835,39.471 42.785,39.49 42.734,39.507 C 42.68,39.524 42.626,39.538 42.575,39.561 C 42.531,39.58 42.491,39.607 42.448,39.63 C 42.396,39.659 42.342,39.684 42.293,39.718 C 42.251,39.747 42.214,39.783 42.174,39.816 C 42.131,39.852 42.085,39.886 42.046,39.926 C 42.011,39.961 41.983,40.003 41.951,40.041 C 41.913,40.087 41.873,40.132 41.84,40.182 C 41.817,40.217 41.8,40.257 41.779,40.294 C 41.745,40.355 41.711,40.416 41.685,40.482 C 41.682,40.49 41.677,40.496 41.674,40.504 L 39.636,45.837 C 39.134,47.15 39.249,48.488 39.951,49.508 C 40.345,50.081 40.904,50.511 41.563,50.783 V 51.582 C 41.563,54.275 43.754,56.467 46.448,56.467 H 53.673 C 56.366,56.467 58.558,54.276 58.558,51.582 V 41.157 C 58.558,41.141 58.554,41.127 58.553,41.112 C 58.555,40.43 58.146,39.786 57.472,39.528 Z M 55.183,51.58 C 55.183,52.413 54.505,53.091 53.672,53.091 H 46.447 C 45.614,53.091 44.936,52.413 44.936,51.58 V 51.112 H 50.492 C 52.22,51.112 53.975,50.264 55.183,48.967 Z"
       id="path12" /><path
       d="M 49.026,42.791 H 50.602 C 51.534,42.791 52.289,42.036 52.289,41.104 C 52.289,40.172 51.534,39.417 50.602,39.417 H 49.026 C 48.094,39.417 47.339,40.172 47.339,41.104 C 47.339,42.036 48.094,42.791 49.026,42.791 Z"
       id="path13" /></g></svg>
