<?xml version="1.0" encoding="UTF-8" standalone="no"?>
<svg
   version="1.1"
   x="0px"
   y="0px"
   viewBox="0 0 40 40"
   xml:space="preserve"
   id="svg10"
   sodipodi:docname="noun-grid-2398146a.svg"
   width="40"
   height="40"
   inkscape:version="1.3.2 (091e20e, 2023-11-25)"
   xmlns:inkscape="http://www.inkscape.org/namespaces/inkscape"
   xmlns:sodipodi="http://sodipodi.sourceforge.net/DTD/sodipodi-0.dtd"
   xmlns="http://www.w3.org/2000/svg"
   xmlns:svg="http://www.w3.org/2000/svg"><defs
     id="defs10" /><sodipodi:namedview
     id="namedview10"
     pagecolor="#ffffff"
     bordercolor="#666666"
     borderopacity="1.0"
     inkscape:showpageshadow="2"
     inkscape:pageopacity="0.0"
     inkscape:pagecheckerboard="0"
     inkscape:deskcolor="#d1d1d1"
     inkscape:zoom="6.2933333"
     inkscape:cx="21.769068"
     inkscape:cy="21.848517"
     inkscape:window-width="1104"
     inkscape:window-height="643"
     inkscape:window-x="217"
     inkscape:window-y="25"
     inkscape:window-maximized="0"
     inkscape:current-layer="svg10" /><g
     id="g9"
     transform="translate(5,5)"
     style="fill:#38bed6;fill-opacity:1"><path
       d="M 8,5.973 C 8,7.093 7.093,8 5.973,8 H 2.027 C 0.907,8 0,7.093 0,5.973 V 2.027 C 0,0.907 0.907,0 2.027,0 H 5.973 C 7.093,0 8,0.907 8,2.027 Z"
       id="path1"
       style="fill:#38bed6;fill-opacity:1" /><path
       d="M 8,16.973 C 8,18.093 7.093,19 5.973,19 H 2.027 C 0.907,19 0,18.093 0,16.973 V 13.027 C 0,11.907 0.907,11 2.027,11 H 5.973 C 7.093,11 8,11.907 8,13.027 Z"
       id="path2"
       style="fill:#38bed6;fill-opacity:1" /><path
       d="M 8,27.973 C 8,29.093 7.093,30 5.973,30 H 2.027 C 0.907,30 0,29.093 0,27.973 V 24.028 C 0,22.907 0.907,22 2.027,22 H 5.973 C 7.093,22 8,22.907 8,24.027 Z"
       id="path3"
       style="fill:#38bed6;fill-opacity:1" /><path
       d="M 19,5.973 C 19,7.093 18.093,8 16.973,8 H 13.027 C 11.907,8 11,7.093 11,5.973 V 2.027 C 11,0.907 11.907,0 13.027,0 H 16.973 C 18.093,0 19,0.907 19,2.027 Z"
       id="path4"
       style="fill:#38bed6;fill-opacity:1" /><path
       d="M 19,16.973 C 19,18.093 18.093,19 16.973,19 H 13.027 C 11.907,19 11,18.093 11,16.973 V 13.027 C 11,11.907 11.907,11 13.027,11 H 16.973 C 18.093,11 19,11.907 19,13.027 Z"
       id="path5"
       style="fill:#38bed6;fill-opacity:1" /><path
       d="M 19,27.973 C 19,29.093 18.093,30 16.973,30 H 13.027 C 11.907,30 11,29.093 11,27.973 V 24.028 C 11,22.907 11.907,22 13.027,22 H 16.973 C 18.093,22 19,22.907 19,24.027 Z"
       id="path6"
       style="fill:#38bed6;fill-opacity:1" /><path
       d="M 30,5.973 C 30,7.093 29.093,8 27.973,8 H 24.028 C 22.907,8 22,7.093 22,5.973 V 2.027 C 22,0.907 22.907,0 24.027,0 H 27.972 C 29.093,0 30,0.907 30,2.027 Z"
       id="path7"
       style="fill:#38bed6;fill-opacity:1" /><path
       d="M 30,16.973 C 30,18.093 29.093,19 27.973,19 H 24.028 C 22.907,19 22,18.093 22,16.973 V 13.027 C 22,11.907 22.907,11 24.027,11 H 27.972 C 29.093,11 30,11.907 30,13.027 Z"
       id="path8"
       style="fill:#38bed6;fill-opacity:1" /><path
       d="M 30,27.973 C 30,29.093 29.093,30 27.973,30 H 24.028 C 22.907,30 22,29.093 22,27.973 V 24.028 C 22,22.907 22.907,22 24.027,22 H 27.972 C 29.093,22 30,22.907 30,24.027 Z"
       id="path9"
       style="fill:#38bed6;fill-opacity:1" /></g></svg>
