<?xml version="1.0" encoding="UTF-8" standalone="no"?>
<svg
   version="1.1"
   viewBox="-5 -10 110 110"
   id="svg2"
   sodipodi:docname="noun-cube-7121457a.svg"
   width="110"
   height="110"
   inkscape:version="1.3.2 (091e20e, 2023-11-25)"
   xmlns:inkscape="http://www.inkscape.org/namespaces/inkscape"
   xmlns:sodipodi="http://sodipodi.sourceforge.net/DTD/sodipodi-0.dtd"
   xmlns="http://www.w3.org/2000/svg"
   xmlns:svg="http://www.w3.org/2000/svg">
  <defs
     id="defs2" />
  <sodipodi:namedview
     id="namedview2"
     pagecolor="#ffffff"
     bordercolor="#666666"
     borderopacity="1.0"
     inkscape:showpageshadow="2"
     inkscape:pageopacity="0.0"
     inkscape:pagecheckerboard="0"
     inkscape:deskcolor="#d1d1d1"
     inkscape:zoom="1.7481481"
     inkscape:cx="54.915256"
     inkscape:cy="67.500002"
     inkscape:window-width="1224"
     inkscape:window-height="412"
     inkscape:window-x="217"
     inkscape:window-y="25"
     inkscape:window-maximized="0"
     inkscape:current-layer="svg2" />
  <path
     d="M 7.9822339,23.022763 L 49.271234,43.292763 V 90.995763 C 48.833734,90.894203 48.419674,90.737953 48.009534,90.558263 L 10.841534,72.296263 C 8.8571339,71.343143 7.5954339,69.307963 7.5954339,67.120463 V 25.034463 C 7.5954339,24.339153 7.7243439,23.643863 7.9821539,23.022763 Z M 90.302234,19.831363 L 53.107234,1.5933627 C 51.509534,0.79648271 49.630634,0.79648271 48.005634,1.5933627 L 10.841634,19.831363 C 10.275224,20.089173 9.7869339,20.448553 9.3728339,20.862563 L 50.560834,41.077563 L 91.744834,20.858563 C 91.358114,20.448403 90.869834,20.089033 90.303434,19.831263 Z M 93.185034,23.022763 L 51.845034,43.295763 V 90.994763 C 52.282534,90.893203 52.696594,90.764293 53.106734,90.557263 L 90.297734,72.295263 C 92.282134,71.342143 93.543834,69.306963 93.543834,67.119463 L 93.54774,25.033463 C 93.54774,24.338153 93.41883,23.642863 93.18446,23.021763 Z"
     id="path1"
     style="fill:#38bed6;fill-opacity:1" />
</svg>
