<?xml version="1.0" encoding="UTF-8" standalone="no"?>
<svg
   version="1.1"
   viewBox="-5 -10 110 110"
   id="svg62"
   sodipodi:docname="noun-baseball-7381320.svg"
   width="110"
   height="110"
   inkscape:version="1.3.2 (091e20e, 2023-11-25)"
   xmlns:inkscape="http://www.inkscape.org/namespaces/inkscape"
   xmlns:sodipodi="http://sodipodi.sourceforge.net/DTD/sodipodi-0.dtd"
   xmlns="http://www.w3.org/2000/svg"
   xmlns:svg="http://www.w3.org/2000/svg">
  <defs
     id="defs62" />
  <sodipodi:namedview
     id="namedview62"
     pagecolor="#ffffff"
     bordercolor="#666666"
     borderopacity="1.0"
     inkscape:showpageshadow="2"
     inkscape:pageopacity="0.0"
     inkscape:pagecheckerboard="0"
     inkscape:deskcolor="#d1d1d1"
     inkscape:zoom="11.334966"
     inkscape:cx="68.990061"
     inkscape:cy="40.405944"
     inkscape:window-width="1192"
     inkscape:window-height="720"
     inkscape:window-x="217"
     inkscape:window-y="25"
     inkscape:window-maximized="0"
     inkscape:current-layer="svg62" />
  <path
     d="M 44.787271,78.502661 C 43.853681,79.268281 42.740371,80.194061 41.341971,80.670661 C 41.017751,80.780041 40.685721,80.865971 40.353691,80.928471 C 39.295091,81.119881 38.072491,81.100341 37.193491,80.686281 C 35.837991,80.049561 35.673991,78.678481 35.568491,78.053481 C 35.466931,77.451921 35.869271,76.877681 36.474741,76.776181 C 37.076301,76.674621 37.646641,77.080871 37.748141,77.682431 C 37.892671,78.518371 37.974701,78.608211 38.134861,78.686331 C 38.423921,78.819141 39.115331,78.905081 39.951261,78.752737 C 40.185641,78.709769 40.412201,78.651177 40.627041,78.576957 C 41.584071,78.248837 42.396541,77.600397 43.388741,76.791757 C 43.861401,76.405037 44.556741,76.475347 44.943441,76.948007 C 45.330161,77.420667 45.259851,78.116007 44.787191,78.502707 Z"
     id="path1"
     style="fill:black;fill-opacity:1" />
  <path
     d="M 36.205271,76.810661 C 36.830271,76.459101 37.392771,76.142691 38.111471,75.568461 C 38.857561,74.970801 39.775571,74.095761 40.744271,73.166161 C 41.185681,72.744281 41.884871,72.759911 42.306771,73.201317 C 42.732551,73.642727 42.716931,74.341917 42.275521,74.763817 C 41.330211,75.666157 40.334121,76.623217 39.494321,77.295017 C 38.627131,77.990327 37.927921,78.380917 37.287321,78.740317 C 36.756071,79.037187 36.080321,78.845787 35.783421,78.314537 C 35.482641,77.779377 35.674041,77.107537 36.205301,76.810637 Z"
     id="path2"
     style="fill:black;fill-opacity:1" />
  <path
     d="M 44.900271,74.451661 L 45.220581,77.494661 C 45.283081,78.104041 44.841671,78.646961 44.232301,78.709461 C 43.626831,78.771961 43.083901,78.330551 43.017501,77.725081 L 42.701091,74.682081 C 42.638591,74.076611 43.076091,73.529781 43.685471,73.467281 C 44.294851,73.404781 44.837771,73.846191 44.900271,74.451661 Z"
     id="path3"
     style="fill:black;fill-opacity:1" />
  <path
     d="M 43.510271,75.642661 L 41.314971,75.037191 C 40.725131,74.873131 40.377471,74.263751 40.541531,73.677791 C 40.701691,73.087951 41.311061,72.740291 41.900931,72.904351 L 44.096231,73.509821 C 44.686071,73.669981 45.033731,74.279351 44.869671,74.869221 C 44.709511,75.459061 44.100141,75.802811 43.510271,75.642661 Z"
     id="path4"
     style="fill:black;fill-opacity:1" />
  <path
     d="M 39.830271,74.209661 L 41.888871,62.236661 C 41.990431,61.635101 42.564651,61.228861 43.166171,61.334321 C 43.767731,61.435881 44.170071,62.006191 44.068511,62.611621 L 42.009911,74.584621 C 41.908351,75.186181 41.334131,75.588521 40.732611,75.486961 C 40.131051,75.381491 39.724811,74.811181 39.830271,74.209661 Z"
     id="path5"
     style="fill:black;fill-opacity:1" />
  <path
     d="M 41.998271,61.834661 L 49.650571,45.861661 C 49.912291,45.310881 50.576351,45.076501 51.127171,45.342131 C 51.677951,45.603851 51.908421,46.264011 51.646701,46.814831 L 43.990501,62.791831 C 43.728781,63.342611 43.068631,63.573081 42.517801,63.311361 C 41.967021,63.045741 41.732641,62.385581 41.998271,61.834761 Z"
     id="path6"
     style="fill:black;fill-opacity:1" />
  <path
     d="M 42.771271,73.709661 L 47.095471,64.221361 C 47.349381,63.666671 48.005631,63.420581 48.560271,63.674481 C 49.114961,63.928391 49.361051,64.584641 49.107151,65.139281 L 44.786851,74.627581 C 44.532941,75.182271 43.876691,75.428361 43.322051,75.174461 C 42.763461,74.920551 42.521271,74.264301 42.771271,73.709661 Z"
     id="path7"
     style="fill:black;fill-opacity:1" />
  <path
     d="M 47.857271,63.560661 C 48.204931,63.474723 48.572111,63.439571 49.603371,62.373161 C 50.724471,61.209061 52.474471,58.974761 54.290871,56.654361 C 54.665871,56.173891 55.361171,56.091861 55.841671,56.466861 C 56.326051,56.841861 56.408081,57.537161 56.033081,58.017661 C 54.255781,60.287161 52.415881,62.642661 51.193281,63.908261 C 49.876881,65.275461 49.146381,65.517661 48.396381,65.705161 C 47.802631,65.857501 47.204981,65.498131 47.052581,64.904381 C 46.904141,64.314541 47.263521,63.712981 47.857271,63.560581 Z"
     id="path8"
     style="fill:black;fill-opacity:1" />
  <path
     d="M 50.709271,45.205661 C 52.412371,45.326751 53.986571,45.436131 55.592071,45.221286 C 56.263951,45.135349 56.955371,44.986906 57.666271,44.799406 C 58.654551,44.541596 59.654571,44.217376 60.693571,43.877526 C 61.275601,43.690026 61.896671,44.006436 62.088071,44.588466 C 62.275571,45.170496 61.959161,45.795466 61.377131,45.982966 C 60.349831,46.314996 59.287331,46.662656 58.228731,46.939996 C 57.455291,47.143116 56.670131,47.311086 55.884931,47.416556 C 54.021631,47.662646 52.220831,47.533746 50.552931,47.412649 C 49.943561,47.369681 49.482631,46.842339 49.525631,46.232949 C 49.568631,45.623559 50.099851,45.162649 50.709231,45.205649 Z"
     id="path9"
     style="fill:black;fill-opacity:1" />
  <path
     d="M 49.482271,46.970661 L 49.478365,46.966755 C 48.658055,45.419855 47.783065,43.771455 47.236165,42.185555 C 46.681475,40.583955 46.474445,39.072255 46.275225,37.673855 C 46.189287,37.068385 46.611165,36.509755 47.216635,36.423855 C 47.822105,36.337918 48.380735,36.759795 48.466635,37.365265 C 48.665855,38.783265 48.853355,40.091865 49.326015,41.462965 C 49.806485,42.857465 50.591615,44.345765 51.435415,45.931765 V 45.935671 C 51.724475,46.474731 51.517446,47.146571 50.978385,47.431771 C 50.435415,47.716931 49.767485,47.509896 49.482285,46.970831 Z"
     id="path10"
     style="fill:black;fill-opacity:1" />
  <path
     d="M 47.381271,38.584661 H 47.377364 C 46.482834,38.588567 45.369564,38.596379 44.158564,38.088571 C 42.990564,37.600291 41.818764,36.662771 40.904664,35.787771 C 39.967164,34.893241 39.221064,33.979171 38.521864,33.123671 C 38.135144,32.651011 38.201554,31.955671 38.674204,31.568971 C 39.146864,31.182251 39.846104,31.248661 40.232804,31.721311 C 40.939834,32.588501 41.607804,33.397111 42.432004,34.190111 C 43.279664,34.998701 44.221104,35.713511 45.014004,36.049511 C 45.764004,36.362011 46.455404,36.373731 47.373404,36.373731 H 47.37731 C 47.99059,36.373731 48.48671,36.869821 48.48671,37.479231 C 48.48671,38.088641 47.99062,38.584731 47.38121,38.584731 Z"
     id="path11"
     style="fill:black;fill-opacity:1" />
  <path
     d="M 40.201271,23.439661 C 39.826271,24.459161 39.423931,25.549061 38.869271,26.638861 C 38.310681,27.724761 37.611471,28.795061 36.951271,29.799061 C 36.615331,30.310781 35.931771,30.451401 35.420071,30.119371 C 34.908351,29.783431 34.767731,29.095971 35.099761,28.588171 C 35.775541,27.560871 36.408361,26.592071 36.896661,25.635071 C 37.384941,24.678041 37.744321,23.713171 38.127161,22.674171 C 38.338101,22.099951 38.974821,21.806981 39.549061,22.017921 C 40.119371,22.228861 40.412341,22.865581 40.201401,23.439821 Z"
     id="path12"
     style="fill:black;fill-opacity:1" />
  <path
     d="M 36.697271,28.357661 C 37.416021,28.896721 38.201171,29.486561 38.810571,30.068561 C 39.443381,30.666221 39.876971,31.240461 40.263671,31.744361 C 40.630861,32.232641 40.537111,32.927961 40.052731,33.295161 C 39.564451,33.666251 38.873031,33.572501 38.501931,33.084221 C 38.115211,32.576411 37.775371,32.135001 37.291031,31.674021 C 36.787121,31.197461 36.111331,30.685741 35.369131,30.123221 C 34.880851,29.756031 34.783191,29.064621 35.150381,28.576321 C 35.517571,28.088041 36.208981,27.990381 36.697281,28.357571 Z"
     id="path13"
     style="fill:black;fill-opacity:1" />
  <path
     d="M 39.885271,28.451661 L 38.178271,27.373561 C 37.662651,27.045441 37.506401,26.361861 37.834521,25.846261 C 38.158741,25.330641 38.842321,25.174381 39.357921,25.502511 L 41.068821,26.580611 C 41.584441,26.908731 41.736791,27.592311 41.412571,28.107911 C 41.084441,28.623531 40.400871,28.775881 39.885271,28.451661 Z"
     id="path14"
     style="fill:black;fill-opacity:1" />
  <path
     d="M 41.564271,27.736661 L 40.779111,32.529661 C 40.681455,33.131221 40.111141,33.541361 39.509611,33.443721 C 38.908051,33.342161 38.497911,32.775751 38.595551,32.174221 L 39.380711,27.377321 C 39.482271,26.775761 40.048681,26.365621 40.654111,26.463261 C 41.255671,26.564821 41.665811,27.131231 41.564271,27.736661 Z"
     id="path15"
     style="fill:black;fill-opacity:1" />
  <path
     d="M 47.111271,36.381661 H 47.130803 C 50.236303,36.45588 53.146403,36.522291 54.794903,36.248851 C 54.935523,36.225413 55.056623,36.19807 55.165993,36.174632 C 56.126933,35.948072 56.056613,35.741042 56.091773,35.041832 C 56.119117,34.432452 56.638653,33.963732 57.251973,33.994932 C 57.861353,34.022276 58.330073,34.545712 58.298873,35.155132 C 58.244186,36.209832 58.087933,37.756732 55.673873,38.327032 C 55.509813,38.366095 55.337933,38.401251 55.158253,38.428592 C 53.248053,38.748902 50.072353,38.666872 47.080153,38.592652 H 47.056716 C 46.447336,38.577027 45.962916,38.069212 45.978616,37.459852 C 45.994241,36.846572 46.498146,36.366052 47.111416,36.381752 Z"
     id="path16"
     style="fill:black;fill-opacity:1" />
  <path
     d="M 41.193271,28.306661 C 42.236271,29.654361 43.154171,30.826161 44.204971,31.583961 C 45.236171,32.330051 46.451071,32.712861 47.872971,33.146461 C 48.455001,33.326151 48.783131,33.943331 48.607351,34.529261 C 48.427661,35.111291 47.806571,35.443321 47.224551,35.263641 C 45.861251,34.845671 44.287051,34.373021 42.908151,33.376941 C 41.548751,32.396471 40.435451,30.939441 39.443351,29.658141 C 39.072261,29.173761 39.158191,28.478441 39.642571,28.107341 C 40.126951,27.732341 40.822271,27.822181 41.193371,28.306561 Z"
     id="path17"
     style="fill:black;fill-opacity:1" />
  <path
     d="M 47.252271,33.162661 L 52.525671,31.334561 C 53.103791,31.131431 53.732671,31.440031 53.931871,32.014251 C 54.134991,32.592371 53.826401,33.221251 53.252181,33.424451 L 47.974881,35.252551 C 47.400661,35.451771 46.767881,35.147081 46.568681,34.568961 C 46.369461,33.994741 46.674151,33.361961 47.252271,33.162761 Z"
     id="path18"
     style="fill:black;fill-opacity:1" />
  <path
     d="M 53.049271,31.248661 C 53.353961,31.26038 53.537551,31.264286 53.721151,31.236942 C 53.896931,31.209599 54.096151,31.147099 54.357871,30.971322 C 54.971151,30.557262 55.783671,29.631522 56.752371,28.518222 C 57.150811,28.057282 57.850071,28.006502 58.310971,28.408842 C 58.771911,28.807282 58.822691,29.506542 58.420351,29.967442 C 57.545351,30.979142 56.510151,32.182242 55.596151,32.803342 C 55.064901,33.166622 54.553151,33.346312 54.060951,33.424432 C 53.627361,33.490839 53.228921,33.471307 52.951551,33.455682 C 52.338271,33.432245 51.865651,32.912712 51.892951,32.303382 C 51.920295,31.694002 52.435921,31.221382 53.049151,31.248682 Z"
     id="path19"
     style="fill:black;fill-opacity:1" />
  <path
     d="M 58.365271,28.412661 C 59.068401,29.022041 59.896471,29.736861 60.580071,31.143161 C 61.232411,32.482961 61.744171,34.432261 61.787071,36.463461 C 61.826133,38.486861 61.400351,40.576761 61.009731,42.518161 C 60.888641,43.115821 60.306611,43.502541 59.705031,43.381441 C 59.107371,43.260351 58.720651,42.678321 58.841751,42.080641 C 59.244091,40.088441 59.611281,38.244741 59.572221,36.510341 C 59.537065,34.783741 59.095661,33.150941 58.591751,32.108041 C 58.115191,31.127571 57.580051,30.658841 56.915951,30.080741 C 56.455011,29.682301 56.404231,28.983041 56.806571,28.522141 C 57.205011,28.061201 57.904271,28.010421 58.365171,28.412761 Z"
     id="path20"
     style="fill:black;fill-opacity:1" />
  <path
     d="M 58.076271,39.291661 C 58.283301,39.627601 58.427831,39.865881 58.787211,40.174471 C 59.209081,40.537751 59.908311,40.983061 60.709111,41.494771 C 61.224741,41.822891 61.377081,42.506471 61.048951,43.022071 C 60.720831,43.537691 60.037251,43.690041 59.521651,43.361911 C 58.775561,42.885351 57.916151,42.342411 57.345851,41.854111 C 56.713041,41.307231 56.420071,40.822911 56.185651,40.440011 C 55.869241,39.916571 56.037211,39.236911 56.560651,38.920511 C 57.080181,38.604101 57.759851,38.768171 58.076251,39.291601 Z"
     id="path21"
     style="fill:black;fill-opacity:1" />
  <path
     d="M 61.076271,41.299661 C 61.380961,41.537941 62.095771,42.045751 62.322371,42.928561 C 62.521591,43.698091 62.287215,44.619961 62.173931,45.131661 C 62.041121,45.729321 61.451271,46.104321 60.853631,45.975411 C 60.259881,45.842601 59.880971,45.252751 60.013791,44.655111 C 60.173951,43.932451 60.216911,43.616011 60.181761,43.475411 C 60.173948,43.448068 60.146604,43.381661 59.713011,43.041821 C 59.232541,42.662911 59.146601,41.967621 59.521601,41.487121 C 59.900511,41.006651 60.595801,40.920711 61.076301,41.299621 Z"
     id="path22"
     style="fill:black;fill-opacity:1" />
  <path
     d="M 61.869271,61.037661 V 61.01813 C 62.088021,56.83063 62.295051,52.81503 61.982551,50.35813 C 61.689581,48.07293 60.963051,47.24483 60.158351,46.30343 C 59.759911,45.83859 59.814601,45.13933 60.279441,44.74093 C 60.744281,44.3464 61.439641,44.40109 61.838041,44.86593 C 62.783351,45.96753 63.806841,47.19013 64.173941,50.07683 C 64.521601,52.78383 64.295031,57.04163 64.080191,61.13583 L 64.076285,61.155361 C 64.045035,61.764741 63.525505,62.233461 62.916085,62.202261 C 62.306665,62.171061 61.837985,61.651481 61.869185,61.038161 Z"
     id="path23"
     style="fill:black;fill-opacity:1" />
  <path
     d="M 63.713271,60.334661 C 65.822671,62.213561 68.029671,64.170561 69.717171,66.303461 C 71.416371,68.451861 72.568771,70.748761 73.666371,72.928461 C 73.939811,73.475331 73.721058,74.139361 73.174181,74.416761 C 72.631211,74.690201 71.963281,74.471448 71.689781,73.924571 C 70.576481,71.717571 69.517881,69.619871 67.982781,67.678471 C 66.439781,65.721471 64.388981,63.897271 62.244481,61.987071 C 61.787451,61.580821 61.744481,60.881571 62.150731,60.424571 C 62.556981,59.967571 63.256231,59.928481 63.713231,60.334728 Z"
     id="path24"
     style="fill:black;fill-opacity:1" />
  <path
     d="M 69.326271,74.802661 L 71.662171,72.302661 C 72.080141,71.853441 72.779371,71.830001 73.224671,72.247973 C 73.669981,72.665943 73.693421,73.365173 73.279358,73.810473 L 70.939558,76.310473 C 70.525498,76.755783 69.826258,76.779223 69.377058,76.365161 C 68.931748,75.947191 68.908308,75.247961 69.326277,74.802661 Z"
     id="path25"
     style="fill:black;fill-opacity:1" />
  <path
     d="M 77.017271,75.232661 C 77.212581,75.842041 77.435241,76.549061 77.517271,77.517861 C 77.579771,78.240521 77.583677,79.342061 77.169611,80.209261 C 77.071955,80.408481 76.950861,80.607701 76.786801,80.795201 C 75.923521,81.783481 74.407901,81.771761 73.685201,81.803001 C 73.075821,81.826438 72.560201,81.353781 72.532901,80.744401 C 72.505558,80.135021 72.982121,79.619401 73.591501,79.592101 C 74.700901,79.545226 75.021201,79.455381 75.122701,79.338191 C 75.130514,79.330378 75.150045,79.303035 75.173482,79.252253 C 75.318012,78.947563 75.368792,78.357723 75.314102,77.701453 C 75.255509,77.002233 75.099262,76.498353 74.907852,75.900653 C 74.724262,75.318623 75.048472,74.697553 75.630512,74.510053 C 76.212542,74.326463 76.833612,74.650673 77.017212,75.232713 Z"
     id="path26"
     style="fill:black;fill-opacity:1" />
  <path
     d="M 71.115271,75.080661 L 74.501971,80.049461 C 74.845721,80.553371 74.712911,81.240861 74.209001,81.584661 C 73.705091,81.928411 73.017601,81.799501 72.673801,81.295601 L 69.287101,76.322901 C 68.943351,75.818991 69.072261,75.131501 69.580071,74.787701 C 70.083981,74.443951 70.771471,74.572861 71.115271,75.080671 Z"
     id="path27"
     style="fill:black;fill-opacity:1" />
  <path
     d="M 75.236271,76.412661 L 71.923771,73.990761 C 71.427681,73.631381 71.322211,72.939961 71.681581,72.447761 C 72.044861,71.951671 72.736281,71.846201 73.228481,72.205571 L 76.540981,74.627471 C 77.033171,74.986851 77.142541,75.682171 76.779261,76.174371 C 76.419881,76.666561 75.728461,76.775931 75.236261,76.412651 Z"
     id="path28"
     style="fill:black;fill-opacity:1" />
  <path
     d="M 69.275271,76.326661 L 69.267458,76.318848 C 67.790858,74.611848 66.380758,72.986848 64.654158,71.568848 C 62.919758,70.139148 60.841658,68.900848 58.673658,67.607948 C 58.150218,67.295448 57.978348,66.615758 58.290848,66.092348 C 58.603348,65.568938 59.279128,65.397038 59.806448,65.709538 C 61.943148,66.979038 64.169748,68.303338 66.060348,69.857938 C 67.950948,71.416538 69.478348,73.182138 70.939248,74.869638 L 70.947061,74.881356 C 71.345501,75.342296 71.294721,76.041556 70.833781,76.439956 C 70.372841,76.838396 69.673581,76.791516 69.275181,76.326676 Z"
     id="path29"
     style="fill:black;fill-opacity:1" />
  <path
     d="M 55.545271,54.209661 C 56.045271,55.920561 56.537461,57.592461 57.303071,59.561261 C 58.072601,61.541761 59.127271,63.830761 60.201471,66.162861 C 60.455381,66.717551 60.21319,67.373761 59.658501,67.631661 C 59.103811,67.885571 58.447601,67.64338 58.193701,67.088691 C 57.127301,64.776191 56.041401,62.420691 55.240601,60.365991 C 54.435911,58.295691 53.924201,56.541791 53.420301,54.830791 C 53.248421,54.244851 53.584361,53.631591 54.170301,53.459691 C 54.756241,53.287811 55.373401,53.623751 55.545301,54.209691 Z"
     id="path30"
     style="fill:black;fill-opacity:1" />
  <path
     d="M 39.787271,22.131661 L 43.459171,24.057461 C 43.998231,24.342621 44.205261,25.010581 43.924011,25.553561 C 43.638851,26.092621 42.970891,26.299651 42.427911,26.018401 L 38.759911,24.088701 C 38.216941,23.803541 38.009911,23.135581 38.295071,22.596501 C 38.576321,22.053531 39.244291,21.846501 39.787271,22.131661 Z"
     id="path31"
     style="fill:black;fill-opacity:1" />
  <path
     d="M 40.107271,22.986661 C 41.294771,21.060861 42.486171,19.127261 44.411971,16.088261 C 46.322171,13.072661 49.013571,8.861661 51.025271,6.455461 C 52.939371,4.162461 54.677571,2.971061 56.447171,3.635161 C 56.693261,3.725004 56.943261,3.857821 57.173731,4.041411 C 58.685431,5.248411 58.345631,7.486711 56.505761,10.420311 C 54.236261,14.041411 49.009661,19.908611 43.903761,25.643311 C 43.497511,26.100341 42.798261,26.139401 42.341261,25.733155 C 41.884261,25.326909 41.845171,24.627655 42.251417,24.170655 C 47.431117,18.354255 52.485417,12.666655 54.630417,9.244655 C 56.532717,6.209455 55.716317,5.709455 55.794517,5.771955 C 55.771079,5.752423 55.732017,5.728986 55.673427,5.705548 C 55.466397,5.631329 54.708587,5.494608 52.720327,7.873548 C 50.825827,10.143048 48.216427,14.213348 46.282827,17.271948 C 44.364827,20.299248 43.177327,22.225048 41.989827,24.150848 C 41.665607,24.670378 40.985927,24.830538 40.466427,24.510228 C 39.946897,24.189918 39.782837,23.510228 40.107047,22.986828 Z"
     id="path32"
     style="fill:black;fill-opacity:1" />
  <path
     d="M 43.021271,25.052661 L 43.087678,26.896461 C 43.111115,27.509741 42.634558,28.021461 42.025178,28.044861 C 41.411898,28.064392 40.900178,27.587831 40.876778,26.978461 L 40.810372,25.130761 C 40.786935,24.521391 41.263492,24.009661 41.872872,23.986261 C 42.486152,23.962824 42.997872,24.439381 43.021271,25.052661 Z"
     id="path33"
     style="fill:black;fill-opacity:1" />
  <path
     d="M 42.166271,25.881661 L 48.107671,26.948061 C 48.709231,27.053531 49.107671,27.631651 48.998291,28.229261 C 48.892821,28.830821 48.318601,29.233161 47.717091,29.123791 L 41.775691,28.061291 C 41.174131,27.951911 40.775691,27.377701 40.885071,26.776091 C 40.990541,26.174531 41.564761,25.776091 42.166271,25.881561 Z"
     id="path34"
     style="fill:black;fill-opacity:1" />
  <path
     d="M 47.166271,29.869661 C 46.795181,28.166561 46.377211,26.279861 46.451431,24.549361 C 46.52565,22.822761 47.111591,20.971261 48.822531,20.002461 C 49.685811,19.514181 50.740531,19.311051 51.713131,19.311051 C 52.568601,19.311051 53.459231,19.467301 54.197531,19.818861 C 55.845931,20.607921 56.396731,22.217261 56.791331,23.283661 C 57.006171,23.853971 56.713206,24.490661 56.142891,24.705561 C 55.568671,24.920401 54.931991,24.627436 54.720991,24.053221 C 54.263961,22.834421 53.963181,22.158721 53.244391,21.818821 C 52.873301,21.639131 52.326421,21.521951 51.713191,21.521951 C 51.010071,21.521951 50.353791,21.674291 49.912391,21.928201 C 49.166301,22.350071 48.720991,23.256301 48.662391,24.643001 C 48.599891,26.029701 48.939731,27.619601 49.326451,29.396901 C 49.459261,29.994561 49.080361,30.584401 48.482701,30.713301 C 47.885041,30.846111 47.295201,30.467211 47.166301,29.869551 Z"
     id="path35"
     style="fill:black;fill-opacity:1" />
  <path
     d="M 57.189271,23.646661 C 56.939271,23.646661 56.669741,23.674004 56.384581,23.728692 H 56.380675 C 56.115045,23.763848 55.806455,23.841972 55.458795,23.963072 L 55.404108,23.982603 C 54.146308,24.525573 53.283008,24.857603 52.810308,24.982603 L 52.767339,24.994322 C 52.329839,25.134942 51.790779,25.205262 51.150139,25.205262 H 51.146232 C 50.072032,25.189637 49.099332,24.775572 48.228232,23.963062 C 48.079792,23.826342 47.892292,23.756032 47.704792,23.756032 C 47.501672,23.756032 47.294632,23.838064 47.142292,24.002122 C 46.853232,24.310712 46.872762,24.795092 47.181355,25.084122 C 48.341555,26.166122 49.654055,26.716922 51.122755,26.740322 H 51.134474 H 51.154005 C 51.935255,26.740322 52.618805,26.650478 53.204805,26.466882 H 53.200899 C 53.739959,26.322352 54.665699,25.970792 55.970399,25.412182 H 55.966493 C 56.228213,25.322339 56.446963,25.267652 56.618833,25.244212 L 56.665708,25.236399 C 56.864928,25.197337 57.040708,25.177806 57.189148,25.177806 C 57.450868,25.177806 57.638368,25.236399 57.751648,25.353586 H 57.747742 C 58.118832,25.791086 58.228212,26.158276 58.071962,26.459086 L 58.040712,26.529398 C 57.974306,26.689558 57.868832,26.830178 57.724302,26.947368 H 57.720395 L 55.833695,28.130968 L 55.818071,28.138781 C 55.575881,28.302841 55.376661,28.474721 55.228231,28.658311 H 55.224325 C 55.138387,28.73253 55.060265,28.826281 54.993855,28.935651 C 54.716515,29.384871 54.529015,30.330151 54.431355,31.779451 C 54.404011,32.201331 54.720415,32.568511 55.146195,32.595861 H 55.196977 C 55.599317,32.595861 55.935257,32.287271 55.962597,31.881021 C 56.040722,30.748221 56.146187,30.049021 56.275097,29.783321 C 56.321972,29.744259 56.36494,29.697384 56.404007,29.642701 C 56.450882,29.580201 56.532917,29.509891 56.650097,29.431761 L 58.587597,28.212961 L 58.650097,28.169992 C 59.005567,27.896552 59.267287,27.560612 59.435257,27.166092 H 59.431351 C 59.915731,26.240312 59.728231,25.287192 58.876661,24.310592 L 58.845411,24.275436 C 58.427441,23.853556 57.876661,23.646526 57.189211,23.646526 Z"
     id="path36"
     style="fill:black;fill-opacity:1" />
  <path
     d="M 52.717271,30.236661 C 52.779771,30.299161 52.826651,30.385101 52.865711,30.486661 C 52.830555,30.392911 52.779774,30.306971 52.713371,30.236661 Z M 55.912571,27.556961 C 55.728981,27.556961 55.545381,27.623367 55.396941,27.756181 C 55.111781,28.017901 54.799281,28.170241 54.451631,28.217121 L 54.428193,28.221027 C 54.068823,28.283527 53.514133,28.342117 52.756293,28.400717 C 52.627383,28.412435 52.502383,28.416342 52.381293,28.416342 C 52.076603,28.416342 51.795353,28.385092 51.541453,28.326498 L 51.416453,28.310873 C 51.389109,28.306967 51.365671,28.306967 51.338328,28.306967 C 50.939888,28.306967 50.670358,28.510087 50.529738,28.916347 C 50.498488,29.017907 50.482863,29.123377 50.494582,29.228847 C 50.572707,30.150727 50.963332,30.861647 51.670382,31.357747 H 51.666476 C 51.721163,31.404622 51.787566,31.447591 51.857886,31.486657 C 52.064916,31.596037 52.545386,31.771817 53.307086,32.017907 C 53.592246,32.107751 53.975056,32.193687 54.455486,32.271817 H 54.45158 L 54.93986,32.412437 C 55.014079,32.431969 55.08439,32.443687 55.1547,32.443687 C 55.48673,32.443687 55.79532,32.224937 55.89298,31.885097 C 56.01017,31.478847 55.77189,31.053067 55.36564,30.935877 L 54.82658,30.783537 L 54.740642,30.764006 C 54.314862,30.693693 53.994552,30.623386 53.775802,30.553066 C 53.178142,30.365566 52.799242,30.232756 52.635202,30.158536 H 52.631296 C 52.611764,30.142911 52.596139,30.131192 52.576608,30.119474 C 52.502389,30.068692 52.435988,30.010094 52.377388,29.951504 H 52.381295 C 52.541455,29.951504 52.701605,29.943691 52.869575,29.931973 H 52.873481 C 53.662541,29.869473 54.260181,29.806973 54.666481,29.740563 H 54.662575 C 55.322735,29.646813 55.912575,29.365563 56.432075,28.892903 C 56.744575,28.607743 56.768015,28.119463 56.482856,27.807003 C 56.330516,27.642943 56.123476,27.557003 55.912546,27.557003 Z"
     id="path37"
     style="fill:black;fill-opacity:1" />
  <path
     d="M 48.971271,28.810661 C 49.264241,29.029411 49.486891,29.189571 49.904861,29.369251 C 50.377521,29.568471 51.092361,29.779411 51.897061,30.017691 C 52.494721,30.193471 52.838471,30.822381 52.662691,31.419991 C 52.486911,32.017651 51.858001,32.357491 51.260391,32.181711 C 50.502581,31.959051 49.647091,31.709051 49.029891,31.447331 C 48.354111,31.166081 47.955691,30.869211 47.627591,30.627021 C 47.127591,30.255931 47.022121,29.548921 47.389311,29.048921 C 47.760401,28.545011 48.467411,28.439541 48.971311,28.810641 Z"
     id="path38"
     style="fill:black;fill-opacity:1" />
  <path
     d="M 49.303271,28.158661 L 49.955611,28.068817 C 50.02983,28.061005 50.096231,28.111786 50.107951,28.186007 L 50.193889,28.838347 C 50.205607,28.912565 50.154826,28.978967 50.080609,28.986787 L 49.428269,29.076631 C 49.393113,29.084444 49.357957,29.072725 49.330613,29.053194 C 49.299363,29.029756 49.283738,28.998506 49.275926,28.96335 L 49.186082,28.31101 C 49.182176,28.275854 49.193895,28.240698 49.213426,28.20945 C 49.236863,28.182106 49.268113,28.162574 49.303269,28.158668 M 49.338426,28.424288 L 49.455616,28.275848 L 49.54546,28.924288 L 49.39312,28.811008 L 50.04546,28.721164 L 49.92827,28.873504 L 49.838427,28.221164 L 49.990767,28.338354 Z"
     id="path39"
     style="fill:black;fill-opacity:1" />
  <path
     d="M 47.346271,24.396661 L 47.084551,24.459161 L 47.346271,24.396661 L 47.084551,24.459161 L 47.346271,24.396661 M 47.084551,24.459161 C 47.06502,24.384942 47.111895,24.314631 47.182208,24.295101 C 47.256427,24.279476 47.326738,24.322445 47.346268,24.396661 C 47.361893,24.466973 47.318925,24.541191 47.244708,24.556821 C 47.174395,24.576352 47.100178,24.529477 47.084548,24.459165 C 47.065017,24.384946 47.111892,24.314635 47.182205,24.295105 C 47.256424,24.27948 47.326735,24.322449 47.346265,24.396665 C 47.36189,24.466977 47.318922,24.541195 47.244705,24.556825 C 47.174392,24.576356 47.100175,24.529481 47.084545,24.459169 Z"
     id="path40"
     style="fill:black;fill-opacity:1" />
  <path
     d="M 49.072271,26.127661 L 49.552741,29.201861 L 49.115241,29.272174 L 48.634771,26.197974 L 49.072271,26.127661 M 48.634771,26.197974 C 48.615239,26.076884 48.697271,25.963594 48.818361,25.944064 C 48.939451,25.924533 49.052731,26.006564 49.072271,26.127654 L 49.552741,29.201854 C 49.572273,29.322944 49.490241,29.436234 49.369151,29.455764 C 49.248061,29.475295 49.134771,29.393264 49.115241,29.272174 Z"
     id="path41"
     style="fill:black;fill-opacity:1" />
  <path
     d="M 49.146271,27.845661 L 50.904071,27.626911 C 51.025161,27.611286 51.134541,27.697224 51.150161,27.818321 C 51.165786,27.939411 51.079848,28.048791 50.958751,28.064411 L 49.200951,28.283161 C 49.079861,28.298786 48.966571,28.212849 48.954861,28.091751 C 48.939236,27.970661 49.025174,27.861281 49.146271,27.845661 Z"
     id="path42"
     style="fill:black;fill-opacity:1" />
  <path
     d="M 50.396271,27.884661 L 50.626741,29.650261 C 50.642366,29.771351 50.556429,29.884641 50.435331,29.900261 C 50.314233,29.915881 50.204861,29.829948 50.189241,29.708851 L 49.958771,27.939351 C 49.943147,27.818261 50.025178,27.708881 50.146271,27.693261 C 50.267361,27.677637 50.380651,27.763574 50.396271,27.884671 Z"
     id="path43"
     style="fill:black;fill-opacity:1" />
  <path
     d="M 50.693271,27.998661 L 50.798741,29.287761 C 50.806554,29.408851 50.71671,29.518231 50.595621,29.526041 C 50.474531,29.537759 50.365151,29.447916 50.357341,29.322921 L 50.251871,28.033821 C 50.240152,27.912731 50.329996,27.807261 50.454991,27.795541 C 50.576081,27.783822 50.681551,27.877572 50.693271,27.998661 Z"
     id="path44"
     style="fill:black;fill-opacity:1" />
  <path
     d="M 50.963271,27.943661 L 51.057021,28.896791 C 51.072646,29.017881 50.982802,29.127261 50.861711,29.138981 C 50.74062,29.150701 50.631241,29.060856 50.619521,28.939761 L 50.525771,27.986641 C 50.514052,27.865551 50.59999,27.756171 50.721081,27.744451 C 50.846081,27.732732 50.951551,27.822576 50.963271,27.943671 Z"
     id="path45"
     style="fill:black;fill-opacity:1" />
  <path
     d="M 51.244271,27.908661 L 51.322396,28.689911 C 51.334114,28.811001 51.244271,28.920381 51.123176,28.932101 C 51.002086,28.943819 50.892706,28.853976 50.880986,28.732881 L 50.80286,27.951631 C 50.791142,27.830541 50.880986,27.725071 51.00208,27.709441 C 51.12317,27.697722 51.23255,27.787565 51.244271,27.908661 Z"
     id="path46"
     style="fill:black;fill-opacity:1" />
  <path
     d="M 49.435271,28.959661 L 50.208711,28.803411 C 50.325901,28.779973 50.443091,28.858098 50.466521,28.979191 C 50.493865,29.096381 50.41574,29.213571 50.294641,29.237001 L 49.521201,29.393251 C 49.404011,29.416689 49.286831,29.338564 49.263391,29.221371 C 49.239953,29.100281 49.314172,28.983091 49.435271,28.959651 Z"
     id="path47"
     style="fill:black;fill-opacity:1" />
  <path
     d="M 49.810271,29.076661 L 50.345431,29.221191 C 50.462621,29.252441 50.532931,29.373531 50.501681,29.490721 C 50.470431,29.607911 50.349341,29.678221 50.232151,29.646971 L 49.696991,29.506341 C 49.579801,29.475091 49.509491,29.354001 49.540741,29.232901 C 49.571991,29.115711 49.693081,29.045401 49.810271,29.076651 Z"
     id="path48"
     style="fill:black;fill-opacity:1" />
  <path
     d="M 49.056271,27.935661 C 48.935181,27.349721 48.782831,26.634861 48.810181,26.337961 C 48.810181,26.341867 48.814087,26.025461 49.099241,25.916081 C 49.122678,25.908268 49.150022,25.900456 49.177365,25.89655 C 49.423455,25.853581 49.591425,26.03717 49.599245,26.04889 C 49.810185,26.25592 50.153935,26.90045 50.435185,27.41999 C 50.540655,27.6114 50.470341,27.85358 50.275025,27.95905 C 50.083615,28.06452 49.841435,27.994206 49.735965,27.79889 C 49.407845,27.19733 49.138305,26.71689 49.036745,26.61529 C 48.985963,26.564508 49.103151,26.72076 49.314085,26.681696 C 49.337523,26.67779 49.36096,26.673883 49.384398,26.666071 C 49.630488,26.568414 49.614868,26.310601 49.607058,26.408261 C 49.591433,26.552791 49.700808,27.095761 49.841438,27.771561 C 49.884407,27.990311 49.743782,28.201251 49.528938,28.244221 C 49.314098,28.291096 49.099248,28.150471 49.056278,27.935631 Z"
     id="path49"
     style="fill:black;fill-opacity:1" />
  <path
     d="M 50.428271,26.392661 L 51.518071,28.259861 C 51.631351,28.451271 51.564946,28.697361 51.373541,28.806741 C 51.182131,28.920021 50.939951,28.853616 50.826661,28.662211 L 49.736861,26.795011 C 49.623581,26.603601 49.689986,26.357511 49.881391,26.248131 C 50.072801,26.134851 50.314981,26.201256 50.428261,26.392661 Z"
     id="path50"
     style="fill:black;fill-opacity:1" />
  <path
     d="M 50.599271,26.513661 H 50.607083 C 51.618783,26.443348 52.591483,26.373041 53.599283,26.111321 C 54.614883,25.845701 55.677383,25.380851 56.778983,24.896521 C 56.978203,24.806677 57.216483,24.900427 57.302423,25.103551 C 57.392267,25.302771 57.302423,25.541051 57.099303,25.626991 C 56.013403,26.107461 54.888403,26.599651 53.802403,26.884791 C 52.708603,27.169951 51.665703,27.240261 50.661803,27.310571 H 50.657896 C 50.435236,27.326196 50.243836,27.158231 50.228206,26.939481 C 50.212576,26.720731 50.380546,26.529321 50.599296,26.513701 Z"
     id="path51"
     style="fill:black;fill-opacity:1" />
  <path
     d="M 51.412271,26.959661 L 52.197431,28.436261 C 52.298991,28.631571 52.224775,28.873761 52.029461,28.975321 C 51.838051,29.080791 51.595871,29.006571 51.490401,28.811261 L 50.705241,27.334661 C 50.599771,27.143251 50.673991,26.901071 50.869301,26.795601 C 51.064611,26.690131 51.306801,26.764351 51.412271,26.959661 Z"
     id="path52"
     style="fill:black;fill-opacity:1" />
  <path
     d="M 51.904271,26.779661 L 52.814431,28.443761 C 52.919901,28.639071 52.849588,28.881261 52.658181,28.986731 C 52.462871,29.092201 52.220681,29.021888 52.115211,28.826571 L 51.201151,27.166371 C 51.095681,26.971061 51.165995,26.728871 51.361311,26.623401 C 51.556621,26.517931 51.798811,26.588245 51.904281,26.779651 Z"
     id="path53"
     style="fill:black;fill-opacity:1" />
  <path
     d="M 52.541271,26.799661 L 53.345961,28.483261 C 53.439711,28.682481 53.35768,28.924671 53.158461,29.018421 C 52.959242,29.112171 52.720961,29.03014 52.623301,28.830921 L 51.818611,27.147321 C 51.720954,26.948101 51.806892,26.709821 52.006111,26.612161 C 52.205331,26.518411 52.443611,26.600442 52.541271,26.799661 Z"
     id="path54"
     style="fill:black;fill-opacity:1" />
  <path
     d="M 52.904271,26.763661 L 53.845681,28.544861 C 53.951151,28.740171 53.876931,28.982361 53.681621,29.087831 C 53.486311,29.189391 53.244121,29.115175 53.138651,28.919861 L 52.197241,27.138661 C 52.095681,26.943351 52.169897,26.701161 52.365211,26.595691 C 52.560521,26.494131 52.802711,26.568347 52.904271,26.763661 Z"
     id="path55"
     style="fill:black;fill-opacity:1" />
  <path
     d="M 52.916271,26.697661 L 53.810801,28.213261 C 53.924081,28.400761 53.857676,28.646851 53.670181,28.760141 C 53.478771,28.873421 53.232681,28.810922 53.123301,28.619521 L 52.228771,27.103921 C 52.115491,26.916421 52.177989,26.670331 52.369391,26.557041 C 52.556891,26.443761 52.802981,26.510166 52.916271,26.697661 Z"
     id="path56"
     style="fill:black;fill-opacity:1" />
  <path
     d="M 53.150271,27.131661 C 53.431521,27.299631 53.638551,27.455881 54.294771,27.217599 C 54.661961,27.084789 55.154151,26.830879 55.728371,26.498849 C 56.306491,26.166819 56.943171,25.768379 57.591671,25.366049 C 57.779171,25.248859 58.025261,25.307455 58.142451,25.494959 C 58.259641,25.682459 58.201045,25.928549 58.013541,26.045739 C 57.369011,26.444179 56.720541,26.850429 56.126841,27.190239 C 55.548721,27.526179 55.005741,27.811329 54.568241,27.971489 C 53.603401,28.319149 53.134641,28.057427 52.732341,27.811329 C 52.544841,27.694139 52.486251,27.448049 52.603431,27.260549 C 52.716711,27.073049 52.962811,27.014459 53.150311,27.131639 Z"
     id="path57"
     style="fill:black;fill-opacity:1" />
  <path
     d="M 54.470339,24.205424 L 59.134439,22.525724 C 59.345379,22.451505 59.571939,22.56088 59.646159,22.767914 C 59.724284,22.974944 59.614909,23.205414 59.407879,23.279634 L 54.739879,24.959334 C 54.532849,25.033552 54.302379,24.924178 54.228159,24.717144 C 54.153941,24.510114 54.263316,24.279644 54.470349,24.205424 Z"
     id="path58"
     style="fill:black;fill-opacity:1" />
  <path
     d="M 55.853271,26.877661 L 58.001671,25.944071 C 58.200891,25.854228 58.439171,25.947978 58.525111,26.151101 C 58.614954,26.354221 58.521204,26.588601 58.318081,26.674541 L 56.169681,27.612041 C 55.970461,27.701885 55.732181,27.608135 55.646241,27.405011 C 55.556398,27.201891 55.650148,26.967511 55.853271,26.877671 Z"
     id="path59"
     style="fill:black;fill-opacity:1" />
  <path
     d="M 57.170271,26.912661 C 57.291361,27.096251 57.240583,27.346251 57.056991,27.467351 C 56.869491,27.588441 56.623401,27.537663 56.502301,27.350161 C 56.381211,27.166571 56.431989,26.920471 56.615581,26.799381 C 56.799171,26.678291 57.049171,26.729069 57.170271,26.912661 Z"
     id="path60"
     style="fill:black;fill-opacity:1" />
  <path
     d="M 56.314271,25.826661 L 57.462671,25.014161 C 57.548608,24.955567 57.669701,24.975098 57.732201,25.061036 C 57.794701,25.15088 57.771263,25.268066 57.685326,25.330566 L 56.536926,26.143066 C 56.447082,26.20166 56.329896,26.182129 56.267396,26.096191 C 56.204896,26.006347 56.224428,25.885251 56.314271,25.826661 Z"
     id="path61"
     style="fill:black;fill-opacity:1" />
</svg>
