<?xml version="1.0" encoding="UTF-8" standalone="no"?>
<svg
   version="1.1"
   x="0px"
   y="0px"
   viewBox="0 0 100 100"
   enable-background="new 0 0 100 100"
   xml:space="preserve"
   id="svg2"
   sodipodi:docname="noun-reading-200721.svg"
   width="100"
   height="100"
   inkscape:version="1.3.2 (091e20e, 2023-11-25)"
   xmlns:inkscape="http://www.inkscape.org/namespaces/inkscape"
   xmlns:sodipodi="http://sodipodi.sourceforge.net/DTD/sodipodi-0.dtd"
   xmlns="http://www.w3.org/2000/svg"
   xmlns:svg="http://www.w3.org/2000/svg"><defs
     id="defs2" /><sodipodi:namedview
     id="namedview2"
     pagecolor="#ffffff"
     bordercolor="#666666"
     borderopacity="1.0"
     inkscape:showpageshadow="2"
     inkscape:pageopacity="0.0"
     inkscape:pagecheckerboard="0"
     inkscape:deskcolor="#d1d1d1"
     inkscape:zoom="1.888"
     inkscape:cx="48.728814"
     inkscape:cy="62.5"
     inkscape:window-width="1224"
     inkscape:window-height="412"
     inkscape:window-x="217"
     inkscape:window-y="25"
     inkscape:window-maximized="0"
     inkscape:current-layer="svg2" /><circle
     cx="12.394001"
     cy="57.118141"
     r="7.3940582"
     id="circle1" /><path
     d="M 91.214172,58.864868 H 80.301697 L 63.879334,45.462646 C 62.593567,44.342712 60.663269,44.203796 59.21283,45.235779 L 47.48938,53.569641 L 36.28894,53.569885 L 39.129272,50.909729 C 39.304321,50.767578 39.469116,50.607849 39.620911,50.43042 C 40.976685,48.846069 40.791199,46.462463 39.206848,45.10675 L 28.666687,36.107788 C 27.082275,34.752075 24.69873,34.9375 23.343018,36.521851 C 23.035278,36.88147 22.817566,37.285339 22.666992,37.705994 L 11.85437,33.563477 L 10.743347,36.46344 L 23.190857,41.2323 C 23.35498,41.451904 23.539978,41.65979 23.757019,41.84552 L 31.096497,48.111755 L 24.179016,54.590393 C 23.5224,55.204651 22.67511,61.594849 22.67511,62.650696 C 22.67511,64.741516 24.370056,66.436524 26.460876,66.436524 H 91.214172 C 93.305054,66.436523 95,64.741516 95,62.650696 C 95,60.559815 93.305054,58.864868 91.214172,58.864868 Z M 53.072082,58.864868 L 61.244812,53.055054 L 68.363953,58.864868 Z"
     id="path1" /></svg>
