<?xml version="1.0" encoding="UTF-8" standalone="no"?>
<svg
   data-name="Layer 1"
   viewBox="0 0 64 64"
   x="0px"
   y="0px"
   version="1.1"
   id="svg14"
   sodipodi:docname="noun-timelapse-6612263.svg"
   width="64"
   height="64"
   inkscape:version="1.3.2 (091e20e, 2023-11-25)"
   xmlns:inkscape="http://www.inkscape.org/namespaces/inkscape"
   xmlns:sodipodi="http://sodipodi.sourceforge.net/DTD/sodipodi-0.dtd"
   xmlns="http://www.w3.org/2000/svg"
   xmlns:svg="http://www.w3.org/2000/svg">
  <defs
     id="defs14" />
  <sodipodi:namedview
     id="namedview14"
     pagecolor="#ffffff"
     bordercolor="#666666"
     borderopacity="1.0"
     inkscape:showpageshadow="2"
     inkscape:pageopacity="0.0"
     inkscape:pagecheckerboard="0"
     inkscape:deskcolor="#d1d1d1"
     inkscape:zoom="2.95"
     inkscape:cx="31.864407"
     inkscape:cy="40"
     inkscape:window-width="1224"
     inkscape:window-height="412"
     inkscape:window-x="217"
     inkscape:window-y="25"
     inkscape:window-maximized="0"
     inkscape:current-layer="svg14" />
  <path
     d="M 57.737,18.589 C 57.239,18.828 57.029,19.425 57.268,19.923 C 59.08,23.696 59.999,27.759 59.999,32 C 59.999,47.439 47.438,60 31.999,60 C 24.516,60 17.482,57.089 12.196,51.803 C 9.934,49.542 8.096,46.944 6.73,44.077 C 4.918,40.304 3.999,36.241 3.999,32 C 3.999,16.561 16.56,4 31.999,4 C 38.833,4 45.287,6.435 50.387,10.886 L 46.801,11.393 C 46.254,11.471 45.873,11.976 45.95,12.523 C 46.02,13.023 46.449,13.383 46.939,13.383 C 46.985,13.383 47.033,13.38 47.08,13.373 L 52.74,12.572 C 52.785,12.566 52.82,12.541 52.862,12.529 C 52.916,12.514 52.968,12.498 53.02,12.473 C 53.093,12.438 53.157,12.396 53.219,12.346 C 53.243,12.327 53.272,12.319 53.294,12.298 C 53.31,12.283 53.315,12.262 53.33,12.246 C 53.384,12.187 53.425,12.122 53.464,12.051 C 53.489,12.004 53.515,11.96 53.532,11.911 C 53.556,11.845 53.566,11.777 53.575,11.706 C 53.583,11.644 53.589,11.586 53.586,11.524 C 53.584,11.496 53.595,11.47 53.591,11.442 L 52.79,5.782 C 52.713,5.236 52.207,4.854 51.66,4.932 C 51.113,5.01 50.732,5.515 50.809,6.062 L 51.22,8.963 C 45.837,4.457 39.109,1.999 31.999,1.999 C 15.458,2 2,15.458 2,32 C 2,36.542 2.985,40.897 4.928,44.94 C 6.39,48.01 8.361,50.795 10.783,53.217 C 16.447,58.881 23.982,62 32,62 C 48.542,62 62,48.542 62,32 C 62,27.458 61.015,23.103 59.071,19.057 C 58.832,18.56 58.237,18.349 57.737,18.589 Z"
     id="path1" />
  <path
     d="M 32,11.732 C 32.553,11.732 33,11.284 33,10.732 V 9.153 C 33,8.601 32.553,8.153 32,8.153 C 31.447,8.153 31,8.601 31,9.153 V 10.732 C 31,11.284 31.447,11.732 32,11.732 Z"
     id="path2" />
  <path
     d="M 31,53.268 V 54.847 C 31,55.399 31.447,55.847 32,55.847 C 32.553,55.847 33,55.399 33,54.847 V 53.268 C 33,52.716 32.553,52.268 32,52.268 C 31.447,52.268 31,52.716 31,53.268 Z"
     id="path3" />
  <path
     d="M 54.847,33 C 55.4,33 55.847,32.552 55.847,32 C 55.847,31.448 55.4,31 54.847,31 H 53.269 C 52.716,31 52.269,31.448 52.269,32 C 52.269,32.552 52.716,33 53.269,33 Z"
     id="path4" />
  <path
     d="M 11.731,32 C 11.731,31.448 11.284,31 10.731,31 H 9.153 C 8.6,31 8.153,31.448 8.153,32 C 8.153,32.552 8.6,33 9.153,33 H 10.731 C 11.284,33 11.731,32.552 11.731,32 Z"
     id="path5" />
  <path
     d="M 22.063,49.666 C 21.584,49.395 20.972,49.565 20.702,50.047 L 19.928,51.422 C 19.657,51.903 19.827,52.513 20.309,52.784 C 20.463,52.871 20.632,52.912 20.798,52.912 C 21.148,52.912 21.486,52.729 21.67,52.403 L 22.444,51.028 C 22.715,50.547 22.545,49.937 22.063,49.666 Z"
     id="path6" />
  <path
     d="M 50.047,43.298 L 51.423,44.072 C 51.578,44.159 51.746,44.2 51.912,44.2 C 52.262,44.2 52.601,44.016 52.785,43.69 C 53.056,43.209 52.885,42.599 52.403,42.328 L 51.027,41.554 C 50.545,41.282 49.935,41.454 49.665,41.935 C 49.395,42.416 49.565,43.026 50.047,43.297 Z"
     id="path7" />
  <path
     d="M 13.953,20.702 L 12.577,19.928 C 12.095,19.656 11.485,19.828 11.215,20.309 C 10.945,20.79 11.115,21.4 11.597,21.671 L 12.973,22.445 C 13.128,22.532 13.296,22.573 13.462,22.573 C 13.812,22.573 14.151,22.389 14.335,22.063 C 14.606,21.582 14.435,20.972 13.953,20.701 Z"
     id="path8" />
  <path
     d="M 22.444,12.972 L 21.67,11.597 C 21.399,11.117 20.788,10.946 20.309,11.216 C 19.828,11.487 19.657,12.097 19.928,12.578 L 20.702,13.953 C 20.886,14.279 21.224,14.462 21.574,14.462 C 21.74,14.462 21.909,14.42 22.063,14.334 C 22.544,14.063 22.715,13.453 22.444,12.972 Z"
     id="path9" />
  <path
     d="M 41.937,49.666 C 41.456,49.937 41.285,50.547 41.556,51.028 L 42.33,52.403 C 42.514,52.729 42.852,52.912 43.202,52.912 C 43.368,52.912 43.537,52.87 43.691,52.784 C 44.172,52.513 44.343,51.903 44.072,51.422 L 43.298,50.047 C 43.027,49.566 42.416,49.396 41.937,49.666 Z"
     id="path10" />
  <path
     d="M 12.088,44.201 C 12.254,44.201 12.422,44.16 12.577,44.073 L 13.953,43.299 C 14.434,43.028 14.605,42.419 14.335,41.937 C 14.064,41.456 13.456,41.284 12.973,41.556 L 11.597,42.33 C 11.116,42.601 10.945,43.21 11.215,43.692 C 11.399,44.018 11.738,44.202 12.088,44.202 Z"
     id="path11" />
  <path
     d="M 50.538,22.573 C 50.704,22.573 50.872,22.532 51.027,22.445 L 52.403,21.671 C 52.884,21.4 53.055,20.791 52.785,20.309 C 52.514,19.828 51.904,19.656 51.423,19.928 L 50.047,20.702 C 49.566,20.973 49.395,21.582 49.665,22.064 C 49.849,22.39 50.188,22.574 50.538,22.574 Z"
     id="path12" />
  <path
     d="M 38.414,43.814 C 38.588,43.814 38.763,43.769 38.923,43.674 C 39.399,43.392 39.555,42.778 39.274,42.303 L 33.001,31.724 V 16.246 C 33.001,15.694 32.554,15.246 32.001,15.246 C 31.448,15.246 31.001,15.694 31.001,16.246 V 31.999 C 31.001,32.022 31.012,32.041 31.014,32.064 C 31.018,32.131 31.036,32.194 31.054,32.26 C 31.072,32.325 31.089,32.388 31.119,32.447 C 31.129,32.467 31.129,32.49 31.141,32.51 L 37.554,43.324 C 37.742,43.639 38.074,43.814 38.415,43.814 Z"
     id="path13" />
</svg>
